<svg width="3440" height="2410" viewBox="0 0 3440 2410" fill="none" xmlns="http://www.w3.org/2000/svg">
<g clip-path="url(#clip0_606_20160)">
<rect width="3440" height="2410" fill="url(#paint0_linear_606_20160)"/>
<g filter="url(#filter0_f_606_20160)">
<rect x="2435" y="752" width="590" height="1766" rx="48" fill="url(#paint1_radial_606_20160)" fill-opacity="0.25"/>
</g>
<g clip-path="url(#clip1_606_20160)">
<rect width="1440" height="1756" transform="translate(1540 728)" fill="white"/>
<rect x="1540" y="728" width="1440" height="130" fill="#8A8A8A"/>
<rect x="1590" y="762" width="61" height="61" fill="white"/>
<rect x="2208" y="781" width="103" height="24" rx="12" fill="#BCBCBC"/>
<rect x="1747" y="922" width="217" height="24" rx="12" fill="#BCBCBC"/>
<rect x="1747" y="1728" width="217" height="24" rx="12" fill="#BCBCBC"/>
<rect x="2456" y="1199" width="317" height="24" rx="12" fill="#BCBCBC"/>
<rect x="2456" y="1293" width="317" height="13" rx="6.5" fill="#D9D9D9"/>
<rect x="2456" y="1347" width="317" height="13" rx="6.5" fill="#D9D9D9"/>
<rect x="2456" y="1401" width="192" height="13" rx="6.5" fill="#D9D9D9"/>
<rect x="2456" y="1320" width="317" height="13" rx="6.5" fill="#D9D9D9"/>
<rect x="2456" y="1374" width="317" height="13" rx="6.5" fill="#D9D9D9"/>
<rect x="2456" y="1237" width="206" height="24" rx="12" fill="#BCBCBC"/>
<rect x="2335" y="781" width="103" height="24" rx="12" fill="#BCBCBC"/>
<rect x="2462" y="781" width="103" height="24" rx="12" fill="#BCBCBC"/>
<rect x="2589" y="781" width="103" height="24" rx="12" fill="#BCBCBC"/>
<rect x="2716" y="781" width="103" height="24" rx="12" fill="white"/>
<rect x="1747" y="1800" width="232" height="324" fill="#D9D9D9"/>
<rect x="2011" y="1800" width="232" height="324" fill="#D9D9D9"/>
<rect x="2275" y="1800" width="232" height="324" fill="#D9D9D9"/>
<rect x="2539" y="1800" width="232" height="324" fill="#D9D9D9"/>
<rect x="1763" y="1816" width="200" height="200" fill="#8A8A8A"/>
<rect x="2027" y="1816" width="200" height="200" fill="#8A8A8A"/>
<rect x="2291" y="1816" width="200" height="200" fill="#8A8A8A"/>
<rect x="2555" y="1816" width="200" height="200" fill="#8A8A8A"/>
<rect x="1763" y="2024" width="144" height="18" rx="9" fill="#BCBCBC"/>
<rect x="2027" y="2024" width="144" height="18" rx="9" fill="#BCBCBC"/>
<rect x="2291" y="2024" width="144" height="18" rx="9" fill="#BCBCBC"/>
<rect x="2555" y="2024" width="144" height="18" rx="9" fill="#BCBCBC"/>
<rect x="1763" y="2050" width="62" height="18" rx="9" fill="#BCBCBC"/>
<rect x="2027" y="2050" width="62" height="18" rx="9" fill="#BCBCBC"/>
<rect x="2291" y="2050" width="62" height="18" rx="9" fill="#BCBCBC"/>
<rect x="2555" y="2050" width="62" height="18" rx="9" fill="#BCBCBC"/>
<rect x="1763" y="2076" width="200" height="32" rx="16" fill="white"/>
<rect x="2027" y="2076" width="200" height="32" rx="16" fill="white"/>
<rect x="2291" y="2076" width="200" height="32" rx="16" fill="white"/>
<rect x="2555" y="2076" width="200" height="32" rx="16" fill="white"/>
<rect x="2456" y="1454" width="317" height="32" rx="16" fill="#8A8A8A"/>
<rect x="1747" y="994" width="328" height="60" rx="8" fill="#D9D9D9"/>
<rect x="1747" y="1075" width="328" height="60" rx="8" fill="#D9D9D9"/>
<rect x="2096" y="994" width="328" height="60" rx="8" fill="#D9D9D9"/>
<rect x="2096" y="1075" width="328" height="60" rx="8" fill="#D9D9D9"/>
<rect x="2445" y="994" width="328" height="60" rx="8" fill="#D9D9D9"/>
<rect x="2445" y="1075" width="328" height="60" rx="8" fill="#D9D9D9"/>
<rect x="1540" y="2284" width="1440" height="200" fill="#D9D9D9"/>
<rect x="1747" y="1199" width="677" height="318" fill="#D9D9D9"/>
<rect x="1747" y="1541" width="123" height="123" fill="#D9D9D9"/>
<rect x="1885" y="1541" width="123" height="123" fill="#D9D9D9"/>
<rect x="2023" y="1541" width="123" height="123" fill="#D9D9D9"/>
<rect x="2161" y="1541" width="123" height="123" fill="#D9D9D9"/>
<rect x="2299" y="1541" width="123" height="123" fill="#D9D9D9"/>
</g>
<g filter="url(#filter1_f_606_20160)">
<rect x="1358" y="324" width="590" height="2305" rx="48" fill="url(#paint2_radial_606_20160)" fill-opacity="0.25"/>
</g>
<g clip-path="url(#clip2_606_20160)">
<rect width="1440" height="2759" transform="translate(460 300)" fill="white"/>
<rect x="460" y="300" width="1440" height="768" fill="#BCBCBC"/>
<rect x="460" y="300" width="1440" height="130" fill="#8A8A8A"/>
<rect x="510" y="334" width="61" height="61" fill="white"/>
<rect x="1128" y="353" width="103" height="24" rx="12" fill="#BCBCBC"/>
<rect x="667" y="1108" width="217" height="24" rx="12" fill="#BCBCBC"/>
<rect x="667" y="1670" width="217" height="24" rx="12" fill="#BCBCBC"/>
<rect x="667" y="1939" width="217" height="24" rx="12" fill="#BCBCBC"/>
<rect x="1255" y="353" width="103" height="24" rx="12" fill="#BCBCBC"/>
<rect x="1382" y="353" width="103" height="24" rx="12" fill="#BCBCBC"/>
<rect x="1509" y="353" width="103" height="24" rx="12" fill="#BCBCBC"/>
<rect x="1636" y="353" width="103" height="24" rx="12" fill="white"/>
<rect x="667" y="1180" width="1026" height="426" fill="#D9D9D9"/>
<rect x="667" y="1180" width="304" height="426" fill="#8A8A8A"/>
<rect x="995" y="1180" width="304" height="426" fill="#8A8A8A"/>
<rect x="1323" y="1180" width="304" height="426" fill="#8A8A8A"/>
<rect x="1651" y="1180" width="42" height="426" fill="#8A8A8A"/>
<rect x="667" y="2003" width="232" height="324" fill="#D9D9D9"/>
<rect x="667" y="2375" width="232" height="324" fill="#D9D9D9"/>
<rect x="931" y="2003" width="232" height="324" fill="#D9D9D9"/>
<rect x="931" y="2375" width="232" height="324" fill="#D9D9D9"/>
<rect x="1195" y="2003" width="232" height="324" fill="#D9D9D9"/>
<rect x="1195" y="2375" width="232" height="324" fill="#D9D9D9"/>
<rect x="1459" y="2003" width="232" height="324" fill="#D9D9D9"/>
<rect x="1459" y="2375" width="232" height="324" fill="#D9D9D9"/>
<rect x="683" y="2019" width="200" height="200" fill="#8A8A8A"/>
<rect x="683" y="2391" width="200" height="200" fill="#8A8A8A"/>
<rect x="947" y="2019" width="200" height="200" fill="#8A8A8A"/>
<rect x="947" y="2391" width="200" height="200" fill="#8A8A8A"/>
<rect x="1211" y="2019" width="200" height="200" fill="#8A8A8A"/>
<rect x="1211" y="2391" width="200" height="200" fill="#8A8A8A"/>
<rect x="1475" y="2019" width="200" height="200" fill="#8A8A8A"/>
<rect x="1475" y="2391" width="200" height="200" fill="#8A8A8A"/>
<rect x="683" y="2227" width="144" height="18" rx="9" fill="#BCBCBC"/>
<rect x="947" y="2227" width="144" height="18" rx="9" fill="#BCBCBC"/>
<rect x="1211" y="2227" width="144" height="18" rx="9" fill="#BCBCBC"/>
<rect x="1475" y="2227" width="144" height="18" rx="9" fill="#BCBCBC"/>
<rect x="683" y="2253" width="62" height="18" rx="9" fill="#BCBCBC"/>
<rect x="947" y="2253" width="62" height="18" rx="9" fill="#BCBCBC"/>
<rect x="1211" y="2253" width="62" height="18" rx="9" fill="#BCBCBC"/>
<rect x="1475" y="2253" width="62" height="18" rx="9" fill="#BCBCBC"/>
<rect x="683" y="2279" width="200" height="32" rx="16" fill="white"/>
<rect x="947" y="2279" width="200" height="32" rx="16" fill="white"/>
<rect x="1211" y="2279" width="200" height="32" rx="16" fill="white"/>
<rect x="1475" y="2279" width="200" height="32" rx="16" fill="white"/>
<rect x="667" y="1734" width="328" height="60" rx="8" fill="#D9D9D9"/>
<rect x="667" y="1815" width="328" height="60" rx="8" fill="#D9D9D9"/>
<rect x="1016" y="1734" width="328" height="60" rx="8" fill="#D9D9D9"/>
<rect x="1016" y="1815" width="328" height="60" rx="8" fill="#D9D9D9"/>
<rect x="1365" y="1734" width="328" height="60" rx="8" fill="#D9D9D9"/>
<rect x="1365" y="1815" width="328" height="60" rx="8" fill="#D9D9D9"/>
</g>
</g>
<defs>
<filter id="filter0_f_606_20160" x="2371" y="688" width="718" height="1894" filterUnits="userSpaceOnUse" color-interpolation-filters="sRGB">
<feFlood flood-opacity="0" result="BackgroundImageFix"/>
<feBlend mode="normal" in="SourceGraphic" in2="BackgroundImageFix" result="shape"/>
<feGaussianBlur stdDeviation="32" result="effect1_foregroundBlur_606_20160"/>
</filter>
<filter id="filter1_f_606_20160" x="1294" y="260" width="718" height="2433" filterUnits="userSpaceOnUse" color-interpolation-filters="sRGB">
<feFlood flood-opacity="0" result="BackgroundImageFix"/>
<feBlend mode="normal" in="SourceGraphic" in2="BackgroundImageFix" result="shape"/>
<feGaussianBlur stdDeviation="32" result="effect1_foregroundBlur_606_20160"/>
</filter>
<linearGradient id="paint0_linear_606_20160" x1="4.10201e-06" y1="1205" x2="4599.74" y2="1458.4" gradientUnits="userSpaceOnUse">
<stop stop-color="#7F6921"/>
<stop offset="1" stop-color="#D4AF37"/>
</linearGradient>
<radialGradient id="paint1_radial_606_20160" cx="0" cy="0" r="1" gradientUnits="userSpaceOnUse" gradientTransform="translate(2730 1635) rotate(-90.0271) scale(1216.77 620.75)">
<stop/>
<stop offset="1" stop-opacity="0"/>
</radialGradient>
<radialGradient id="paint2_radial_606_20160" cx="0" cy="0" r="1" gradientUnits="userSpaceOnUse" gradientTransform="translate(1653 1476.5) rotate(-90.0207) scale(1588.13 620.75)">
<stop/>
<stop offset="1" stop-opacity="0"/>
</radialGradient>
<clipPath id="clip0_606_20160">
<rect width="3440" height="2410" fill="white"/>
</clipPath>
<clipPath id="clip1_606_20160">
<rect width="1440" height="1756" fill="white" transform="translate(1540 728)"/>
</clipPath>
<clipPath id="clip2_606_20160">
<rect width="1440" height="2759" fill="white" transform="translate(460 300)"/>
</clipPath>
</defs>
</svg>
