<svg width="3440" height="2410" fill="none" xmlns="http://www.w3.org/2000/svg"><g clip-path="url(#a)"><path fill="url(#b)" d="M0 0h3440v2410H0z"/><g filter="url(#c)"><rect x="2435" y="752" width="590" height="1766" rx="48" fill="url(#d)" fill-opacity=".25"/></g><g clip-path="url(#e)"><path fill="#fff" d="M1540 728h1440v1756H1540z"/><path fill="#8A8A8A" d="M1540 728h1440v130H1540z"/><path fill="#fff" d="M1590 762h61v61h-61z"/><rect x="2208" y="781" width="103" height="24" rx="12" fill="#BCBCBC"/><rect x="1747" y="922" width="217" height="24" rx="12" fill="#BCBCBC"/><rect x="1747" y="1728" width="217" height="24" rx="12" fill="#BCBCBC"/><rect x="2456" y="1199" width="317" height="24" rx="12" fill="#BCBCBC"/><rect x="2456" y="1293" width="317" height="13" rx="6.5" fill="#D9D9D9"/><rect x="2456" y="1347" width="317" height="13" rx="6.5" fill="#D9D9D9"/><rect x="2456" y="1401" width="192" height="13" rx="6.5" fill="#D9D9D9"/><rect x="2456" y="1320" width="317" height="13" rx="6.5" fill="#D9D9D9"/><rect x="2456" y="1374" width="317" height="13" rx="6.5" fill="#D9D9D9"/><rect x="2456" y="1237" width="206" height="24" rx="12" fill="#BCBCBC"/><rect x="2335" y="781" width="103" height="24" rx="12" fill="#BCBCBC"/><rect x="2462" y="781" width="103" height="24" rx="12" fill="#BCBCBC"/><rect x="2589" y="781" width="103" height="24" rx="12" fill="#BCBCBC"/><rect x="2716" y="781" width="103" height="24" rx="12" fill="#fff"/><path fill="#D9D9D9" d="M1747 1800h232v324h-232zM2011 1800h232v324h-232zM2275 1800h232v324h-232zM2539 1800h232v324h-232z"/><path fill="#8A8A8A" d="M1763 1816h200v200h-200zM2027 1816h200v200h-200zM2291 1816h200v200h-200zM2555 1816h200v200h-200z"/><rect x="1763" y="2024" width="144" height="18" rx="9" fill="#BCBCBC"/><rect x="2027" y="2024" width="144" height="18" rx="9" fill="#BCBCBC"/><rect x="2291" y="2024" width="144" height="18" rx="9" fill="#BCBCBC"/><rect x="2555" y="2024" width="144" height="18" rx="9" fill="#BCBCBC"/><rect x="1763" y="2050" width="62" height="18" rx="9" fill="#BCBCBC"/><rect x="2027" y="2050" width="62" height="18" rx="9" fill="#BCBCBC"/><rect x="2291" y="2050" width="62" height="18" rx="9" fill="#BCBCBC"/><rect x="2555" y="2050" width="62" height="18" rx="9" fill="#BCBCBC"/><rect x="1763" y="2076" width="200" height="32" rx="16" fill="#fff"/><rect x="2027" y="2076" width="200" height="32" rx="16" fill="#fff"/><rect x="2291" y="2076" width="200" height="32" rx="16" fill="#fff"/><rect x="2555" y="2076" width="200" height="32" rx="16" fill="#fff"/><rect x="2456" y="1454" width="317" height="32" rx="16" fill="#8A8A8A"/><rect x="1747" y="994" width="328" height="60" rx="8" fill="#D9D9D9"/><rect x="1747" y="1075" width="328" height="60" rx="8" fill="#D9D9D9"/><rect x="2096" y="994" width="328" height="60" rx="8" fill="#D9D9D9"/><rect x="2096" y="1075" width="328" height="60" rx="8" fill="#D9D9D9"/><rect x="2445" y="994" width="328" height="60" rx="8" fill="#D9D9D9"/><rect x="2445" y="1075" width="328" height="60" rx="8" fill="#D9D9D9"/><path fill="#D9D9D9" d="M1540 2284h1440v200H1540zM1747 1199h677v318h-677zM1747 1541h123v123h-123zM1885 1541h123v123h-123zM2023 1541h123v123h-123zM2161 1541h123v123h-123zM2299 1541h123v123h-123z"/></g><g filter="url(#f)"><rect x="1358" y="324" width="590" height="2305" rx="48" fill="url(#g)" fill-opacity=".25"/></g><g clip-path="url(#h)"><path fill="#fff" d="M460 300h1440v2759H460z"/><path fill="#BCBCBC" d="M460 300h1440v768H460z"/><path fill="#8A8A8A" d="M460 300h1440v130H460z"/><path fill="#fff" d="M510 334h61v61h-61z"/><rect x="1128" y="353" width="103" height="24" rx="12" fill="#BCBCBC"/><rect x="667" y="1108" width="217" height="24" rx="12" fill="#BCBCBC"/><rect x="667" y="1670" width="217" height="24" rx="12" fill="#BCBCBC"/><rect x="667" y="1939" width="217" height="24" rx="12" fill="#BCBCBC"/><rect x="1255" y="353" width="103" height="24" rx="12" fill="#BCBCBC"/><rect x="1382" y="353" width="103" height="24" rx="12" fill="#BCBCBC"/><rect x="1509" y="353" width="103" height="24" rx="12" fill="#BCBCBC"/><rect x="1636" y="353" width="103" height="24" rx="12" fill="#fff"/><path fill="#D9D9D9" d="M667 1180h1026v426H667z"/><path fill="#8A8A8A" d="M667 1180h304v426H667zM995 1180h304v426H995zM1323 1180h304v426h-304zM1651 1180h42v426h-42z"/><path fill="#D9D9D9" d="M667 2003h232v324H667zM667 2375h232v324H667zM931 2003h232v324H931zM931 2375h232v324H931zM1195 2003h232v324h-232zM1195 2375h232v324h-232zM1459 2003h232v324h-232zM1459 2375h232v324h-232z"/><path fill="#8A8A8A" d="M683 2019h200v200H683zM683 2391h200v200H683zM947 2019h200v200H947zM947 2391h200v200H947zM1211 2019h200v200h-200zM1211 2391h200v200h-200zM1475 2019h200v200h-200zM1475 2391h200v200h-200z"/><rect x="683" y="2227" width="144" height="18" rx="9" fill="#BCBCBC"/><rect x="947" y="2227" width="144" height="18" rx="9" fill="#BCBCBC"/><rect x="1211" y="2227" width="144" height="18" rx="9" fill="#BCBCBC"/><rect x="1475" y="2227" width="144" height="18" rx="9" fill="#BCBCBC"/><rect x="683" y="2253" width="62" height="18" rx="9" fill="#BCBCBC"/><rect x="947" y="2253" width="62" height="18" rx="9" fill="#BCBCBC"/><rect x="1211" y="2253" width="62" height="18" rx="9" fill="#BCBCBC"/><rect x="1475" y="2253" width="62" height="18" rx="9" fill="#BCBCBC"/><rect x="683" y="2279" width="200" height="32" rx="16" fill="#fff"/><rect x="947" y="2279" width="200" height="32" rx="16" fill="#fff"/><rect x="1211" y="2279" width="200" height="32" rx="16" fill="#fff"/><rect x="1475" y="2279" width="200" height="32" rx="16" fill="#fff"/><rect x="667" y="1734" width="328" height="60" rx="8" fill="#D9D9D9"/><rect x="667" y="1815" width="328" height="60" rx="8" fill="#D9D9D9"/><rect x="1016" y="1734" width="328" height="60" rx="8" fill="#D9D9D9"/><rect x="1016" y="1815" width="328" height="60" rx="8" fill="#D9D9D9"/><rect x="1365" y="1734" width="328" height="60" rx="8" fill="#D9D9D9"/><rect x="1365" y="1815" width="328" height="60" rx="8" fill="#D9D9D9"/></g></g><defs><clipPath id="a"><path fill="#fff" d="M0 0h3440v2410H0z"/></clipPath><clipPath id="e"><path fill="#fff" transform="translate(1540 728)" d="M0 0h1440v1756H0z"/></clipPath><clipPath id="h"><path fill="#fff" transform="translate(460 300)" d="M0 0h1440v2759H0z"/></clipPath><radialGradient id="d" cx="0" cy="0" r="1" gradientUnits="userSpaceOnUse" gradientTransform="matrix(-.57551 -1216.76986 620.74993 -.2936 2730 1635)"><stop/><stop offset="1" stop-opacity="0"/></radialGradient><radialGradient id="g" cx="0" cy="0" r="1" gradientUnits="userSpaceOnUse" gradientTransform="rotate(-90.021 1564.483 -87.951) scale(1588.13 620.75)"><stop/><stop offset="1" stop-opacity="0"/></radialGradient><filter id="c" x="2371" y="688" width="718" height="1894" filterUnits="userSpaceOnUse" color-interpolation-filters="sRGB"><feFlood flood-opacity="0" result="BackgroundImageFix"/><feBlend in="SourceGraphic" in2="BackgroundImageFix" result="shape"/><feGaussianBlur stdDeviation="32" result="effect1_foregroundBlur_606_20160"/></filter><filter id="f" x="1294" y="260" width="718" height="2433" filterUnits="userSpaceOnUse" color-interpolation-filters="sRGB"><feFlood flood-opacity="0" result="BackgroundImageFix"/><feBlend in="SourceGraphic" in2="BackgroundImageFix" result="shape"/><feGaussianBlur stdDeviation="32" result="effect1_foregroundBlur_606_20160"/></filter><linearGradient id="b" x1="0" y1="1205" x2="4599.74" y2="1458.4" gradientUnits="userSpaceOnUse"><stop stop-color="#7F6921"/><stop offset="1" stop-color="#D4AF37"/></linearGradient></defs></svg>