<svg width="1060" height="353" viewBox="0 0 1060 353" fill="none" xmlns="http://www.w3.org/2000/svg">
<path d="M0 24C0 10.7452 10.7452 0 24 0H353V353H24C10.7452 353 0 342.255 0 329V24Z" fill="#D4AF37"/>
<rect x="353" width="177" height="177" fill="#D8B74B"/>
<rect x="530" width="177" height="177" fill="#DDBF5F"/>
<rect x="707" width="176" height="177" fill="#E1C773"/>
<path d="M883 0H1036C1049.25 0 1060 10.7452 1060 24V177H883V0Z" fill="#E3CB7D"/>
<rect x="353" y="177" width="177" height="176" fill="#BF9E32"/>
<rect x="530" y="177" width="177" height="176" fill="#AA8C2C"/>
<rect x="707" y="177" width="176" height="176" fill="#947B27"/>
<path d="M883 177H1060V329C1060 342.255 1049.25 353 1036 353H883V177Z" fill="#7F6921"/>
<path d="M17.386 33V21.264H21.418C22.702 21.264 23.8 21.54 24.712 22.092C25.624 22.644 26.08 23.628 26.08 25.044C26.08 26.424 25.624 27.432 24.712 28.068C23.8 28.704 22.726 29.022 21.49 29.022H20.032V33H17.386ZM20.032 26.916H21.328C22.768 26.916 23.488 26.292 23.488 25.044C23.488 24.432 23.296 24 22.912 23.748C22.528 23.496 21.976 23.37 21.256 23.37H20.032V26.916ZM29.6927 33V24.072H31.8527L32.0327 25.638H32.1047C32.4287 25.038 32.8187 24.594 33.2747 24.306C33.7307 24.006 34.1867 23.856 34.6427 23.856C34.8947 23.856 35.0987 23.874 35.2547 23.91C35.4227 23.946 35.5727 23.988 35.7047 24.036L35.2727 26.322C35.1167 26.274 34.9607 26.238 34.8047 26.214C34.6607 26.19 34.4927 26.178 34.3007 26.178C33.9647 26.178 33.6107 26.304 33.2387 26.556C32.8787 26.796 32.5787 27.216 32.3387 27.816V33H29.6927ZM39.9785 22.758C39.5345 22.758 39.1685 22.632 38.8805 22.38C38.5925 22.116 38.4485 21.78 38.4485 21.372C38.4485 20.964 38.5925 20.634 38.8805 20.382C39.1685 20.13 39.5345 20.004 39.9785 20.004C40.4345 20.004 40.8005 20.13 41.0765 20.382C41.3645 20.634 41.5085 20.964 41.5085 21.372C41.5085 21.78 41.3645 22.116 41.0765 22.38C40.8005 22.632 40.4345 22.758 39.9785 22.758ZM38.6645 33V24.072H41.3105V33H38.6645ZM45.4391 33V24.072H47.5991L47.7791 25.224H47.8511C48.2231 24.852 48.6191 24.534 49.0391 24.27C49.4591 23.994 49.9631 23.856 50.5511 23.856C51.1871 23.856 51.6971 23.988 52.0811 24.252C52.4771 24.504 52.7891 24.87 53.0171 25.35C53.4131 24.942 53.8271 24.594 54.2591 24.306C54.7031 24.006 55.2251 23.856 55.8251 23.856C56.7851 23.856 57.4871 24.18 57.9311 24.828C58.3871 25.464 58.6151 26.34 58.6151 27.456V33H55.9691V27.798C55.9691 27.15 55.8791 26.706 55.6991 26.466C55.5191 26.226 55.2431 26.106 54.8711 26.106C54.4271 26.106 53.9171 26.394 53.3411 26.97V33H50.6951V27.798C50.6951 27.15 50.6051 26.706 50.4251 26.466C50.2571 26.226 49.9811 26.106 49.5971 26.106C49.1411 26.106 48.6371 26.394 48.0851 26.97V33H45.4391ZM65.8227 31.164C66.1227 31.164 66.3807 31.098 66.5967 30.966C66.8247 30.834 67.0527 30.648 67.2807 30.408V28.842C66.3447 28.974 65.6967 29.166 65.3367 29.418C64.9767 29.67 64.7967 29.97 64.7967 30.318C64.7967 30.882 65.1387 31.164 65.8227 31.164ZM64.9227 33.216C64.1067 33.216 63.4587 32.958 62.9787 32.442C62.4987 31.914 62.2587 31.272 62.2587 30.516C62.2587 29.58 62.6547 28.848 63.4467 28.32C64.2387 27.792 65.5167 27.438 67.2807 27.258C67.2567 26.862 67.1367 26.55 66.9207 26.322C66.7167 26.082 66.3687 25.962 65.8767 25.962C65.5047 25.962 65.1267 26.034 64.7427 26.178C64.3587 26.322 63.9507 26.52 63.5187 26.772L62.5647 25.026C63.1287 24.678 63.7287 24.396 64.3647 24.18C65.0007 23.964 65.6727 23.856 66.3807 23.856C67.5207 23.856 68.3967 24.186 69.0087 24.846C69.6207 25.506 69.9267 26.52 69.9267 27.888V33H67.7667L67.5867 32.082H67.5147C67.1307 32.418 66.7287 32.694 66.3087 32.91C65.8887 33.114 65.4267 33.216 64.9227 33.216ZM73.9649 33V24.072H76.1249L76.3049 25.638H76.3769C76.7009 25.038 77.0909 24.594 77.5469 24.306C78.0029 24.006 78.4589 23.856 78.9149 23.856C79.1669 23.856 79.3709 23.874 79.5269 23.91C79.6949 23.946 79.8449 23.988 79.9769 24.036L79.5449 26.322C79.3889 26.274 79.2329 26.238 79.0769 26.214C78.9329 26.19 78.7649 26.178 78.5729 26.178C78.2369 26.178 77.8829 26.304 77.5109 26.556C77.1509 26.796 76.8509 27.216 76.6109 27.816V33H73.9649ZM84.0498 36.492C83.7858 36.492 83.5518 36.474 83.3478 36.438C83.1558 36.402 82.9698 36.36 82.7898 36.312L83.2578 34.296C83.3418 34.32 83.4378 34.344 83.5458 34.368C83.6538 34.392 83.7558 34.404 83.8518 34.404C84.2958 34.404 84.6378 34.296 84.8778 34.08C85.1178 33.864 85.2978 33.582 85.4178 33.234L85.5438 32.766L82.1058 24.072H84.7698L86.0478 27.906C86.1798 28.314 86.2998 28.728 86.4078 29.148C86.5158 29.568 86.6298 30 86.7498 30.444H86.8218C86.9178 30.024 87.0138 29.604 87.1098 29.184C87.2178 28.752 87.3258 28.326 87.4338 27.906L88.5138 24.072H91.0518L87.9558 33.09C87.5358 34.218 87.0438 35.064 86.4798 35.628C85.9158 36.204 85.1058 36.492 84.0498 36.492ZM102.926 33.216C101.99 33.216 101.192 33.06 100.532 32.748C99.8841 32.436 99.3381 32.058 98.8941 31.614L100.082 29.94C100.43 30.252 100.808 30.522 101.216 30.75C101.624 30.966 102.068 31.074 102.548 31.074C103.136 31.074 103.604 30.924 103.952 30.624C104.3 30.324 104.474 29.88 104.474 29.292C104.474 28.716 104.306 28.278 103.97 27.978C103.634 27.678 103.202 27.528 102.674 27.528C102.338 27.528 102.056 27.57 101.828 27.654C101.612 27.738 101.33 27.888 100.982 28.104L99.7941 27.348L100.118 21.57H106.598V23.802H102.404L102.206 25.944C102.602 25.764 103.028 25.674 103.484 25.674C104.468 25.674 105.32 25.962 106.04 26.538C106.76 27.114 107.12 28.008 107.12 29.22C107.12 30.492 106.7 31.476 105.86 32.172C105.02 32.868 104.042 33.216 102.926 33.216ZM114.542 33.216C113.318 33.216 112.328 32.706 111.572 31.686C110.828 30.666 110.456 29.184 110.456 27.24C110.456 25.296 110.828 23.832 111.572 22.848C112.328 21.852 113.318 21.354 114.542 21.354C115.766 21.354 116.75 21.852 117.494 22.848C118.25 23.832 118.628 25.296 118.628 27.24C118.628 29.184 118.25 30.666 117.494 31.686C116.75 32.706 115.766 33.216 114.542 33.216ZM114.542 31.164C114.998 31.164 115.376 30.9 115.676 30.372C115.976 29.844 116.126 28.8 116.126 27.24C116.126 25.68 115.976 24.654 115.676 24.162C115.376 23.658 114.998 23.406 114.542 23.406C114.098 23.406 113.72 23.658 113.408 24.162C113.108 24.654 112.958 25.68 112.958 27.24C112.958 28.8 113.108 29.844 113.408 30.372C113.72 30.9 114.098 31.164 114.542 31.164ZM125.852 33.216C124.628 33.216 123.638 32.706 122.882 31.686C122.138 30.666 121.766 29.184 121.766 27.24C121.766 25.296 122.138 23.832 122.882 22.848C123.638 21.852 124.628 21.354 125.852 21.354C127.076 21.354 128.06 21.852 128.804 22.848C129.56 23.832 129.938 25.296 129.938 27.24C129.938 29.184 129.56 30.666 128.804 31.686C128.06 32.706 127.076 33.216 125.852 33.216ZM125.852 31.164C126.308 31.164 126.686 30.9 126.986 30.372C127.286 29.844 127.436 28.8 127.436 27.24C127.436 25.68 127.286 24.654 126.986 24.162C126.686 23.658 126.308 23.406 125.852 23.406C125.408 23.406 125.03 23.658 124.718 24.162C124.418 24.654 124.268 25.68 124.268 27.24C124.268 28.8 124.418 29.844 124.718 30.372C125.03 30.9 125.408 31.164 125.852 31.164Z" fill="#0C0C0C"/>
<path d="M370.386 33V21.264H374.418C375.702 21.264 376.8 21.54 377.712 22.092C378.624 22.644 379.08 23.628 379.08 25.044C379.08 26.424 378.624 27.432 377.712 28.068C376.8 28.704 375.726 29.022 374.49 29.022H373.032V33H370.386ZM373.032 26.916H374.328C375.768 26.916 376.488 26.292 376.488 25.044C376.488 24.432 376.296 24 375.912 23.748C375.528 23.496 374.976 23.37 374.256 23.37H373.032V26.916ZM382.693 33V24.072H384.853L385.033 25.638H385.105C385.429 25.038 385.819 24.594 386.275 24.306C386.731 24.006 387.187 23.856 387.643 23.856C387.895 23.856 388.099 23.874 388.255 23.91C388.423 23.946 388.573 23.988 388.705 24.036L388.273 26.322C388.117 26.274 387.961 26.238 387.805 26.214C387.661 26.19 387.493 26.178 387.301 26.178C386.965 26.178 386.611 26.304 386.239 26.556C385.879 26.796 385.579 27.216 385.339 27.816V33H382.693ZM392.979 22.758C392.535 22.758 392.169 22.632 391.881 22.38C391.593 22.116 391.449 21.78 391.449 21.372C391.449 20.964 391.593 20.634 391.881 20.382C392.169 20.13 392.535 20.004 392.979 20.004C393.435 20.004 393.801 20.13 394.077 20.382C394.365 20.634 394.509 20.964 394.509 21.372C394.509 21.78 394.365 22.116 394.077 22.38C393.801 22.632 393.435 22.758 392.979 22.758ZM391.665 33V24.072H394.311V33H391.665ZM398.439 33V24.072H400.599L400.779 25.224H400.851C401.223 24.852 401.619 24.534 402.039 24.27C402.459 23.994 402.963 23.856 403.551 23.856C404.187 23.856 404.697 23.988 405.081 24.252C405.477 24.504 405.789 24.87 406.017 25.35C406.413 24.942 406.827 24.594 407.259 24.306C407.703 24.006 408.225 23.856 408.825 23.856C409.785 23.856 410.487 24.18 410.931 24.828C411.387 25.464 411.615 26.34 411.615 27.456V33H408.969V27.798C408.969 27.15 408.879 26.706 408.699 26.466C408.519 26.226 408.243 26.106 407.871 26.106C407.427 26.106 406.917 26.394 406.341 26.97V33H403.695V27.798C403.695 27.15 403.605 26.706 403.425 26.466C403.257 26.226 402.981 26.106 402.597 26.106C402.141 26.106 401.637 26.394 401.085 26.97V33H398.439ZM418.823 31.164C419.123 31.164 419.381 31.098 419.597 30.966C419.825 30.834 420.053 30.648 420.281 30.408V28.842C419.345 28.974 418.697 29.166 418.337 29.418C417.977 29.67 417.797 29.97 417.797 30.318C417.797 30.882 418.139 31.164 418.823 31.164ZM417.923 33.216C417.107 33.216 416.459 32.958 415.979 32.442C415.499 31.914 415.259 31.272 415.259 30.516C415.259 29.58 415.655 28.848 416.447 28.32C417.239 27.792 418.517 27.438 420.281 27.258C420.257 26.862 420.137 26.55 419.921 26.322C419.717 26.082 419.369 25.962 418.877 25.962C418.505 25.962 418.127 26.034 417.743 26.178C417.359 26.322 416.951 26.52 416.519 26.772L415.565 25.026C416.129 24.678 416.729 24.396 417.365 24.18C418.001 23.964 418.673 23.856 419.381 23.856C420.521 23.856 421.397 24.186 422.009 24.846C422.621 25.506 422.927 26.52 422.927 27.888V33H420.767L420.587 32.082H420.515C420.131 32.418 419.729 32.694 419.309 32.91C418.889 33.114 418.427 33.216 417.923 33.216ZM426.965 33V24.072H429.125L429.305 25.638H429.377C429.701 25.038 430.091 24.594 430.547 24.306C431.003 24.006 431.459 23.856 431.915 23.856C432.167 23.856 432.371 23.874 432.527 23.91C432.695 23.946 432.845 23.988 432.977 24.036L432.545 26.322C432.389 26.274 432.233 26.238 432.077 26.214C431.933 26.19 431.765 26.178 431.573 26.178C431.237 26.178 430.883 26.304 430.511 26.556C430.151 26.796 429.851 27.216 429.611 27.816V33H426.965ZM437.05 36.492C436.786 36.492 436.552 36.474 436.348 36.438C436.156 36.402 435.97 36.36 435.79 36.312L436.258 34.296C436.342 34.32 436.438 34.344 436.546 34.368C436.654 34.392 436.756 34.404 436.852 34.404C437.296 34.404 437.638 34.296 437.878 34.08C438.118 33.864 438.298 33.582 438.418 33.234L438.544 32.766L435.106 24.072H437.77L439.048 27.906C439.18 28.314 439.3 28.728 439.408 29.148C439.516 29.568 439.63 30 439.75 30.444H439.822C439.918 30.024 440.014 29.604 440.11 29.184C440.218 28.752 440.326 28.326 440.434 27.906L441.514 24.072H444.052L440.956 33.09C440.536 34.218 440.044 35.064 439.48 35.628C438.916 36.204 438.106 36.492 437.05 36.492ZM454.36 28.248H456.772V26.394C456.772 26.022 456.784 25.596 456.808 25.116C456.832 24.624 456.856 24.198 456.88 23.838H456.808C456.664 24.15 456.514 24.468 456.358 24.792C456.202 25.116 456.04 25.44 455.872 25.764L454.36 28.248ZM460.552 30.264H459.238V33H456.772V30.264H451.822V28.446L455.998 21.57H459.238V28.248H460.552V30.264ZM467.542 33.216C466.318 33.216 465.328 32.706 464.572 31.686C463.828 30.666 463.456 29.184 463.456 27.24C463.456 25.296 463.828 23.832 464.572 22.848C465.328 21.852 466.318 21.354 467.542 21.354C468.766 21.354 469.75 21.852 470.494 22.848C471.25 23.832 471.628 25.296 471.628 27.24C471.628 29.184 471.25 30.666 470.494 31.686C469.75 32.706 468.766 33.216 467.542 33.216ZM467.542 31.164C467.998 31.164 468.376 30.9 468.676 30.372C468.976 29.844 469.126 28.8 469.126 27.24C469.126 25.68 468.976 24.654 468.676 24.162C468.376 23.658 467.998 23.406 467.542 23.406C467.098 23.406 466.72 23.658 466.408 24.162C466.108 24.654 465.958 25.68 465.958 27.24C465.958 28.8 466.108 29.844 466.408 30.372C466.72 30.9 467.098 31.164 467.542 31.164ZM478.852 33.216C477.628 33.216 476.638 32.706 475.882 31.686C475.138 30.666 474.766 29.184 474.766 27.24C474.766 25.296 475.138 23.832 475.882 22.848C476.638 21.852 477.628 21.354 478.852 21.354C480.076 21.354 481.06 21.852 481.804 22.848C482.56 23.832 482.938 25.296 482.938 27.24C482.938 29.184 482.56 30.666 481.804 31.686C481.06 32.706 480.076 33.216 478.852 33.216ZM478.852 31.164C479.308 31.164 479.686 30.9 479.986 30.372C480.286 29.844 480.436 28.8 480.436 27.24C480.436 25.68 480.286 24.654 479.986 24.162C479.686 23.658 479.308 23.406 478.852 23.406C478.408 23.406 478.03 23.658 477.718 24.162C477.418 24.654 477.268 25.68 477.268 27.24C477.268 28.8 477.418 29.844 477.718 30.372C478.03 30.9 478.408 31.164 478.852 31.164Z" fill="#0C0C0C"/>
<path d="M370.386 210V198.264H374.418C375.702 198.264 376.8 198.54 377.712 199.092C378.624 199.644 379.08 200.628 379.08 202.044C379.08 203.424 378.624 204.432 377.712 205.068C376.8 205.704 375.726 206.022 374.49 206.022H373.032V210H370.386ZM373.032 203.916H374.328C375.768 203.916 376.488 203.292 376.488 202.044C376.488 201.432 376.296 201 375.912 200.748C375.528 200.496 374.976 200.37 374.256 200.37H373.032V203.916ZM382.693 210V201.072H384.853L385.033 202.638H385.105C385.429 202.038 385.819 201.594 386.275 201.306C386.731 201.006 387.187 200.856 387.643 200.856C387.895 200.856 388.099 200.874 388.255 200.91C388.423 200.946 388.573 200.988 388.705 201.036L388.273 203.322C388.117 203.274 387.961 203.238 387.805 203.214C387.661 203.19 387.493 203.178 387.301 203.178C386.965 203.178 386.611 203.304 386.239 203.556C385.879 203.796 385.579 204.216 385.339 204.816V210H382.693ZM392.979 199.758C392.535 199.758 392.169 199.632 391.881 199.38C391.593 199.116 391.449 198.78 391.449 198.372C391.449 197.964 391.593 197.634 391.881 197.382C392.169 197.13 392.535 197.004 392.979 197.004C393.435 197.004 393.801 197.13 394.077 197.382C394.365 197.634 394.509 197.964 394.509 198.372C394.509 198.78 394.365 199.116 394.077 199.38C393.801 199.632 393.435 199.758 392.979 199.758ZM391.665 210V201.072H394.311V210H391.665ZM398.439 210V201.072H400.599L400.779 202.224H400.851C401.223 201.852 401.619 201.534 402.039 201.27C402.459 200.994 402.963 200.856 403.551 200.856C404.187 200.856 404.697 200.988 405.081 201.252C405.477 201.504 405.789 201.87 406.017 202.35C406.413 201.942 406.827 201.594 407.259 201.306C407.703 201.006 408.225 200.856 408.825 200.856C409.785 200.856 410.487 201.18 410.931 201.828C411.387 202.464 411.615 203.34 411.615 204.456V210H408.969V204.798C408.969 204.15 408.879 203.706 408.699 203.466C408.519 203.226 408.243 203.106 407.871 203.106C407.427 203.106 406.917 203.394 406.341 203.97V210H403.695V204.798C403.695 204.15 403.605 203.706 403.425 203.466C403.257 203.226 402.981 203.106 402.597 203.106C402.141 203.106 401.637 203.394 401.085 203.97V210H398.439ZM418.823 208.164C419.123 208.164 419.381 208.098 419.597 207.966C419.825 207.834 420.053 207.648 420.281 207.408V205.842C419.345 205.974 418.697 206.166 418.337 206.418C417.977 206.67 417.797 206.97 417.797 207.318C417.797 207.882 418.139 208.164 418.823 208.164ZM417.923 210.216C417.107 210.216 416.459 209.958 415.979 209.442C415.499 208.914 415.259 208.272 415.259 207.516C415.259 206.58 415.655 205.848 416.447 205.32C417.239 204.792 418.517 204.438 420.281 204.258C420.257 203.862 420.137 203.55 419.921 203.322C419.717 203.082 419.369 202.962 418.877 202.962C418.505 202.962 418.127 203.034 417.743 203.178C417.359 203.322 416.951 203.52 416.519 203.772L415.565 202.026C416.129 201.678 416.729 201.396 417.365 201.18C418.001 200.964 418.673 200.856 419.381 200.856C420.521 200.856 421.397 201.186 422.009 201.846C422.621 202.506 422.927 203.52 422.927 204.888V210H420.767L420.587 209.082H420.515C420.131 209.418 419.729 209.694 419.309 209.91C418.889 210.114 418.427 210.216 417.923 210.216ZM426.965 210V201.072H429.125L429.305 202.638H429.377C429.701 202.038 430.091 201.594 430.547 201.306C431.003 201.006 431.459 200.856 431.915 200.856C432.167 200.856 432.371 200.874 432.527 200.91C432.695 200.946 432.845 200.988 432.977 201.036L432.545 203.322C432.389 203.274 432.233 203.238 432.077 203.214C431.933 203.19 431.765 203.178 431.573 203.178C431.237 203.178 430.883 203.304 430.511 203.556C430.151 203.796 429.851 204.216 429.611 204.816V210H426.965ZM437.05 213.492C436.786 213.492 436.552 213.474 436.348 213.438C436.156 213.402 435.97 213.36 435.79 213.312L436.258 211.296C436.342 211.32 436.438 211.344 436.546 211.368C436.654 211.392 436.756 211.404 436.852 211.404C437.296 211.404 437.638 211.296 437.878 211.08C438.118 210.864 438.298 210.582 438.418 210.234L438.544 209.766L435.106 201.072H437.77L439.048 204.906C439.18 205.314 439.3 205.728 439.408 206.148C439.516 206.568 439.63 207 439.75 207.444H439.822C439.918 207.024 440.014 206.604 440.11 206.184C440.218 205.752 440.326 205.326 440.434 204.906L441.514 201.072H444.052L440.956 210.09C440.536 211.218 440.044 212.064 439.48 212.628C438.916 213.204 438.106 213.492 437.05 213.492ZM460.336 206.382C460.336 207.57 459.958 208.506 459.202 209.19C458.458 209.874 457.57 210.216 456.538 210.216C455.806 210.216 455.11 210.024 454.45 209.64C453.79 209.244 453.25 208.632 452.83 207.804C452.422 206.964 452.218 205.878 452.218 204.546C452.218 203.118 452.434 201.948 452.866 201.036C453.31 200.124 453.88 199.452 454.576 199.02C455.284 198.576 456.04 198.354 456.844 198.354C457.6 198.354 458.254 198.492 458.806 198.768C459.358 199.032 459.814 199.35 460.174 199.722L458.788 201.306C458.596 201.09 458.332 200.904 457.996 200.748C457.672 200.58 457.342 200.496 457.006 200.496C456.382 200.496 455.842 200.76 455.386 201.288C454.942 201.804 454.696 202.728 454.648 204.06C454.948 203.676 455.314 203.382 455.746 203.178C456.178 202.962 456.574 202.854 456.934 202.854C457.918 202.854 458.728 203.142 459.364 203.718C460.012 204.282 460.336 205.17 460.336 206.382ZM456.484 208.236C456.88 208.236 457.216 208.092 457.492 207.804C457.78 207.504 457.924 207.03 457.924 206.382C457.924 205.782 457.78 205.356 457.492 205.104C457.216 204.852 456.862 204.726 456.43 204.726C456.13 204.726 455.824 204.816 455.512 204.996C455.212 205.164 454.942 205.452 454.702 205.86C454.822 206.76 455.05 207.384 455.386 207.732C455.722 208.068 456.088 208.236 456.484 208.236ZM467.542 210.216C466.318 210.216 465.328 209.706 464.572 208.686C463.828 207.666 463.456 206.184 463.456 204.24C463.456 202.296 463.828 200.832 464.572 199.848C465.328 198.852 466.318 198.354 467.542 198.354C468.766 198.354 469.75 198.852 470.494 199.848C471.25 200.832 471.628 202.296 471.628 204.24C471.628 206.184 471.25 207.666 470.494 208.686C469.75 209.706 468.766 210.216 467.542 210.216ZM467.542 208.164C467.998 208.164 468.376 207.9 468.676 207.372C468.976 206.844 469.126 205.8 469.126 204.24C469.126 202.68 468.976 201.654 468.676 201.162C468.376 200.658 467.998 200.406 467.542 200.406C467.098 200.406 466.72 200.658 466.408 201.162C466.108 201.654 465.958 202.68 465.958 204.24C465.958 205.8 466.108 206.844 466.408 207.372C466.72 207.9 467.098 208.164 467.542 208.164ZM478.852 210.216C477.628 210.216 476.638 209.706 475.882 208.686C475.138 207.666 474.766 206.184 474.766 204.24C474.766 202.296 475.138 200.832 475.882 199.848C476.638 198.852 477.628 198.354 478.852 198.354C480.076 198.354 481.06 198.852 481.804 199.848C482.56 200.832 482.938 202.296 482.938 204.24C482.938 206.184 482.56 207.666 481.804 208.686C481.06 209.706 480.076 210.216 478.852 210.216ZM478.852 208.164C479.308 208.164 479.686 207.9 479.986 207.372C480.286 206.844 480.436 205.8 480.436 204.24C480.436 202.68 480.286 201.654 479.986 201.162C479.686 200.658 479.308 200.406 478.852 200.406C478.408 200.406 478.03 200.658 477.718 201.162C477.418 201.654 477.268 202.68 477.268 204.24C477.268 205.8 477.418 206.844 477.718 207.372C478.03 207.9 478.408 208.164 478.852 208.164Z" fill="#0C0C0C"/>
<path d="M547.386 33V21.264H551.418C552.702 21.264 553.8 21.54 554.712 22.092C555.624 22.644 556.08 23.628 556.08 25.044C556.08 26.424 555.624 27.432 554.712 28.068C553.8 28.704 552.726 29.022 551.49 29.022H550.032V33H547.386ZM550.032 26.916H551.328C552.768 26.916 553.488 26.292 553.488 25.044C553.488 24.432 553.296 24 552.912 23.748C552.528 23.496 551.976 23.37 551.256 23.37H550.032V26.916ZM559.693 33V24.072H561.853L562.033 25.638H562.105C562.429 25.038 562.819 24.594 563.275 24.306C563.731 24.006 564.187 23.856 564.643 23.856C564.895 23.856 565.099 23.874 565.255 23.91C565.423 23.946 565.573 23.988 565.705 24.036L565.273 26.322C565.117 26.274 564.961 26.238 564.805 26.214C564.661 26.19 564.493 26.178 564.301 26.178C563.965 26.178 563.611 26.304 563.239 26.556C562.879 26.796 562.579 27.216 562.339 27.816V33H559.693ZM569.979 22.758C569.535 22.758 569.169 22.632 568.881 22.38C568.593 22.116 568.449 21.78 568.449 21.372C568.449 20.964 568.593 20.634 568.881 20.382C569.169 20.13 569.535 20.004 569.979 20.004C570.435 20.004 570.801 20.13 571.077 20.382C571.365 20.634 571.509 20.964 571.509 21.372C571.509 21.78 571.365 22.116 571.077 22.38C570.801 22.632 570.435 22.758 569.979 22.758ZM568.665 33V24.072H571.311V33H568.665ZM575.439 33V24.072H577.599L577.779 25.224H577.851C578.223 24.852 578.619 24.534 579.039 24.27C579.459 23.994 579.963 23.856 580.551 23.856C581.187 23.856 581.697 23.988 582.081 24.252C582.477 24.504 582.789 24.87 583.017 25.35C583.413 24.942 583.827 24.594 584.259 24.306C584.703 24.006 585.225 23.856 585.825 23.856C586.785 23.856 587.487 24.18 587.931 24.828C588.387 25.464 588.615 26.34 588.615 27.456V33H585.969V27.798C585.969 27.15 585.879 26.706 585.699 26.466C585.519 26.226 585.243 26.106 584.871 26.106C584.427 26.106 583.917 26.394 583.341 26.97V33H580.695V27.798C580.695 27.15 580.605 26.706 580.425 26.466C580.257 26.226 579.981 26.106 579.597 26.106C579.141 26.106 578.637 26.394 578.085 26.97V33H575.439ZM595.823 31.164C596.123 31.164 596.381 31.098 596.597 30.966C596.825 30.834 597.053 30.648 597.281 30.408V28.842C596.345 28.974 595.697 29.166 595.337 29.418C594.977 29.67 594.797 29.97 594.797 30.318C594.797 30.882 595.139 31.164 595.823 31.164ZM594.923 33.216C594.107 33.216 593.459 32.958 592.979 32.442C592.499 31.914 592.259 31.272 592.259 30.516C592.259 29.58 592.655 28.848 593.447 28.32C594.239 27.792 595.517 27.438 597.281 27.258C597.257 26.862 597.137 26.55 596.921 26.322C596.717 26.082 596.369 25.962 595.877 25.962C595.505 25.962 595.127 26.034 594.743 26.178C594.359 26.322 593.951 26.52 593.519 26.772L592.565 25.026C593.129 24.678 593.729 24.396 594.365 24.18C595.001 23.964 595.673 23.856 596.381 23.856C597.521 23.856 598.397 24.186 599.009 24.846C599.621 25.506 599.927 26.52 599.927 27.888V33H597.767L597.587 32.082H597.515C597.131 32.418 596.729 32.694 596.309 32.91C595.889 33.114 595.427 33.216 594.923 33.216ZM603.965 33V24.072H606.125L606.305 25.638H606.377C606.701 25.038 607.091 24.594 607.547 24.306C608.003 24.006 608.459 23.856 608.915 23.856C609.167 23.856 609.371 23.874 609.527 23.91C609.695 23.946 609.845 23.988 609.977 24.036L609.545 26.322C609.389 26.274 609.233 26.238 609.077 26.214C608.933 26.19 608.765 26.178 608.573 26.178C608.237 26.178 607.883 26.304 607.511 26.556C607.151 26.796 606.851 27.216 606.611 27.816V33H603.965ZM614.05 36.492C613.786 36.492 613.552 36.474 613.348 36.438C613.156 36.402 612.97 36.36 612.79 36.312L613.258 34.296C613.342 34.32 613.438 34.344 613.546 34.368C613.654 34.392 613.756 34.404 613.852 34.404C614.296 34.404 614.638 34.296 614.878 34.08C615.118 33.864 615.298 33.582 615.418 33.234L615.544 32.766L612.106 24.072H614.77L616.048 27.906C616.18 28.314 616.3 28.728 616.408 29.148C616.516 29.568 616.63 30 616.75 30.444H616.822C616.918 30.024 617.014 29.604 617.11 29.184C617.218 28.752 617.326 28.326 617.434 27.906L618.514 24.072H621.052L617.956 33.09C617.536 34.218 617.044 35.064 616.48 35.628C615.916 36.204 615.106 36.492 614.05 36.492ZM632.854 33.216C631.93 33.216 631.138 33.066 630.478 32.766C629.818 32.466 629.284 32.076 628.876 31.596L630.1 29.922C630.436 30.258 630.814 30.534 631.234 30.75C631.654 30.966 632.11 31.074 632.602 31.074C633.166 31.074 633.616 30.96 633.952 30.732C634.288 30.492 634.456 30.156 634.456 29.724C634.456 29.22 634.252 28.824 633.844 28.536C633.436 28.236 632.614 28.086 631.378 28.086V26.214C632.398 26.214 633.1 26.076 633.484 25.8C633.88 25.512 634.078 25.14 634.078 24.684C634.078 23.844 633.61 23.424 632.674 23.424C632.266 23.424 631.894 23.514 631.558 23.694C631.234 23.874 630.892 24.12 630.532 24.432L629.2 22.812C629.728 22.356 630.286 22.002 630.874 21.75C631.462 21.486 632.104 21.354 632.8 21.354C633.976 21.354 634.924 21.63 635.644 22.182C636.376 22.722 636.742 23.49 636.742 24.486C636.742 25.638 636.106 26.484 634.834 27.024V27.096C635.494 27.288 636.034 27.618 636.454 28.086C636.886 28.554 637.102 29.154 637.102 29.886C637.102 30.954 636.682 31.776 635.842 32.352C635.002 32.928 634.006 33.216 632.854 33.216ZM644.542 33.216C643.318 33.216 642.328 32.706 641.572 31.686C640.828 30.666 640.456 29.184 640.456 27.24C640.456 25.296 640.828 23.832 641.572 22.848C642.328 21.852 643.318 21.354 644.542 21.354C645.766 21.354 646.75 21.852 647.494 22.848C648.25 23.832 648.628 25.296 648.628 27.24C648.628 29.184 648.25 30.666 647.494 31.686C646.75 32.706 645.766 33.216 644.542 33.216ZM644.542 31.164C644.998 31.164 645.376 30.9 645.676 30.372C645.976 29.844 646.126 28.8 646.126 27.24C646.126 25.68 645.976 24.654 645.676 24.162C645.376 23.658 644.998 23.406 644.542 23.406C644.098 23.406 643.72 23.658 643.408 24.162C643.108 24.654 642.958 25.68 642.958 27.24C642.958 28.8 643.108 29.844 643.408 30.372C643.72 30.9 644.098 31.164 644.542 31.164ZM655.852 33.216C654.628 33.216 653.638 32.706 652.882 31.686C652.138 30.666 651.766 29.184 651.766 27.24C651.766 25.296 652.138 23.832 652.882 22.848C653.638 21.852 654.628 21.354 655.852 21.354C657.076 21.354 658.06 21.852 658.804 22.848C659.56 23.832 659.938 25.296 659.938 27.24C659.938 29.184 659.56 30.666 658.804 31.686C658.06 32.706 657.076 33.216 655.852 33.216ZM655.852 31.164C656.308 31.164 656.686 30.9 656.986 30.372C657.286 29.844 657.436 28.8 657.436 27.24C657.436 25.68 657.286 24.654 656.986 24.162C656.686 23.658 656.308 23.406 655.852 23.406C655.408 23.406 655.03 23.658 654.718 24.162C654.418 24.654 654.268 25.68 654.268 27.24C654.268 28.8 654.418 29.844 654.718 30.372C655.03 30.9 655.408 31.164 655.852 31.164Z" fill="#0C0C0C"/>
<path d="M547.386 210V198.264H551.418C552.702 198.264 553.8 198.54 554.712 199.092C555.624 199.644 556.08 200.628 556.08 202.044C556.08 203.424 555.624 204.432 554.712 205.068C553.8 205.704 552.726 206.022 551.49 206.022H550.032V210H547.386ZM550.032 203.916H551.328C552.768 203.916 553.488 203.292 553.488 202.044C553.488 201.432 553.296 201 552.912 200.748C552.528 200.496 551.976 200.37 551.256 200.37H550.032V203.916ZM559.693 210V201.072H561.853L562.033 202.638H562.105C562.429 202.038 562.819 201.594 563.275 201.306C563.731 201.006 564.187 200.856 564.643 200.856C564.895 200.856 565.099 200.874 565.255 200.91C565.423 200.946 565.573 200.988 565.705 201.036L565.273 203.322C565.117 203.274 564.961 203.238 564.805 203.214C564.661 203.19 564.493 203.178 564.301 203.178C563.965 203.178 563.611 203.304 563.239 203.556C562.879 203.796 562.579 204.216 562.339 204.816V210H559.693ZM569.979 199.758C569.535 199.758 569.169 199.632 568.881 199.38C568.593 199.116 568.449 198.78 568.449 198.372C568.449 197.964 568.593 197.634 568.881 197.382C569.169 197.13 569.535 197.004 569.979 197.004C570.435 197.004 570.801 197.13 571.077 197.382C571.365 197.634 571.509 197.964 571.509 198.372C571.509 198.78 571.365 199.116 571.077 199.38C570.801 199.632 570.435 199.758 569.979 199.758ZM568.665 210V201.072H571.311V210H568.665ZM575.439 210V201.072H577.599L577.779 202.224H577.851C578.223 201.852 578.619 201.534 579.039 201.27C579.459 200.994 579.963 200.856 580.551 200.856C581.187 200.856 581.697 200.988 582.081 201.252C582.477 201.504 582.789 201.87 583.017 202.35C583.413 201.942 583.827 201.594 584.259 201.306C584.703 201.006 585.225 200.856 585.825 200.856C586.785 200.856 587.487 201.18 587.931 201.828C588.387 202.464 588.615 203.34 588.615 204.456V210H585.969V204.798C585.969 204.15 585.879 203.706 585.699 203.466C585.519 203.226 585.243 203.106 584.871 203.106C584.427 203.106 583.917 203.394 583.341 203.97V210H580.695V204.798C580.695 204.15 580.605 203.706 580.425 203.466C580.257 203.226 579.981 203.106 579.597 203.106C579.141 203.106 578.637 203.394 578.085 203.97V210H575.439ZM595.823 208.164C596.123 208.164 596.381 208.098 596.597 207.966C596.825 207.834 597.053 207.648 597.281 207.408V205.842C596.345 205.974 595.697 206.166 595.337 206.418C594.977 206.67 594.797 206.97 594.797 207.318C594.797 207.882 595.139 208.164 595.823 208.164ZM594.923 210.216C594.107 210.216 593.459 209.958 592.979 209.442C592.499 208.914 592.259 208.272 592.259 207.516C592.259 206.58 592.655 205.848 593.447 205.32C594.239 204.792 595.517 204.438 597.281 204.258C597.257 203.862 597.137 203.55 596.921 203.322C596.717 203.082 596.369 202.962 595.877 202.962C595.505 202.962 595.127 203.034 594.743 203.178C594.359 203.322 593.951 203.52 593.519 203.772L592.565 202.026C593.129 201.678 593.729 201.396 594.365 201.18C595.001 200.964 595.673 200.856 596.381 200.856C597.521 200.856 598.397 201.186 599.009 201.846C599.621 202.506 599.927 203.52 599.927 204.888V210H597.767L597.587 209.082H597.515C597.131 209.418 596.729 209.694 596.309 209.91C595.889 210.114 595.427 210.216 594.923 210.216ZM603.965 210V201.072H606.125L606.305 202.638H606.377C606.701 202.038 607.091 201.594 607.547 201.306C608.003 201.006 608.459 200.856 608.915 200.856C609.167 200.856 609.371 200.874 609.527 200.91C609.695 200.946 609.845 200.988 609.977 201.036L609.545 203.322C609.389 203.274 609.233 203.238 609.077 203.214C608.933 203.19 608.765 203.178 608.573 203.178C608.237 203.178 607.883 203.304 607.511 203.556C607.151 203.796 606.851 204.216 606.611 204.816V210H603.965ZM614.05 213.492C613.786 213.492 613.552 213.474 613.348 213.438C613.156 213.402 612.97 213.36 612.79 213.312L613.258 211.296C613.342 211.32 613.438 211.344 613.546 211.368C613.654 211.392 613.756 211.404 613.852 211.404C614.296 211.404 614.638 211.296 614.878 211.08C615.118 210.864 615.298 210.582 615.418 210.234L615.544 209.766L612.106 201.072H614.77L616.048 204.906C616.18 205.314 616.3 205.728 616.408 206.148C616.516 206.568 616.63 207 616.75 207.444H616.822C616.918 207.024 617.014 206.604 617.11 206.184C617.218 205.752 617.326 205.326 617.434 204.906L618.514 201.072H621.052L617.956 210.09C617.536 211.218 617.044 212.064 616.48 212.628C615.916 213.204 615.106 213.492 614.05 213.492ZM631.342 210C631.414 208.728 631.552 207.588 631.756 206.58C631.96 205.572 632.272 204.606 632.692 203.682C633.112 202.758 633.682 201.798 634.402 200.802H629.272V198.57H637.228V200.19C636.34 201.258 635.68 202.254 635.248 203.178C634.816 204.102 634.516 205.098 634.348 206.166C634.18 207.234 634.066 208.512 634.006 210H631.342ZM644.542 210.216C643.318 210.216 642.328 209.706 641.572 208.686C640.828 207.666 640.456 206.184 640.456 204.24C640.456 202.296 640.828 200.832 641.572 199.848C642.328 198.852 643.318 198.354 644.542 198.354C645.766 198.354 646.75 198.852 647.494 199.848C648.25 200.832 648.628 202.296 648.628 204.24C648.628 206.184 648.25 207.666 647.494 208.686C646.75 209.706 645.766 210.216 644.542 210.216ZM644.542 208.164C644.998 208.164 645.376 207.9 645.676 207.372C645.976 206.844 646.126 205.8 646.126 204.24C646.126 202.68 645.976 201.654 645.676 201.162C645.376 200.658 644.998 200.406 644.542 200.406C644.098 200.406 643.72 200.658 643.408 201.162C643.108 201.654 642.958 202.68 642.958 204.24C642.958 205.8 643.108 206.844 643.408 207.372C643.72 207.9 644.098 208.164 644.542 208.164ZM655.852 210.216C654.628 210.216 653.638 209.706 652.882 208.686C652.138 207.666 651.766 206.184 651.766 204.24C651.766 202.296 652.138 200.832 652.882 199.848C653.638 198.852 654.628 198.354 655.852 198.354C657.076 198.354 658.06 198.852 658.804 199.848C659.56 200.832 659.938 202.296 659.938 204.24C659.938 206.184 659.56 207.666 658.804 208.686C658.06 209.706 657.076 210.216 655.852 210.216ZM655.852 208.164C656.308 208.164 656.686 207.9 656.986 207.372C657.286 206.844 657.436 205.8 657.436 204.24C657.436 202.68 657.286 201.654 656.986 201.162C656.686 200.658 656.308 200.406 655.852 200.406C655.408 200.406 655.03 200.658 654.718 201.162C654.418 201.654 654.268 202.68 654.268 204.24C654.268 205.8 654.418 206.844 654.718 207.372C655.03 207.9 655.408 208.164 655.852 208.164Z" fill="#0C0C0C"/>
<path d="M724.386 33V21.264H728.418C729.702 21.264 730.8 21.54 731.712 22.092C732.624 22.644 733.08 23.628 733.08 25.044C733.08 26.424 732.624 27.432 731.712 28.068C730.8 28.704 729.726 29.022 728.49 29.022H727.032V33H724.386ZM727.032 26.916H728.328C729.768 26.916 730.488 26.292 730.488 25.044C730.488 24.432 730.296 24 729.912 23.748C729.528 23.496 728.976 23.37 728.256 23.37H727.032V26.916ZM736.693 33V24.072H738.853L739.033 25.638H739.105C739.429 25.038 739.819 24.594 740.275 24.306C740.731 24.006 741.187 23.856 741.643 23.856C741.895 23.856 742.099 23.874 742.255 23.91C742.423 23.946 742.573 23.988 742.705 24.036L742.273 26.322C742.117 26.274 741.961 26.238 741.805 26.214C741.661 26.19 741.493 26.178 741.301 26.178C740.965 26.178 740.611 26.304 740.239 26.556C739.879 26.796 739.579 27.216 739.339 27.816V33H736.693ZM746.979 22.758C746.535 22.758 746.169 22.632 745.881 22.38C745.593 22.116 745.449 21.78 745.449 21.372C745.449 20.964 745.593 20.634 745.881 20.382C746.169 20.13 746.535 20.004 746.979 20.004C747.435 20.004 747.801 20.13 748.077 20.382C748.365 20.634 748.509 20.964 748.509 21.372C748.509 21.78 748.365 22.116 748.077 22.38C747.801 22.632 747.435 22.758 746.979 22.758ZM745.665 33V24.072H748.311V33H745.665ZM752.439 33V24.072H754.599L754.779 25.224H754.851C755.223 24.852 755.619 24.534 756.039 24.27C756.459 23.994 756.963 23.856 757.551 23.856C758.187 23.856 758.697 23.988 759.081 24.252C759.477 24.504 759.789 24.87 760.017 25.35C760.413 24.942 760.827 24.594 761.259 24.306C761.703 24.006 762.225 23.856 762.825 23.856C763.785 23.856 764.487 24.18 764.931 24.828C765.387 25.464 765.615 26.34 765.615 27.456V33H762.969V27.798C762.969 27.15 762.879 26.706 762.699 26.466C762.519 26.226 762.243 26.106 761.871 26.106C761.427 26.106 760.917 26.394 760.341 26.97V33H757.695V27.798C757.695 27.15 757.605 26.706 757.425 26.466C757.257 26.226 756.981 26.106 756.597 26.106C756.141 26.106 755.637 26.394 755.085 26.97V33H752.439ZM772.823 31.164C773.123 31.164 773.381 31.098 773.597 30.966C773.825 30.834 774.053 30.648 774.281 30.408V28.842C773.345 28.974 772.697 29.166 772.337 29.418C771.977 29.67 771.797 29.97 771.797 30.318C771.797 30.882 772.139 31.164 772.823 31.164ZM771.923 33.216C771.107 33.216 770.459 32.958 769.979 32.442C769.499 31.914 769.259 31.272 769.259 30.516C769.259 29.58 769.655 28.848 770.447 28.32C771.239 27.792 772.517 27.438 774.281 27.258C774.257 26.862 774.137 26.55 773.921 26.322C773.717 26.082 773.369 25.962 772.877 25.962C772.505 25.962 772.127 26.034 771.743 26.178C771.359 26.322 770.951 26.52 770.519 26.772L769.565 25.026C770.129 24.678 770.729 24.396 771.365 24.18C772.001 23.964 772.673 23.856 773.381 23.856C774.521 23.856 775.397 24.186 776.009 24.846C776.621 25.506 776.927 26.52 776.927 27.888V33H774.767L774.587 32.082H774.515C774.131 32.418 773.729 32.694 773.309 32.91C772.889 33.114 772.427 33.216 771.923 33.216ZM780.965 33V24.072H783.125L783.305 25.638H783.377C783.701 25.038 784.091 24.594 784.547 24.306C785.003 24.006 785.459 23.856 785.915 23.856C786.167 23.856 786.371 23.874 786.527 23.91C786.695 23.946 786.845 23.988 786.977 24.036L786.545 26.322C786.389 26.274 786.233 26.238 786.077 26.214C785.933 26.19 785.765 26.178 785.573 26.178C785.237 26.178 784.883 26.304 784.511 26.556C784.151 26.796 783.851 27.216 783.611 27.816V33H780.965ZM791.05 36.492C790.786 36.492 790.552 36.474 790.348 36.438C790.156 36.402 789.97 36.36 789.79 36.312L790.258 34.296C790.342 34.32 790.438 34.344 790.546 34.368C790.654 34.392 790.756 34.404 790.852 34.404C791.296 34.404 791.638 34.296 791.878 34.08C792.118 33.864 792.298 33.582 792.418 33.234L792.544 32.766L789.106 24.072H791.77L793.048 27.906C793.18 28.314 793.3 28.728 793.408 29.148C793.516 29.568 793.63 30 793.75 30.444H793.822C793.918 30.024 794.014 29.604 794.11 29.184C794.218 28.752 794.326 28.326 794.434 27.906L795.514 24.072H798.052L794.956 33.09C794.536 34.218 794.044 35.064 793.48 35.628C792.916 36.204 792.106 36.492 791.05 36.492ZM806.146 33V31.488C807.598 30.108 808.786 28.914 809.71 27.906C810.646 26.886 811.114 25.968 811.114 25.152C811.114 24.6 810.964 24.174 810.664 23.874C810.376 23.574 809.986 23.424 809.494 23.424C809.074 23.424 808.702 23.544 808.378 23.784C808.054 24.024 807.748 24.294 807.46 24.594L806.02 23.172C806.584 22.572 807.16 22.122 807.748 21.822C808.336 21.51 809.038 21.354 809.854 21.354C810.982 21.354 811.894 21.69 812.59 22.362C813.286 23.022 813.634 23.898 813.634 24.99C813.634 25.95 813.256 26.934 812.5 27.942C811.744 28.95 810.904 29.94 809.98 30.912C810.268 30.876 810.592 30.846 810.952 30.822C811.312 30.786 811.624 30.768 811.888 30.768H814.192V33H806.146ZM821.542 33.216C820.318 33.216 819.328 32.706 818.572 31.686C817.828 30.666 817.456 29.184 817.456 27.24C817.456 25.296 817.828 23.832 818.572 22.848C819.328 21.852 820.318 21.354 821.542 21.354C822.766 21.354 823.75 21.852 824.494 22.848C825.25 23.832 825.628 25.296 825.628 27.24C825.628 29.184 825.25 30.666 824.494 31.686C823.75 32.706 822.766 33.216 821.542 33.216ZM821.542 31.164C821.998 31.164 822.376 30.9 822.676 30.372C822.976 29.844 823.126 28.8 823.126 27.24C823.126 25.68 822.976 24.654 822.676 24.162C822.376 23.658 821.998 23.406 821.542 23.406C821.098 23.406 820.72 23.658 820.408 24.162C820.108 24.654 819.958 25.68 819.958 27.24C819.958 28.8 820.108 29.844 820.408 30.372C820.72 30.9 821.098 31.164 821.542 31.164ZM832.852 33.216C831.628 33.216 830.638 32.706 829.882 31.686C829.138 30.666 828.766 29.184 828.766 27.24C828.766 25.296 829.138 23.832 829.882 22.848C830.638 21.852 831.628 21.354 832.852 21.354C834.076 21.354 835.06 21.852 835.804 22.848C836.56 23.832 836.938 25.296 836.938 27.24C836.938 29.184 836.56 30.666 835.804 31.686C835.06 32.706 834.076 33.216 832.852 33.216ZM832.852 31.164C833.308 31.164 833.686 30.9 833.986 30.372C834.286 29.844 834.436 28.8 834.436 27.24C834.436 25.68 834.286 24.654 833.986 24.162C833.686 23.658 833.308 23.406 832.852 23.406C832.408 23.406 832.03 23.658 831.718 24.162C831.418 24.654 831.268 25.68 831.268 27.24C831.268 28.8 831.418 29.844 831.718 30.372C832.03 30.9 832.408 31.164 832.852 31.164Z" fill="#0C0C0C"/>
<path d="M724.386 210V198.264H728.418C729.702 198.264 730.8 198.54 731.712 199.092C732.624 199.644 733.08 200.628 733.08 202.044C733.08 203.424 732.624 204.432 731.712 205.068C730.8 205.704 729.726 206.022 728.49 206.022H727.032V210H724.386ZM727.032 203.916H728.328C729.768 203.916 730.488 203.292 730.488 202.044C730.488 201.432 730.296 201 729.912 200.748C729.528 200.496 728.976 200.37 728.256 200.37H727.032V203.916ZM736.693 210V201.072H738.853L739.033 202.638H739.105C739.429 202.038 739.819 201.594 740.275 201.306C740.731 201.006 741.187 200.856 741.643 200.856C741.895 200.856 742.099 200.874 742.255 200.91C742.423 200.946 742.573 200.988 742.705 201.036L742.273 203.322C742.117 203.274 741.961 203.238 741.805 203.214C741.661 203.19 741.493 203.178 741.301 203.178C740.965 203.178 740.611 203.304 740.239 203.556C739.879 203.796 739.579 204.216 739.339 204.816V210H736.693ZM746.979 199.758C746.535 199.758 746.169 199.632 745.881 199.38C745.593 199.116 745.449 198.78 745.449 198.372C745.449 197.964 745.593 197.634 745.881 197.382C746.169 197.13 746.535 197.004 746.979 197.004C747.435 197.004 747.801 197.13 748.077 197.382C748.365 197.634 748.509 197.964 748.509 198.372C748.509 198.78 748.365 199.116 748.077 199.38C747.801 199.632 747.435 199.758 746.979 199.758ZM745.665 210V201.072H748.311V210H745.665ZM752.439 210V201.072H754.599L754.779 202.224H754.851C755.223 201.852 755.619 201.534 756.039 201.27C756.459 200.994 756.963 200.856 757.551 200.856C758.187 200.856 758.697 200.988 759.081 201.252C759.477 201.504 759.789 201.87 760.017 202.35C760.413 201.942 760.827 201.594 761.259 201.306C761.703 201.006 762.225 200.856 762.825 200.856C763.785 200.856 764.487 201.18 764.931 201.828C765.387 202.464 765.615 203.34 765.615 204.456V210H762.969V204.798C762.969 204.15 762.879 203.706 762.699 203.466C762.519 203.226 762.243 203.106 761.871 203.106C761.427 203.106 760.917 203.394 760.341 203.97V210H757.695V204.798C757.695 204.15 757.605 203.706 757.425 203.466C757.257 203.226 756.981 203.106 756.597 203.106C756.141 203.106 755.637 203.394 755.085 203.97V210H752.439ZM772.823 208.164C773.123 208.164 773.381 208.098 773.597 207.966C773.825 207.834 774.053 207.648 774.281 207.408V205.842C773.345 205.974 772.697 206.166 772.337 206.418C771.977 206.67 771.797 206.97 771.797 207.318C771.797 207.882 772.139 208.164 772.823 208.164ZM771.923 210.216C771.107 210.216 770.459 209.958 769.979 209.442C769.499 208.914 769.259 208.272 769.259 207.516C769.259 206.58 769.655 205.848 770.447 205.32C771.239 204.792 772.517 204.438 774.281 204.258C774.257 203.862 774.137 203.55 773.921 203.322C773.717 203.082 773.369 202.962 772.877 202.962C772.505 202.962 772.127 203.034 771.743 203.178C771.359 203.322 770.951 203.52 770.519 203.772L769.565 202.026C770.129 201.678 770.729 201.396 771.365 201.18C772.001 200.964 772.673 200.856 773.381 200.856C774.521 200.856 775.397 201.186 776.009 201.846C776.621 202.506 776.927 203.52 776.927 204.888V210H774.767L774.587 209.082H774.515C774.131 209.418 773.729 209.694 773.309 209.91C772.889 210.114 772.427 210.216 771.923 210.216ZM780.965 210V201.072H783.125L783.305 202.638H783.377C783.701 202.038 784.091 201.594 784.547 201.306C785.003 201.006 785.459 200.856 785.915 200.856C786.167 200.856 786.371 200.874 786.527 200.91C786.695 200.946 786.845 200.988 786.977 201.036L786.545 203.322C786.389 203.274 786.233 203.238 786.077 203.214C785.933 203.19 785.765 203.178 785.573 203.178C785.237 203.178 784.883 203.304 784.511 203.556C784.151 203.796 783.851 204.216 783.611 204.816V210H780.965ZM791.05 213.492C790.786 213.492 790.552 213.474 790.348 213.438C790.156 213.402 789.97 213.36 789.79 213.312L790.258 211.296C790.342 211.32 790.438 211.344 790.546 211.368C790.654 211.392 790.756 211.404 790.852 211.404C791.296 211.404 791.638 211.296 791.878 211.08C792.118 210.864 792.298 210.582 792.418 210.234L792.544 209.766L789.106 201.072H791.77L793.048 204.906C793.18 205.314 793.3 205.728 793.408 206.148C793.516 206.568 793.63 207 793.75 207.444H793.822C793.918 207.024 794.014 206.604 794.11 206.184C794.218 205.752 794.326 205.326 794.434 204.906L795.514 201.072H798.052L794.956 210.09C794.536 211.218 794.044 212.064 793.48 212.628C792.916 213.204 792.106 213.492 791.05 213.492ZM810.214 210.216C809.074 210.216 808.126 209.928 807.37 209.352C806.614 208.764 806.236 208.008 806.236 207.084C806.236 206.388 806.422 205.818 806.794 205.374C807.178 204.93 807.64 204.564 808.18 204.276V204.204C807.736 203.868 807.37 203.484 807.082 203.052C806.794 202.62 806.65 202.104 806.65 201.504C806.65 200.532 806.992 199.764 807.676 199.2C808.372 198.636 809.248 198.354 810.304 198.354C811.348 198.354 812.188 198.642 812.824 199.218C813.46 199.782 813.778 200.538 813.778 201.486C813.778 202.038 813.628 202.53 813.328 202.962C813.028 203.382 812.68 203.724 812.284 203.988V204.06C812.836 204.36 813.304 204.744 813.688 205.212C814.072 205.68 814.264 206.292 814.264 207.048C814.264 207.948 813.892 208.704 813.148 209.316C812.404 209.916 811.426 210.216 810.214 210.216ZM810.934 203.34C811.402 202.8 811.636 202.242 811.636 201.666C811.636 201.222 811.51 200.868 811.258 200.604C811.018 200.328 810.682 200.19 810.25 200.19C809.902 200.19 809.602 200.298 809.35 200.514C809.098 200.73 808.972 201.06 808.972 201.504C808.972 201.972 809.152 202.338 809.512 202.602C809.872 202.866 810.346 203.112 810.934 203.34ZM810.268 208.38C810.712 208.38 811.078 208.266 811.366 208.038C811.654 207.798 811.798 207.438 811.798 206.958C811.798 206.454 811.576 206.076 811.132 205.824C810.688 205.56 810.106 205.272 809.386 204.96C809.134 205.2 808.924 205.476 808.756 205.788C808.588 206.1 808.504 206.43 808.504 206.778C808.504 207.282 808.678 207.678 809.026 207.966C809.374 208.242 809.788 208.38 810.268 208.38ZM821.542 210.216C820.318 210.216 819.328 209.706 818.572 208.686C817.828 207.666 817.456 206.184 817.456 204.24C817.456 202.296 817.828 200.832 818.572 199.848C819.328 198.852 820.318 198.354 821.542 198.354C822.766 198.354 823.75 198.852 824.494 199.848C825.25 200.832 825.628 202.296 825.628 204.24C825.628 206.184 825.25 207.666 824.494 208.686C823.75 209.706 822.766 210.216 821.542 210.216ZM821.542 208.164C821.998 208.164 822.376 207.9 822.676 207.372C822.976 206.844 823.126 205.8 823.126 204.24C823.126 202.68 822.976 201.654 822.676 201.162C822.376 200.658 821.998 200.406 821.542 200.406C821.098 200.406 820.72 200.658 820.408 201.162C820.108 201.654 819.958 202.68 819.958 204.24C819.958 205.8 820.108 206.844 820.408 207.372C820.72 207.9 821.098 208.164 821.542 208.164ZM832.852 210.216C831.628 210.216 830.638 209.706 829.882 208.686C829.138 207.666 828.766 206.184 828.766 204.24C828.766 202.296 829.138 200.832 829.882 199.848C830.638 198.852 831.628 198.354 832.852 198.354C834.076 198.354 835.06 198.852 835.804 199.848C836.56 200.832 836.938 202.296 836.938 204.24C836.938 206.184 836.56 207.666 835.804 208.686C835.06 209.706 834.076 210.216 832.852 210.216ZM832.852 208.164C833.308 208.164 833.686 207.9 833.986 207.372C834.286 206.844 834.436 205.8 834.436 204.24C834.436 202.68 834.286 201.654 833.986 201.162C833.686 200.658 833.308 200.406 832.852 200.406C832.408 200.406 832.03 200.658 831.718 201.162C831.418 201.654 831.268 202.68 831.268 204.24C831.268 205.8 831.418 206.844 831.718 207.372C832.03 207.9 832.408 208.164 832.852 208.164Z" fill="#0C0C0C"/>
<path d="M900.386 33V21.264H904.418C905.702 21.264 906.8 21.54 907.712 22.092C908.624 22.644 909.08 23.628 909.08 25.044C909.08 26.424 908.624 27.432 907.712 28.068C906.8 28.704 905.726 29.022 904.49 29.022H903.032V33H900.386ZM903.032 26.916H904.328C905.768 26.916 906.488 26.292 906.488 25.044C906.488 24.432 906.296 24 905.912 23.748C905.528 23.496 904.976 23.37 904.256 23.37H903.032V26.916ZM912.693 33V24.072H914.853L915.033 25.638H915.105C915.429 25.038 915.819 24.594 916.275 24.306C916.731 24.006 917.187 23.856 917.643 23.856C917.895 23.856 918.099 23.874 918.255 23.91C918.423 23.946 918.573 23.988 918.705 24.036L918.273 26.322C918.117 26.274 917.961 26.238 917.805 26.214C917.661 26.19 917.493 26.178 917.301 26.178C916.965 26.178 916.611 26.304 916.239 26.556C915.879 26.796 915.579 27.216 915.339 27.816V33H912.693ZM922.979 22.758C922.535 22.758 922.169 22.632 921.881 22.38C921.593 22.116 921.449 21.78 921.449 21.372C921.449 20.964 921.593 20.634 921.881 20.382C922.169 20.13 922.535 20.004 922.979 20.004C923.435 20.004 923.801 20.13 924.077 20.382C924.365 20.634 924.509 20.964 924.509 21.372C924.509 21.78 924.365 22.116 924.077 22.38C923.801 22.632 923.435 22.758 922.979 22.758ZM921.665 33V24.072H924.311V33H921.665ZM928.439 33V24.072H930.599L930.779 25.224H930.851C931.223 24.852 931.619 24.534 932.039 24.27C932.459 23.994 932.963 23.856 933.551 23.856C934.187 23.856 934.697 23.988 935.081 24.252C935.477 24.504 935.789 24.87 936.017 25.35C936.413 24.942 936.827 24.594 937.259 24.306C937.703 24.006 938.225 23.856 938.825 23.856C939.785 23.856 940.487 24.18 940.931 24.828C941.387 25.464 941.615 26.34 941.615 27.456V33H938.969V27.798C938.969 27.15 938.879 26.706 938.699 26.466C938.519 26.226 938.243 26.106 937.871 26.106C937.427 26.106 936.917 26.394 936.341 26.97V33H933.695V27.798C933.695 27.15 933.605 26.706 933.425 26.466C933.257 26.226 932.981 26.106 932.597 26.106C932.141 26.106 931.637 26.394 931.085 26.97V33H928.439ZM948.823 31.164C949.123 31.164 949.381 31.098 949.597 30.966C949.825 30.834 950.053 30.648 950.281 30.408V28.842C949.345 28.974 948.697 29.166 948.337 29.418C947.977 29.67 947.797 29.97 947.797 30.318C947.797 30.882 948.139 31.164 948.823 31.164ZM947.923 33.216C947.107 33.216 946.459 32.958 945.979 32.442C945.499 31.914 945.259 31.272 945.259 30.516C945.259 29.58 945.655 28.848 946.447 28.32C947.239 27.792 948.517 27.438 950.281 27.258C950.257 26.862 950.137 26.55 949.921 26.322C949.717 26.082 949.369 25.962 948.877 25.962C948.505 25.962 948.127 26.034 947.743 26.178C947.359 26.322 946.951 26.52 946.519 26.772L945.565 25.026C946.129 24.678 946.729 24.396 947.365 24.18C948.001 23.964 948.673 23.856 949.381 23.856C950.521 23.856 951.397 24.186 952.009 24.846C952.621 25.506 952.927 26.52 952.927 27.888V33H950.767L950.587 32.082H950.515C950.131 32.418 949.729 32.694 949.309 32.91C948.889 33.114 948.427 33.216 947.923 33.216ZM956.965 33V24.072H959.125L959.305 25.638H959.377C959.701 25.038 960.091 24.594 960.547 24.306C961.003 24.006 961.459 23.856 961.915 23.856C962.167 23.856 962.371 23.874 962.527 23.91C962.695 23.946 962.845 23.988 962.977 24.036L962.545 26.322C962.389 26.274 962.233 26.238 962.077 26.214C961.933 26.19 961.765 26.178 961.573 26.178C961.237 26.178 960.883 26.304 960.511 26.556C960.151 26.796 959.851 27.216 959.611 27.816V33H956.965ZM967.05 36.492C966.786 36.492 966.552 36.474 966.348 36.438C966.156 36.402 965.97 36.36 965.79 36.312L966.258 34.296C966.342 34.32 966.438 34.344 966.546 34.368C966.654 34.392 966.756 34.404 966.852 34.404C967.296 34.404 967.638 34.296 967.878 34.08C968.118 33.864 968.298 33.582 968.418 33.234L968.544 32.766L965.106 24.072H967.77L969.048 27.906C969.18 28.314 969.3 28.728 969.408 29.148C969.516 29.568 969.63 30 969.75 30.444H969.822C969.918 30.024 970.014 29.604 970.11 29.184C970.218 28.752 970.326 28.326 970.434 27.906L971.514 24.072H974.052L970.956 33.09C970.536 34.218 970.044 35.064 969.48 35.628C968.916 36.204 968.106 36.492 967.05 36.492ZM982.74 33V30.858H985.224V24.252H983.082V22.614C983.706 22.494 984.234 22.35 984.666 22.182C985.098 22.014 985.518 21.81 985.926 21.57H987.87V30.858H990.012V33H982.74ZM997.542 33.216C996.318 33.216 995.328 32.706 994.572 31.686C993.828 30.666 993.456 29.184 993.456 27.24C993.456 25.296 993.828 23.832 994.572 22.848C995.328 21.852 996.318 21.354 997.542 21.354C998.766 21.354 999.75 21.852 1000.49 22.848C1001.25 23.832 1001.63 25.296 1001.63 27.24C1001.63 29.184 1001.25 30.666 1000.49 31.686C999.75 32.706 998.766 33.216 997.542 33.216ZM997.542 31.164C997.998 31.164 998.376 30.9 998.676 30.372C998.976 29.844 999.126 28.8 999.126 27.24C999.126 25.68 998.976 24.654 998.676 24.162C998.376 23.658 997.998 23.406 997.542 23.406C997.098 23.406 996.72 23.658 996.408 24.162C996.108 24.654 995.958 25.68 995.958 27.24C995.958 28.8 996.108 29.844 996.408 30.372C996.72 30.9 997.098 31.164 997.542 31.164ZM1008.85 33.216C1007.63 33.216 1006.64 32.706 1005.88 31.686C1005.14 30.666 1004.77 29.184 1004.77 27.24C1004.77 25.296 1005.14 23.832 1005.88 22.848C1006.64 21.852 1007.63 21.354 1008.85 21.354C1010.08 21.354 1011.06 21.852 1011.8 22.848C1012.56 23.832 1012.94 25.296 1012.94 27.24C1012.94 29.184 1012.56 30.666 1011.8 31.686C1011.06 32.706 1010.08 33.216 1008.85 33.216ZM1008.85 31.164C1009.31 31.164 1009.69 30.9 1009.99 30.372C1010.29 29.844 1010.44 28.8 1010.44 27.24C1010.44 25.68 1010.29 24.654 1009.99 24.162C1009.69 23.658 1009.31 23.406 1008.85 23.406C1008.41 23.406 1008.03 23.658 1007.72 24.162C1007.42 24.654 1007.27 25.68 1007.27 27.24C1007.27 28.8 1007.42 29.844 1007.72 30.372C1008.03 30.9 1008.41 31.164 1008.85 31.164Z" fill="#0C0C0C"/>
<path d="M900.386 210V198.264H904.418C905.702 198.264 906.8 198.54 907.712 199.092C908.624 199.644 909.08 200.628 909.08 202.044C909.08 203.424 908.624 204.432 907.712 205.068C906.8 205.704 905.726 206.022 904.49 206.022H903.032V210H900.386ZM903.032 203.916H904.328C905.768 203.916 906.488 203.292 906.488 202.044C906.488 201.432 906.296 201 905.912 200.748C905.528 200.496 904.976 200.37 904.256 200.37H903.032V203.916ZM912.693 210V201.072H914.853L915.033 202.638H915.105C915.429 202.038 915.819 201.594 916.275 201.306C916.731 201.006 917.187 200.856 917.643 200.856C917.895 200.856 918.099 200.874 918.255 200.91C918.423 200.946 918.573 200.988 918.705 201.036L918.273 203.322C918.117 203.274 917.961 203.238 917.805 203.214C917.661 203.19 917.493 203.178 917.301 203.178C916.965 203.178 916.611 203.304 916.239 203.556C915.879 203.796 915.579 204.216 915.339 204.816V210H912.693ZM922.979 199.758C922.535 199.758 922.169 199.632 921.881 199.38C921.593 199.116 921.449 198.78 921.449 198.372C921.449 197.964 921.593 197.634 921.881 197.382C922.169 197.13 922.535 197.004 922.979 197.004C923.435 197.004 923.801 197.13 924.077 197.382C924.365 197.634 924.509 197.964 924.509 198.372C924.509 198.78 924.365 199.116 924.077 199.38C923.801 199.632 923.435 199.758 922.979 199.758ZM921.665 210V201.072H924.311V210H921.665ZM928.439 210V201.072H930.599L930.779 202.224H930.851C931.223 201.852 931.619 201.534 932.039 201.27C932.459 200.994 932.963 200.856 933.551 200.856C934.187 200.856 934.697 200.988 935.081 201.252C935.477 201.504 935.789 201.87 936.017 202.35C936.413 201.942 936.827 201.594 937.259 201.306C937.703 201.006 938.225 200.856 938.825 200.856C939.785 200.856 940.487 201.18 940.931 201.828C941.387 202.464 941.615 203.34 941.615 204.456V210H938.969V204.798C938.969 204.15 938.879 203.706 938.699 203.466C938.519 203.226 938.243 203.106 937.871 203.106C937.427 203.106 936.917 203.394 936.341 203.97V210H933.695V204.798C933.695 204.15 933.605 203.706 933.425 203.466C933.257 203.226 932.981 203.106 932.597 203.106C932.141 203.106 931.637 203.394 931.085 203.97V210H928.439ZM948.823 208.164C949.123 208.164 949.381 208.098 949.597 207.966C949.825 207.834 950.053 207.648 950.281 207.408V205.842C949.345 205.974 948.697 206.166 948.337 206.418C947.977 206.67 947.797 206.97 947.797 207.318C947.797 207.882 948.139 208.164 948.823 208.164ZM947.923 210.216C947.107 210.216 946.459 209.958 945.979 209.442C945.499 208.914 945.259 208.272 945.259 207.516C945.259 206.58 945.655 205.848 946.447 205.32C947.239 204.792 948.517 204.438 950.281 204.258C950.257 203.862 950.137 203.55 949.921 203.322C949.717 203.082 949.369 202.962 948.877 202.962C948.505 202.962 948.127 203.034 947.743 203.178C947.359 203.322 946.951 203.52 946.519 203.772L945.565 202.026C946.129 201.678 946.729 201.396 947.365 201.18C948.001 200.964 948.673 200.856 949.381 200.856C950.521 200.856 951.397 201.186 952.009 201.846C952.621 202.506 952.927 203.52 952.927 204.888V210H950.767L950.587 209.082H950.515C950.131 209.418 949.729 209.694 949.309 209.91C948.889 210.114 948.427 210.216 947.923 210.216ZM956.965 210V201.072H959.125L959.305 202.638H959.377C959.701 202.038 960.091 201.594 960.547 201.306C961.003 201.006 961.459 200.856 961.915 200.856C962.167 200.856 962.371 200.874 962.527 200.91C962.695 200.946 962.845 200.988 962.977 201.036L962.545 203.322C962.389 203.274 962.233 203.238 962.077 203.214C961.933 203.19 961.765 203.178 961.573 203.178C961.237 203.178 960.883 203.304 960.511 203.556C960.151 203.796 959.851 204.216 959.611 204.816V210H956.965ZM967.05 213.492C966.786 213.492 966.552 213.474 966.348 213.438C966.156 213.402 965.97 213.36 965.79 213.312L966.258 211.296C966.342 211.32 966.438 211.344 966.546 211.368C966.654 211.392 966.756 211.404 966.852 211.404C967.296 211.404 967.638 211.296 967.878 211.08C968.118 210.864 968.298 210.582 968.418 210.234L968.544 209.766L965.106 201.072H967.77L969.048 204.906C969.18 205.314 969.3 205.728 969.408 206.148C969.516 206.568 969.63 207 969.75 207.444H969.822C969.918 207.024 970.014 206.604 970.11 206.184C970.218 205.752 970.326 205.326 970.434 204.906L971.514 201.072H974.052L970.956 210.09C970.536 211.218 970.044 212.064 969.48 212.628C968.916 213.204 968.106 213.492 967.05 213.492ZM986.016 203.844C986.316 203.844 986.616 203.76 986.916 203.592C987.228 203.412 987.498 203.118 987.726 202.71C987.606 201.81 987.378 201.192 987.042 200.856C986.706 200.508 986.34 200.334 985.944 200.334C985.56 200.334 985.224 200.484 984.936 200.784C984.648 201.072 984.504 201.54 984.504 202.188C984.504 202.788 984.648 203.214 984.936 203.466C985.224 203.718 985.584 203.844 986.016 203.844ZM985.602 210.216C984.846 210.216 984.186 210.078 983.622 209.802C983.07 209.526 982.614 209.208 982.254 208.848L983.658 207.264C983.85 207.48 984.108 207.672 984.432 207.84C984.756 207.996 985.086 208.074 985.422 208.074C986.058 208.074 986.598 207.816 987.042 207.3C987.486 206.772 987.732 205.842 987.78 204.51C987.48 204.894 987.114 205.194 986.682 205.41C986.25 205.614 985.854 205.716 985.494 205.716C984.522 205.716 983.712 205.428 983.064 204.852C982.416 204.276 982.092 203.388 982.092 202.188C982.092 201 982.464 200.064 983.208 199.38C983.964 198.696 984.858 198.354 985.89 198.354C986.622 198.354 987.318 198.552 987.978 198.948C988.65 199.332 989.19 199.938 989.598 200.766C990.018 201.594 990.228 202.68 990.228 204.024C990.228 205.44 990.006 206.61 989.562 207.534C989.13 208.446 988.56 209.124 987.852 209.568C987.156 210 986.406 210.216 985.602 210.216ZM997.542 210.216C996.318 210.216 995.328 209.706 994.572 208.686C993.828 207.666 993.456 206.184 993.456 204.24C993.456 202.296 993.828 200.832 994.572 199.848C995.328 198.852 996.318 198.354 997.542 198.354C998.766 198.354 999.75 198.852 1000.49 199.848C1001.25 200.832 1001.63 202.296 1001.63 204.24C1001.63 206.184 1001.25 207.666 1000.49 208.686C999.75 209.706 998.766 210.216 997.542 210.216ZM997.542 208.164C997.998 208.164 998.376 207.9 998.676 207.372C998.976 206.844 999.126 205.8 999.126 204.24C999.126 202.68 998.976 201.654 998.676 201.162C998.376 200.658 997.998 200.406 997.542 200.406C997.098 200.406 996.72 200.658 996.408 201.162C996.108 201.654 995.958 202.68 995.958 204.24C995.958 205.8 996.108 206.844 996.408 207.372C996.72 207.9 997.098 208.164 997.542 208.164ZM1008.85 210.216C1007.63 210.216 1006.64 209.706 1005.88 208.686C1005.14 207.666 1004.77 206.184 1004.77 204.24C1004.77 202.296 1005.14 200.832 1005.88 199.848C1006.64 198.852 1007.63 198.354 1008.85 198.354C1010.08 198.354 1011.06 198.852 1011.8 199.848C1012.56 200.832 1012.94 202.296 1012.94 204.24C1012.94 206.184 1012.56 207.666 1011.8 208.686C1011.06 209.706 1010.08 210.216 1008.85 210.216ZM1008.85 208.164C1009.31 208.164 1009.69 207.9 1009.99 207.372C1010.29 206.844 1010.44 205.8 1010.44 204.24C1010.44 202.68 1010.29 201.654 1009.99 201.162C1009.69 200.658 1009.31 200.406 1008.85 200.406C1008.41 200.406 1008.03 200.658 1007.72 201.162C1007.42 201.654 1007.27 202.68 1007.27 204.24C1007.27 205.8 1007.42 206.844 1007.72 207.372C1008.03 207.9 1008.41 208.164 1008.85 208.164Z" fill="white"/>
<path d="M19.168 58.302H21.544L21.868 55.638H19.492L19.168 58.302ZM17.62 63L18.07 59.328H16.63V58.302H18.196L18.52 55.638H16.99V54.594H18.646L19.06 51.3H20.014L19.6 54.594H21.994L22.426 51.3H23.38L22.948 54.594H24.406V55.638H22.84L22.516 58.302H24.046V59.328H22.39L21.94 63H20.986L21.418 59.328H19.042L18.592 63H17.62ZM28.3673 63V51.192H31.3193C33.1433 51.192 34.5293 51.702 35.4773 52.722C36.4253 53.73 36.8993 55.17 36.8993 57.042C36.8993 58.926 36.4253 60.39 35.4773 61.434C34.5293 62.478 33.1673 63 31.3913 63H28.3673ZM29.8613 61.776H31.2113C32.5913 61.776 33.6233 61.362 34.3073 60.534C35.0033 59.706 35.3513 58.542 35.3513 57.042C35.3513 55.554 35.0033 54.414 34.3073 53.622C33.6233 52.818 32.5913 52.416 31.2113 52.416H29.8613V61.776ZM41.4935 58.644H45.0935V55.314C45.0935 55.014 45.1055 54.648 45.1295 54.216C45.1535 53.784 45.1715 53.412 45.1835 53.1H45.1115C44.9675 53.376 44.8115 53.646 44.6435 53.91C44.4875 54.174 44.3315 54.444 44.1755 54.72L41.4935 58.644ZM48.0635 59.832H46.4975V63H45.0935V59.832H39.9275V58.86L44.8415 51.516H46.4975V58.644H48.0635V59.832ZM54.0228 56.394L53.4648 58.194H57.0108L56.4528 56.394C56.2368 55.734 56.0328 55.08 55.8408 54.432C55.6488 53.772 55.4568 53.1 55.2648 52.416H55.1928C55.0128 53.1 54.8268 53.772 54.6348 54.432C54.4428 55.08 54.2388 55.734 54.0228 56.394ZM58.5048 63L57.3888 59.4H53.0868L51.9528 63H50.4228L54.4188 51.192H56.1108L60.1068 63H58.5048ZM63.5798 63V51.192H70.3838V52.452H65.0738V56.448H69.5738V57.708H65.0738V63H63.5798ZM76.9023 63.216C75.9903 63.216 75.2283 63.054 74.6163 62.73C74.0043 62.394 73.5063 62.016 73.1223 61.596L73.8783 60.624C74.2143 60.984 74.6163 61.302 75.0843 61.578C75.5643 61.854 76.1403 61.992 76.8123 61.992C77.5083 61.992 78.0783 61.8 78.5223 61.416C78.9663 61.032 79.1883 60.522 79.1883 59.886C79.1883 59.202 78.9183 58.65 78.3783 58.23C77.8383 57.81 76.8843 57.6 75.5163 57.6V56.466C76.7403 56.466 77.5863 56.262 78.0543 55.854C78.5343 55.434 78.7743 54.924 78.7743 54.324C78.7743 53.772 78.5943 53.334 78.2343 53.01C77.8863 52.674 77.4063 52.506 76.7943 52.506C76.3143 52.506 75.8703 52.62 75.4623 52.848C75.0543 53.064 74.6823 53.34 74.3463 53.676L73.5543 52.74C73.9983 52.332 74.4903 51.99 75.0303 51.714C75.5703 51.438 76.1763 51.3 76.8483 51.3C77.8443 51.3 78.6663 51.558 79.3143 52.074C79.9623 52.578 80.2863 53.292 80.2863 54.216C80.2863 54.912 80.0943 55.482 79.7103 55.926C79.3263 56.37 78.8223 56.712 78.1983 56.952V57.024C78.8943 57.192 79.4823 57.522 79.9623 58.014C80.4423 58.506 80.6823 59.148 80.6823 59.94C80.6823 60.96 80.3163 61.764 79.5843 62.352C78.8523 62.928 77.9583 63.216 76.9023 63.216ZM86.5876 63C86.6476 61.56 86.7976 60.27 87.0376 59.13C87.2776 57.978 87.6256 56.898 88.0816 55.89C88.5496 54.87 89.1616 53.838 89.9176 52.794H84.1936V51.516H91.5916V52.434C90.6916 53.598 90.0016 54.702 89.5216 55.746C89.0416 56.778 88.7056 57.876 88.5136 59.04C88.3216 60.192 88.1896 61.512 88.1176 63H86.5876Z" fill="#0C0C0C"/>
<path d="M372.168 58.302H374.544L374.868 55.638H372.492L372.168 58.302ZM370.62 63L371.07 59.328H369.63V58.302H371.196L371.52 55.638H369.99V54.594H371.646L372.06 51.3H373.014L372.6 54.594H374.994L375.426 51.3H376.38L375.948 54.594H377.406V55.638H375.84L375.516 58.302H377.046V59.328H375.39L374.94 63H373.986L374.418 59.328H372.042L371.592 63H370.62ZM381.367 63V51.192H384.319C386.143 51.192 387.529 51.702 388.477 52.722C389.425 53.73 389.899 55.17 389.899 57.042C389.899 58.926 389.425 60.39 388.477 61.434C387.529 62.478 386.167 63 384.391 63H381.367ZM382.861 61.776H384.211C385.591 61.776 386.623 61.362 387.307 60.534C388.003 59.706 388.351 58.542 388.351 57.042C388.351 55.554 388.003 54.414 387.307 53.622C386.623 52.818 385.591 52.416 384.211 52.416H382.861V61.776ZM397.121 63.216C396.041 63.216 395.141 62.922 394.421 62.334C393.713 61.734 393.359 60.978 393.359 60.066C393.359 59.322 393.581 58.692 394.025 58.176C394.481 57.66 394.979 57.258 395.519 56.97V56.898C395.099 56.598 394.727 56.232 394.403 55.8C394.079 55.368 393.917 54.852 393.917 54.252C393.917 53.364 394.229 52.65 394.853 52.11C395.477 51.57 396.251 51.3 397.175 51.3C398.171 51.3 398.957 51.588 399.533 52.164C400.121 52.74 400.415 53.472 400.415 54.36C400.415 54.96 400.235 55.506 399.875 55.998C399.527 56.49 399.179 56.868 398.831 57.132V57.204C399.347 57.504 399.809 57.882 400.217 58.338C400.625 58.782 400.829 59.388 400.829 60.156C400.829 61.008 400.487 61.734 399.803 62.334C399.131 62.922 398.237 63.216 397.121 63.216ZM397.931 56.736C398.735 56.028 399.137 55.26 399.137 54.432C399.137 53.868 398.963 53.388 398.615 52.992C398.267 52.596 397.775 52.398 397.139 52.398C396.611 52.398 396.167 52.572 395.807 52.92C395.459 53.256 395.285 53.7 395.285 54.252C395.285 54.936 395.549 55.458 396.077 55.818C396.617 56.166 397.235 56.472 397.931 56.736ZM397.157 62.118C397.829 62.118 398.369 61.932 398.777 61.56C399.197 61.176 399.407 60.69 399.407 60.102C399.407 59.37 399.095 58.824 398.471 58.464C397.847 58.104 397.121 57.756 396.293 57.42C395.837 57.732 395.453 58.098 395.141 58.518C394.841 58.938 394.691 59.406 394.691 59.922C394.691 60.558 394.925 61.086 395.393 61.506C395.873 61.914 396.461 62.118 397.157 62.118ZM404.989 63V51.192H408.499C409.699 51.192 410.671 51.414 411.415 51.858C412.171 52.302 412.549 53.04 412.549 54.072C412.549 54.66 412.399 55.194 412.099 55.674C411.799 56.142 411.373 56.466 410.821 56.646V56.718C411.529 56.85 412.105 57.15 412.549 57.618C413.005 58.086 413.233 58.728 413.233 59.544C413.233 60.708 412.813 61.578 411.973 62.154C411.145 62.718 410.071 63 408.751 63H404.989ZM406.483 56.214H408.229C409.237 56.214 409.963 56.04 410.407 55.692C410.851 55.344 411.073 54.87 411.073 54.27C411.073 53.586 410.839 53.1 410.371 52.812C409.903 52.524 409.213 52.38 408.301 52.38H406.483V56.214ZM406.483 61.812H408.535C409.555 61.812 410.347 61.626 410.911 61.254C411.475 60.87 411.757 60.282 411.757 59.49C411.757 58.758 411.475 58.224 410.911 57.888C410.359 57.54 409.567 57.366 408.535 57.366H406.483V61.812ZM418.937 63C418.997 61.56 419.147 60.27 419.387 59.13C419.627 57.978 419.975 56.898 420.431 55.89C420.899 54.87 421.511 53.838 422.267 52.794H416.543V51.516H423.941V52.434C423.041 53.598 422.351 54.702 421.871 55.746C421.391 56.778 421.055 57.876 420.863 59.04C420.671 60.192 420.539 61.512 420.467 63H418.937ZM428.37 58.644H431.97V55.314C431.97 55.014 431.982 54.648 432.006 54.216C432.03 53.784 432.048 53.412 432.06 53.1H431.988C431.844 53.376 431.688 53.646 431.52 53.91C431.364 54.174 431.208 54.444 431.052 54.72L428.37 58.644ZM434.94 59.832H433.374V63H431.97V59.832H426.804V58.86L431.718 51.516H433.374V58.644H434.94V59.832ZM438.865 63V51.192H442.375C443.575 51.192 444.547 51.414 445.291 51.858C446.047 52.302 446.425 53.04 446.425 54.072C446.425 54.66 446.275 55.194 445.975 55.674C445.675 56.142 445.249 56.466 444.697 56.646V56.718C445.405 56.85 445.981 57.15 446.425 57.618C446.881 58.086 447.109 58.728 447.109 59.544C447.109 60.708 446.689 61.578 445.849 62.154C445.021 62.718 443.947 63 442.627 63H438.865ZM440.359 56.214H442.105C443.113 56.214 443.839 56.04 444.283 55.692C444.727 55.344 444.949 54.87 444.949 54.27C444.949 53.586 444.715 53.1 444.247 52.812C443.779 52.524 443.089 52.38 442.177 52.38H440.359V56.214ZM440.359 61.812H442.411C443.431 61.812 444.223 61.626 444.787 61.254C445.351 60.87 445.633 60.282 445.633 59.49C445.633 58.758 445.351 58.224 444.787 57.888C444.235 57.54 443.443 57.366 442.411 57.366H440.359V61.812Z" fill="#0C0C0C"/>
<path d="M372.168 235.302H374.544L374.868 232.638H372.492L372.168 235.302ZM370.62 240L371.07 236.328H369.63V235.302H371.196L371.52 232.638H369.99V231.594H371.646L372.06 228.3H373.014L372.6 231.594H374.994L375.426 228.3H376.38L375.948 231.594H377.406V232.638H375.84L375.516 235.302H377.046V236.328H375.39L374.94 240H373.986L374.418 236.328H372.042L371.592 240H370.62ZM381.367 240V228.192H384.877C386.077 228.192 387.049 228.414 387.793 228.858C388.549 229.302 388.927 230.04 388.927 231.072C388.927 231.66 388.777 232.194 388.477 232.674C388.177 233.142 387.751 233.466 387.199 233.646V233.718C387.907 233.85 388.483 234.15 388.927 234.618C389.383 235.086 389.611 235.728 389.611 236.544C389.611 237.708 389.191 238.578 388.351 239.154C387.523 239.718 386.449 240 385.129 240H381.367ZM382.861 233.214H384.607C385.615 233.214 386.341 233.04 386.785 232.692C387.229 232.344 387.451 231.87 387.451 231.27C387.451 230.586 387.217 230.1 386.749 229.812C386.281 229.524 385.591 229.38 384.679 229.38H382.861V233.214ZM382.861 238.812H384.913C385.933 238.812 386.725 238.626 387.289 238.254C387.853 237.87 388.135 237.282 388.135 236.49C388.135 235.758 387.853 235.224 387.289 234.888C386.737 234.54 385.945 234.366 384.913 234.366H382.861V238.812ZM393.749 240V228.192H400.553V229.452H395.243V233.448H399.743V234.708H395.243V240H393.749ZM407.054 234.42C407.426 234.42 407.828 234.3 408.26 234.06C408.692 233.82 409.094 233.43 409.466 232.89C409.274 230.61 408.428 229.47 406.928 229.47C406.376 229.47 405.902 229.704 405.506 230.172C405.122 230.628 404.93 231.234 404.93 231.99C404.93 232.734 405.104 233.328 405.452 233.772C405.812 234.204 406.346 234.42 407.054 234.42ZM406.514 240.216C405.902 240.216 405.362 240.102 404.894 239.874C404.438 239.646 404.054 239.358 403.742 239.01L404.57 238.074C405.086 238.686 405.716 238.992 406.46 238.992C407.264 238.992 407.96 238.632 408.548 237.912C409.148 237.18 409.466 235.896 409.502 234.06C408.734 235.044 407.834 235.536 406.802 235.536C405.806 235.536 405.014 235.242 404.426 234.654C403.838 234.054 403.544 233.166 403.544 231.99C403.544 230.898 403.88 230.01 404.552 229.326C405.224 228.642 406.016 228.3 406.928 228.3C408.056 228.3 408.998 228.762 409.754 229.686C410.51 230.598 410.888 231.978 410.888 233.826C410.888 235.362 410.678 236.598 410.258 237.534C409.85 238.47 409.31 239.154 408.638 239.586C407.978 240.006 407.27 240.216 406.514 240.216ZM415.191 240V228.192H421.995V229.452H416.685V233.16H421.167V234.438H416.685V238.722H422.175V240H415.191ZM429.111 240.216C428.199 240.216 427.437 240.054 426.825 239.73C426.213 239.394 425.715 239.016 425.331 238.596L426.087 237.624C426.423 237.984 426.825 238.302 427.293 238.578C427.773 238.854 428.349 238.992 429.021 238.992C429.717 238.992 430.287 238.8 430.731 238.416C431.175 238.032 431.397 237.522 431.397 236.886C431.397 236.202 431.127 235.65 430.587 235.23C430.047 234.81 429.093 234.6 427.725 234.6V233.466C428.949 233.466 429.795 233.262 430.263 232.854C430.743 232.434 430.983 231.924 430.983 231.324C430.983 230.772 430.803 230.334 430.443 230.01C430.095 229.674 429.615 229.506 429.003 229.506C428.523 229.506 428.079 229.62 427.671 229.848C427.263 230.064 426.891 230.34 426.555 230.676L425.763 229.74C426.207 229.332 426.699 228.99 427.239 228.714C427.779 228.438 428.385 228.3 429.057 228.3C430.053 228.3 430.875 228.558 431.523 229.074C432.171 229.578 432.495 230.292 432.495 231.216C432.495 231.912 432.303 232.482 431.919 232.926C431.535 233.37 431.031 233.712 430.407 233.952V234.024C431.103 234.192 431.691 234.522 432.171 235.014C432.651 235.506 432.891 236.148 432.891 236.94C432.891 237.96 432.525 238.764 431.793 239.352C431.061 239.928 430.167 240.216 429.111 240.216ZM436.331 240V239.118C438.059 237.402 439.391 235.98 440.327 234.852C441.263 233.712 441.731 232.68 441.731 231.756C441.731 231.096 441.551 230.556 441.191 230.136C440.831 229.716 440.285 229.506 439.553 229.506C439.073 229.506 438.629 229.644 438.221 229.92C437.813 230.184 437.441 230.508 437.105 230.892L436.259 230.046C436.739 229.53 437.249 229.11 437.789 228.786C438.341 228.462 438.989 228.3 439.733 228.3C440.801 228.3 441.641 228.612 442.253 229.236C442.865 229.848 443.171 230.664 443.171 231.684C443.171 232.764 442.727 233.868 441.839 234.996C440.963 236.124 439.847 237.402 438.491 238.83C438.803 238.806 439.127 238.782 439.463 238.758C439.799 238.734 440.117 238.722 440.417 238.722H443.747V240H436.331Z" fill="#0C0C0C"/>
<path d="M549.168 58.302H551.544L551.868 55.638H549.492L549.168 58.302ZM547.62 63L548.07 59.328H546.63V58.302H548.196L548.52 55.638H546.99V54.594H548.646L549.06 51.3H550.014L549.6 54.594H551.994L552.426 51.3H553.38L552.948 54.594H554.406V55.638H552.84L552.516 58.302H554.046V59.328H552.39L551.94 63H550.986L551.418 59.328H549.042L548.592 63H547.62ZM558.367 63V51.192H561.319C563.143 51.192 564.529 51.702 565.477 52.722C566.425 53.73 566.899 55.17 566.899 57.042C566.899 58.926 566.425 60.39 565.477 61.434C564.529 62.478 563.167 63 561.391 63H558.367ZM559.861 61.776H561.211C562.591 61.776 563.623 61.362 564.307 60.534C565.003 59.706 565.351 58.542 565.351 57.042C565.351 55.554 565.003 54.414 564.307 53.622C563.623 52.818 562.591 52.416 561.211 52.416H559.861V61.776ZM571.241 63V51.192H574.193C576.017 51.192 577.403 51.702 578.351 52.722C579.299 53.73 579.773 55.17 579.773 57.042C579.773 58.926 579.299 60.39 578.351 61.434C577.403 62.478 576.041 63 574.265 63H571.241ZM572.735 61.776H574.085C575.465 61.776 576.497 61.362 577.181 60.534C577.877 59.706 578.225 58.542 578.225 57.042C578.225 55.554 577.877 54.414 577.181 53.622C576.497 52.818 575.465 52.416 574.085 52.416H572.735V61.776ZM584.116 63V51.192H587.626C588.826 51.192 589.798 51.414 590.542 51.858C591.298 52.302 591.676 53.04 591.676 54.072C591.676 54.66 591.526 55.194 591.226 55.674C590.926 56.142 590.5 56.466 589.948 56.646V56.718C590.656 56.85 591.232 57.15 591.676 57.618C592.132 58.086 592.36 58.728 592.36 59.544C592.36 60.708 591.94 61.578 591.1 62.154C590.272 62.718 589.198 63 587.878 63H584.116ZM585.61 56.214H587.356C588.364 56.214 589.09 56.04 589.534 55.692C589.978 55.344 590.2 54.87 590.2 54.27C590.2 53.586 589.966 53.1 589.498 52.812C589.03 52.524 588.34 52.38 587.428 52.38H585.61V56.214ZM585.61 61.812H587.662C588.682 61.812 589.474 61.626 590.038 61.254C590.602 60.87 590.884 60.282 590.884 59.49C590.884 58.758 590.602 58.224 590.038 57.888C589.486 57.54 588.694 57.366 587.662 57.366H585.61V61.812ZM596.498 63V51.192H603.302V52.452H597.992V56.448H602.492V57.708H597.992V63H596.498ZM609.784 63.216C608.872 63.216 608.116 63.054 607.516 62.73C606.916 62.406 606.418 62.046 606.022 61.65L606.742 60.678C607.09 61.026 607.492 61.332 607.948 61.596C608.404 61.86 608.968 61.992 609.64 61.992C610.336 61.992 610.93 61.758 611.422 61.29C611.914 60.81 612.16 60.168 612.16 59.364C612.16 58.572 611.938 57.954 611.494 57.51C611.05 57.066 610.456 56.844 609.712 56.844C609.316 56.844 608.974 56.904 608.686 57.024C608.41 57.144 608.098 57.318 607.75 57.546L606.958 57.042L607.336 51.516H613.078V52.794H608.632L608.326 56.196C608.602 56.052 608.878 55.938 609.154 55.854C609.43 55.77 609.742 55.728 610.09 55.728C611.074 55.728 611.914 56.016 612.61 56.592C613.306 57.168 613.654 58.08 613.654 59.328C613.654 60.576 613.258 61.536 612.466 62.208C611.674 62.88 610.78 63.216 609.784 63.216ZM617.94 63V51.192H624.744V52.452H619.434V56.448H623.934V57.708H619.434V63H617.94Z" fill="#0C0C0C"/>
<path d="M549.168 235.302H551.544L551.868 232.638H549.492L549.168 235.302ZM547.62 240L548.07 236.328H546.63V235.302H548.196L548.52 232.638H546.99V231.594H548.646L549.06 228.3H550.014L549.6 231.594H551.994L552.426 228.3H553.38L552.948 231.594H554.406V232.638H552.84L552.516 235.302H554.046V236.328H552.39L551.94 240H550.986L551.418 236.328H549.042L548.592 240H547.62ZM560.401 233.394L559.843 235.194H563.389L562.831 233.394C562.615 232.734 562.411 232.08 562.219 231.432C562.027 230.772 561.835 230.1 561.643 229.416H561.571C561.391 230.1 561.205 230.772 561.013 231.432C560.821 232.08 560.617 232.734 560.401 233.394ZM564.883 240L563.767 236.4H559.465L558.331 240H556.801L560.797 228.192H562.489L566.485 240H564.883ZM571.887 233.394L571.329 235.194H574.875L574.317 233.394C574.101 232.734 573.897 232.08 573.705 231.432C573.513 230.772 573.321 230.1 573.129 229.416H573.057C572.877 230.1 572.691 230.772 572.499 231.432C572.307 232.08 572.103 232.734 571.887 233.394ZM576.369 240L575.253 236.4H570.951L569.817 240H568.287L572.283 228.192H573.975L577.971 240H576.369ZM584.324 240.216C583.244 240.216 582.344 239.922 581.624 239.334C580.916 238.734 580.562 237.978 580.562 237.066C580.562 236.322 580.784 235.692 581.228 235.176C581.684 234.66 582.182 234.258 582.722 233.97V233.898C582.302 233.598 581.93 233.232 581.606 232.8C581.282 232.368 581.12 231.852 581.12 231.252C581.12 230.364 581.432 229.65 582.056 229.11C582.68 228.57 583.454 228.3 584.378 228.3C585.374 228.3 586.16 228.588 586.736 229.164C587.324 229.74 587.618 230.472 587.618 231.36C587.618 231.96 587.438 232.506 587.078 232.998C586.73 233.49 586.382 233.868 586.034 234.132V234.204C586.55 234.504 587.012 234.882 587.42 235.338C587.828 235.782 588.032 236.388 588.032 237.156C588.032 238.008 587.69 238.734 587.006 239.334C586.334 239.922 585.44 240.216 584.324 240.216ZM585.134 233.736C585.938 233.028 586.34 232.26 586.34 231.432C586.34 230.868 586.166 230.388 585.818 229.992C585.47 229.596 584.978 229.398 584.342 229.398C583.814 229.398 583.37 229.572 583.01 229.92C582.662 230.256 582.488 230.7 582.488 231.252C582.488 231.936 582.752 232.458 583.28 232.818C583.82 233.166 584.438 233.472 585.134 233.736ZM584.36 239.118C585.032 239.118 585.572 238.932 585.98 238.56C586.4 238.176 586.61 237.69 586.61 237.102C586.61 236.37 586.298 235.824 585.674 235.464C585.05 235.104 584.324 234.756 583.496 234.42C583.04 234.732 582.656 235.098 582.344 235.518C582.044 235.938 581.894 236.406 581.894 236.922C581.894 237.558 582.128 238.086 582.596 238.506C583.076 238.914 583.664 239.118 584.36 239.118ZM596.655 240.216C595.179 240.216 593.949 239.676 592.965 238.596C591.993 237.516 591.507 236.016 591.507 234.096C591.507 232.2 592.005 230.706 593.001 229.614C593.997 228.522 595.245 227.976 596.745 227.976C597.465 227.976 598.095 228.126 598.635 228.426C599.187 228.714 599.637 229.05 599.985 229.434L599.175 230.406C598.863 230.07 598.509 229.8 598.113 229.596C597.717 229.392 597.267 229.29 596.763 229.29C595.647 229.29 594.747 229.722 594.063 230.586C593.391 231.438 593.055 232.596 593.055 234.06C593.055 235.548 593.385 236.73 594.045 237.606C594.705 238.47 595.593 238.902 596.709 238.902C597.273 238.902 597.777 238.788 598.221 238.56C598.665 238.32 599.073 237.99 599.445 237.57L600.273 238.506C599.805 239.046 599.277 239.466 598.689 239.766C598.101 240.066 597.423 240.216 596.655 240.216ZM603.374 240V239.118C605.102 237.402 606.434 235.98 607.37 234.852C608.306 233.712 608.774 232.68 608.774 231.756C608.774 231.096 608.594 230.556 608.234 230.136C607.874 229.716 607.328 229.506 606.596 229.506C606.116 229.506 605.672 229.644 605.264 229.92C604.856 230.184 604.484 230.508 604.148 230.892L603.302 230.046C603.782 229.53 604.292 229.11 604.832 228.786C605.384 228.462 606.032 228.3 606.776 228.3C607.844 228.3 608.684 228.612 609.296 229.236C609.908 229.848 610.214 230.664 610.214 231.684C610.214 232.764 609.77 233.868 608.882 234.996C608.006 236.124 606.89 237.402 605.534 238.83C605.846 238.806 606.17 238.782 606.506 238.758C606.842 238.734 607.16 238.722 607.46 238.722H610.79V240H603.374ZM619.486 240.216C618.01 240.216 616.78 239.676 615.796 238.596C614.824 237.516 614.338 236.016 614.338 234.096C614.338 232.2 614.836 230.706 615.832 229.614C616.828 228.522 618.076 227.976 619.576 227.976C620.296 227.976 620.926 228.126 621.466 228.426C622.018 228.714 622.468 229.05 622.816 229.434L622.006 230.406C621.694 230.07 621.34 229.8 620.944 229.596C620.548 229.392 620.098 229.29 619.594 229.29C618.478 229.29 617.578 229.722 616.894 230.586C616.222 231.438 615.886 232.596 615.886 234.06C615.886 235.548 616.216 236.73 616.876 237.606C617.536 238.47 618.424 238.902 619.54 238.902C620.104 238.902 620.608 238.788 621.052 238.56C621.496 238.32 621.904 237.99 622.276 237.57L623.104 238.506C622.636 239.046 622.108 239.466 621.52 239.766C620.932 240.066 620.254 240.216 619.486 240.216Z" fill="#0C0C0C"/>
<path d="M726.168 58.302H728.544L728.868 55.638H726.492L726.168 58.302ZM724.62 63L725.07 59.328H723.63V58.302H725.196L725.52 55.638H723.99V54.594H725.646L726.06 51.3H727.014L726.6 54.594H728.994L729.426 51.3H730.38L729.948 54.594H731.406V55.638H729.84L729.516 58.302H731.046V59.328H729.39L728.94 63H727.986L728.418 59.328H726.042L725.592 63H724.62ZM735.367 63V51.192H742.171V52.452H736.861V56.16H741.343V57.438H736.861V61.722H742.351V63H735.367ZM746.461 63V61.776H749.089V53.316H747.001V52.362C747.517 52.278 747.973 52.164 748.369 52.02C748.765 51.876 749.119 51.708 749.431 51.516H750.565V61.776H752.941V63H746.461ZM761.871 63.216C760.395 63.216 759.165 62.676 758.181 61.596C757.209 60.516 756.723 59.016 756.723 57.096C756.723 55.2 757.221 53.706 758.217 52.614C759.213 51.522 760.461 50.976 761.961 50.976C762.681 50.976 763.311 51.126 763.851 51.426C764.403 51.714 764.853 52.05 765.201 52.434L764.391 53.406C764.079 53.07 763.725 52.8 763.329 52.596C762.933 52.392 762.483 52.29 761.979 52.29C760.863 52.29 759.963 52.722 759.279 53.586C758.607 54.438 758.271 55.596 758.271 57.06C758.271 58.548 758.601 59.73 759.261 60.606C759.921 61.47 760.809 61.902 761.925 61.902C762.489 61.902 762.993 61.788 763.437 61.56C763.881 61.32 764.289 60.99 764.661 60.57L765.489 61.506C765.021 62.046 764.493 62.466 763.905 62.766C763.317 63.066 762.639 63.216 761.871 63.216ZM771.056 63C771.116 61.56 771.266 60.27 771.506 59.13C771.746 57.978 772.094 56.898 772.55 55.89C773.018 54.87 773.63 53.838 774.386 52.794H768.662V51.516H776.06V52.434C775.16 53.598 774.47 54.702 773.99 55.746C773.51 56.778 773.174 57.876 772.982 59.04C772.79 60.192 772.658 61.512 772.586 63H771.056ZM781.803 63C781.863 61.56 782.013 60.27 782.253 59.13C782.493 57.978 782.841 56.898 783.297 55.89C783.765 54.87 784.377 53.838 785.133 52.794H779.409V51.516H786.807V52.434C785.907 53.598 785.217 54.702 784.737 55.746C784.257 56.778 783.921 57.876 783.729 59.04C783.537 60.192 783.405 61.512 783.333 63H781.803ZM793.612 63.216C792.7 63.216 791.938 63.054 791.326 62.73C790.714 62.394 790.216 62.016 789.832 61.596L790.588 60.624C790.924 60.984 791.326 61.302 791.794 61.578C792.274 61.854 792.85 61.992 793.522 61.992C794.218 61.992 794.788 61.8 795.232 61.416C795.676 61.032 795.898 60.522 795.898 59.886C795.898 59.202 795.628 58.65 795.088 58.23C794.548 57.81 793.594 57.6 792.226 57.6V56.466C793.45 56.466 794.296 56.262 794.764 55.854C795.244 55.434 795.484 54.924 795.484 54.324C795.484 53.772 795.304 53.334 794.944 53.01C794.596 52.674 794.116 52.506 793.504 52.506C793.024 52.506 792.58 52.62 792.172 52.848C791.764 53.064 791.392 53.34 791.056 53.676L790.264 52.74C790.708 52.332 791.2 51.99 791.74 51.714C792.28 51.438 792.886 51.3 793.558 51.3C794.554 51.3 795.376 51.558 796.024 52.074C796.672 52.578 796.996 53.292 796.996 54.216C796.996 54.912 796.804 55.482 796.42 55.926C796.036 56.37 795.532 56.712 794.908 56.952V57.024C795.604 57.192 796.192 57.522 796.672 58.014C797.152 58.506 797.392 59.148 797.392 59.94C797.392 60.96 797.026 61.764 796.294 62.352C795.562 62.928 794.668 63.216 793.612 63.216Z" fill="#0C0C0C"/>
<path d="M726.168 235.302H728.544L728.868 232.638H726.492L726.168 235.302ZM724.62 240L725.07 236.328H723.63V235.302H725.196L725.52 232.638H723.99V231.594H725.646L726.06 228.3H727.014L726.6 231.594H728.994L729.426 228.3H730.38L729.948 231.594H731.406V232.638H729.84L729.516 235.302H731.046V236.328H729.39L728.94 240H727.986L728.418 236.328H726.042L725.592 240H724.62ZM737.977 234.42C738.349 234.42 738.751 234.3 739.183 234.06C739.615 233.82 740.017 233.43 740.389 232.89C740.197 230.61 739.351 229.47 737.851 229.47C737.299 229.47 736.825 229.704 736.429 230.172C736.045 230.628 735.853 231.234 735.853 231.99C735.853 232.734 736.027 233.328 736.375 233.772C736.735 234.204 737.269 234.42 737.977 234.42ZM737.437 240.216C736.825 240.216 736.285 240.102 735.817 239.874C735.361 239.646 734.977 239.358 734.665 239.01L735.493 238.074C736.009 238.686 736.639 238.992 737.383 238.992C738.187 238.992 738.883 238.632 739.471 237.912C740.071 237.18 740.389 235.896 740.425 234.06C739.657 235.044 738.757 235.536 737.725 235.536C736.729 235.536 735.937 235.242 735.349 234.654C734.761 234.054 734.467 233.166 734.467 231.99C734.467 230.898 734.803 230.01 735.475 229.326C736.147 228.642 736.939 228.3 737.851 228.3C738.979 228.3 739.921 228.762 740.677 229.686C741.433 230.598 741.811 231.978 741.811 233.826C741.811 235.362 741.601 236.598 741.181 237.534C740.773 238.47 740.233 239.154 739.561 239.586C738.901 240.006 738.193 240.216 737.437 240.216ZM746.367 235.644H749.967V232.314C749.967 232.014 749.979 231.648 750.003 231.216C750.027 230.784 750.045 230.412 750.057 230.1H749.985C749.841 230.376 749.685 230.646 749.517 230.91C749.361 231.174 749.205 231.444 749.049 231.72L746.367 235.644ZM752.937 236.832H751.371V240H749.967V236.832H744.801V235.86L749.715 228.516H751.371V235.644H752.937V236.832ZM758.428 240C758.488 238.56 758.638 237.27 758.878 236.13C759.118 234.978 759.466 233.898 759.922 232.89C760.39 231.87 761.002 230.838 761.758 229.794H756.034V228.516H763.432V229.434C762.532 230.598 761.842 231.702 761.362 232.746C760.882 233.778 760.546 234.876 760.354 236.04C760.162 237.192 760.03 238.512 759.958 240H758.428ZM767.609 240V228.192H771.119C772.319 228.192 773.291 228.414 774.035 228.858C774.791 229.302 775.169 230.04 775.169 231.072C775.169 231.66 775.019 232.194 774.719 232.674C774.419 233.142 773.993 233.466 773.441 233.646V233.718C774.149 233.85 774.725 234.15 775.169 234.618C775.625 235.086 775.853 235.728 775.853 236.544C775.853 237.708 775.433 238.578 774.593 239.154C773.765 239.718 772.691 240 771.371 240H767.609ZM769.103 233.214H770.849C771.857 233.214 772.583 233.04 773.027 232.692C773.471 232.344 773.693 231.87 773.693 231.27C773.693 230.586 773.459 230.1 772.991 229.812C772.523 229.524 771.833 229.38 770.921 229.38H769.103V233.214ZM769.103 238.812H771.155C772.175 238.812 772.967 238.626 773.531 238.254C774.095 237.87 774.377 237.282 774.377 236.49C774.377 235.758 774.095 235.224 773.531 234.888C772.979 234.54 772.187 234.366 771.155 234.366H769.103V238.812ZM779.091 240V239.118C780.819 237.402 782.151 235.98 783.087 234.852C784.023 233.712 784.491 232.68 784.491 231.756C784.491 231.096 784.311 230.556 783.951 230.136C783.591 229.716 783.045 229.506 782.313 229.506C781.833 229.506 781.389 229.644 780.981 229.92C780.573 230.184 780.201 230.508 779.865 230.892L779.019 230.046C779.499 229.53 780.009 229.11 780.549 228.786C781.101 228.462 781.749 228.3 782.493 228.3C783.561 228.3 784.401 228.612 785.013 229.236C785.625 229.848 785.931 230.664 785.931 231.684C785.931 232.764 785.487 233.868 784.599 234.996C783.723 236.124 782.607 237.402 781.251 238.83C781.563 238.806 781.887 238.782 782.223 238.758C782.559 238.734 782.877 238.722 783.177 238.722H786.507V240H779.091ZM792.304 240C792.364 238.56 792.514 237.27 792.754 236.13C792.994 234.978 793.342 233.898 793.798 232.89C794.266 231.87 794.878 230.838 795.634 229.794H789.91V228.516H797.308V229.434C796.408 230.598 795.718 231.702 795.238 232.746C794.758 233.778 794.422 234.876 794.23 236.04C794.038 237.192 793.906 238.512 793.834 240H792.304Z" fill="#0C0C0C"/>
<path d="M902.168 58.302H904.544L904.868 55.638H902.492L902.168 58.302ZM900.62 63L901.07 59.328H899.63V58.302H901.196L901.52 55.638H899.99V54.594H901.646L902.06 51.3H903.014L902.6 54.594H904.994L905.426 51.3H906.38L905.948 54.594H907.406V55.638H905.84L905.516 58.302H907.046V59.328H905.39L904.94 63H903.986L904.418 59.328H902.042L901.592 63H900.62ZM911.367 63V51.192H918.171V52.452H912.861V56.16H917.343V57.438H912.861V61.722H918.351V63H911.367ZM925.287 63.216C924.375 63.216 923.613 63.054 923.001 62.73C922.389 62.394 921.891 62.016 921.507 61.596L922.263 60.624C922.599 60.984 923.001 61.302 923.469 61.578C923.949 61.854 924.525 61.992 925.197 61.992C925.893 61.992 926.463 61.8 926.907 61.416C927.351 61.032 927.573 60.522 927.573 59.886C927.573 59.202 927.303 58.65 926.763 58.23C926.223 57.81 925.269 57.6 923.901 57.6V56.466C925.125 56.466 925.971 56.262 926.439 55.854C926.919 55.434 927.159 54.924 927.159 54.324C927.159 53.772 926.979 53.334 926.619 53.01C926.271 52.674 925.791 52.506 925.179 52.506C924.699 52.506 924.255 52.62 923.847 52.848C923.439 53.064 923.067 53.34 922.731 53.676L921.939 52.74C922.383 52.332 922.875 51.99 923.415 51.714C923.955 51.438 924.561 51.3 925.233 51.3C926.229 51.3 927.051 51.558 927.699 52.074C928.347 52.578 928.671 53.292 928.671 54.216C928.671 54.912 928.479 55.482 928.095 55.926C927.711 56.37 927.207 56.712 926.583 56.952V57.024C927.279 57.192 927.867 57.522 928.347 58.014C928.827 58.506 929.067 59.148 929.067 59.94C929.067 60.96 928.701 61.764 927.969 62.352C927.237 62.928 926.343 63.216 925.287 63.216ZM937.871 63.216C936.395 63.216 935.165 62.676 934.181 61.596C933.209 60.516 932.723 59.016 932.723 57.096C932.723 55.2 933.221 53.706 934.217 52.614C935.213 51.522 936.461 50.976 937.961 50.976C938.681 50.976 939.311 51.126 939.851 51.426C940.403 51.714 940.853 52.05 941.201 52.434L940.391 53.406C940.079 53.07 939.725 52.8 939.329 52.596C938.933 52.392 938.483 52.29 937.979 52.29C936.863 52.29 935.963 52.722 935.279 53.586C934.607 54.438 934.271 55.596 934.271 57.06C934.271 58.548 934.601 59.73 935.261 60.606C935.921 61.47 936.809 61.902 937.925 61.902C938.489 61.902 938.993 61.788 939.437 61.56C939.881 61.32 940.289 60.99 940.661 60.57L941.489 61.506C941.021 62.046 940.493 62.466 939.905 62.766C939.317 63.066 938.639 63.216 937.871 63.216ZM945.49 63V51.192H949C950.2 51.192 951.172 51.414 951.916 51.858C952.672 52.302 953.05 53.04 953.05 54.072C953.05 54.66 952.9 55.194 952.6 55.674C952.3 56.142 951.874 56.466 951.322 56.646V56.718C952.03 56.85 952.606 57.15 953.05 57.618C953.506 58.086 953.734 58.728 953.734 59.544C953.734 60.708 953.314 61.578 952.474 62.154C951.646 62.718 950.572 63 949.252 63H945.49ZM946.984 56.214H948.73C949.738 56.214 950.464 56.04 950.908 55.692C951.352 55.344 951.574 54.87 951.574 54.27C951.574 53.586 951.34 53.1 950.872 52.812C950.404 52.524 949.714 52.38 948.802 52.38H946.984V56.214ZM946.984 61.812H949.036C950.056 61.812 950.848 61.626 951.412 61.254C951.976 60.87 952.258 60.282 952.258 59.49C952.258 58.758 951.976 58.224 951.412 57.888C950.86 57.54 950.068 57.366 949.036 57.366H946.984V61.812ZM959.438 63C959.498 61.56 959.648 60.27 959.888 59.13C960.128 57.978 960.476 56.898 960.932 55.89C961.4 54.87 962.012 53.838 962.768 52.794H957.044V51.516H964.442V52.434C963.542 53.598 962.852 54.702 962.372 55.746C961.892 56.778 961.556 57.876 961.364 59.04C961.172 60.192 961.04 61.512 960.968 63H959.438ZM968.619 63V51.192H971.571C973.395 51.192 974.781 51.702 975.729 52.722C976.677 53.73 977.151 55.17 977.151 57.042C977.151 58.926 976.677 60.39 975.729 61.434C974.781 62.478 973.419 63 971.643 63H968.619ZM970.113 61.776H971.463C972.843 61.776 973.875 61.362 974.559 60.534C975.255 59.706 975.603 58.542 975.603 57.042C975.603 55.554 975.255 54.414 974.559 53.622C973.875 52.818 972.843 52.416 971.463 52.416H970.113V61.776Z" fill="#0C0C0C"/>
<path d="M902.168 235.302H904.544L904.868 232.638H902.492L902.168 235.302ZM900.62 240L901.07 236.328H899.63V235.302H901.196L901.52 232.638H899.99V231.594H901.646L902.06 228.3H903.014L902.6 231.594H904.994L905.426 228.3H906.38L905.948 231.594H907.406V232.638H905.84L905.516 235.302H907.046V236.328H905.39L904.94 240H903.986L904.418 236.328H902.042L901.592 240H900.62ZM912.933 240C912.993 238.56 913.143 237.27 913.383 236.13C913.623 234.978 913.971 233.898 914.427 232.89C914.895 231.87 915.507 230.838 916.263 229.794H910.539V228.516H917.937V229.434C917.037 230.598 916.347 231.702 915.867 232.746C915.387 233.778 915.051 234.876 914.859 236.04C914.667 237.192 914.535 238.512 914.463 240H912.933ZM922.115 240V228.192H928.919V229.452H923.609V233.448H928.109V234.708H923.609V240H922.115ZM939.415 236.526C939.415 237.618 939.079 238.506 938.407 239.19C937.735 239.874 936.937 240.216 936.013 240.216C934.885 240.216 933.943 239.76 933.187 238.848C932.431 237.924 932.053 236.538 932.053 234.69C932.053 233.154 932.257 231.918 932.665 230.982C933.085 230.046 933.625 229.368 934.285 228.948C934.957 228.516 935.671 228.3 936.427 228.3C937.051 228.3 937.585 228.42 938.029 228.66C938.485 228.888 938.875 229.176 939.199 229.524L938.371 230.442C937.867 229.842 937.237 229.542 936.481 229.542C935.677 229.542 934.981 229.902 934.393 230.622C933.805 231.33 933.493 232.596 933.457 234.42C933.817 233.988 934.237 233.64 934.717 233.376C935.197 233.112 935.671 232.98 936.139 232.98C937.135 232.98 937.927 233.28 938.515 233.88C939.115 234.468 939.415 235.35 939.415 236.526ZM936.013 239.046C936.577 239.046 937.051 238.818 937.435 238.362C937.819 237.894 938.011 237.282 938.011 236.526C938.011 235.782 937.831 235.194 937.471 234.762C937.123 234.318 936.595 234.096 935.887 234.096C935.515 234.096 935.113 234.216 934.681 234.456C934.249 234.696 933.853 235.08 933.493 235.608C933.685 237.9 934.525 239.046 936.013 239.046ZM946.166 234.42C946.538 234.42 946.94 234.3 947.372 234.06C947.804 233.82 948.206 233.43 948.578 232.89C948.386 230.61 947.54 229.47 946.04 229.47C945.488 229.47 945.014 229.704 944.618 230.172C944.234 230.628 944.042 231.234 944.042 231.99C944.042 232.734 944.216 233.328 944.564 233.772C944.924 234.204 945.458 234.42 946.166 234.42ZM945.626 240.216C945.014 240.216 944.474 240.102 944.006 239.874C943.55 239.646 943.166 239.358 942.854 239.01L943.682 238.074C944.198 238.686 944.828 238.992 945.572 238.992C946.376 238.992 947.072 238.632 947.66 237.912C948.26 237.18 948.578 235.896 948.614 234.06C947.846 235.044 946.946 235.536 945.914 235.536C944.918 235.536 944.126 235.242 943.538 234.654C942.95 234.054 942.656 233.166 942.656 231.99C942.656 230.898 942.992 230.01 943.664 229.326C944.336 228.642 945.128 228.3 946.04 228.3C947.168 228.3 948.11 228.762 948.866 229.686C949.622 230.598 950 231.978 950 233.826C950 235.362 949.79 236.598 949.37 237.534C948.962 238.47 948.422 239.154 947.75 239.586C947.09 240.006 946.382 240.216 945.626 240.216ZM953.404 240V239.118C955.132 237.402 956.464 235.98 957.4 234.852C958.336 233.712 958.804 232.68 958.804 231.756C958.804 231.096 958.624 230.556 958.264 230.136C957.904 229.716 957.358 229.506 956.626 229.506C956.146 229.506 955.702 229.644 955.294 229.92C954.886 230.184 954.514 230.508 954.178 230.892L953.332 230.046C953.812 229.53 954.322 229.11 954.862 228.786C955.414 228.462 956.062 228.3 956.806 228.3C957.874 228.3 958.714 228.612 959.326 229.236C959.938 229.848 960.244 230.664 960.244 231.684C960.244 232.764 959.8 233.868 958.912 234.996C958.036 236.124 956.92 237.402 955.564 238.83C955.876 238.806 956.2 238.782 956.536 238.758C956.872 238.734 957.19 238.722 957.49 238.722H960.82V240H953.404ZM964.853 240V238.776H967.481V230.316H965.393V229.362C965.909 229.278 966.365 229.164 966.761 229.02C967.157 228.876 967.511 228.708 967.823 228.516H968.957V238.776H971.333V240H964.853Z" fill="white"/>
</svg>
