<svg width="1060" height="353" fill="none" xmlns="http://www.w3.org/2000/svg"><path d="M0 24C0 10.745 10.745 0 24 0h329v353H24c-13.255 0-24-10.745-24-24V24Z" fill="#D4AF37"/><path fill="#D8B74B" d="M353 0h177v177H353z"/><path fill="#DDBF5F" d="M530 0h177v177H530z"/><path fill="#E1C773" d="M707 0h176v177H707z"/><path d="M883 0h153c13.25 0 24 10.745 24 24v153H883V0Z" fill="#E3CB7D"/><path fill="#BF9E32" d="M353 177h177v176H353z"/><path fill="#AA8C2C" d="M530 177h177v176H530z"/><path fill="#947B27" d="M707 177h176v176H707z"/><path d="M883 177h177v152c0 13.255-10.75 24-24 24H883V177Z" fill="#7F6921"/><path d="M17.386 33V21.264h4.032c1.284 0 2.382.276 3.294.828.912.552 1.368 1.536 1.368 2.952 0 1.38-.456 2.388-1.368 3.024-.912.636-1.986.954-3.222.954h-1.458V33h-2.646Zm2.646-6.084h1.296c1.44 0 2.16-.624 2.16-1.872 0-.612-.192-1.044-.576-1.296-.384-.252-.936-.378-1.656-.378h-1.224v3.546ZM29.692 33v-8.928h2.16l.18 1.566h.073c.324-.6.714-1.044 1.17-1.332.456-.3.912-.45 1.368-.45.252 0 .456.018.612.054.168.036.318.078.45.126l-.432 2.286a3.101 3.101 0 0 0-.972-.144c-.336 0-.69.126-1.062.378-.36.24-.66.66-.9 1.26V33h-2.646Zm10.286-10.242c-.444 0-.81-.126-1.098-.378a1.307 1.307 0 0 1-.431-1.008c0-.408.144-.738.431-.99.288-.252.654-.378 1.098-.378.456 0 .822.126 1.099.378.288.252.431.582.431.99 0 .408-.144.744-.431 1.008-.276.252-.642.378-1.099.378ZM38.664 33v-8.928h2.646V33h-2.646Zm6.775 0v-8.928h2.16l.18 1.152h.072c.372-.372.768-.69 1.188-.954.42-.276.924-.414 1.512-.414.636 0 1.146.132 1.53.396.396.252.708.618.936 1.098.396-.408.81-.756 1.242-1.044.444-.3.966-.45 1.566-.45.96 0 1.662.324 2.106.972.456.636.684 1.512.684 2.628V33H55.97v-5.202c0-.648-.09-1.092-.27-1.332-.18-.24-.456-.36-.828-.36-.444 0-.954.288-1.53.864V33h-2.646v-5.202c0-.648-.09-1.092-.27-1.332-.168-.24-.444-.36-.828-.36-.456 0-.96.288-1.512.864V33H45.44Zm20.384-1.836c.3 0 .558-.066.774-.198a3.11 3.11 0 0 0 .684-.558v-1.566c-.936.132-1.584.324-1.944.576-.36.252-.54.552-.54.9 0 .564.342.846 1.026.846Zm-.9 2.052c-.816 0-1.464-.258-1.944-.774-.48-.528-.72-1.17-.72-1.926 0-.936.396-1.668 1.188-2.196.792-.528 2.07-.882 3.834-1.062-.024-.396-.144-.708-.36-.936-.204-.24-.552-.36-1.044-.36-.372 0-.75.072-1.134.216a8.09 8.09 0 0 0-1.224.594l-.954-1.746a8.813 8.813 0 0 1 1.8-.846 6.226 6.226 0 0 1 2.016-.324c1.14 0 2.016.33 2.628.99.612.66.918 1.674.918 3.042V33h-2.16l-.18-.918h-.072a6 6 0 0 1-1.206.828 3.13 3.13 0 0 1-1.386.306ZM73.965 33v-8.928h2.16l.18 1.566h.072c.324-.6.714-1.044 1.17-1.332.456-.3.912-.45 1.368-.45.252 0 .456.018.612.054.168.036.318.078.45.126l-.432 2.286a3.101 3.101 0 0 0-.972-.144c-.336 0-.69.126-1.062.378-.36.24-.66.66-.9 1.26V33h-2.646Zm10.085 3.492c-.264 0-.498-.018-.702-.054a7.604 7.604 0 0 1-.558-.126l.468-2.016c.084.024.18.048.288.072.108.024.21.036.306.036.444 0 .786-.108 1.026-.324.24-.216.42-.498.54-.846l.126-.468-3.438-8.694h2.664l1.278 3.834c.132.408.252.822.36 1.242.108.42.222.852.342 1.296h.072l.288-1.26c.108-.432.216-.858.324-1.278l1.08-3.834h2.538l-3.096 9.018c-.42 1.128-.912 1.974-1.476 2.538-.564.576-1.374.864-2.43.864Zm18.876-3.276c-.936 0-1.734-.156-2.394-.468a5.925 5.925 0 0 1-1.638-1.134l1.188-1.674a6.29 6.29 0 0 0 1.134.81c.408.216.852.324 1.332.324.588 0 1.056-.15 1.404-.45.348-.3.522-.744.522-1.332 0-.576-.168-1.014-.504-1.314-.336-.3-.768-.45-1.296-.45-.336 0-.618.042-.846.126a5.512 5.512 0 0 0-.846.45l-1.188-.756.324-5.778h6.48v2.232h-4.194l-.198 2.142c.396-.18.822-.27 1.278-.27.984 0 1.836.288 2.556.864.72.576 1.08 1.47 1.08 2.682 0 1.272-.42 2.256-1.26 2.952-.84.696-1.818 1.044-2.934 1.044Zm11.616 0c-1.224 0-2.214-.51-2.97-1.53-.744-1.02-1.116-2.502-1.116-4.446s.372-3.408 1.116-4.392c.756-.996 1.746-1.494 2.97-1.494 1.224 0 2.208.498 2.952 1.494.756.984 1.134 2.448 1.134 4.392 0 1.944-.378 3.426-1.134 4.446-.744 1.02-1.728 1.53-2.952 1.53Zm0-2.052c.456 0 .834-.264 1.134-.792.3-.528.45-1.572.45-3.132s-.15-2.586-.45-3.078c-.3-.504-.678-.756-1.134-.756-.444 0-.822.252-1.134.756-.3.492-.45 1.518-.45 3.078 0 1.56.15 2.604.45 3.132.312.528.69.792 1.134.792Zm11.31 2.052c-1.224 0-2.214-.51-2.97-1.53-.744-1.02-1.116-2.502-1.116-4.446s.372-3.408 1.116-4.392c.756-.996 1.746-1.494 2.97-1.494 1.224 0 2.208.498 2.952 1.494.756.984 1.134 2.448 1.134 4.392 0 1.944-.378 3.426-1.134 4.446-.744 1.02-1.728 1.53-2.952 1.53Zm0-2.052c.456 0 .834-.264 1.134-.792.3-.528.45-1.572.45-3.132s-.15-2.586-.45-3.078c-.3-.504-.678-.756-1.134-.756-.444 0-.822.252-1.134.756-.3.492-.45 1.518-.45 3.078 0 1.56.15 2.604.45 3.132.312.528.69.792 1.134.792ZM370.386 33V21.264h4.032c1.284 0 2.382.276 3.294.828.912.552 1.368 1.536 1.368 2.952 0 1.38-.456 2.388-1.368 3.024-.912.636-1.986.954-3.222.954h-1.458V33h-2.646Zm2.646-6.084h1.296c1.44 0 2.16-.624 2.16-1.872 0-.612-.192-1.044-.576-1.296-.384-.252-.936-.378-1.656-.378h-1.224v3.546ZM382.693 33v-8.928h2.16l.18 1.566h.072c.324-.6.714-1.044 1.17-1.332.456-.3.912-.45 1.368-.45.252 0 .456.018.612.054.168.036.318.078.45.126l-.432 2.286a3.101 3.101 0 0 0-.972-.144c-.336 0-.69.126-1.062.378-.36.24-.66.66-.9 1.26V33h-2.646Zm10.286-10.242c-.444 0-.81-.126-1.098-.378a1.307 1.307 0 0 1-.432-1.008c0-.408.144-.738.432-.99.288-.252.654-.378 1.098-.378.456 0 .822.126 1.098.378.288.252.432.582.432.99 0 .408-.144.744-.432 1.008-.276.252-.642.378-1.098.378ZM391.665 33v-8.928h2.646V33h-2.646Zm6.774 0v-8.928h2.16l.18 1.152h.072c.372-.372.768-.69 1.188-.954.42-.276.924-.414 1.512-.414.636 0 1.146.132 1.53.396.396.252.708.618.936 1.098.396-.408.81-.756 1.242-1.044.444-.3.966-.45 1.566-.45.96 0 1.662.324 2.106.972.456.636.684 1.512.684 2.628V33h-2.646v-5.202c0-.648-.09-1.092-.27-1.332-.18-.24-.456-.36-.828-.36-.444 0-.954.288-1.53.864V33h-2.646v-5.202c0-.648-.09-1.092-.27-1.332-.168-.24-.444-.36-.828-.36-.456 0-.96.288-1.512.864V33h-2.646Zm20.384-1.836c.3 0 .558-.066.774-.198a3.11 3.11 0 0 0 .684-.558v-1.566c-.936.132-1.584.324-1.944.576-.36.252-.54.552-.54.9 0 .564.342.846 1.026.846Zm-.9 2.052c-.816 0-1.464-.258-1.944-.774-.48-.528-.72-1.17-.72-1.926 0-.936.396-1.668 1.188-2.196.792-.528 2.07-.882 3.834-1.062-.024-.396-.144-.708-.36-.936-.204-.24-.552-.36-1.044-.36-.372 0-.75.072-1.134.216a8.09 8.09 0 0 0-1.224.594l-.954-1.746a8.813 8.813 0 0 1 1.8-.846 6.226 6.226 0 0 1 2.016-.324c1.14 0 2.016.33 2.628.99.612.66.918 1.674.918 3.042V33h-2.16l-.18-.918h-.072a6 6 0 0 1-1.206.828 3.13 3.13 0 0 1-1.386.306Zm9.042-.216v-8.928h2.16l.18 1.566h.072c.324-.6.714-1.044 1.17-1.332.456-.3.912-.45 1.368-.45.252 0 .456.018.612.054.168.036.318.078.45.126l-.432 2.286a3.101 3.101 0 0 0-.972-.144c-.336 0-.69.126-1.062.378-.36.24-.66.66-.9 1.26V33h-2.646Zm10.085 3.492c-.264 0-.498-.018-.702-.054a7.604 7.604 0 0 1-.558-.126l.468-2.016c.084.024.18.048.288.072.108.024.21.036.306.036.444 0 .786-.108 1.026-.324.24-.216.42-.498.54-.846l.126-.468-3.438-8.694h2.664l1.278 3.834c.132.408.252.822.36 1.242.108.42.222.852.342 1.296h.072l.288-1.26c.108-.432.216-.858.324-1.278l1.08-3.834h2.538l-3.096 9.018c-.42 1.128-.912 1.974-1.476 2.538-.564.576-1.374.864-2.43.864Zm17.31-8.244h2.412v-1.854c0-.372.012-.798.036-1.278.024-.492.048-.918.072-1.278h-.072c-.144.312-.294.63-.45.954-.156.324-.318.648-.486.972l-1.512 2.484Zm6.192 2.016h-1.314V33h-2.466v-2.736h-4.95v-1.818l4.176-6.876h3.24v6.678h1.314v2.016Zm6.99 2.952c-1.224 0-2.214-.51-2.97-1.53-.744-1.02-1.116-2.502-1.116-4.446s.372-3.408 1.116-4.392c.756-.996 1.746-1.494 2.97-1.494 1.224 0 2.208.498 2.952 1.494.756.984 1.134 2.448 1.134 4.392 0 1.944-.378 3.426-1.134 4.446-.744 1.02-1.728 1.53-2.952 1.53Zm0-2.052c.456 0 .834-.264 1.134-.792.3-.528.45-1.572.45-3.132s-.15-2.586-.45-3.078c-.3-.504-.678-.756-1.134-.756-.444 0-.822.252-1.134.756-.3.492-.45 1.518-.45 3.078 0 1.56.15 2.604.45 3.132.312.528.69.792 1.134.792Zm11.31 2.052c-1.224 0-2.214-.51-2.97-1.53-.744-1.02-1.116-2.502-1.116-4.446s.372-3.408 1.116-4.392c.756-.996 1.746-1.494 2.97-1.494 1.224 0 2.208.498 2.952 1.494.756.984 1.134 2.448 1.134 4.392 0 1.944-.378 3.426-1.134 4.446-.744 1.02-1.728 1.53-2.952 1.53Zm0-2.052c.456 0 .834-.264 1.134-.792.3-.528.45-1.572.45-3.132s-.15-2.586-.45-3.078c-.3-.504-.678-.756-1.134-.756-.444 0-.822.252-1.134.756-.3.492-.45 1.518-.45 3.078 0 1.56.15 2.604.45 3.132.312.528.69.792 1.134.792ZM370.386 210v-11.736h4.032c1.284 0 2.382.276 3.294.828.912.552 1.368 1.536 1.368 2.952 0 1.38-.456 2.388-1.368 3.024-.912.636-1.986.954-3.222.954h-1.458V210h-2.646Zm2.646-6.084h1.296c1.44 0 2.16-.624 2.16-1.872 0-.612-.192-1.044-.576-1.296-.384-.252-.936-.378-1.656-.378h-1.224v3.546Zm9.661 6.084v-8.928h2.16l.18 1.566h.072c.324-.6.714-1.044 1.17-1.332.456-.3.912-.45 1.368-.45.252 0 .456.018.612.054.168.036.318.078.45.126l-.432 2.286a3.101 3.101 0 0 0-.972-.144c-.336 0-.69.126-1.062.378-.36.24-.66.66-.9 1.26V210h-2.646Zm10.286-10.242c-.444 0-.81-.126-1.098-.378a1.307 1.307 0 0 1-.432-1.008c0-.408.144-.738.432-.99.288-.252.654-.378 1.098-.378.456 0 .822.126 1.098.378.288.252.432.582.432.99 0 .408-.144.744-.432 1.008-.276.252-.642.378-1.098.378ZM391.665 210v-8.928h2.646V210h-2.646Zm6.774 0v-8.928h2.16l.18 1.152h.072c.372-.372.768-.69 1.188-.954.42-.276.924-.414 1.512-.414.636 0 1.146.132 1.53.396.396.252.708.618.936 1.098.396-.408.81-.756 1.242-1.044.444-.3.966-.45 1.566-.45.96 0 1.662.324 2.106.972.456.636.684 1.512.684 2.628V210h-2.646v-5.202c0-.648-.09-1.092-.27-1.332-.18-.24-.456-.36-.828-.36-.444 0-.954.288-1.53.864V210h-2.646v-5.202c0-.648-.09-1.092-.27-1.332-.168-.24-.444-.36-.828-.36-.456 0-.96.288-1.512.864V210h-2.646Zm20.384-1.836c.3 0 .558-.066.774-.198a3.11 3.11 0 0 0 .684-.558v-1.566c-.936.132-1.584.324-1.944.576-.36.252-.54.552-.54.9 0 .564.342.846 1.026.846Zm-.9 2.052c-.816 0-1.464-.258-1.944-.774-.48-.528-.72-1.17-.72-1.926 0-.936.396-1.668 1.188-2.196.792-.528 2.07-.882 3.834-1.062-.024-.396-.144-.708-.36-.936-.204-.24-.552-.36-1.044-.36-.372 0-.75.072-1.134.216a8.09 8.09 0 0 0-1.224.594l-.954-1.746a8.813 8.813 0 0 1 1.8-.846 6.226 6.226 0 0 1 2.016-.324c1.14 0 2.016.33 2.628.99.612.66.918 1.674.918 3.042V210h-2.16l-.18-.918h-.072a6 6 0 0 1-1.206.828 3.13 3.13 0 0 1-1.386.306Zm9.042-.216v-8.928h2.16l.18 1.566h.072c.324-.6.714-1.044 1.17-1.332.456-.3.912-.45 1.368-.45.252 0 .456.018.612.054.168.036.318.078.45.126l-.432 2.286a3.101 3.101 0 0 0-.972-.144c-.336 0-.69.126-1.062.378-.36.24-.66.66-.9 1.26V210h-2.646Zm10.085 3.492c-.264 0-.498-.018-.702-.054a7.604 7.604 0 0 1-.558-.126l.468-2.016c.084.024.18.048.288.072.108.024.21.036.306.036.444 0 .786-.108 1.026-.324.24-.216.42-.498.54-.846l.126-.468-3.438-8.694h2.664l1.278 3.834c.132.408.252.822.36 1.242.108.42.222.852.342 1.296h.072l.288-1.26c.108-.432.216-.858.324-1.278l1.08-3.834h2.538l-3.096 9.018c-.42 1.128-.912 1.974-1.476 2.538-.564.576-1.374.864-2.43.864Zm23.286-7.11c0 1.188-.378 2.124-1.134 2.808-.744.684-1.632 1.026-2.664 1.026a4.09 4.09 0 0 1-2.088-.576c-.66-.396-1.2-1.008-1.62-1.836-.408-.84-.612-1.926-.612-3.258 0-1.428.216-2.598.648-3.51.444-.912 1.014-1.584 1.71-2.016a4.195 4.195 0 0 1 2.268-.666c.756 0 1.41.138 1.962.414.552.264 1.008.582 1.368.954l-1.386 1.584c-.192-.216-.456-.402-.792-.558a2.129 2.129 0 0 0-.99-.252c-.624 0-1.164.264-1.62.792-.444.516-.69 1.44-.738 2.772.3-.384.666-.678 1.098-.882.432-.216.828-.324 1.188-.324.984 0 1.794.288 2.43.864.648.564.972 1.452.972 2.664Zm-3.852 1.854c.396 0 .732-.144 1.008-.432.288-.3.432-.774.432-1.422 0-.6-.144-1.026-.432-1.278-.276-.252-.63-.378-1.062-.378-.3 0-.606.09-.918.27-.3.168-.57.456-.81.864.12.9.348 1.524.684 1.872.336.336.702.504 1.098.504Zm11.058 1.98c-1.224 0-2.214-.51-2.97-1.53-.744-1.02-1.116-2.502-1.116-4.446s.372-3.408 1.116-4.392c.756-.996 1.746-1.494 2.97-1.494 1.224 0 2.208.498 2.952 1.494.756.984 1.134 2.448 1.134 4.392 0 1.944-.378 3.426-1.134 4.446-.744 1.02-1.728 1.53-2.952 1.53Zm0-2.052c.456 0 .834-.264 1.134-.792.3-.528.45-1.572.45-3.132s-.15-2.586-.45-3.078c-.3-.504-.678-.756-1.134-.756-.444 0-.822.252-1.134.756-.3.492-.45 1.518-.45 3.078 0 1.56.15 2.604.45 3.132.312.528.69.792 1.134.792Zm11.31 2.052c-1.224 0-2.214-.51-2.97-1.53-.744-1.02-1.116-2.502-1.116-4.446s.372-3.408 1.116-4.392c.756-.996 1.746-1.494 2.97-1.494 1.224 0 2.208.498 2.952 1.494.756.984 1.134 2.448 1.134 4.392 0 1.944-.378 3.426-1.134 4.446-.744 1.02-1.728 1.53-2.952 1.53Zm0-2.052c.456 0 .834-.264 1.134-.792.3-.528.45-1.572.45-3.132s-.15-2.586-.45-3.078c-.3-.504-.678-.756-1.134-.756-.444 0-.822.252-1.134.756-.3.492-.45 1.518-.45 3.078 0 1.56.15 2.604.45 3.132.312.528.69.792 1.134.792ZM547.386 33V21.264h4.032c1.284 0 2.382.276 3.294.828.912.552 1.368 1.536 1.368 2.952 0 1.38-.456 2.388-1.368 3.024-.912.636-1.986.954-3.222.954h-1.458V33h-2.646Zm2.646-6.084h1.296c1.44 0 2.16-.624 2.16-1.872 0-.612-.192-1.044-.576-1.296-.384-.252-.936-.378-1.656-.378h-1.224v3.546ZM559.693 33v-8.928h2.16l.18 1.566h.072c.324-.6.714-1.044 1.17-1.332.456-.3.912-.45 1.368-.45.252 0 .456.018.612.054.168.036.318.078.45.126l-.432 2.286a3.101 3.101 0 0 0-.972-.144c-.336 0-.69.126-1.062.378-.36.24-.66.66-.9 1.26V33h-2.646Zm10.286-10.242c-.444 0-.81-.126-1.098-.378a1.307 1.307 0 0 1-.432-1.008c0-.408.144-.738.432-.99.288-.252.654-.378 1.098-.378.456 0 .822.126 1.098.378.288.252.432.582.432.99 0 .408-.144.744-.432 1.008-.276.252-.642.378-1.098.378ZM568.665 33v-8.928h2.646V33h-2.646Zm6.774 0v-8.928h2.16l.18 1.152h.072c.372-.372.768-.69 1.188-.954.42-.276.924-.414 1.512-.414.636 0 1.146.132 1.53.396.396.252.708.618.936 1.098.396-.408.81-.756 1.242-1.044.444-.3.966-.45 1.566-.45.96 0 1.662.324 2.106.972.456.636.684 1.512.684 2.628V33h-2.646v-5.202c0-.648-.09-1.092-.27-1.332-.18-.24-.456-.36-.828-.36-.444 0-.954.288-1.53.864V33h-2.646v-5.202c0-.648-.09-1.092-.27-1.332-.168-.24-.444-.36-.828-.36-.456 0-.96.288-1.512.864V33h-2.646Zm20.384-1.836c.3 0 .558-.066.774-.198a3.11 3.11 0 0 0 .684-.558v-1.566c-.936.132-1.584.324-1.944.576-.36.252-.54.552-.54.9 0 .564.342.846 1.026.846Zm-.9 2.052c-.816 0-1.464-.258-1.944-.774-.48-.528-.72-1.17-.72-1.926 0-.936.396-1.668 1.188-2.196.792-.528 2.07-.882 3.834-1.062-.024-.396-.144-.708-.36-.936-.204-.24-.552-.36-1.044-.36-.372 0-.75.072-1.134.216a8.09 8.09 0 0 0-1.224.594l-.954-1.746a8.813 8.813 0 0 1 1.8-.846 6.226 6.226 0 0 1 2.016-.324c1.14 0 2.016.33 2.628.99.612.66.918 1.674.918 3.042V33h-2.16l-.18-.918h-.072a6 6 0 0 1-1.206.828 3.13 3.13 0 0 1-1.386.306Zm9.042-.216v-8.928h2.16l.18 1.566h.072c.324-.6.714-1.044 1.17-1.332.456-.3.912-.45 1.368-.45.252 0 .456.018.612.054.168.036.318.078.45.126l-.432 2.286a3.101 3.101 0 0 0-.972-.144c-.336 0-.69.126-1.062.378-.36.24-.66.66-.9 1.26V33h-2.646Zm10.085 3.492c-.264 0-.498-.018-.702-.054a7.604 7.604 0 0 1-.558-.126l.468-2.016c.084.024.18.048.288.072.108.024.21.036.306.036.444 0 .786-.108 1.026-.324.24-.216.42-.498.54-.846l.126-.468-3.438-8.694h2.664l1.278 3.834c.132.408.252.822.36 1.242.108.42.222.852.342 1.296h.072l.288-1.26c.108-.432.216-.858.324-1.278l1.08-3.834h2.538l-3.096 9.018c-.42 1.128-.912 1.974-1.476 2.538-.564.576-1.374.864-2.43.864Zm18.804-3.276c-.924 0-1.716-.15-2.376-.45-.66-.3-1.194-.69-1.602-1.17l1.224-1.674c.336.336.714.612 1.134.828.42.216.876.324 1.368.324.564 0 1.014-.114 1.35-.342.336-.24.504-.576.504-1.008 0-.504-.204-.9-.612-1.188-.408-.3-1.23-.45-2.466-.45v-1.872c1.02 0 1.722-.138 2.106-.414.396-.288.594-.66.594-1.116 0-.84-.468-1.26-1.404-1.26-.408 0-.78.09-1.116.27-.324.18-.666.426-1.026.738l-1.332-1.62a6.444 6.444 0 0 1 1.674-1.062 4.648 4.648 0 0 1 1.926-.396c1.176 0 2.124.276 2.844.828.732.54 1.098 1.308 1.098 2.304 0 1.152-.636 1.998-1.908 2.538v.072c.66.192 1.2.522 1.62.99.432.468.648 1.068.648 1.8 0 1.068-.42 1.89-1.26 2.466-.84.576-1.836.864-2.988.864Zm11.688 0c-1.224 0-2.214-.51-2.97-1.53-.744-1.02-1.116-2.502-1.116-4.446s.372-3.408 1.116-4.392c.756-.996 1.746-1.494 2.97-1.494 1.224 0 2.208.498 2.952 1.494.756.984 1.134 2.448 1.134 4.392 0 1.944-.378 3.426-1.134 4.446-.744 1.02-1.728 1.53-2.952 1.53Zm0-2.052c.456 0 .834-.264 1.134-.792.3-.528.45-1.572.45-3.132s-.15-2.586-.45-3.078c-.3-.504-.678-.756-1.134-.756-.444 0-.822.252-1.134.756-.3.492-.45 1.518-.45 3.078 0 1.56.15 2.604.45 3.132.312.528.69.792 1.134.792Zm11.31 2.052c-1.224 0-2.214-.51-2.97-1.53-.744-1.02-1.116-2.502-1.116-4.446s.372-3.408 1.116-4.392c.756-.996 1.746-1.494 2.97-1.494 1.224 0 2.208.498 2.952 1.494.756.984 1.134 2.448 1.134 4.392 0 1.944-.378 3.426-1.134 4.446-.744 1.02-1.728 1.53-2.952 1.53Zm0-2.052c.456 0 .834-.264 1.134-.792.3-.528.45-1.572.45-3.132s-.15-2.586-.45-3.078c-.3-.504-.678-.756-1.134-.756-.444 0-.822.252-1.134.756-.3.492-.45 1.518-.45 3.078 0 1.56.15 2.604.45 3.132.312.528.69.792 1.134.792ZM547.386 210v-11.736h4.032c1.284 0 2.382.276 3.294.828.912.552 1.368 1.536 1.368 2.952 0 1.38-.456 2.388-1.368 3.024-.912.636-1.986.954-3.222.954h-1.458V210h-2.646Zm2.646-6.084h1.296c1.44 0 2.16-.624 2.16-1.872 0-.612-.192-1.044-.576-1.296-.384-.252-.936-.378-1.656-.378h-1.224v3.546Zm9.661 6.084v-8.928h2.16l.18 1.566h.072c.324-.6.714-1.044 1.17-1.332.456-.3.912-.45 1.368-.45.252 0 .456.018.612.054.168.036.318.078.45.126l-.432 2.286a3.101 3.101 0 0 0-.972-.144c-.336 0-.69.126-1.062.378-.36.24-.66.66-.9 1.26V210h-2.646Zm10.286-10.242c-.444 0-.81-.126-1.098-.378a1.307 1.307 0 0 1-.432-1.008c0-.408.144-.738.432-.99.288-.252.654-.378 1.098-.378.456 0 .822.126 1.098.378.288.252.432.582.432.99 0 .408-.144.744-.432 1.008-.276.252-.642.378-1.098.378ZM568.665 210v-8.928h2.646V210h-2.646Zm6.774 0v-8.928h2.16l.18 1.152h.072c.372-.372.768-.69 1.188-.954.42-.276.924-.414 1.512-.414.636 0 1.146.132 1.53.396.396.252.708.618.936 1.098.396-.408.81-.756 1.242-1.044.444-.3.966-.45 1.566-.45.96 0 1.662.324 2.106.972.456.636.684 1.512.684 2.628V210h-2.646v-5.202c0-.648-.09-1.092-.27-1.332-.18-.24-.456-.36-.828-.36-.444 0-.954.288-1.53.864V210h-2.646v-5.202c0-.648-.09-1.092-.27-1.332-.168-.24-.444-.36-.828-.36-.456 0-.96.288-1.512.864V210h-2.646Zm20.384-1.836c.3 0 .558-.066.774-.198a3.11 3.11 0 0 0 .684-.558v-1.566c-.936.132-1.584.324-1.944.576-.36.252-.54.552-.54.9 0 .564.342.846 1.026.846Zm-.9 2.052c-.816 0-1.464-.258-1.944-.774-.48-.528-.72-1.17-.72-1.926 0-.936.396-1.668 1.188-2.196.792-.528 2.07-.882 3.834-1.062-.024-.396-.144-.708-.36-.936-.204-.24-.552-.36-1.044-.36-.372 0-.75.072-1.134.216a8.09 8.09 0 0 0-1.224.594l-.954-1.746a8.813 8.813 0 0 1 1.8-.846 6.226 6.226 0 0 1 2.016-.324c1.14 0 2.016.33 2.628.99.612.66.918 1.674.918 3.042V210h-2.16l-.18-.918h-.072a6 6 0 0 1-1.206.828 3.13 3.13 0 0 1-1.386.306Zm9.042-.216v-8.928h2.16l.18 1.566h.072c.324-.6.714-1.044 1.17-1.332.456-.3.912-.45 1.368-.45.252 0 .456.018.612.054.168.036.318.078.45.126l-.432 2.286a3.101 3.101 0 0 0-.972-.144c-.336 0-.69.126-1.062.378-.36.24-.66.66-.9 1.26V210h-2.646Zm10.085 3.492c-.264 0-.498-.018-.702-.054a7.604 7.604 0 0 1-.558-.126l.468-2.016c.084.024.18.048.288.072.108.024.21.036.306.036.444 0 .786-.108 1.026-.324.24-.216.42-.498.54-.846l.126-.468-3.438-8.694h2.664l1.278 3.834c.132.408.252.822.36 1.242.108.42.222.852.342 1.296h.072l.288-1.26c.108-.432.216-.858.324-1.278l1.08-3.834h2.538l-3.096 9.018c-.42 1.128-.912 1.974-1.476 2.538-.564.576-1.374.864-2.43.864ZM631.342 210c.072-1.272.21-2.412.414-3.42s.516-1.974.936-2.898c.42-.924.99-1.884 1.71-2.88h-5.13v-2.232h7.956v1.62c-.888 1.068-1.548 2.064-1.98 2.988-.432.924-.732 1.92-.9 2.988-.168 1.068-.282 2.346-.342 3.834h-2.664Zm13.2.216c-1.224 0-2.214-.51-2.97-1.53-.744-1.02-1.116-2.502-1.116-4.446s.372-3.408 1.116-4.392c.756-.996 1.746-1.494 2.97-1.494 1.224 0 2.208.498 2.952 1.494.756.984 1.134 2.448 1.134 4.392 0 1.944-.378 3.426-1.134 4.446-.744 1.02-1.728 1.53-2.952 1.53Zm0-2.052c.456 0 .834-.264 1.134-.792.3-.528.45-1.572.45-3.132s-.15-2.586-.45-3.078c-.3-.504-.678-.756-1.134-.756-.444 0-.822.252-1.134.756-.3.492-.45 1.518-.45 3.078 0 1.56.15 2.604.45 3.132.312.528.69.792 1.134.792Zm11.31 2.052c-1.224 0-2.214-.51-2.97-1.53-.744-1.02-1.116-2.502-1.116-4.446s.372-3.408 1.116-4.392c.756-.996 1.746-1.494 2.97-1.494 1.224 0 2.208.498 2.952 1.494.756.984 1.134 2.448 1.134 4.392 0 1.944-.378 3.426-1.134 4.446-.744 1.02-1.728 1.53-2.952 1.53Zm0-2.052c.456 0 .834-.264 1.134-.792.3-.528.45-1.572.45-3.132s-.15-2.586-.45-3.078c-.3-.504-.678-.756-1.134-.756-.444 0-.822.252-1.134.756-.3.492-.45 1.518-.45 3.078 0 1.56.15 2.604.45 3.132.312.528.69.792 1.134.792ZM724.386 33V21.264h4.032c1.284 0 2.382.276 3.294.828.912.552 1.368 1.536 1.368 2.952 0 1.38-.456 2.388-1.368 3.024-.912.636-1.986.954-3.222.954h-1.458V33h-2.646Zm2.646-6.084h1.296c1.44 0 2.16-.624 2.16-1.872 0-.612-.192-1.044-.576-1.296-.384-.252-.936-.378-1.656-.378h-1.224v3.546ZM736.693 33v-8.928h2.16l.18 1.566h.072c.324-.6.714-1.044 1.17-1.332.456-.3.912-.45 1.368-.45.252 0 .456.018.612.054.168.036.318.078.45.126l-.432 2.286a3.101 3.101 0 0 0-.972-.144c-.336 0-.69.126-1.062.378-.36.24-.66.66-.9 1.26V33h-2.646Zm10.286-10.242c-.444 0-.81-.126-1.098-.378a1.307 1.307 0 0 1-.432-1.008c0-.408.144-.738.432-.99.288-.252.654-.378 1.098-.378.456 0 .822.126 1.098.378.288.252.432.582.432.99 0 .408-.144.744-.432 1.008-.276.252-.642.378-1.098.378ZM745.665 33v-8.928h2.646V33h-2.646Zm6.774 0v-8.928h2.16l.18 1.152h.072c.372-.372.768-.69 1.188-.954.42-.276.924-.414 1.512-.414.636 0 1.146.132 1.53.396.396.252.708.618.936 1.098.396-.408.81-.756 1.242-1.044.444-.3.966-.45 1.566-.45.96 0 1.662.324 2.106.972.456.636.684 1.512.684 2.628V33h-2.646v-5.202c0-.648-.09-1.092-.27-1.332-.18-.24-.456-.36-.828-.36-.444 0-.954.288-1.53.864V33h-2.646v-5.202c0-.648-.09-1.092-.27-1.332-.168-.24-.444-.36-.828-.36-.456 0-.96.288-1.512.864V33h-2.646Zm20.384-1.836c.3 0 .558-.066.774-.198a3.11 3.11 0 0 0 .684-.558v-1.566c-.936.132-1.584.324-1.944.576-.36.252-.54.552-.54.9 0 .564.342.846 1.026.846Zm-.9 2.052c-.816 0-1.464-.258-1.944-.774-.48-.528-.72-1.17-.72-1.926 0-.936.396-1.668 1.188-2.196.792-.528 2.07-.882 3.834-1.062-.024-.396-.144-.708-.36-.936-.204-.24-.552-.36-1.044-.36-.372 0-.75.072-1.134.216a8.09 8.09 0 0 0-1.224.594l-.954-1.746a8.813 8.813 0 0 1 1.8-.846 6.226 6.226 0 0 1 2.016-.324c1.14 0 2.016.33 2.628.99.612.66.918 1.674.918 3.042V33h-2.16l-.18-.918h-.072a6 6 0 0 1-1.206.828 3.13 3.13 0 0 1-1.386.306Zm9.042-.216v-8.928h2.16l.18 1.566h.072c.324-.6.714-1.044 1.17-1.332.456-.3.912-.45 1.368-.45.252 0 .456.018.612.054.168.036.318.078.45.126l-.432 2.286a3.101 3.101 0 0 0-.972-.144c-.336 0-.69.126-1.062.378-.36.24-.66.66-.9 1.26V33h-2.646Zm10.085 3.492c-.264 0-.498-.018-.702-.054a7.604 7.604 0 0 1-.558-.126l.468-2.016c.084.024.18.048.288.072.108.024.21.036.306.036.444 0 .786-.108 1.026-.324.24-.216.42-.498.54-.846l.126-.468-3.438-8.694h2.664l1.278 3.834c.132.408.252.822.36 1.242.108.42.222.852.342 1.296h.072l.288-1.26c.108-.432.216-.858.324-1.278l1.08-3.834h2.538l-3.096 9.018c-.42 1.128-.912 1.974-1.476 2.538-.564.576-1.374.864-2.43.864ZM806.146 33v-1.512c1.452-1.38 2.64-2.574 3.564-3.582.936-1.02 1.404-1.938 1.404-2.754 0-.552-.15-.978-.45-1.278-.288-.3-.678-.45-1.17-.45-.42 0-.792.12-1.116.36-.324.24-.63.51-.918.81l-1.44-1.422c.564-.6 1.14-1.05 1.728-1.35.588-.312 1.29-.468 2.106-.468 1.128 0 2.04.336 2.736 1.008.696.66 1.044 1.536 1.044 2.628 0 .96-.378 1.944-1.134 2.952a33.424 33.424 0 0 1-2.52 2.97c.288-.036.612-.066.972-.09.36-.036.672-.054.936-.054h2.304V33h-8.046Zm15.396.216c-1.224 0-2.214-.51-2.97-1.53-.744-1.02-1.116-2.502-1.116-4.446s.372-3.408 1.116-4.392c.756-.996 1.746-1.494 2.97-1.494 1.224 0 2.208.498 2.952 1.494.756.984 1.134 2.448 1.134 4.392 0 1.944-.378 3.426-1.134 4.446-.744 1.02-1.728 1.53-2.952 1.53Zm0-2.052c.456 0 .834-.264 1.134-.792.3-.528.45-1.572.45-3.132s-.15-2.586-.45-3.078c-.3-.504-.678-.756-1.134-.756-.444 0-.822.252-1.134.756-.3.492-.45 1.518-.45 3.078 0 1.56.15 2.604.45 3.132.312.528.69.792 1.134.792Zm11.31 2.052c-1.224 0-2.214-.51-2.97-1.53-.744-1.02-1.116-2.502-1.116-4.446s.372-3.408 1.116-4.392c.756-.996 1.746-1.494 2.97-1.494 1.224 0 2.208.498 2.952 1.494.756.984 1.134 2.448 1.134 4.392 0 1.944-.378 3.426-1.134 4.446-.744 1.02-1.728 1.53-2.952 1.53Zm0-2.052c.456 0 .834-.264 1.134-.792.3-.528.45-1.572.45-3.132s-.15-2.586-.45-3.078c-.3-.504-.678-.756-1.134-.756-.444 0-.822.252-1.134.756-.3.492-.45 1.518-.45 3.078 0 1.56.15 2.604.45 3.132.312.528.69.792 1.134.792ZM724.386 210v-11.736h4.032c1.284 0 2.382.276 3.294.828.912.552 1.368 1.536 1.368 2.952 0 1.38-.456 2.388-1.368 3.024-.912.636-1.986.954-3.222.954h-1.458V210h-2.646Zm2.646-6.084h1.296c1.44 0 2.16-.624 2.16-1.872 0-.612-.192-1.044-.576-1.296-.384-.252-.936-.378-1.656-.378h-1.224v3.546Zm9.661 6.084v-8.928h2.16l.18 1.566h.072c.324-.6.714-1.044 1.17-1.332.456-.3.912-.45 1.368-.45.252 0 .456.018.612.054.168.036.318.078.45.126l-.432 2.286a3.101 3.101 0 0 0-.972-.144c-.336 0-.69.126-1.062.378-.36.24-.66.66-.9 1.26V210h-2.646Zm10.286-10.242c-.444 0-.81-.126-1.098-.378a1.307 1.307 0 0 1-.432-1.008c0-.408.144-.738.432-.99.288-.252.654-.378 1.098-.378.456 0 .822.126 1.098.378.288.252.432.582.432.99 0 .408-.144.744-.432 1.008-.276.252-.642.378-1.098.378ZM745.665 210v-8.928h2.646V210h-2.646Zm6.774 0v-8.928h2.16l.18 1.152h.072c.372-.372.768-.69 1.188-.954.42-.276.924-.414 1.512-.414.636 0 1.146.132 1.53.396.396.252.708.618.936 1.098.396-.408.81-.756 1.242-1.044.444-.3.966-.45 1.566-.45.96 0 1.662.324 2.106.972.456.636.684 1.512.684 2.628V210h-2.646v-5.202c0-.648-.09-1.092-.27-1.332-.18-.24-.456-.36-.828-.36-.444 0-.954.288-1.53.864V210h-2.646v-5.202c0-.648-.09-1.092-.27-1.332-.168-.24-.444-.36-.828-.36-.456 0-.96.288-1.512.864V210h-2.646Zm20.384-1.836c.3 0 .558-.066.774-.198a3.11 3.11 0 0 0 .684-.558v-1.566c-.936.132-1.584.324-1.944.576-.36.252-.54.552-.54.9 0 .564.342.846 1.026.846Zm-.9 2.052c-.816 0-1.464-.258-1.944-.774-.48-.528-.72-1.17-.72-1.926 0-.936.396-1.668 1.188-2.196.792-.528 2.07-.882 3.834-1.062-.024-.396-.144-.708-.36-.936-.204-.24-.552-.36-1.044-.36-.372 0-.75.072-1.134.216a8.09 8.09 0 0 0-1.224.594l-.954-1.746a8.813 8.813 0 0 1 1.8-.846 6.226 6.226 0 0 1 2.016-.324c1.14 0 2.016.33 2.628.99.612.66.918 1.674.918 3.042V210h-2.16l-.18-.918h-.072a6 6 0 0 1-1.206.828 3.13 3.13 0 0 1-1.386.306Zm9.042-.216v-8.928h2.16l.18 1.566h.072c.324-.6.714-1.044 1.17-1.332.456-.3.912-.45 1.368-.45.252 0 .456.018.612.054.168.036.318.078.45.126l-.432 2.286a3.101 3.101 0 0 0-.972-.144c-.336 0-.69.126-1.062.378-.36.24-.66.66-.9 1.26V210h-2.646Zm10.085 3.492c-.264 0-.498-.018-.702-.054a7.604 7.604 0 0 1-.558-.126l.468-2.016c.084.024.18.048.288.072.108.024.21.036.306.036.444 0 .786-.108 1.026-.324.24-.216.42-.498.54-.846l.126-.468-3.438-8.694h2.664l1.278 3.834c.132.408.252.822.36 1.242.108.42.222.852.342 1.296h.072l.288-1.26c.108-.432.216-.858.324-1.278l1.08-3.834h2.538l-3.096 9.018c-.42 1.128-.912 1.974-1.476 2.538-.564.576-1.374.864-2.43.864Zm19.164-3.276c-1.14 0-2.088-.288-2.844-.864-.756-.588-1.134-1.344-1.134-2.268 0-.696.186-1.266.558-1.71.384-.444.846-.81 1.386-1.098v-.072a4.744 4.744 0 0 1-1.098-1.152c-.288-.432-.432-.948-.432-1.548 0-.972.342-1.74 1.026-2.304.696-.564 1.572-.846 2.628-.846 1.044 0 1.884.288 2.52.864.636.564.954 1.32.954 2.268 0 .552-.15 1.044-.45 1.476-.3.42-.648.762-1.044 1.026v.072c.552.3 1.02.684 1.404 1.152.384.468.576 1.08.576 1.836 0 .9-.372 1.656-1.116 2.268-.744.6-1.722.9-2.934.9Zm.72-6.876c.468-.54.702-1.098.702-1.674 0-.444-.126-.798-.378-1.062-.24-.276-.576-.414-1.008-.414-.348 0-.648.108-.9.324-.252.216-.378.546-.378.99 0 .468.18.834.54 1.098.36.264.834.51 1.422.738Zm-.666 5.04c.444 0 .81-.114 1.098-.342.288-.24.432-.6.432-1.08 0-.504-.222-.882-.666-1.134a15.779 15.779 0 0 0-1.746-.864c-.252.24-.462.516-.63.828a2.058 2.058 0 0 0-.252.99c0 .504.174.9.522 1.188.348.276.762.414 1.242.414Zm11.274 1.836c-1.224 0-2.214-.51-2.97-1.53-.744-1.02-1.116-2.502-1.116-4.446s.372-3.408 1.116-4.392c.756-.996 1.746-1.494 2.97-1.494 1.224 0 2.208.498 2.952 1.494.756.984 1.134 2.448 1.134 4.392 0 1.944-.378 3.426-1.134 4.446-.744 1.02-1.728 1.53-2.952 1.53Zm0-2.052c.456 0 .834-.264 1.134-.792.3-.528.45-1.572.45-3.132s-.15-2.586-.45-3.078c-.3-.504-.678-.756-1.134-.756-.444 0-.822.252-1.134.756-.3.492-.45 1.518-.45 3.078 0 1.56.15 2.604.45 3.132.312.528.69.792 1.134.792Zm11.31 2.052c-1.224 0-2.214-.51-2.97-1.53-.744-1.02-1.116-2.502-1.116-4.446s.372-3.408 1.116-4.392c.756-.996 1.746-1.494 2.97-1.494 1.224 0 2.208.498 2.952 1.494.756.984 1.134 2.448 1.134 4.392 0 1.944-.378 3.426-1.134 4.446-.744 1.02-1.728 1.53-2.952 1.53Zm0-2.052c.456 0 .834-.264 1.134-.792.3-.528.45-1.572.45-3.132s-.15-2.586-.45-3.078c-.3-.504-.678-.756-1.134-.756-.444 0-.822.252-1.134.756-.3.492-.45 1.518-.45 3.078 0 1.56.15 2.604.45 3.132.312.528.69.792 1.134.792ZM900.386 33V21.264h4.032c1.284 0 2.382.276 3.294.828.912.552 1.368 1.536 1.368 2.952 0 1.38-.456 2.388-1.368 3.024-.912.636-1.986.954-3.222.954h-1.458V33h-2.646Zm2.646-6.084h1.296c1.44 0 2.16-.624 2.16-1.872 0-.612-.192-1.044-.576-1.296-.384-.252-.936-.378-1.656-.378h-1.224v3.546ZM912.693 33v-8.928h2.16l.18 1.566h.072c.324-.6.714-1.044 1.17-1.332.456-.3.912-.45 1.368-.45.252 0 .456.018.612.054.168.036.318.078.45.126l-.432 2.286a3.101 3.101 0 0 0-.972-.144c-.336 0-.69.126-1.062.378-.36.24-.66.66-.9 1.26V33h-2.646Zm10.286-10.242c-.444 0-.81-.126-1.098-.378a1.307 1.307 0 0 1-.432-1.008c0-.408.144-.738.432-.99.288-.252.654-.378 1.098-.378.456 0 .822.126 1.098.378.288.252.432.582.432.99 0 .408-.144.744-.432 1.008-.276.252-.642.378-1.098.378ZM921.665 33v-8.928h2.646V33h-2.646Zm6.774 0v-8.928h2.16l.18 1.152h.072c.372-.372.768-.69 1.188-.954.42-.276.924-.414 1.512-.414.636 0 1.146.132 1.53.396.396.252.708.618.936 1.098.396-.408.81-.756 1.242-1.044.444-.3.966-.45 1.566-.45.96 0 1.662.324 2.106.972.456.636.684 1.512.684 2.628V33h-2.646v-5.202c0-.648-.09-1.092-.27-1.332-.18-.24-.456-.36-.828-.36-.444 0-.954.288-1.53.864V33h-2.646v-5.202c0-.648-.09-1.092-.27-1.332-.168-.24-.444-.36-.828-.36-.456 0-.96.288-1.512.864V33h-2.646Zm20.384-1.836c.3 0 .558-.066.774-.198a3.11 3.11 0 0 0 .684-.558v-1.566c-.936.132-1.584.324-1.944.576-.36.252-.54.552-.54.9 0 .564.342.846 1.026.846Zm-.9 2.052c-.816 0-1.464-.258-1.944-.774-.48-.528-.72-1.17-.72-1.926 0-.936.396-1.668 1.188-2.196.792-.528 2.07-.882 3.834-1.062-.024-.396-.144-.708-.36-.936-.204-.24-.552-.36-1.044-.36-.372 0-.75.072-1.134.216a8.09 8.09 0 0 0-1.224.594l-.954-1.746a8.813 8.813 0 0 1 1.8-.846 6.226 6.226 0 0 1 2.016-.324c1.14 0 2.016.33 2.628.99.612.66.918 1.674.918 3.042V33h-2.16l-.18-.918h-.072a6 6 0 0 1-1.206.828 3.13 3.13 0 0 1-1.386.306Zm9.042-.216v-8.928h2.16l.18 1.566h.072c.324-.6.714-1.044 1.17-1.332.456-.3.912-.45 1.368-.45.252 0 .456.018.612.054.168.036.318.078.45.126l-.432 2.286a3.101 3.101 0 0 0-.972-.144c-.336 0-.69.126-1.062.378-.36.24-.66.66-.9 1.26V33h-2.646Zm10.085 3.492c-.264 0-.498-.018-.702-.054a7.604 7.604 0 0 1-.558-.126l.468-2.016c.084.024.18.048.288.072.108.024.21.036.306.036.444 0 .786-.108 1.026-.324.24-.216.42-.498.54-.846l.126-.468-3.438-8.694h2.664l1.278 3.834c.132.408.252.822.36 1.242.108.42.222.852.342 1.296h.072l.288-1.26c.108-.432.216-.858.324-1.278l1.08-3.834h2.538l-3.096 9.018c-.42 1.128-.912 1.974-1.476 2.538-.564.576-1.374.864-2.43.864ZM982.74 33v-2.142h2.484v-6.606h-2.142v-1.638a9.24 9.24 0 0 0 1.584-.432 8.706 8.706 0 0 0 1.26-.612h1.944v9.288h2.142V33h-7.272Zm14.802.216c-1.224 0-2.214-.51-2.97-1.53-.744-1.02-1.116-2.502-1.116-4.446s.372-3.408 1.116-4.392c.756-.996 1.746-1.494 2.97-1.494 1.224 0 2.208.498 2.948 1.494.76.984 1.14 2.448 1.14 4.392 0 1.944-.38 3.426-1.14 4.446-.74 1.02-1.724 1.53-2.948 1.53Zm0-2.052c.456 0 .834-.264 1.134-.792.3-.528.45-1.572.45-3.132s-.15-2.586-.45-3.078c-.3-.504-.678-.756-1.134-.756-.444 0-.822.252-1.134.756-.3.492-.45 1.518-.45 3.078 0 1.56.15 2.604.45 3.132.312.528.69.792 1.134.792Zm11.308 2.052c-1.22 0-2.21-.51-2.97-1.53-.74-1.02-1.11-2.502-1.11-4.446s.37-3.408 1.11-4.392c.76-.996 1.75-1.494 2.97-1.494 1.23 0 2.21.498 2.95 1.494.76.984 1.14 2.448 1.14 4.392 0 1.944-.38 3.426-1.14 4.446-.74 1.02-1.72 1.53-2.95 1.53Zm0-2.052c.46 0 .84-.264 1.14-.792.3-.528.45-1.572.45-3.132s-.15-2.586-.45-3.078c-.3-.504-.68-.756-1.14-.756-.44 0-.82.252-1.13.756-.3.492-.45 1.518-.45 3.078 0 1.56.15 2.604.45 3.132.31.528.69.792 1.13.792Z" fill="#0C0C0C"/><path d="M900.386 210v-11.736h4.032c1.284 0 2.382.276 3.294.828.912.552 1.368 1.536 1.368 2.952 0 1.38-.456 2.388-1.368 3.024-.912.636-1.986.954-3.222.954h-1.458V210h-2.646Zm2.646-6.084h1.296c1.44 0 2.16-.624 2.16-1.872 0-.612-.192-1.044-.576-1.296-.384-.252-.936-.378-1.656-.378h-1.224v3.546Zm9.661 6.084v-8.928h2.16l.18 1.566h.072c.324-.6.714-1.044 1.17-1.332.456-.3.912-.45 1.368-.45.252 0 .456.018.612.054.168.036.318.078.45.126l-.432 2.286a3.101 3.101 0 0 0-.972-.144c-.336 0-.69.126-1.062.378-.36.24-.66.66-.9 1.26V210h-2.646Zm10.286-10.242c-.444 0-.81-.126-1.098-.378a1.307 1.307 0 0 1-.432-1.008c0-.408.144-.738.432-.99.288-.252.654-.378 1.098-.378.456 0 .822.126 1.098.378.288.252.432.582.432.99 0 .408-.144.744-.432 1.008-.276.252-.642.378-1.098.378ZM921.665 210v-8.928h2.646V210h-2.646Zm6.774 0v-8.928h2.16l.18 1.152h.072c.372-.372.768-.69 1.188-.954.42-.276.924-.414 1.512-.414.636 0 1.146.132 1.53.396.396.252.708.618.936 1.098.396-.408.81-.756 1.242-1.044.444-.3.966-.45 1.566-.45.96 0 1.662.324 2.106.972.456.636.684 1.512.684 2.628V210h-2.646v-5.202c0-.648-.09-1.092-.27-1.332-.18-.24-.456-.36-.828-.36-.444 0-.954.288-1.53.864V210h-2.646v-5.202c0-.648-.09-1.092-.27-1.332-.168-.24-.444-.36-.828-.36-.456 0-.96.288-1.512.864V210h-2.646Zm20.384-1.836c.3 0 .558-.066.774-.198a3.11 3.11 0 0 0 .684-.558v-1.566c-.936.132-1.584.324-1.944.576-.36.252-.54.552-.54.9 0 .564.342.846 1.026.846Zm-.9 2.052c-.816 0-1.464-.258-1.944-.774-.48-.528-.72-1.17-.72-1.926 0-.936.396-1.668 1.188-2.196.792-.528 2.07-.882 3.834-1.062-.024-.396-.144-.708-.36-.936-.204-.24-.552-.36-1.044-.36-.372 0-.75.072-1.134.216a8.09 8.09 0 0 0-1.224.594l-.954-1.746a8.813 8.813 0 0 1 1.8-.846 6.226 6.226 0 0 1 2.016-.324c1.14 0 2.016.33 2.628.99.612.66.918 1.674.918 3.042V210h-2.16l-.18-.918h-.072a6 6 0 0 1-1.206.828 3.13 3.13 0 0 1-1.386.306Zm9.042-.216v-8.928h2.16l.18 1.566h.072c.324-.6.714-1.044 1.17-1.332.456-.3.912-.45 1.368-.45.252 0 .456.018.612.054.168.036.318.078.45.126l-.432 2.286a3.101 3.101 0 0 0-.972-.144c-.336 0-.69.126-1.062.378-.36.24-.66.66-.9 1.26V210h-2.646Zm10.085 3.492c-.264 0-.498-.018-.702-.054a7.604 7.604 0 0 1-.558-.126l.468-2.016c.084.024.18.048.288.072.108.024.21.036.306.036.444 0 .786-.108 1.026-.324.24-.216.42-.498.54-.846l.126-.468-3.438-8.694h2.664l1.278 3.834c.132.408.252.822.36 1.242.108.42.222.852.342 1.296h.072l.288-1.26c.108-.432.216-.858.324-1.278l1.08-3.834h2.538l-3.096 9.018c-.42 1.128-.912 1.974-1.476 2.538-.564.576-1.374.864-2.43.864Zm18.966-9.648c.3 0 .6-.084.9-.252.312-.18.582-.474.81-.882-.12-.9-.348-1.518-.684-1.854-.336-.348-.702-.522-1.098-.522-.384 0-.72.15-1.008.45-.288.288-.432.756-.432 1.404 0 .6.144 1.026.432 1.278.288.252.648.378 1.08.378Zm-.414 6.372c-.756 0-1.416-.138-1.98-.414-.552-.276-1.008-.594-1.368-.954l1.404-1.584c.192.216.45.408.774.576.324.156.654.234.99.234.636 0 1.176-.258 1.62-.774.444-.528.69-1.458.738-2.79-.3.384-.666.684-1.098.9-.432.204-.828.306-1.188.306-.972 0-1.782-.288-2.43-.864-.648-.576-.972-1.464-.972-2.664 0-1.188.372-2.124 1.116-2.808.756-.684 1.65-1.026 2.682-1.026.732 0 1.428.198 2.088.594.672.384 1.212.99 1.62 1.818.42.828.63 1.914.63 3.258 0 1.416-.222 2.586-.666 3.51-.432.912-1.002 1.59-1.71 2.034a4.19 4.19 0 0 1-2.25.648Zm11.94 0c-1.224 0-2.214-.51-2.97-1.53-.744-1.02-1.116-2.502-1.116-4.446s.372-3.408 1.116-4.392c.756-.996 1.746-1.494 2.97-1.494 1.224 0 2.208.498 2.948 1.494.76.984 1.14 2.448 1.14 4.392 0 1.944-.38 3.426-1.14 4.446-.74 1.02-1.724 1.53-2.948 1.53Zm0-2.052c.456 0 .834-.264 1.134-.792.3-.528.45-1.572.45-3.132s-.15-2.586-.45-3.078c-.3-.504-.678-.756-1.134-.756-.444 0-.822.252-1.134.756-.3.492-.45 1.518-.45 3.078 0 1.56.15 2.604.45 3.132.312.528.69.792 1.134.792Zm11.308 2.052c-1.22 0-2.21-.51-2.97-1.53-.74-1.02-1.11-2.502-1.11-4.446s.37-3.408 1.11-4.392c.76-.996 1.75-1.494 2.97-1.494 1.23 0 2.21.498 2.95 1.494.76.984 1.14 2.448 1.14 4.392 0 1.944-.38 3.426-1.14 4.446-.74 1.02-1.72 1.53-2.95 1.53Zm0-2.052c.46 0 .84-.264 1.14-.792.3-.528.45-1.572.45-3.132s-.15-2.586-.45-3.078c-.3-.504-.68-.756-1.14-.756-.44 0-.82.252-1.13.756-.3.492-.45 1.518-.45 3.078 0 1.56.15 2.604.45 3.132.31.528.69.792 1.13.792Z" fill="#fff"/><path d="M19.168 58.302h2.376l.324-2.664h-2.376l-.324 2.664ZM17.62 63l.45-3.672h-1.44v-1.026h1.566l.324-2.664h-1.53v-1.044h1.656l.414-3.294h.954l-.414 3.294h2.394l.432-3.294h.954l-.432 3.294h1.458v1.044H22.84l-.324 2.664h1.53v1.026H22.39L21.94 63h-.954l.432-3.672h-2.376L18.592 63h-.972Zm10.747 0V51.192h2.952c1.824 0 3.21.51 4.158 1.53.948 1.008 1.422 2.448 1.422 4.32 0 1.884-.474 3.348-1.422 4.392C34.53 62.478 33.167 63 31.391 63h-3.024Zm1.494-1.224h1.35c1.38 0 2.412-.414 3.096-1.242.696-.828 1.044-1.992 1.044-3.492 0-1.488-.348-2.628-1.044-3.42-.684-.804-1.716-1.206-3.096-1.206h-1.35v9.36Zm11.632-3.132h3.6v-3.33c0-.3.012-.666.036-1.098.025-.432.043-.804.055-1.116h-.072c-.145.276-.3.546-.468.81-.157.264-.313.534-.468.81l-2.683 3.924Zm6.57 1.188h-1.566V63h-1.404v-3.168h-5.166v-.972l4.915-7.344h1.656v7.128h1.566v1.188Zm5.96-3.438-.558 1.8h3.546l-.558-1.8a72.81 72.81 0 0 1-.612-1.962c-.192-.66-.384-1.332-.576-2.016h-.072c-.18.684-.366 1.356-.558 2.016a72.81 72.81 0 0 1-.612 1.962ZM58.505 63l-1.116-3.6h-4.302L51.953 63h-1.53l3.996-11.808h1.692L60.107 63h-1.602Zm5.075 0V51.192h6.804v1.26h-5.31v3.996h4.5v1.26h-4.5V63H63.58Zm13.322.216c-.912 0-1.674-.162-2.286-.486-.612-.336-1.11-.714-1.494-1.134l.756-.972c.336.36.738.678 1.206.954.48.276 1.056.414 1.728.414.696 0 1.266-.192 1.71-.576.444-.384.666-.894.666-1.53 0-.684-.27-1.236-.81-1.656-.54-.42-1.494-.63-2.862-.63v-1.134c1.224 0 2.07-.204 2.538-.612.48-.42.72-.93.72-1.53 0-.552-.18-.99-.54-1.314-.348-.336-.828-.504-1.44-.504-.48 0-.924.114-1.332.342-.408.216-.78.492-1.116.828l-.792-.936c.444-.408.936-.75 1.476-1.026.54-.276 1.146-.414 1.818-.414.996 0 1.818.258 2.466.774.648.504.972 1.218.972 2.142 0 .696-.192 1.266-.576 1.71-.384.444-.888.786-1.512 1.026v.072a3.585 3.585 0 0 1 1.764.99c.48.492.72 1.134.72 1.926 0 1.02-.366 1.824-1.098 2.412-.732.576-1.626.864-2.682.864ZM86.588 63c.06-1.44.21-2.73.45-3.87.24-1.152.588-2.232 1.044-3.24a18.362 18.362 0 0 1 1.836-3.096h-5.724v-1.278h7.398v.918c-.9 1.164-1.59 2.268-2.07 3.312a12.654 12.654 0 0 0-1.008 3.294c-.192 1.152-.324 2.472-.396 3.96h-1.53ZM372.168 58.302h2.376l.324-2.664h-2.376l-.324 2.664ZM370.62 63l.45-3.672h-1.44v-1.026h1.566l.324-2.664h-1.53v-1.044h1.656l.414-3.294h.954l-.414 3.294h2.394l.432-3.294h.954l-.432 3.294h1.458v1.044h-1.566l-.324 2.664h1.53v1.026h-1.656L374.94 63h-.954l.432-3.672h-2.376l-.45 3.672h-.972Zm10.747 0V51.192h2.952c1.824 0 3.21.51 4.158 1.53.948 1.008 1.422 2.448 1.422 4.32 0 1.884-.474 3.348-1.422 4.392-.948 1.044-2.31 1.566-4.086 1.566h-3.024Zm1.494-1.224h1.35c1.38 0 2.412-.414 3.096-1.242.696-.828 1.044-1.992 1.044-3.492 0-1.488-.348-2.628-1.044-3.42-.684-.804-1.716-1.206-3.096-1.206h-1.35v9.36Zm14.26 1.44c-1.08 0-1.98-.294-2.7-.882-.708-.6-1.062-1.356-1.062-2.268 0-.744.222-1.374.666-1.89a5.377 5.377 0 0 1 1.494-1.206v-.072c-.42-.3-.792-.666-1.116-1.098-.324-.432-.486-.948-.486-1.548 0-.888.312-1.602.936-2.142.624-.54 1.398-.81 2.322-.81.996 0 1.782.288 2.358.864.588.576.882 1.308.882 2.196 0 .6-.18 1.146-.54 1.638-.348.492-.696.87-1.044 1.134v.072c.516.3.978.678 1.386 1.134.408.444.612 1.05.612 1.818 0 .852-.342 1.578-1.026 2.178-.672.588-1.566.882-2.682.882Zm.81-6.48c.804-.708 1.206-1.476 1.206-2.304 0-.564-.174-1.044-.522-1.44-.348-.396-.84-.594-1.476-.594-.528 0-.972.174-1.332.522-.348.336-.522.78-.522 1.332 0 .684.264 1.206.792 1.566.54.348 1.158.654 1.854.918Zm-.774 5.382c.672 0 1.212-.186 1.62-.558.42-.384.63-.87.63-1.458 0-.732-.312-1.278-.936-1.638-.624-.36-1.35-.708-2.178-1.044-.456.312-.84.678-1.152 1.098-.3.42-.45.888-.45 1.404 0 .636.234 1.164.702 1.584.48.408 1.068.612 1.764.612Zm7.832.882V51.192h3.51c1.2 0 2.172.222 2.916.666.756.444 1.134 1.182 1.134 2.214 0 .588-.15 1.122-.45 1.602-.3.468-.726.792-1.278.972v.072c.708.132 1.284.432 1.728.9.456.468.684 1.11.684 1.926 0 1.164-.42 2.034-1.26 2.61-.828.564-1.902.846-3.222.846h-3.762Zm1.494-6.786h1.746c1.008 0 1.734-.174 2.178-.522.444-.348.666-.822.666-1.422 0-.684-.234-1.17-.702-1.458-.468-.288-1.158-.432-2.07-.432h-1.818v3.834Zm0 5.598h2.052c1.02 0 1.812-.186 2.376-.558.564-.384.846-.972.846-1.764 0-.732-.282-1.266-.846-1.602-.552-.348-1.344-.522-2.376-.522h-2.052v4.446ZM418.937 63c.06-1.44.21-2.73.45-3.87.24-1.152.588-2.232 1.044-3.24a18.362 18.362 0 0 1 1.836-3.096h-5.724v-1.278h7.398v.918c-.9 1.164-1.59 2.268-2.07 3.312a12.654 12.654 0 0 0-1.008 3.294c-.192 1.152-.324 2.472-.396 3.96h-1.53Zm9.433-4.356h3.6v-3.33c0-.3.012-.666.036-1.098.024-.432.042-.804.054-1.116h-.072c-.144.276-.3.546-.468.81-.156.264-.312.534-.468.81l-2.682 3.924Zm6.57 1.188h-1.566V63h-1.404v-3.168h-5.166v-.972l4.914-7.344h1.656v7.128h1.566v1.188ZM438.865 63V51.192h3.51c1.2 0 2.172.222 2.916.666.756.444 1.134 1.182 1.134 2.214 0 .588-.15 1.122-.45 1.602-.3.468-.726.792-1.278.972v.072c.708.132 1.284.432 1.728.9.456.468.684 1.11.684 1.926 0 1.164-.42 2.034-1.26 2.61-.828.564-1.902.846-3.222.846h-3.762Zm1.494-6.786h1.746c1.008 0 1.734-.174 2.178-.522.444-.348.666-.822.666-1.422 0-.684-.234-1.17-.702-1.458-.468-.288-1.158-.432-2.07-.432h-1.818v3.834Zm0 5.598h2.052c1.02 0 1.812-.186 2.376-.558.564-.384.846-.972.846-1.764 0-.732-.282-1.266-.846-1.602-.552-.348-1.344-.522-2.376-.522h-2.052v4.446ZM372.168 235.302h2.376l.324-2.664h-2.376l-.324 2.664ZM370.62 240l.45-3.672h-1.44v-1.026h1.566l.324-2.664h-1.53v-1.044h1.656l.414-3.294h.954l-.414 3.294h2.394l.432-3.294h.954l-.432 3.294h1.458v1.044h-1.566l-.324 2.664h1.53v1.026h-1.656l-.45 3.672h-.954l.432-3.672h-2.376l-.45 3.672h-.972Zm10.747 0v-11.808h3.51c1.2 0 2.172.222 2.916.666.756.444 1.134 1.182 1.134 2.214 0 .588-.15 1.122-.45 1.602-.3.468-.726.792-1.278.972v.072c.708.132 1.284.432 1.728.9.456.468.684 1.11.684 1.926 0 1.164-.42 2.034-1.26 2.61-.828.564-1.902.846-3.222.846h-3.762Zm1.494-6.786h1.746c1.008 0 1.734-.174 2.178-.522.444-.348.666-.822.666-1.422 0-.684-.234-1.17-.702-1.458-.468-.288-1.158-.432-2.07-.432h-1.818v3.834Zm0 5.598h2.052c1.02 0 1.812-.186 2.376-.558.564-.384.846-.972.846-1.764 0-.732-.282-1.266-.846-1.602-.552-.348-1.344-.522-2.376-.522h-2.052v4.446ZM393.749 240v-11.808h6.804v1.26h-5.31v3.996h4.5v1.26h-4.5V240h-1.494Zm13.305-5.58c.372 0 .774-.12 1.206-.36.432-.24.834-.63 1.206-1.17-.192-2.28-1.038-3.42-2.538-3.42-.552 0-1.026.234-1.422.702-.384.456-.576 1.062-.576 1.818 0 .744.174 1.338.522 1.782.36.432.894.648 1.602.648Zm-.54 5.796c-.612 0-1.152-.114-1.62-.342a3.822 3.822 0 0 1-1.152-.864l.828-.936c.516.612 1.146.918 1.89.918.804 0 1.5-.36 2.088-1.08.6-.732.918-2.016.954-3.852-.768.984-1.668 1.476-2.7 1.476-.996 0-1.788-.294-2.376-.882-.588-.6-.882-1.488-.882-2.664 0-1.092.336-1.98 1.008-2.664.672-.684 1.464-1.026 2.376-1.026 1.128 0 2.07.462 2.826 1.386.756.912 1.134 2.292 1.134 4.14 0 1.536-.21 2.772-.63 3.708-.408.936-.948 1.62-1.62 2.052-.66.42-1.368.63-2.124.63Zm8.677-.216v-11.808h6.804v1.26h-5.31v3.708h4.482v1.278h-4.482v4.284h5.49V240h-6.984Zm13.92.216c-.912 0-1.674-.162-2.286-.486-.612-.336-1.11-.714-1.494-1.134l.756-.972c.336.36.738.678 1.206.954.48.276 1.056.414 1.728.414.696 0 1.266-.192 1.71-.576.444-.384.666-.894.666-1.53 0-.684-.27-1.236-.81-1.656-.54-.42-1.494-.63-2.862-.63v-1.134c1.224 0 2.07-.204 2.538-.612.48-.42.72-.93.72-1.53 0-.552-.18-.99-.54-1.314-.348-.336-.828-.504-1.44-.504-.48 0-.924.114-1.332.342-.408.216-.78.492-1.116.828l-.792-.936c.444-.408.936-.75 1.476-1.026.54-.276 1.146-.414 1.818-.414.996 0 1.818.258 2.466.774.648.504.972 1.218.972 2.142 0 .696-.192 1.266-.576 1.71-.384.444-.888.786-1.512 1.026v.072a3.585 3.585 0 0 1 1.764.99c.48.492.72 1.134.72 1.926 0 1.02-.366 1.824-1.098 2.412-.732.576-1.626.864-2.682.864Zm7.22-.216v-.882c1.728-1.716 3.06-3.138 3.996-4.266.936-1.14 1.404-2.172 1.404-3.096 0-.66-.18-1.2-.54-1.62-.36-.42-.906-.63-1.638-.63-.48 0-.924.138-1.332.414-.408.264-.78.588-1.116.972l-.846-.846c.48-.516.99-.936 1.53-1.26.552-.324 1.2-.486 1.944-.486 1.068 0 1.908.312 2.52.936.612.612.918 1.428.918 2.448 0 1.08-.444 2.184-1.332 3.312-.876 1.128-1.992 2.406-3.348 3.834l.972-.072c.336-.024.654-.036.954-.036h3.33V240h-7.416ZM549.168 58.302h2.376l.324-2.664h-2.376l-.324 2.664ZM547.62 63l.45-3.672h-1.44v-1.026h1.566l.324-2.664h-1.53v-1.044h1.656l.414-3.294h.954l-.414 3.294h2.394l.432-3.294h.954l-.432 3.294h1.458v1.044h-1.566l-.324 2.664h1.53v1.026h-1.656L551.94 63h-.954l.432-3.672h-2.376l-.45 3.672h-.972Zm10.747 0V51.192h2.952c1.824 0 3.21.51 4.158 1.53.948 1.008 1.422 2.448 1.422 4.32 0 1.884-.474 3.348-1.422 4.392-.948 1.044-2.31 1.566-4.086 1.566h-3.024Zm1.494-1.224h1.35c1.38 0 2.412-.414 3.096-1.242.696-.828 1.044-1.992 1.044-3.492 0-1.488-.348-2.628-1.044-3.42-.684-.804-1.716-1.206-3.096-1.206h-1.35v9.36ZM571.241 63V51.192h2.952c1.824 0 3.21.51 4.158 1.53.948 1.008 1.422 2.448 1.422 4.32 0 1.884-.474 3.348-1.422 4.392-.948 1.044-2.31 1.566-4.086 1.566h-3.024Zm1.494-1.224h1.35c1.38 0 2.412-.414 3.096-1.242.696-.828 1.044-1.992 1.044-3.492 0-1.488-.348-2.628-1.044-3.42-.684-.804-1.716-1.206-3.096-1.206h-1.35v9.36ZM584.116 63V51.192h3.51c1.2 0 2.172.222 2.916.666.756.444 1.134 1.182 1.134 2.214 0 .588-.15 1.122-.45 1.602-.3.468-.726.792-1.278.972v.072c.708.132 1.284.432 1.728.9.456.468.684 1.11.684 1.926 0 1.164-.42 2.034-1.26 2.61-.828.564-1.902.846-3.222.846h-3.762Zm1.494-6.786h1.746c1.008 0 1.734-.174 2.178-.522.444-.348.666-.822.666-1.422 0-.684-.234-1.17-.702-1.458-.468-.288-1.158-.432-2.07-.432h-1.818v3.834Zm0 5.598h2.052c1.02 0 1.812-.186 2.376-.558.564-.384.846-.972.846-1.764 0-.732-.282-1.266-.846-1.602-.552-.348-1.344-.522-2.376-.522h-2.052v4.446ZM596.498 63V51.192h6.804v1.26h-5.31v3.996h4.5v1.26h-4.5V63h-1.494Zm13.286.216c-.912 0-1.668-.162-2.268-.486-.6-.324-1.098-.684-1.494-1.08l.72-.972c.348.348.75.654 1.206.918.456.264 1.02.396 1.692.396.696 0 1.29-.234 1.782-.702.492-.48.738-1.122.738-1.926 0-.792-.222-1.41-.666-1.854-.444-.444-1.038-.666-1.782-.666-.396 0-.738.06-1.026.18a6.43 6.43 0 0 0-.936.522l-.792-.504.378-5.526h5.742v1.278h-4.446l-.306 3.402c.276-.144.552-.258.828-.342.276-.084.588-.126.936-.126.984 0 1.824.288 2.52.864.696.576 1.044 1.488 1.044 2.736 0 1.248-.396 2.208-1.188 2.88-.792.672-1.686 1.008-2.682 1.008ZM617.94 63V51.192h6.804v1.26h-5.31v3.996h4.5v1.26h-4.5V63h-1.494ZM549.168 235.302h2.376l.324-2.664h-2.376l-.324 2.664ZM547.62 240l.45-3.672h-1.44v-1.026h1.566l.324-2.664h-1.53v-1.044h1.656l.414-3.294h.954l-.414 3.294h2.394l.432-3.294h.954l-.432 3.294h1.458v1.044h-1.566l-.324 2.664h1.53v1.026h-1.656l-.45 3.672h-.954l.432-3.672h-2.376l-.45 3.672h-.972Zm12.781-6.606-.558 1.8h3.546l-.558-1.8a72.81 72.81 0 0 1-.612-1.962c-.192-.66-.384-1.332-.576-2.016h-.072c-.18.684-.366 1.356-.558 2.016a72.81 72.81 0 0 1-.612 1.962Zm4.482 6.606-1.116-3.6h-4.302l-1.134 3.6h-1.53l3.996-11.808h1.692L566.485 240h-1.602Zm7.004-6.606-.558 1.8h3.546l-.558-1.8a72.81 72.81 0 0 1-.612-1.962c-.192-.66-.384-1.332-.576-2.016h-.072c-.18.684-.366 1.356-.558 2.016a72.81 72.81 0 0 1-.612 1.962Zm4.482 6.606-1.116-3.6h-4.302l-1.134 3.6h-1.53l3.996-11.808h1.692L577.971 240h-1.602Zm7.955.216c-1.08 0-1.98-.294-2.7-.882-.708-.6-1.062-1.356-1.062-2.268 0-.744.222-1.374.666-1.89a5.377 5.377 0 0 1 1.494-1.206v-.072c-.42-.3-.792-.666-1.116-1.098-.324-.432-.486-.948-.486-1.548 0-.888.312-1.602.936-2.142.624-.54 1.398-.81 2.322-.81.996 0 1.782.288 2.358.864.588.576.882 1.308.882 2.196 0 .6-.18 1.146-.54 1.638-.348.492-.696.87-1.044 1.134v.072c.516.3.978.678 1.386 1.134.408.444.612 1.05.612 1.818 0 .852-.342 1.578-1.026 2.178-.672.588-1.566.882-2.682.882Zm.81-6.48c.804-.708 1.206-1.476 1.206-2.304 0-.564-.174-1.044-.522-1.44-.348-.396-.84-.594-1.476-.594-.528 0-.972.174-1.332.522-.348.336-.522.78-.522 1.332 0 .684.264 1.206.792 1.566.54.348 1.158.654 1.854.918Zm-.774 5.382c.672 0 1.212-.186 1.62-.558.42-.384.63-.87.63-1.458 0-.732-.312-1.278-.936-1.638-.624-.36-1.35-.708-2.178-1.044-.456.312-.84.678-1.152 1.098-.3.42-.45.888-.45 1.404 0 .636.234 1.164.702 1.584.48.408 1.068.612 1.764.612Zm12.295 1.098c-1.476 0-2.706-.54-3.69-1.62-.972-1.08-1.458-2.58-1.458-4.5 0-1.896.498-3.39 1.494-4.482s2.244-1.638 3.744-1.638c.72 0 1.35.15 1.89.45.552.288 1.002.624 1.35 1.008l-.81.972a3.843 3.843 0 0 0-1.062-.81 2.905 2.905 0 0 0-1.35-.306c-1.116 0-2.016.432-2.7 1.296-.672.852-1.008 2.01-1.008 3.474 0 1.488.33 2.67.99 3.546.66.864 1.548 1.296 2.664 1.296.564 0 1.068-.114 1.512-.342.444-.24.852-.57 1.224-.99l.828.936c-.468.54-.996.96-1.584 1.26-.588.3-1.266.45-2.034.45Zm6.719-.216v-.882c1.728-1.716 3.06-3.138 3.996-4.266.936-1.14 1.404-2.172 1.404-3.096 0-.66-.18-1.2-.54-1.62-.36-.42-.906-.63-1.638-.63-.48 0-.924.138-1.332.414-.408.264-.78.588-1.116.972l-.846-.846c.48-.516.99-.936 1.53-1.26.552-.324 1.2-.486 1.944-.486 1.068 0 1.908.312 2.52.936.612.612.918 1.428.918 2.448 0 1.08-.444 2.184-1.332 3.312-.876 1.128-1.992 2.406-3.348 3.834l.972-.072c.336-.024.654-.036.954-.036h3.33V240h-7.416Zm16.112.216c-1.476 0-2.706-.54-3.69-1.62-.972-1.08-1.458-2.58-1.458-4.5 0-1.896.498-3.39 1.494-4.482s2.244-1.638 3.744-1.638c.72 0 1.35.15 1.89.45.552.288 1.002.624 1.35 1.008l-.81.972a3.843 3.843 0 0 0-1.062-.81 2.905 2.905 0 0 0-1.35-.306c-1.116 0-2.016.432-2.7 1.296-.672.852-1.008 2.01-1.008 3.474 0 1.488.33 2.67.99 3.546.66.864 1.548 1.296 2.664 1.296.564 0 1.068-.114 1.512-.342.444-.24.852-.57 1.224-.99l.828.936c-.468.54-.996.96-1.584 1.26-.588.3-1.266.45-2.034.45ZM726.168 58.302h2.376l.324-2.664h-2.376l-.324 2.664ZM724.62 63l.45-3.672h-1.44v-1.026h1.566l.324-2.664h-1.53v-1.044h1.656l.414-3.294h.954l-.414 3.294h2.394l.432-3.294h.954l-.432 3.294h1.458v1.044h-1.566l-.324 2.664h1.53v1.026h-1.656L728.94 63h-.954l.432-3.672h-2.376l-.45 3.672h-.972Zm10.747 0V51.192h6.804v1.26h-5.31v3.708h4.482v1.278h-4.482v4.284h5.49V63h-6.984Zm11.094 0v-1.224h2.628v-8.46h-2.088v-.954a7.585 7.585 0 0 0 1.368-.342 5.81 5.81 0 0 0 1.062-.504h1.134v10.26h2.376V63h-6.48Zm15.41.216c-1.476 0-2.706-.54-3.69-1.62-.972-1.08-1.458-2.58-1.458-4.5 0-1.896.498-3.39 1.494-4.482s2.244-1.638 3.744-1.638c.72 0 1.35.15 1.89.45.552.288 1.002.624 1.35 1.008l-.81.972a3.843 3.843 0 0 0-1.062-.81 2.905 2.905 0 0 0-1.35-.306c-1.116 0-2.016.432-2.7 1.296-.672.852-1.008 2.01-1.008 3.474 0 1.488.33 2.67.99 3.546.66.864 1.548 1.296 2.664 1.296.564 0 1.068-.114 1.512-.342.444-.24.852-.57 1.224-.99l.828.936c-.468.54-.996.96-1.584 1.26-.588.3-1.266.45-2.034.45Zm9.185-.216c.06-1.44.21-2.73.45-3.87.24-1.152.588-2.232 1.044-3.24a18.362 18.362 0 0 1 1.836-3.096h-5.724v-1.278h7.398v.918c-.9 1.164-1.59 2.268-2.07 3.312a12.654 12.654 0 0 0-1.008 3.294c-.192 1.152-.324 2.472-.396 3.96h-1.53Zm10.747 0c.06-1.44.21-2.73.45-3.87.24-1.152.588-2.232 1.044-3.24a18.362 18.362 0 0 1 1.836-3.096h-5.724v-1.278h7.398v.918c-.9 1.164-1.59 2.268-2.07 3.312a12.654 12.654 0 0 0-1.008 3.294c-.192 1.152-.324 2.472-.396 3.96h-1.53Zm11.809.216c-.912 0-1.674-.162-2.286-.486-.612-.336-1.11-.714-1.494-1.134l.756-.972c.336.36.738.678 1.206.954.48.276 1.056.414 1.728.414.696 0 1.266-.192 1.71-.576.444-.384.666-.894.666-1.53 0-.684-.27-1.236-.81-1.656-.54-.42-1.494-.63-2.862-.63v-1.134c1.224 0 2.07-.204 2.538-.612.48-.42.72-.93.72-1.53 0-.552-.18-.99-.54-1.314-.348-.336-.828-.504-1.44-.504-.48 0-.924.114-1.332.342-.408.216-.78.492-1.116.828l-.792-.936c.444-.408.936-.75 1.476-1.026.54-.276 1.146-.414 1.818-.414.996 0 1.818.258 2.466.774.648.504.972 1.218.972 2.142 0 .696-.192 1.266-.576 1.71-.384.444-.888.786-1.512 1.026v.072a3.585 3.585 0 0 1 1.764.99c.48.492.72 1.134.72 1.926 0 1.02-.366 1.824-1.098 2.412-.732.576-1.626.864-2.682.864ZM726.168 235.302h2.376l.324-2.664h-2.376l-.324 2.664ZM724.62 240l.45-3.672h-1.44v-1.026h1.566l.324-2.664h-1.53v-1.044h1.656l.414-3.294h.954l-.414 3.294h2.394l.432-3.294h.954l-.432 3.294h1.458v1.044h-1.566l-.324 2.664h1.53v1.026h-1.656l-.45 3.672h-.954l.432-3.672h-2.376l-.45 3.672h-.972Zm13.357-5.58c.372 0 .774-.12 1.206-.36.432-.24.834-.63 1.206-1.17-.192-2.28-1.038-3.42-2.538-3.42-.552 0-1.026.234-1.422.702-.384.456-.576 1.062-.576 1.818 0 .744.174 1.338.522 1.782.36.432.894.648 1.602.648Zm-.54 5.796c-.612 0-1.152-.114-1.62-.342a3.822 3.822 0 0 1-1.152-.864l.828-.936c.516.612 1.146.918 1.89.918.804 0 1.5-.36 2.088-1.08.6-.732.918-2.016.954-3.852-.768.984-1.668 1.476-2.7 1.476-.996 0-1.788-.294-2.376-.882-.588-.6-.882-1.488-.882-2.664 0-1.092.336-1.98 1.008-2.664.672-.684 1.464-1.026 2.376-1.026 1.128 0 2.07.462 2.826 1.386.756.912 1.134 2.292 1.134 4.14 0 1.536-.21 2.772-.63 3.708-.408.936-.948 1.62-1.62 2.052-.66.42-1.368.63-2.124.63Zm8.93-4.572h3.6v-3.33c0-.3.012-.666.036-1.098.024-.432.042-.804.054-1.116h-.072c-.144.276-.3.546-.468.81-.156.264-.312.534-.468.81l-2.682 3.924Zm6.57 1.188h-1.566V240h-1.404v-3.168h-5.166v-.972l4.914-7.344h1.656v7.128h1.566v1.188Zm5.491 3.168c.06-1.44.21-2.73.45-3.87.24-1.152.588-2.232 1.044-3.24a18.362 18.362 0 0 1 1.836-3.096h-5.724v-1.278h7.398v.918c-.9 1.164-1.59 2.268-2.07 3.312a12.654 12.654 0 0 0-1.008 3.294c-.192 1.152-.324 2.472-.396 3.96h-1.53Zm9.181 0v-11.808h3.51c1.2 0 2.172.222 2.916.666.756.444 1.134 1.182 1.134 2.214 0 .588-.15 1.122-.45 1.602-.3.468-.726.792-1.278.972v.072c.708.132 1.284.432 1.728.9.456.468.684 1.11.684 1.926 0 1.164-.42 2.034-1.26 2.61-.828.564-1.902.846-3.222.846h-3.762Zm1.494-6.786h1.746c1.008 0 1.734-.174 2.178-.522.444-.348.666-.822.666-1.422 0-.684-.234-1.17-.702-1.458-.468-.288-1.158-.432-2.07-.432h-1.818v3.834Zm0 5.598h2.052c1.02 0 1.812-.186 2.376-.558.564-.384.846-.972.846-1.764 0-.732-.282-1.266-.846-1.602-.552-.348-1.344-.522-2.376-.522h-2.052v4.446Zm9.988 1.188v-.882c1.728-1.716 3.06-3.138 3.996-4.266.936-1.14 1.404-2.172 1.404-3.096 0-.66-.18-1.2-.54-1.62-.36-.42-.906-.63-1.638-.63-.48 0-.924.138-1.332.414-.408.264-.78.588-1.116.972l-.846-.846c.48-.516.99-.936 1.53-1.26.552-.324 1.2-.486 1.944-.486 1.068 0 1.908.312 2.52.936.612.612.918 1.428.918 2.448 0 1.08-.444 2.184-1.332 3.312-.876 1.128-1.992 2.406-3.348 3.834l.972-.072c.336-.024.654-.036.954-.036h3.33V240h-7.416Zm13.213 0c.06-1.44.21-2.73.45-3.87.24-1.152.588-2.232 1.044-3.24a18.362 18.362 0 0 1 1.836-3.096h-5.724v-1.278h7.398v.918c-.9 1.164-1.59 2.268-2.07 3.312a12.654 12.654 0 0 0-1.008 3.294c-.192 1.152-.324 2.472-.396 3.96h-1.53ZM902.168 58.302h2.376l.324-2.664h-2.376l-.324 2.664ZM900.62 63l.45-3.672h-1.44v-1.026h1.566l.324-2.664h-1.53v-1.044h1.656l.414-3.294h.954l-.414 3.294h2.394l.432-3.294h.954l-.432 3.294h1.458v1.044h-1.566l-.324 2.664h1.53v1.026h-1.656L904.94 63h-.954l.432-3.672h-2.376l-.45 3.672h-.972Zm10.747 0V51.192h6.804v1.26h-5.31v3.708h4.482v1.278h-4.482v4.284h5.49V63h-6.984Zm13.92.216c-.912 0-1.674-.162-2.286-.486-.612-.336-1.11-.714-1.494-1.134l.756-.972c.336.36.738.678 1.206.954.48.276 1.056.414 1.728.414.696 0 1.266-.192 1.71-.576.444-.384.666-.894.666-1.53 0-.684-.27-1.236-.81-1.656-.54-.42-1.494-.63-2.862-.63v-1.134c1.224 0 2.07-.204 2.538-.612.48-.42.72-.93.72-1.53 0-.552-.18-.99-.54-1.314-.348-.336-.828-.504-1.44-.504-.48 0-.924.114-1.332.342-.408.216-.78.492-1.116.828l-.792-.936c.444-.408.936-.75 1.476-1.026.54-.276 1.146-.414 1.818-.414.996 0 1.818.258 2.466.774.648.504.972 1.218.972 2.142 0 .696-.192 1.266-.576 1.71-.384.444-.888.786-1.512 1.026v.072a3.585 3.585 0 0 1 1.764.99c.48.492.72 1.134.72 1.926 0 1.02-.366 1.824-1.098 2.412-.732.576-1.626.864-2.682.864Zm12.584 0c-1.476 0-2.706-.54-3.69-1.62-.972-1.08-1.458-2.58-1.458-4.5 0-1.896.498-3.39 1.494-4.482s2.244-1.638 3.744-1.638c.72 0 1.35.15 1.89.45.552.288 1.002.624 1.35 1.008l-.81.972a3.843 3.843 0 0 0-1.062-.81 2.905 2.905 0 0 0-1.35-.306c-1.116 0-2.016.432-2.7 1.296-.672.852-1.008 2.01-1.008 3.474 0 1.488.33 2.67.99 3.546.66.864 1.548 1.296 2.664 1.296.564 0 1.068-.114 1.512-.342.444-.24.852-.57 1.224-.99l.828.936c-.468.54-.996.96-1.584 1.26-.588.3-1.266.45-2.034.45ZM945.49 63V51.192H949c1.2 0 2.172.222 2.916.666.756.444 1.134 1.182 1.134 2.214 0 .588-.15 1.122-.45 1.602-.3.468-.726.792-1.278.972v.072c.708.132 1.284.432 1.728.9.456.468.684 1.11.684 1.926 0 1.164-.42 2.034-1.26 2.61-.828.564-1.902.846-3.222.846h-3.762Zm1.494-6.786h1.746c1.008 0 1.734-.174 2.178-.522.444-.348.666-.822.666-1.422 0-.684-.234-1.17-.702-1.458-.468-.288-1.158-.432-2.07-.432h-1.818v3.834Zm0 5.598h2.052c1.02 0 1.812-.186 2.376-.558.564-.384.846-.972.846-1.764 0-.732-.282-1.266-.846-1.602-.552-.348-1.344-.522-2.376-.522h-2.052v4.446ZM959.438 63c.06-1.44.21-2.73.45-3.87.24-1.152.588-2.232 1.044-3.24a18.362 18.362 0 0 1 1.836-3.096h-5.724v-1.278h7.398v.918c-.9 1.164-1.59 2.268-2.07 3.312a12.654 12.654 0 0 0-1.008 3.294c-.192 1.152-.324 2.472-.396 3.96h-1.53Zm9.181 0V51.192h2.952c1.824 0 3.21.51 4.158 1.53.948 1.008 1.422 2.448 1.422 4.32 0 1.884-.474 3.348-1.422 4.392-.948 1.044-2.31 1.566-4.086 1.566h-3.024Zm1.494-1.224h1.35c1.38 0 2.412-.414 3.096-1.242.696-.828 1.044-1.992 1.044-3.492 0-1.488-.348-2.628-1.044-3.42-.684-.804-1.716-1.206-3.096-1.206h-1.35v9.36Z" fill="#0C0C0C"/><path d="M902.168 235.302h2.376l.324-2.664h-2.376l-.324 2.664ZM900.62 240l.45-3.672h-1.44v-1.026h1.566l.324-2.664h-1.53v-1.044h1.656l.414-3.294h.954l-.414 3.294h2.394l.432-3.294h.954l-.432 3.294h1.458v1.044h-1.566l-.324 2.664h1.53v1.026h-1.656l-.45 3.672h-.954l.432-3.672h-2.376l-.45 3.672h-.972Zm12.313 0c.06-1.44.21-2.73.45-3.87.24-1.152.588-2.232 1.044-3.24a18.362 18.362 0 0 1 1.836-3.096h-5.724v-1.278h7.398v.918c-.9 1.164-1.59 2.268-2.07 3.312a12.654 12.654 0 0 0-1.008 3.294c-.192 1.152-.324 2.472-.396 3.96h-1.53Zm9.182 0v-11.808h6.804v1.26h-5.31v3.996h4.5v1.26h-4.5V240h-1.494Zm17.3-3.474c0 1.092-.336 1.98-1.008 2.664-.672.684-1.47 1.026-2.394 1.026-1.128 0-2.07-.456-2.826-1.368-.756-.924-1.134-2.31-1.134-4.158 0-1.536.204-2.772.612-3.708.42-.936.96-1.614 1.62-2.034a3.894 3.894 0 0 1 2.142-.648c.624 0 1.158.12 1.602.36.456.228.846.516 1.17.864l-.828.918c-.504-.6-1.134-.9-1.89-.9-.804 0-1.5.36-2.088 1.08-.588.708-.9 1.974-.936 3.798.36-.432.78-.78 1.26-1.044s.954-.396 1.422-.396c.996 0 1.788.3 2.376.9.6.588.9 1.47.9 2.646Zm-3.402 2.52c.564 0 1.038-.228 1.422-.684.384-.468.576-1.08.576-1.836 0-.744-.18-1.332-.54-1.764-.348-.444-.876-.666-1.584-.666-.372 0-.774.12-1.206.36-.432.24-.828.624-1.188 1.152.192 2.292 1.032 3.438 2.52 3.438Zm10.153-4.626c.372 0 .774-.12 1.206-.36.432-.24.834-.63 1.206-1.17-.192-2.28-1.038-3.42-2.538-3.42-.552 0-1.026.234-1.422.702-.384.456-.576 1.062-.576 1.818 0 .744.174 1.338.522 1.782.36.432.894.648 1.602.648Zm-.54 5.796c-.612 0-1.152-.114-1.62-.342a3.822 3.822 0 0 1-1.152-.864l.828-.936c.516.612 1.146.918 1.89.918.804 0 1.5-.36 2.088-1.08.6-.732.918-2.016.954-3.852-.768.984-1.668 1.476-2.7 1.476-.996 0-1.788-.294-2.376-.882-.588-.6-.882-1.488-.882-2.664 0-1.092.336-1.98 1.008-2.664.672-.684 1.464-1.026 2.376-1.026 1.128 0 2.07.462 2.826 1.386.756.912 1.134 2.292 1.134 4.14 0 1.536-.21 2.772-.63 3.708-.408.936-.948 1.62-1.62 2.052-.66.42-1.368.63-2.124.63Zm7.778-.216v-.882c1.728-1.716 3.06-3.138 3.996-4.266.936-1.14 1.404-2.172 1.404-3.096 0-.66-.18-1.2-.54-1.62-.36-.42-.906-.63-1.638-.63-.48 0-.924.138-1.332.414-.408.264-.78.588-1.116.972l-.846-.846c.48-.516.99-.936 1.53-1.26.552-.324 1.2-.486 1.944-.486 1.068 0 1.908.312 2.52.936.612.612.918 1.428.918 2.448 0 1.08-.444 2.184-1.332 3.312-.876 1.128-1.992 2.406-3.348 3.834l.972-.072c.336-.024.654-.036.954-.036h3.33V240h-7.416Zm11.449 0v-1.224h2.628v-8.46h-2.088v-.954a7.585 7.585 0 0 0 1.368-.342 5.81 5.81 0 0 0 1.062-.504h1.134v10.26h2.376V240h-6.48Z" fill="#fff"/></svg>