<svg width="1060" height="353" viewBox="0 0 1060 353" fill="none" xmlns="http://www.w3.org/2000/svg">
<path d="M0 177H353V353H24C10.7452 353 0 342.255 0 329V177Z" fill="#0C0C0C"/>
<path d="M0 24C0 10.7452 10.7452 0 24 0H353V177H0V24Z" fill="#CCCCCC"/>
<rect x="353" width="177" height="177" fill="#D9D9D9"/>
<rect x="530" width="177" height="177" fill="#E6E6E6"/>
<rect x="707" width="176" height="177" fill="#F2F2F2"/>
<path d="M883 0H1036C1049.25 0 1060 10.7452 1060 24V177H883V0Z" fill="white"/>
<rect x="353" y="177" width="177" height="176" fill="#181818"/>
<rect x="530" y="177" width="177" height="176" fill="#242424"/>
<rect x="707" y="177" width="176" height="176" fill="#303030"/>
<path d="M883 177H1060V329C1060 342.255 1049.25 353 1036 353H883V177Z" fill="#3D3D3D"/>
<path d="M17.386 210V198.264H20.698C22.486 198.264 23.914 198.732 24.982 199.668C26.05 200.592 26.584 202.062 26.584 204.078C26.584 206.094 26.056 207.588 25 208.56C23.944 209.52 22.558 210 20.842 210H17.386ZM20.032 207.858H20.536C21.532 207.858 22.336 207.582 22.948 207.03C23.56 206.466 23.866 205.482 23.866 204.078C23.866 202.674 23.56 201.714 22.948 201.198C22.336 200.67 21.532 200.406 20.536 200.406H20.032V207.858ZM33.5458 208.164C33.8458 208.164 34.1038 208.098 34.3198 207.966C34.5478 207.834 34.7758 207.648 35.0038 207.408V205.842C34.0678 205.974 33.4198 206.166 33.0598 206.418C32.6998 206.67 32.5198 206.97 32.5198 207.318C32.5198 207.882 32.8618 208.164 33.5458 208.164ZM32.6458 210.216C31.8298 210.216 31.1818 209.958 30.7018 209.442C30.2218 208.914 29.9818 208.272 29.9818 207.516C29.9818 206.58 30.3778 205.848 31.1698 205.32C31.9618 204.792 33.2398 204.438 35.0038 204.258C34.9798 203.862 34.8598 203.55 34.6438 203.322C34.4398 203.082 34.0918 202.962 33.5998 202.962C33.2278 202.962 32.8498 203.034 32.4658 203.178C32.0818 203.322 31.6738 203.52 31.2418 203.772L30.2878 202.026C30.8518 201.678 31.4518 201.396 32.0878 201.18C32.7238 200.964 33.3958 200.856 34.1038 200.856C35.2438 200.856 36.1198 201.186 36.7318 201.846C37.3438 202.506 37.6498 203.52 37.6498 204.888V210H35.4898L35.3098 209.082H35.2378C34.8538 209.418 34.4518 209.694 34.0318 209.91C33.6118 210.114 33.1498 210.216 32.6458 210.216ZM41.688 210V201.072H43.848L44.028 202.638H44.1C44.424 202.038 44.814 201.594 45.27 201.306C45.726 201.006 46.182 200.856 46.638 200.856C46.89 200.856 47.094 200.874 47.25 200.91C47.418 200.946 47.568 200.988 47.7 201.036L47.268 203.322C47.112 203.274 46.956 203.238 46.8 203.214C46.656 203.19 46.488 203.178 46.296 203.178C45.96 203.178 45.606 203.304 45.234 203.556C44.874 203.796 44.574 204.216 44.334 204.816V210H41.688ZM50.6598 210V197.382H53.2338V204.618H53.3058L56.1318 201.072H59.0118L55.8798 204.744L59.2458 210H56.3838L54.3678 206.526L53.2338 207.804V210H50.6598ZM71.0007 210.216C70.0647 210.216 69.2667 210.06 68.6067 209.748C67.9587 209.436 67.4127 209.058 66.9687 208.614L68.1567 206.94C68.5047 207.252 68.8827 207.522 69.2907 207.75C69.6987 207.966 70.1427 208.074 70.6227 208.074C71.2107 208.074 71.6787 207.924 72.0267 207.624C72.3747 207.324 72.5487 206.88 72.5487 206.292C72.5487 205.716 72.3807 205.278 72.0447 204.978C71.7087 204.678 71.2767 204.528 70.7487 204.528C70.4127 204.528 70.1307 204.57 69.9027 204.654C69.6867 204.738 69.4047 204.888 69.0567 205.104L67.8687 204.348L68.1927 198.57H74.6727V200.802H70.4787L70.2807 202.944C70.6767 202.764 71.1027 202.674 71.5587 202.674C72.5427 202.674 73.3947 202.962 74.1147 203.538C74.8347 204.114 75.1947 205.008 75.1947 206.22C75.1947 207.492 74.7747 208.476 73.9347 209.172C73.0947 209.868 72.1167 210.216 71.0007 210.216ZM82.6165 210.216C81.3925 210.216 80.4025 209.706 79.6465 208.686C78.9025 207.666 78.5305 206.184 78.5305 204.24C78.5305 202.296 78.9025 200.832 79.6465 199.848C80.4025 198.852 81.3925 198.354 82.6165 198.354C83.8405 198.354 84.8245 198.852 85.5685 199.848C86.3245 200.832 86.7025 202.296 86.7025 204.24C86.7025 206.184 86.3245 207.666 85.5685 208.686C84.8245 209.706 83.8405 210.216 82.6165 210.216ZM82.6165 208.164C83.0725 208.164 83.4505 207.9 83.7505 207.372C84.0505 206.844 84.2005 205.8 84.2005 204.24C84.2005 202.68 84.0505 201.654 83.7505 201.162C83.4505 200.658 83.0725 200.406 82.6165 200.406C82.1725 200.406 81.7945 200.658 81.4825 201.162C81.1825 201.654 81.0325 202.68 81.0325 204.24C81.0325 205.8 81.1825 206.844 81.4825 207.372C81.7945 207.9 82.1725 208.164 82.6165 208.164ZM93.9262 210.216C92.7022 210.216 91.7122 209.706 90.9562 208.686C90.2122 207.666 89.8402 206.184 89.8402 204.24C89.8402 202.296 90.2122 200.832 90.9562 199.848C91.7122 198.852 92.7022 198.354 93.9262 198.354C95.1502 198.354 96.1342 198.852 96.8782 199.848C97.6342 200.832 98.0122 202.296 98.0122 204.24C98.0122 206.184 97.6342 207.666 96.8782 208.686C96.1342 209.706 95.1502 210.216 93.9262 210.216ZM93.9262 208.164C94.3822 208.164 94.7602 207.9 95.0602 207.372C95.3602 206.844 95.5102 205.8 95.5102 204.24C95.5102 202.68 95.3602 201.654 95.0602 201.162C94.7602 200.658 94.3822 200.406 93.9262 200.406C93.4822 200.406 93.1042 200.658 92.7922 201.162C92.4922 201.654 92.3422 202.68 92.3422 204.24C92.3422 205.8 92.4922 206.844 92.7922 207.372C93.1042 207.9 93.4822 208.164 93.9262 208.164Z" fill="white"/>
<path d="M18.43 33L16.252 21.264H18.97L19.78 26.754C19.852 27.366 19.93 27.984 20.014 28.608C20.098 29.22 20.176 29.838 20.248 30.462H20.32C20.44 29.838 20.554 29.22 20.662 28.608C20.782 27.984 20.902 27.366 21.022 26.754L22.282 21.264H24.532L25.792 26.754C25.912 27.342 26.026 27.948 26.134 28.572C26.254 29.196 26.374 29.826 26.494 30.462H26.566C26.65 29.826 26.728 29.202 26.8 28.59C26.884 27.966 26.968 27.354 27.052 26.754L27.862 21.264H30.4L28.312 33H24.982L23.83 27.672C23.734 27.216 23.644 26.76 23.56 26.304C23.488 25.836 23.422 25.386 23.362 24.954H23.29C23.218 25.386 23.14 25.836 23.056 26.304C22.984 26.76 22.9 27.216 22.804 27.672L21.706 33H18.43ZM33.6126 33V20.382H36.2586V23.478L36.1326 25.08C36.4686 24.78 36.8586 24.504 37.3026 24.252C37.7586 23.988 38.2866 23.856 38.8866 23.856C39.8586 23.856 40.5606 24.18 40.9926 24.828C41.4366 25.464 41.6586 26.34 41.6586 27.456V33H39.0126V27.798C39.0126 27.15 38.9226 26.706 38.7426 26.466C38.5746 26.226 38.2986 26.106 37.9146 26.106C37.5786 26.106 37.2906 26.184 37.0506 26.34C36.8106 26.484 36.5466 26.694 36.2586 26.97V33H33.6126ZM47.0098 22.758C46.5658 22.758 46.1998 22.632 45.9118 22.38C45.6238 22.116 45.4798 21.78 45.4798 21.372C45.4798 20.964 45.6238 20.634 45.9118 20.382C46.1998 20.13 46.5658 20.004 47.0098 20.004C47.4658 20.004 47.8318 20.13 48.1078 20.382C48.3958 20.634 48.5398 20.964 48.5398 21.372C48.5398 21.78 48.3958 22.116 48.1078 22.38C47.8318 22.632 47.4658 22.758 47.0098 22.758ZM45.6958 33V24.072H48.3418V33H45.6958ZM55.9084 33.216C54.8044 33.216 54.0124 32.898 53.5324 32.262C53.0644 31.626 52.8304 30.792 52.8304 29.76V26.142H51.6064V24.18L52.9744 24.072L53.2804 21.696H55.4764V24.072H57.6184V26.142H55.4764V29.724C55.4764 30.672 55.8604 31.146 56.6284 31.146C56.7724 31.146 56.9164 31.128 57.0604 31.092C57.2164 31.056 57.3544 31.014 57.4744 30.966L57.8884 32.892C57.6484 32.964 57.3664 33.036 57.0424 33.108C56.7184 33.18 56.3404 33.216 55.9084 33.216ZM64.8406 33.216C63.5566 33.216 62.4826 32.808 61.6186 31.992C60.7546 31.164 60.3226 30.012 60.3226 28.536C60.3226 27.576 60.5206 26.748 60.9166 26.052C61.3246 25.344 61.8466 24.804 62.4826 24.432C63.1306 24.048 63.8146 23.856 64.5346 23.856C65.8066 23.856 66.7546 24.27 67.3786 25.098C68.0146 25.914 68.3326 26.928 68.3326 28.14C68.3326 28.632 68.2966 29.022 68.2246 29.31H62.8786C62.9986 29.958 63.2686 30.438 63.6886 30.75C64.1086 31.05 64.6126 31.2 65.2006 31.2C65.8366 31.2 66.4786 31.002 67.1266 30.606L68.0086 32.208C67.0246 32.88 65.9686 33.216 64.8406 33.216ZM62.8606 27.564H66.0826C66.0826 27.072 65.9626 26.67 65.7226 26.358C65.4946 26.034 65.1166 25.872 64.5886 25.872C64.1686 25.872 63.7966 26.016 63.4726 26.304C63.1486 26.58 62.9446 27 62.8606 27.564ZM80.6405 33.216C79.7045 33.216 78.9065 33.06 78.2465 32.748C77.5985 32.436 77.0525 32.058 76.6085 31.614L77.7965 29.94C78.1445 30.252 78.5225 30.522 78.9305 30.75C79.3385 30.966 79.7825 31.074 80.2625 31.074C80.8505 31.074 81.3185 30.924 81.6665 30.624C82.0145 30.324 82.1885 29.88 82.1885 29.292C82.1885 28.716 82.0205 28.278 81.6845 27.978C81.3485 27.678 80.9165 27.528 80.3885 27.528C80.0525 27.528 79.7705 27.57 79.5425 27.654C79.3265 27.738 79.0445 27.888 78.6965 28.104L77.5085 27.348L77.8325 21.57H84.3125V23.802H80.1185L79.9205 25.944C80.3165 25.764 80.7425 25.674 81.1985 25.674C82.1825 25.674 83.0345 25.962 83.7545 26.538C84.4745 27.114 84.8345 28.008 84.8345 29.22C84.8345 30.492 84.4145 31.476 83.5745 32.172C82.7345 32.868 81.7565 33.216 80.6405 33.216ZM92.2563 33.216C91.0323 33.216 90.0423 32.706 89.2863 31.686C88.5423 30.666 88.1703 29.184 88.1703 27.24C88.1703 25.296 88.5423 23.832 89.2863 22.848C90.0423 21.852 91.0323 21.354 92.2563 21.354C93.4803 21.354 94.4643 21.852 95.2083 22.848C95.9643 23.832 96.3423 25.296 96.3423 27.24C96.3423 29.184 95.9643 30.666 95.2083 31.686C94.4643 32.706 93.4803 33.216 92.2563 33.216ZM92.2563 31.164C92.7123 31.164 93.0903 30.9 93.3903 30.372C93.6903 29.844 93.8403 28.8 93.8403 27.24C93.8403 25.68 93.6903 24.654 93.3903 24.162C93.0903 23.658 92.7123 23.406 92.2563 23.406C91.8123 23.406 91.4343 23.658 91.1223 24.162C90.8223 24.654 90.6723 25.68 90.6723 27.24C90.6723 28.8 90.8223 29.844 91.1223 30.372C91.4343 30.9 91.8123 31.164 92.2563 31.164ZM103.566 33.216C102.342 33.216 101.352 32.706 100.596 31.686C99.8521 30.666 99.4801 29.184 99.4801 27.24C99.4801 25.296 99.8521 23.832 100.596 22.848C101.352 21.852 102.342 21.354 103.566 21.354C104.79 21.354 105.774 21.852 106.518 22.848C107.274 23.832 107.652 25.296 107.652 27.24C107.652 29.184 107.274 30.666 106.518 31.686C105.774 32.706 104.79 33.216 103.566 33.216ZM103.566 31.164C104.022 31.164 104.4 30.9 104.7 30.372C105 29.844 105.15 28.8 105.15 27.24C105.15 25.68 105 24.654 104.7 24.162C104.4 23.658 104.022 23.406 103.566 23.406C103.122 23.406 102.744 23.658 102.432 24.162C102.132 24.654 101.982 25.68 101.982 27.24C101.982 28.8 102.132 29.844 102.432 30.372C102.744 30.9 103.122 31.164 103.566 31.164Z" fill="black"/>
<path d="M370.62 210V198.192H373.572C375.396 198.192 376.782 198.702 377.73 199.722C378.678 200.73 379.152 202.17 379.152 204.042C379.152 205.926 378.678 207.39 377.73 208.434C376.782 209.478 375.42 210 373.644 210H370.62ZM372.114 208.776H373.464C374.844 208.776 375.876 208.362 376.56 207.534C377.256 206.706 377.604 205.542 377.604 204.042C377.604 202.554 377.256 201.414 376.56 200.622C375.876 199.818 374.844 199.416 373.464 199.416H372.114V208.776ZM385.798 209.028C386.218 209.028 386.614 208.926 386.986 208.722C387.358 208.518 387.754 208.23 388.174 207.858V205.428C386.71 205.608 385.69 205.884 385.114 206.256C384.538 206.616 384.25 207.072 384.25 207.624C384.25 208.116 384.4 208.476 384.7 208.704C385 208.92 385.366 209.028 385.798 209.028ZM385.366 210.216C384.634 210.216 384.022 210 383.53 209.568C383.05 209.124 382.81 208.512 382.81 207.732C382.81 206.772 383.236 206.04 384.088 205.536C384.952 205.02 386.314 204.66 388.174 204.456C388.174 203.904 388.054 203.4 387.814 202.944C387.574 202.488 387.094 202.26 386.374 202.26C385.87 202.26 385.396 202.356 384.952 202.548C384.508 202.74 384.112 202.956 383.764 203.196L383.188 202.17C383.596 201.906 384.094 201.654 384.682 201.414C385.282 201.162 385.93 201.036 386.626 201.036C387.694 201.036 388.468 201.366 388.948 202.026C389.428 202.674 389.668 203.544 389.668 204.636V210H388.444L388.318 208.956H388.264C387.844 209.292 387.394 209.586 386.914 209.838C386.434 210.09 385.918 210.216 385.366 210.216ZM394.221 210V201.252H395.445L395.571 202.836H395.625C395.925 202.284 396.291 201.846 396.723 201.522C397.155 201.198 397.617 201.036 398.109 201.036C398.457 201.036 398.769 201.096 399.045 201.216L398.757 202.512C398.613 202.464 398.481 202.428 398.361 202.404C398.241 202.38 398.091 202.368 397.911 202.368C397.539 202.368 397.149 202.518 396.741 202.818C396.345 203.118 395.997 203.64 395.697 204.384V210H394.221ZM402.261 210V197.184H403.719V205.86H403.773L407.499 201.252H409.137L406.203 204.762L409.533 210H407.913L405.357 205.788L403.719 207.696V210H402.261ZM418.772 205.644H422.372V202.314C422.372 202.014 422.384 201.648 422.408 201.216C422.432 200.784 422.45 200.412 422.462 200.1H422.39C422.246 200.376 422.09 200.646 421.922 200.91C421.766 201.174 421.61 201.444 421.454 201.72L418.772 205.644ZM425.342 206.832H423.776V210H422.372V206.832H417.206V205.86L422.12 198.516H423.776V205.644H425.342V206.832ZM432.13 210.216C430.978 210.216 430.072 209.7 429.412 208.668C428.764 207.636 428.44 206.154 428.44 204.222C428.44 202.29 428.764 200.82 429.412 199.812C430.072 198.804 430.978 198.3 432.13 198.3C433.27 198.3 434.164 198.804 434.812 199.812C435.472 200.82 435.802 202.29 435.802 204.222C435.802 206.154 435.472 207.636 434.812 208.668C434.164 209.7 433.27 210.216 432.13 210.216ZM432.13 209.028C432.79 209.028 433.324 208.65 433.732 207.894C434.152 207.126 434.362 205.902 434.362 204.222C434.362 202.542 434.152 201.336 433.732 200.604C433.324 199.86 432.79 199.488 432.13 199.488C431.458 199.488 430.912 199.86 430.492 200.604C430.084 201.336 429.88 202.542 429.88 204.222C429.88 205.902 430.084 207.126 430.492 207.894C430.912 208.65 431.458 209.028 432.13 209.028ZM442.877 210.216C441.725 210.216 440.819 209.7 440.159 208.668C439.511 207.636 439.187 206.154 439.187 204.222C439.187 202.29 439.511 200.82 440.159 199.812C440.819 198.804 441.725 198.3 442.877 198.3C444.017 198.3 444.911 198.804 445.559 199.812C446.219 200.82 446.549 202.29 446.549 204.222C446.549 206.154 446.219 207.636 445.559 208.668C444.911 209.7 444.017 210.216 442.877 210.216ZM442.877 209.028C443.537 209.028 444.071 208.65 444.479 207.894C444.899 207.126 445.109 205.902 445.109 204.222C445.109 202.542 444.899 201.336 444.479 200.604C444.071 199.86 443.537 199.488 442.877 199.488C442.205 199.488 441.659 199.86 441.239 200.604C440.831 201.336 440.627 202.542 440.627 204.222C440.627 205.902 440.831 207.126 441.239 207.894C441.659 208.65 442.205 209.028 442.877 209.028Z" fill="white"/>
<path d="M371.43 33L369.252 21.264H371.97L372.78 26.754C372.852 27.366 372.93 27.984 373.014 28.608C373.098 29.22 373.176 29.838 373.248 30.462H373.32C373.44 29.838 373.554 29.22 373.662 28.608C373.782 27.984 373.902 27.366 374.022 26.754L375.282 21.264H377.532L378.792 26.754C378.912 27.342 379.026 27.948 379.134 28.572C379.254 29.196 379.374 29.826 379.494 30.462H379.566C379.65 29.826 379.728 29.202 379.8 28.59C379.884 27.966 379.968 27.354 380.052 26.754L380.862 21.264H383.4L381.312 33H377.982L376.83 27.672C376.734 27.216 376.644 26.76 376.56 26.304C376.488 25.836 376.422 25.386 376.362 24.954H376.29C376.218 25.386 376.14 25.836 376.056 26.304C375.984 26.76 375.9 27.216 375.804 27.672L374.706 33H371.43ZM386.613 33V20.382H389.259V23.478L389.133 25.08C389.469 24.78 389.859 24.504 390.303 24.252C390.759 23.988 391.287 23.856 391.887 23.856C392.859 23.856 393.561 24.18 393.993 24.828C394.437 25.464 394.659 26.34 394.659 27.456V33H392.013V27.798C392.013 27.15 391.923 26.706 391.743 26.466C391.575 26.226 391.299 26.106 390.915 26.106C390.579 26.106 390.291 26.184 390.051 26.34C389.811 26.484 389.547 26.694 389.259 26.97V33H386.613ZM400.01 22.758C399.566 22.758 399.2 22.632 398.912 22.38C398.624 22.116 398.48 21.78 398.48 21.372C398.48 20.964 398.624 20.634 398.912 20.382C399.2 20.13 399.566 20.004 400.01 20.004C400.466 20.004 400.832 20.13 401.108 20.382C401.396 20.634 401.54 20.964 401.54 21.372C401.54 21.78 401.396 22.116 401.108 22.38C400.832 22.632 400.466 22.758 400.01 22.758ZM398.696 33V24.072H401.342V33H398.696ZM408.908 33.216C407.804 33.216 407.012 32.898 406.532 32.262C406.064 31.626 405.83 30.792 405.83 29.76V26.142H404.606V24.18L405.974 24.072L406.28 21.696H408.476V24.072H410.618V26.142H408.476V29.724C408.476 30.672 408.86 31.146 409.628 31.146C409.772 31.146 409.916 31.128 410.06 31.092C410.216 31.056 410.354 31.014 410.474 30.966L410.888 32.892C410.648 32.964 410.366 33.036 410.042 33.108C409.718 33.18 409.34 33.216 408.908 33.216ZM417.841 33.216C416.557 33.216 415.483 32.808 414.619 31.992C413.755 31.164 413.323 30.012 413.323 28.536C413.323 27.576 413.521 26.748 413.917 26.052C414.325 25.344 414.847 24.804 415.483 24.432C416.131 24.048 416.815 23.856 417.535 23.856C418.807 23.856 419.755 24.27 420.379 25.098C421.015 25.914 421.333 26.928 421.333 28.14C421.333 28.632 421.297 29.022 421.225 29.31H415.879C415.999 29.958 416.269 30.438 416.689 30.75C417.109 31.05 417.613 31.2 418.201 31.2C418.837 31.2 419.479 31.002 420.127 30.606L421.009 32.208C420.025 32.88 418.969 33.216 417.841 33.216ZM415.861 27.564H419.083C419.083 27.072 418.963 26.67 418.723 26.358C418.495 26.034 418.117 25.872 417.589 25.872C417.169 25.872 416.797 26.016 416.473 26.304C416.149 26.58 415.945 27 415.861 27.564ZM432.075 28.248H434.487V26.394C434.487 26.022 434.499 25.596 434.523 25.116C434.547 24.624 434.571 24.198 434.595 23.838H434.523C434.379 24.15 434.229 24.468 434.073 24.792C433.917 25.116 433.755 25.44 433.587 25.764L432.075 28.248ZM438.267 30.264H436.953V33H434.487V30.264H429.537V28.446L433.713 21.57H436.953V28.248H438.267V30.264ZM445.256 33.216C444.032 33.216 443.042 32.706 442.286 31.686C441.542 30.666 441.17 29.184 441.17 27.24C441.17 25.296 441.542 23.832 442.286 22.848C443.042 21.852 444.032 21.354 445.256 21.354C446.48 21.354 447.464 21.852 448.208 22.848C448.964 23.832 449.342 25.296 449.342 27.24C449.342 29.184 448.964 30.666 448.208 31.686C447.464 32.706 446.48 33.216 445.256 33.216ZM445.256 31.164C445.712 31.164 446.09 30.9 446.39 30.372C446.69 29.844 446.84 28.8 446.84 27.24C446.84 25.68 446.69 24.654 446.39 24.162C446.09 23.658 445.712 23.406 445.256 23.406C444.812 23.406 444.434 23.658 444.122 24.162C443.822 24.654 443.672 25.68 443.672 27.24C443.672 28.8 443.822 29.844 444.122 30.372C444.434 30.9 444.812 31.164 445.256 31.164ZM456.566 33.216C455.342 33.216 454.352 32.706 453.596 31.686C452.852 30.666 452.48 29.184 452.48 27.24C452.48 25.296 452.852 23.832 453.596 22.848C454.352 21.852 455.342 21.354 456.566 21.354C457.79 21.354 458.774 21.852 459.518 22.848C460.274 23.832 460.652 25.296 460.652 27.24C460.652 29.184 460.274 30.666 459.518 31.686C458.774 32.706 457.79 33.216 456.566 33.216ZM456.566 31.164C457.022 31.164 457.4 30.9 457.7 30.372C458 29.844 458.15 28.8 458.15 27.24C458.15 25.68 458 24.654 457.7 24.162C457.4 23.658 457.022 23.406 456.566 23.406C456.122 23.406 455.744 23.658 455.432 24.162C455.132 24.654 454.982 25.68 454.982 27.24C454.982 28.8 455.132 29.844 455.432 30.372C455.744 30.9 456.122 31.164 456.566 31.164Z" fill="black"/>
<path d="M547.62 210V198.192H550.572C552.396 198.192 553.782 198.702 554.73 199.722C555.678 200.73 556.152 202.17 556.152 204.042C556.152 205.926 555.678 207.39 554.73 208.434C553.782 209.478 552.42 210 550.644 210H547.62ZM549.114 208.776H550.464C551.844 208.776 552.876 208.362 553.56 207.534C554.256 206.706 554.604 205.542 554.604 204.042C554.604 202.554 554.256 201.414 553.56 200.622C552.876 199.818 551.844 199.416 550.464 199.416H549.114V208.776ZM562.798 209.028C563.218 209.028 563.614 208.926 563.986 208.722C564.358 208.518 564.754 208.23 565.174 207.858V205.428C563.71 205.608 562.69 205.884 562.114 206.256C561.538 206.616 561.25 207.072 561.25 207.624C561.25 208.116 561.4 208.476 561.7 208.704C562 208.92 562.366 209.028 562.798 209.028ZM562.366 210.216C561.634 210.216 561.022 210 560.53 209.568C560.05 209.124 559.81 208.512 559.81 207.732C559.81 206.772 560.236 206.04 561.088 205.536C561.952 205.02 563.314 204.66 565.174 204.456C565.174 203.904 565.054 203.4 564.814 202.944C564.574 202.488 564.094 202.26 563.374 202.26C562.87 202.26 562.396 202.356 561.952 202.548C561.508 202.74 561.112 202.956 560.764 203.196L560.188 202.17C560.596 201.906 561.094 201.654 561.682 201.414C562.282 201.162 562.93 201.036 563.626 201.036C564.694 201.036 565.468 201.366 565.948 202.026C566.428 202.674 566.668 203.544 566.668 204.636V210H565.444L565.318 208.956H565.264C564.844 209.292 564.394 209.586 563.914 209.838C563.434 210.09 562.918 210.216 562.366 210.216ZM571.221 210V201.252H572.445L572.571 202.836H572.625C572.925 202.284 573.291 201.846 573.723 201.522C574.155 201.198 574.617 201.036 575.109 201.036C575.457 201.036 575.769 201.096 576.045 201.216L575.757 202.512C575.613 202.464 575.481 202.428 575.361 202.404C575.241 202.38 575.091 202.368 574.911 202.368C574.539 202.368 574.149 202.518 573.741 202.818C573.345 203.118 572.997 203.64 572.697 204.384V210H571.221ZM579.261 210V197.184H580.719V205.86H580.773L584.499 201.252H586.137L583.203 204.762L586.533 210H584.913L582.357 205.788L580.719 207.696V210H579.261ZM598.148 210.216C597.236 210.216 596.474 210.054 595.862 209.73C595.25 209.394 594.752 209.016 594.368 208.596L595.124 207.624C595.46 207.984 595.862 208.302 596.33 208.578C596.81 208.854 597.386 208.992 598.058 208.992C598.754 208.992 599.324 208.8 599.768 208.416C600.212 208.032 600.434 207.522 600.434 206.886C600.434 206.202 600.164 205.65 599.624 205.23C599.084 204.81 598.13 204.6 596.762 204.6V203.466C597.986 203.466 598.832 203.262 599.3 202.854C599.78 202.434 600.02 201.924 600.02 201.324C600.02 200.772 599.84 200.334 599.48 200.01C599.132 199.674 598.652 199.506 598.04 199.506C597.56 199.506 597.116 199.62 596.708 199.848C596.3 200.064 595.928 200.34 595.592 200.676L594.8 199.74C595.244 199.332 595.736 198.99 596.276 198.714C596.816 198.438 597.422 198.3 598.094 198.3C599.09 198.3 599.912 198.558 600.56 199.074C601.208 199.578 601.532 200.292 601.532 201.216C601.532 201.912 601.34 202.482 600.956 202.926C600.572 203.37 600.068 203.712 599.444 203.952V204.024C600.14 204.192 600.728 204.522 601.208 205.014C601.688 205.506 601.928 206.148 601.928 206.94C601.928 207.96 601.562 208.764 600.83 209.352C600.098 209.928 599.204 210.216 598.148 210.216ZM609.13 210.216C607.978 210.216 607.072 209.7 606.412 208.668C605.764 207.636 605.44 206.154 605.44 204.222C605.44 202.29 605.764 200.82 606.412 199.812C607.072 198.804 607.978 198.3 609.13 198.3C610.27 198.3 611.164 198.804 611.812 199.812C612.472 200.82 612.802 202.29 612.802 204.222C612.802 206.154 612.472 207.636 611.812 208.668C611.164 209.7 610.27 210.216 609.13 210.216ZM609.13 209.028C609.79 209.028 610.324 208.65 610.732 207.894C611.152 207.126 611.362 205.902 611.362 204.222C611.362 202.542 611.152 201.336 610.732 200.604C610.324 199.86 609.79 199.488 609.13 199.488C608.458 199.488 607.912 199.86 607.492 200.604C607.084 201.336 606.88 202.542 606.88 204.222C606.88 205.902 607.084 207.126 607.492 207.894C607.912 208.65 608.458 209.028 609.13 209.028ZM619.877 210.216C618.725 210.216 617.819 209.7 617.159 208.668C616.511 207.636 616.187 206.154 616.187 204.222C616.187 202.29 616.511 200.82 617.159 199.812C617.819 198.804 618.725 198.3 619.877 198.3C621.017 198.3 621.911 198.804 622.559 199.812C623.219 200.82 623.549 202.29 623.549 204.222C623.549 206.154 623.219 207.636 622.559 208.668C621.911 209.7 621.017 210.216 619.877 210.216ZM619.877 209.028C620.537 209.028 621.071 208.65 621.479 207.894C621.899 207.126 622.109 205.902 622.109 204.222C622.109 202.542 621.899 201.336 621.479 200.604C621.071 199.86 620.537 199.488 619.877 199.488C619.205 199.488 618.659 199.86 618.239 200.604C617.831 201.336 617.627 202.542 617.627 204.222C617.627 205.902 617.831 207.126 618.239 207.894C618.659 208.65 619.205 209.028 619.877 209.028Z" fill="white"/>
<path d="M548.43 33L546.252 21.264H548.97L549.78 26.754C549.852 27.366 549.93 27.984 550.014 28.608C550.098 29.22 550.176 29.838 550.248 30.462H550.32C550.44 29.838 550.554 29.22 550.662 28.608C550.782 27.984 550.902 27.366 551.022 26.754L552.282 21.264H554.532L555.792 26.754C555.912 27.342 556.026 27.948 556.134 28.572C556.254 29.196 556.374 29.826 556.494 30.462H556.566C556.65 29.826 556.728 29.202 556.8 28.59C556.884 27.966 556.968 27.354 557.052 26.754L557.862 21.264H560.4L558.312 33H554.982L553.83 27.672C553.734 27.216 553.644 26.76 553.56 26.304C553.488 25.836 553.422 25.386 553.362 24.954H553.29C553.218 25.386 553.14 25.836 553.056 26.304C552.984 26.76 552.9 27.216 552.804 27.672L551.706 33H548.43ZM563.613 33V20.382H566.259V23.478L566.133 25.08C566.469 24.78 566.859 24.504 567.303 24.252C567.759 23.988 568.287 23.856 568.887 23.856C569.859 23.856 570.561 24.18 570.993 24.828C571.437 25.464 571.659 26.34 571.659 27.456V33H569.013V27.798C569.013 27.15 568.923 26.706 568.743 26.466C568.575 26.226 568.299 26.106 567.915 26.106C567.579 26.106 567.291 26.184 567.051 26.34C566.811 26.484 566.547 26.694 566.259 26.97V33H563.613ZM577.01 22.758C576.566 22.758 576.2 22.632 575.912 22.38C575.624 22.116 575.48 21.78 575.48 21.372C575.48 20.964 575.624 20.634 575.912 20.382C576.2 20.13 576.566 20.004 577.01 20.004C577.466 20.004 577.832 20.13 578.108 20.382C578.396 20.634 578.54 20.964 578.54 21.372C578.54 21.78 578.396 22.116 578.108 22.38C577.832 22.632 577.466 22.758 577.01 22.758ZM575.696 33V24.072H578.342V33H575.696ZM585.908 33.216C584.804 33.216 584.012 32.898 583.532 32.262C583.064 31.626 582.83 30.792 582.83 29.76V26.142H581.606V24.18L582.974 24.072L583.28 21.696H585.476V24.072H587.618V26.142H585.476V29.724C585.476 30.672 585.86 31.146 586.628 31.146C586.772 31.146 586.916 31.128 587.06 31.092C587.216 31.056 587.354 31.014 587.474 30.966L587.888 32.892C587.648 32.964 587.366 33.036 587.042 33.108C586.718 33.18 586.34 33.216 585.908 33.216ZM594.841 33.216C593.557 33.216 592.483 32.808 591.619 31.992C590.755 31.164 590.323 30.012 590.323 28.536C590.323 27.576 590.521 26.748 590.917 26.052C591.325 25.344 591.847 24.804 592.483 24.432C593.131 24.048 593.815 23.856 594.535 23.856C595.807 23.856 596.755 24.27 597.379 25.098C598.015 25.914 598.333 26.928 598.333 28.14C598.333 28.632 598.297 29.022 598.225 29.31H592.879C592.999 29.958 593.269 30.438 593.689 30.75C594.109 31.05 594.613 31.2 595.201 31.2C595.837 31.2 596.479 31.002 597.127 30.606L598.009 32.208C597.025 32.88 595.969 33.216 594.841 33.216ZM592.861 27.564H596.083C596.083 27.072 595.963 26.67 595.723 26.358C595.495 26.034 595.117 25.872 594.589 25.872C594.169 25.872 593.797 26.016 593.473 26.304C593.149 26.58 592.945 27 592.861 27.564ZM610.569 33.216C609.645 33.216 608.853 33.066 608.193 32.766C607.533 32.466 606.999 32.076 606.591 31.596L607.815 29.922C608.151 30.258 608.529 30.534 608.949 30.75C609.369 30.966 609.825 31.074 610.317 31.074C610.881 31.074 611.331 30.96 611.667 30.732C612.003 30.492 612.171 30.156 612.171 29.724C612.171 29.22 611.967 28.824 611.559 28.536C611.151 28.236 610.329 28.086 609.093 28.086V26.214C610.113 26.214 610.815 26.076 611.199 25.8C611.595 25.512 611.793 25.14 611.793 24.684C611.793 23.844 611.325 23.424 610.389 23.424C609.981 23.424 609.609 23.514 609.273 23.694C608.949 23.874 608.607 24.12 608.247 24.432L606.915 22.812C607.443 22.356 608.001 22.002 608.589 21.75C609.177 21.486 609.819 21.354 610.515 21.354C611.691 21.354 612.639 21.63 613.359 22.182C614.091 22.722 614.457 23.49 614.457 24.486C614.457 25.638 613.821 26.484 612.549 27.024V27.096C613.209 27.288 613.749 27.618 614.169 28.086C614.601 28.554 614.817 29.154 614.817 29.886C614.817 30.954 614.397 31.776 613.557 32.352C612.717 32.928 611.721 33.216 610.569 33.216ZM622.256 33.216C621.032 33.216 620.042 32.706 619.286 31.686C618.542 30.666 618.17 29.184 618.17 27.24C618.17 25.296 618.542 23.832 619.286 22.848C620.042 21.852 621.032 21.354 622.256 21.354C623.48 21.354 624.464 21.852 625.208 22.848C625.964 23.832 626.342 25.296 626.342 27.24C626.342 29.184 625.964 30.666 625.208 31.686C624.464 32.706 623.48 33.216 622.256 33.216ZM622.256 31.164C622.712 31.164 623.09 30.9 623.39 30.372C623.69 29.844 623.84 28.8 623.84 27.24C623.84 25.68 623.69 24.654 623.39 24.162C623.09 23.658 622.712 23.406 622.256 23.406C621.812 23.406 621.434 23.658 621.122 24.162C620.822 24.654 620.672 25.68 620.672 27.24C620.672 28.8 620.822 29.844 621.122 30.372C621.434 30.9 621.812 31.164 622.256 31.164ZM633.566 33.216C632.342 33.216 631.352 32.706 630.596 31.686C629.852 30.666 629.48 29.184 629.48 27.24C629.48 25.296 629.852 23.832 630.596 22.848C631.352 21.852 632.342 21.354 633.566 21.354C634.79 21.354 635.774 21.852 636.518 22.848C637.274 23.832 637.652 25.296 637.652 27.24C637.652 29.184 637.274 30.666 636.518 31.686C635.774 32.706 634.79 33.216 633.566 33.216ZM633.566 31.164C634.022 31.164 634.4 30.9 634.7 30.372C635 29.844 635.15 28.8 635.15 27.24C635.15 25.68 635 24.654 634.7 24.162C634.4 23.658 634.022 23.406 633.566 23.406C633.122 23.406 632.744 23.658 632.432 24.162C632.132 24.654 631.982 25.68 631.982 27.24C631.982 28.8 632.132 29.844 632.432 30.372C632.744 30.9 633.122 31.164 633.566 31.164Z" fill="black"/>
<path d="M724.62 210V198.192H727.572C729.396 198.192 730.782 198.702 731.73 199.722C732.678 200.73 733.152 202.17 733.152 204.042C733.152 205.926 732.678 207.39 731.73 208.434C730.782 209.478 729.42 210 727.644 210H724.62ZM726.114 208.776H727.464C728.844 208.776 729.876 208.362 730.56 207.534C731.256 206.706 731.604 205.542 731.604 204.042C731.604 202.554 731.256 201.414 730.56 200.622C729.876 199.818 728.844 199.416 727.464 199.416H726.114V208.776ZM739.798 209.028C740.218 209.028 740.614 208.926 740.986 208.722C741.358 208.518 741.754 208.23 742.174 207.858V205.428C740.71 205.608 739.69 205.884 739.114 206.256C738.538 206.616 738.25 207.072 738.25 207.624C738.25 208.116 738.4 208.476 738.7 208.704C739 208.92 739.366 209.028 739.798 209.028ZM739.366 210.216C738.634 210.216 738.022 210 737.53 209.568C737.05 209.124 736.81 208.512 736.81 207.732C736.81 206.772 737.236 206.04 738.088 205.536C738.952 205.02 740.314 204.66 742.174 204.456C742.174 203.904 742.054 203.4 741.814 202.944C741.574 202.488 741.094 202.26 740.374 202.26C739.87 202.26 739.396 202.356 738.952 202.548C738.508 202.74 738.112 202.956 737.764 203.196L737.188 202.17C737.596 201.906 738.094 201.654 738.682 201.414C739.282 201.162 739.93 201.036 740.626 201.036C741.694 201.036 742.468 201.366 742.948 202.026C743.428 202.674 743.668 203.544 743.668 204.636V210H742.444L742.318 208.956H742.264C741.844 209.292 741.394 209.586 740.914 209.838C740.434 210.09 739.918 210.216 739.366 210.216ZM748.221 210V201.252H749.445L749.571 202.836H749.625C749.925 202.284 750.291 201.846 750.723 201.522C751.155 201.198 751.617 201.036 752.109 201.036C752.457 201.036 752.769 201.096 753.045 201.216L752.757 202.512C752.613 202.464 752.481 202.428 752.361 202.404C752.241 202.38 752.091 202.368 751.911 202.368C751.539 202.368 751.149 202.518 750.741 202.818C750.345 203.118 749.997 203.64 749.697 204.384V210H748.221ZM756.261 210V197.184H757.719V205.86H757.773L761.499 201.252H763.137L760.203 204.762L763.533 210H761.913L759.357 205.788L757.719 207.696V210H756.261ZM771.62 210V209.118C773.348 207.402 774.68 205.98 775.616 204.852C776.552 203.712 777.02 202.68 777.02 201.756C777.02 201.096 776.84 200.556 776.48 200.136C776.12 199.716 775.574 199.506 774.842 199.506C774.362 199.506 773.918 199.644 773.51 199.92C773.102 200.184 772.73 200.508 772.394 200.892L771.548 200.046C772.028 199.53 772.538 199.11 773.078 198.786C773.63 198.462 774.278 198.3 775.022 198.3C776.09 198.3 776.93 198.612 777.542 199.236C778.154 199.848 778.46 200.664 778.46 201.684C778.46 202.764 778.016 203.868 777.128 204.996C776.252 206.124 775.136 207.402 773.78 208.83C774.092 208.806 774.416 208.782 774.752 208.758C775.088 208.734 775.406 208.722 775.706 208.722H779.036V210H771.62ZM786.13 210.216C784.978 210.216 784.072 209.7 783.412 208.668C782.764 207.636 782.44 206.154 782.44 204.222C782.44 202.29 782.764 200.82 783.412 199.812C784.072 198.804 784.978 198.3 786.13 198.3C787.27 198.3 788.164 198.804 788.812 199.812C789.472 200.82 789.802 202.29 789.802 204.222C789.802 206.154 789.472 207.636 788.812 208.668C788.164 209.7 787.27 210.216 786.13 210.216ZM786.13 209.028C786.79 209.028 787.324 208.65 787.732 207.894C788.152 207.126 788.362 205.902 788.362 204.222C788.362 202.542 788.152 201.336 787.732 200.604C787.324 199.86 786.79 199.488 786.13 199.488C785.458 199.488 784.912 199.86 784.492 200.604C784.084 201.336 783.88 202.542 783.88 204.222C783.88 205.902 784.084 207.126 784.492 207.894C784.912 208.65 785.458 209.028 786.13 209.028ZM796.877 210.216C795.725 210.216 794.819 209.7 794.159 208.668C793.511 207.636 793.187 206.154 793.187 204.222C793.187 202.29 793.511 200.82 794.159 199.812C794.819 198.804 795.725 198.3 796.877 198.3C798.017 198.3 798.911 198.804 799.559 199.812C800.219 200.82 800.549 202.29 800.549 204.222C800.549 206.154 800.219 207.636 799.559 208.668C798.911 209.7 798.017 210.216 796.877 210.216ZM796.877 209.028C797.537 209.028 798.071 208.65 798.479 207.894C798.899 207.126 799.109 205.902 799.109 204.222C799.109 202.542 798.899 201.336 798.479 200.604C798.071 199.86 797.537 199.488 796.877 199.488C796.205 199.488 795.659 199.86 795.239 200.604C794.831 201.336 794.627 202.542 794.627 204.222C794.627 205.902 794.831 207.126 795.239 207.894C795.659 208.65 796.205 209.028 796.877 209.028Z" fill="white"/>
<path d="M725.43 33L723.252 21.264H725.97L726.78 26.754C726.852 27.366 726.93 27.984 727.014 28.608C727.098 29.22 727.176 29.838 727.248 30.462H727.32C727.44 29.838 727.554 29.22 727.662 28.608C727.782 27.984 727.902 27.366 728.022 26.754L729.282 21.264H731.532L732.792 26.754C732.912 27.342 733.026 27.948 733.134 28.572C733.254 29.196 733.374 29.826 733.494 30.462H733.566C733.65 29.826 733.728 29.202 733.8 28.59C733.884 27.966 733.968 27.354 734.052 26.754L734.862 21.264H737.4L735.312 33H731.982L730.83 27.672C730.734 27.216 730.644 26.76 730.56 26.304C730.488 25.836 730.422 25.386 730.362 24.954H730.29C730.218 25.386 730.14 25.836 730.056 26.304C729.984 26.76 729.9 27.216 729.804 27.672L728.706 33H725.43ZM740.613 33V20.382H743.259V23.478L743.133 25.08C743.469 24.78 743.859 24.504 744.303 24.252C744.759 23.988 745.287 23.856 745.887 23.856C746.859 23.856 747.561 24.18 747.993 24.828C748.437 25.464 748.659 26.34 748.659 27.456V33H746.013V27.798C746.013 27.15 745.923 26.706 745.743 26.466C745.575 26.226 745.299 26.106 744.915 26.106C744.579 26.106 744.291 26.184 744.051 26.34C743.811 26.484 743.547 26.694 743.259 26.97V33H740.613ZM754.01 22.758C753.566 22.758 753.2 22.632 752.912 22.38C752.624 22.116 752.48 21.78 752.48 21.372C752.48 20.964 752.624 20.634 752.912 20.382C753.2 20.13 753.566 20.004 754.01 20.004C754.466 20.004 754.832 20.13 755.108 20.382C755.396 20.634 755.54 20.964 755.54 21.372C755.54 21.78 755.396 22.116 755.108 22.38C754.832 22.632 754.466 22.758 754.01 22.758ZM752.696 33V24.072H755.342V33H752.696ZM762.908 33.216C761.804 33.216 761.012 32.898 760.532 32.262C760.064 31.626 759.83 30.792 759.83 29.76V26.142H758.606V24.18L759.974 24.072L760.28 21.696H762.476V24.072H764.618V26.142H762.476V29.724C762.476 30.672 762.86 31.146 763.628 31.146C763.772 31.146 763.916 31.128 764.06 31.092C764.216 31.056 764.354 31.014 764.474 30.966L764.888 32.892C764.648 32.964 764.366 33.036 764.042 33.108C763.718 33.18 763.34 33.216 762.908 33.216ZM771.841 33.216C770.557 33.216 769.483 32.808 768.619 31.992C767.755 31.164 767.323 30.012 767.323 28.536C767.323 27.576 767.521 26.748 767.917 26.052C768.325 25.344 768.847 24.804 769.483 24.432C770.131 24.048 770.815 23.856 771.535 23.856C772.807 23.856 773.755 24.27 774.379 25.098C775.015 25.914 775.333 26.928 775.333 28.14C775.333 28.632 775.297 29.022 775.225 29.31H769.879C769.999 29.958 770.269 30.438 770.689 30.75C771.109 31.05 771.613 31.2 772.201 31.2C772.837 31.2 773.479 31.002 774.127 30.606L775.009 32.208C774.025 32.88 772.969 33.216 771.841 33.216ZM769.861 27.564H773.083C773.083 27.072 772.963 26.67 772.723 26.358C772.495 26.034 772.117 25.872 771.589 25.872C771.169 25.872 770.797 26.016 770.473 26.304C770.149 26.58 769.945 27 769.861 27.564ZM783.861 33V31.488C785.313 30.108 786.501 28.914 787.425 27.906C788.361 26.886 788.829 25.968 788.829 25.152C788.829 24.6 788.679 24.174 788.379 23.874C788.091 23.574 787.701 23.424 787.209 23.424C786.789 23.424 786.417 23.544 786.093 23.784C785.769 24.024 785.463 24.294 785.175 24.594L783.735 23.172C784.299 22.572 784.875 22.122 785.463 21.822C786.051 21.51 786.753 21.354 787.569 21.354C788.697 21.354 789.609 21.69 790.305 22.362C791.001 23.022 791.349 23.898 791.349 24.99C791.349 25.95 790.971 26.934 790.215 27.942C789.459 28.95 788.619 29.94 787.695 30.912C787.983 30.876 788.307 30.846 788.667 30.822C789.027 30.786 789.339 30.768 789.603 30.768H791.907V33H783.861ZM799.256 33.216C798.032 33.216 797.042 32.706 796.286 31.686C795.542 30.666 795.17 29.184 795.17 27.24C795.17 25.296 795.542 23.832 796.286 22.848C797.042 21.852 798.032 21.354 799.256 21.354C800.48 21.354 801.464 21.852 802.208 22.848C802.964 23.832 803.342 25.296 803.342 27.24C803.342 29.184 802.964 30.666 802.208 31.686C801.464 32.706 800.48 33.216 799.256 33.216ZM799.256 31.164C799.712 31.164 800.09 30.9 800.39 30.372C800.69 29.844 800.84 28.8 800.84 27.24C800.84 25.68 800.69 24.654 800.39 24.162C800.09 23.658 799.712 23.406 799.256 23.406C798.812 23.406 798.434 23.658 798.122 24.162C797.822 24.654 797.672 25.68 797.672 27.24C797.672 28.8 797.822 29.844 798.122 30.372C798.434 30.9 798.812 31.164 799.256 31.164ZM810.566 33.216C809.342 33.216 808.352 32.706 807.596 31.686C806.852 30.666 806.48 29.184 806.48 27.24C806.48 25.296 806.852 23.832 807.596 22.848C808.352 21.852 809.342 21.354 810.566 21.354C811.79 21.354 812.774 21.852 813.518 22.848C814.274 23.832 814.652 25.296 814.652 27.24C814.652 29.184 814.274 30.666 813.518 31.686C812.774 32.706 811.79 33.216 810.566 33.216ZM810.566 31.164C811.022 31.164 811.4 30.9 811.7 30.372C812 29.844 812.15 28.8 812.15 27.24C812.15 25.68 812 24.654 811.7 24.162C811.4 23.658 811.022 23.406 810.566 23.406C810.122 23.406 809.744 23.658 809.432 24.162C809.132 24.654 808.982 25.68 808.982 27.24C808.982 28.8 809.132 29.844 809.432 30.372C809.744 30.9 810.122 31.164 810.566 31.164Z" fill="black"/>
<path d="M900.62 210V198.192H903.572C905.396 198.192 906.782 198.702 907.73 199.722C908.678 200.73 909.152 202.17 909.152 204.042C909.152 205.926 908.678 207.39 907.73 208.434C906.782 209.478 905.42 210 903.644 210H900.62ZM902.114 208.776H903.464C904.844 208.776 905.876 208.362 906.56 207.534C907.256 206.706 907.604 205.542 907.604 204.042C907.604 202.554 907.256 201.414 906.56 200.622C905.876 199.818 904.844 199.416 903.464 199.416H902.114V208.776ZM915.798 209.028C916.218 209.028 916.614 208.926 916.986 208.722C917.358 208.518 917.754 208.23 918.174 207.858V205.428C916.71 205.608 915.69 205.884 915.114 206.256C914.538 206.616 914.25 207.072 914.25 207.624C914.25 208.116 914.4 208.476 914.7 208.704C915 208.92 915.366 209.028 915.798 209.028ZM915.366 210.216C914.634 210.216 914.022 210 913.53 209.568C913.05 209.124 912.81 208.512 912.81 207.732C912.81 206.772 913.236 206.04 914.088 205.536C914.952 205.02 916.314 204.66 918.174 204.456C918.174 203.904 918.054 203.4 917.814 202.944C917.574 202.488 917.094 202.26 916.374 202.26C915.87 202.26 915.396 202.356 914.952 202.548C914.508 202.74 914.112 202.956 913.764 203.196L913.188 202.17C913.596 201.906 914.094 201.654 914.682 201.414C915.282 201.162 915.93 201.036 916.626 201.036C917.694 201.036 918.468 201.366 918.948 202.026C919.428 202.674 919.668 203.544 919.668 204.636V210H918.444L918.318 208.956H918.264C917.844 209.292 917.394 209.586 916.914 209.838C916.434 210.09 915.918 210.216 915.366 210.216ZM924.221 210V201.252H925.445L925.571 202.836H925.625C925.925 202.284 926.291 201.846 926.723 201.522C927.155 201.198 927.617 201.036 928.109 201.036C928.457 201.036 928.769 201.096 929.045 201.216L928.757 202.512C928.613 202.464 928.481 202.428 928.361 202.404C928.241 202.38 928.091 202.368 927.911 202.368C927.539 202.368 927.149 202.518 926.741 202.818C926.345 203.118 925.997 203.64 925.697 204.384V210H924.221ZM932.261 210V197.184H933.719V205.86H933.773L937.499 201.252H939.137L936.203 204.762L939.533 210H937.913L935.357 205.788L933.719 207.696V210H932.261ZM948.322 210V208.776H950.95V200.316H948.862V199.362C949.378 199.278 949.834 199.164 950.23 199.02C950.626 198.876 950.98 198.708 951.292 198.516H952.426V208.776H954.802V210H948.322ZM962.13 210.216C960.978 210.216 960.072 209.7 959.412 208.668C958.764 207.636 958.44 206.154 958.44 204.222C958.44 202.29 958.764 200.82 959.412 199.812C960.072 198.804 960.978 198.3 962.13 198.3C963.27 198.3 964.164 198.804 964.812 199.812C965.472 200.82 965.802 202.29 965.802 204.222C965.802 206.154 965.472 207.636 964.812 208.668C964.164 209.7 963.27 210.216 962.13 210.216ZM962.13 209.028C962.79 209.028 963.324 208.65 963.732 207.894C964.152 207.126 964.362 205.902 964.362 204.222C964.362 202.542 964.152 201.336 963.732 200.604C963.324 199.86 962.79 199.488 962.13 199.488C961.458 199.488 960.912 199.86 960.492 200.604C960.084 201.336 959.88 202.542 959.88 204.222C959.88 205.902 960.084 207.126 960.492 207.894C960.912 208.65 961.458 209.028 962.13 209.028ZM972.877 210.216C971.725 210.216 970.819 209.7 970.159 208.668C969.511 207.636 969.187 206.154 969.187 204.222C969.187 202.29 969.511 200.82 970.159 199.812C970.819 198.804 971.725 198.3 972.877 198.3C974.017 198.3 974.911 198.804 975.559 199.812C976.219 200.82 976.549 202.29 976.549 204.222C976.549 206.154 976.219 207.636 975.559 208.668C974.911 209.7 974.017 210.216 972.877 210.216ZM972.877 209.028C973.537 209.028 974.071 208.65 974.479 207.894C974.899 207.126 975.109 205.902 975.109 204.222C975.109 202.542 974.899 201.336 974.479 200.604C974.071 199.86 973.537 199.488 972.877 199.488C972.205 199.488 971.659 199.86 971.239 200.604C970.831 201.336 970.627 202.542 970.627 204.222C970.627 205.902 970.831 207.126 971.239 207.894C971.659 208.65 972.205 209.028 972.877 209.028Z" fill="white"/>
<path d="M901.43 33L899.252 21.264H901.97L902.78 26.754C902.852 27.366 902.93 27.984 903.014 28.608C903.098 29.22 903.176 29.838 903.248 30.462H903.32C903.44 29.838 903.554 29.22 903.662 28.608C903.782 27.984 903.902 27.366 904.022 26.754L905.282 21.264H907.532L908.792 26.754C908.912 27.342 909.026 27.948 909.134 28.572C909.254 29.196 909.374 29.826 909.494 30.462H909.566C909.65 29.826 909.728 29.202 909.8 28.59C909.884 27.966 909.968 27.354 910.052 26.754L910.862 21.264H913.4L911.312 33H907.982L906.83 27.672C906.734 27.216 906.644 26.76 906.56 26.304C906.488 25.836 906.422 25.386 906.362 24.954H906.29C906.218 25.386 906.14 25.836 906.056 26.304C905.984 26.76 905.9 27.216 905.804 27.672L904.706 33H901.43ZM916.613 33V20.382H919.259V23.478L919.133 25.08C919.469 24.78 919.859 24.504 920.303 24.252C920.759 23.988 921.287 23.856 921.887 23.856C922.859 23.856 923.561 24.18 923.993 24.828C924.437 25.464 924.659 26.34 924.659 27.456V33H922.013V27.798C922.013 27.15 921.923 26.706 921.743 26.466C921.575 26.226 921.299 26.106 920.915 26.106C920.579 26.106 920.291 26.184 920.051 26.34C919.811 26.484 919.547 26.694 919.259 26.97V33H916.613ZM930.01 22.758C929.566 22.758 929.2 22.632 928.912 22.38C928.624 22.116 928.48 21.78 928.48 21.372C928.48 20.964 928.624 20.634 928.912 20.382C929.2 20.13 929.566 20.004 930.01 20.004C930.466 20.004 930.832 20.13 931.108 20.382C931.396 20.634 931.54 20.964 931.54 21.372C931.54 21.78 931.396 22.116 931.108 22.38C930.832 22.632 930.466 22.758 930.01 22.758ZM928.696 33V24.072H931.342V33H928.696ZM938.908 33.216C937.804 33.216 937.012 32.898 936.532 32.262C936.064 31.626 935.83 30.792 935.83 29.76V26.142H934.606V24.18L935.974 24.072L936.28 21.696H938.476V24.072H940.618V26.142H938.476V29.724C938.476 30.672 938.86 31.146 939.628 31.146C939.772 31.146 939.916 31.128 940.06 31.092C940.216 31.056 940.354 31.014 940.474 30.966L940.888 32.892C940.648 32.964 940.366 33.036 940.042 33.108C939.718 33.18 939.34 33.216 938.908 33.216ZM947.841 33.216C946.557 33.216 945.483 32.808 944.619 31.992C943.755 31.164 943.323 30.012 943.323 28.536C943.323 27.576 943.521 26.748 943.917 26.052C944.325 25.344 944.847 24.804 945.483 24.432C946.131 24.048 946.815 23.856 947.535 23.856C948.807 23.856 949.755 24.27 950.379 25.098C951.015 25.914 951.333 26.928 951.333 28.14C951.333 28.632 951.297 29.022 951.225 29.31H945.879C945.999 29.958 946.269 30.438 946.689 30.75C947.109 31.05 947.613 31.2 948.201 31.2C948.837 31.2 949.479 31.002 950.127 30.606L951.009 32.208C950.025 32.88 948.969 33.216 947.841 33.216ZM945.861 27.564H949.083C949.083 27.072 948.963 26.67 948.723 26.358C948.495 26.034 948.117 25.872 947.589 25.872C947.169 25.872 946.797 26.016 946.473 26.304C946.149 26.58 945.945 27 945.861 27.564ZM960.455 33V30.858H962.939V24.252H960.797V22.614C961.421 22.494 961.949 22.35 962.381 22.182C962.813 22.014 963.233 21.81 963.641 21.57H965.585V30.858H967.727V33H960.455ZM975.256 33.216C974.032 33.216 973.042 32.706 972.286 31.686C971.542 30.666 971.17 29.184 971.17 27.24C971.17 25.296 971.542 23.832 972.286 22.848C973.042 21.852 974.032 21.354 975.256 21.354C976.48 21.354 977.464 21.852 978.208 22.848C978.964 23.832 979.342 25.296 979.342 27.24C979.342 29.184 978.964 30.666 978.208 31.686C977.464 32.706 976.48 33.216 975.256 33.216ZM975.256 31.164C975.712 31.164 976.09 30.9 976.39 30.372C976.69 29.844 976.84 28.8 976.84 27.24C976.84 25.68 976.69 24.654 976.39 24.162C976.09 23.658 975.712 23.406 975.256 23.406C974.812 23.406 974.434 23.658 974.122 24.162C973.822 24.654 973.672 25.68 973.672 27.24C973.672 28.8 973.822 29.844 974.122 30.372C974.434 30.9 974.812 31.164 975.256 31.164ZM986.566 33.216C985.342 33.216 984.352 32.706 983.596 31.686C982.852 30.666 982.48 29.184 982.48 27.24C982.48 25.296 982.852 23.832 983.596 22.848C984.352 21.852 985.342 21.354 986.566 21.354C987.79 21.354 988.774 21.852 989.518 22.848C990.274 23.832 990.652 25.296 990.652 27.24C990.652 29.184 990.274 30.666 989.518 31.686C988.774 32.706 987.79 33.216 986.566 33.216ZM986.566 31.164C987.022 31.164 987.4 30.9 987.7 30.372C988 29.844 988.15 28.8 988.15 27.24C988.15 25.68 988 24.654 987.7 24.162C987.4 23.658 987.022 23.406 986.566 23.406C986.122 23.406 985.744 23.658 985.432 24.162C985.132 24.654 984.982 25.68 984.982 27.24C984.982 28.8 985.132 29.844 985.432 30.372C985.744 30.9 986.122 31.164 986.566 31.164Z" fill="black"/>
<path d="M19.168 60.302H21.544L21.868 57.638H19.492L19.168 60.302ZM17.62 65L18.07 61.328H16.63V60.302H18.196L18.52 57.638H16.99V56.594H18.646L19.06 53.3H20.014L19.6 56.594H21.994L22.426 53.3H23.38L22.948 56.594H24.406V57.638H22.84L22.516 60.302H24.046V61.328H22.39L21.94 65H20.986L21.418 61.328H19.042L18.592 65H17.62ZM32.8313 65.216C31.3553 65.216 30.1253 64.676 29.1413 63.596C28.1693 62.516 27.6833 61.016 27.6833 59.096C27.6833 57.2 28.1813 55.706 29.1773 54.614C30.1733 53.522 31.4213 52.976 32.9213 52.976C33.6413 52.976 34.2713 53.126 34.8113 53.426C35.3633 53.714 35.8133 54.05 36.1613 54.434L35.3513 55.406C35.0393 55.07 34.6853 54.8 34.2893 54.596C33.8933 54.392 33.4433 54.29 32.9393 54.29C31.8233 54.29 30.9233 54.722 30.2393 55.586C29.5673 56.438 29.2313 57.596 29.2313 59.06C29.2313 60.548 29.5613 61.73 30.2213 62.606C30.8813 63.47 31.7693 63.902 32.8853 63.902C33.4493 63.902 33.9533 63.788 34.3973 63.56C34.8413 63.32 35.2493 62.99 35.6213 62.57L36.4493 63.506C35.9813 64.046 35.4533 64.466 34.8653 64.766C34.2773 65.066 33.5993 65.216 32.8313 65.216ZM44.3871 65.216C42.9111 65.216 41.6811 64.676 40.6971 63.596C39.7251 62.516 39.2391 61.016 39.2391 59.096C39.2391 57.2 39.7371 55.706 40.7331 54.614C41.7291 53.522 42.9771 52.976 44.4771 52.976C45.1971 52.976 45.8271 53.126 46.3671 53.426C46.9191 53.714 47.3691 54.05 47.7171 54.434L46.9071 55.406C46.5951 55.07 46.2411 54.8 45.8451 54.596C45.4491 54.392 44.9991 54.29 44.4951 54.29C43.3791 54.29 42.4791 54.722 41.7951 55.586C41.1231 56.438 40.7871 57.596 40.7871 59.06C40.7871 60.548 41.1171 61.73 41.7771 62.606C42.4371 63.47 43.3251 63.902 44.4411 63.902C45.0051 63.902 45.5091 63.788 45.9531 63.56C46.3971 63.32 46.8051 62.99 47.1771 62.57L48.0051 63.506C47.5371 64.046 47.0091 64.466 46.4211 64.766C45.8331 65.066 45.1551 65.216 44.3871 65.216ZM55.943 65.216C54.467 65.216 53.237 64.676 52.253 63.596C51.281 62.516 50.795 61.016 50.795 59.096C50.795 57.2 51.293 55.706 52.289 54.614C53.285 53.522 54.533 52.976 56.033 52.976C56.753 52.976 57.383 53.126 57.923 53.426C58.475 53.714 58.925 54.05 59.273 54.434L58.463 55.406C58.151 55.07 57.797 54.8 57.401 54.596C57.005 54.392 56.555 54.29 56.051 54.29C54.935 54.29 54.035 54.722 53.351 55.586C52.679 56.438 52.343 57.596 52.343 59.06C52.343 60.548 52.673 61.73 53.333 62.606C53.993 63.47 54.881 63.902 55.997 63.902C56.561 63.902 57.065 63.788 57.509 63.56C57.953 63.32 58.361 62.99 58.733 62.57L59.561 63.506C59.093 64.046 58.565 64.466 57.977 64.766C57.389 65.066 56.711 65.216 55.943 65.216ZM67.4988 65.216C66.0228 65.216 64.7928 64.676 63.8088 63.596C62.8368 62.516 62.3508 61.016 62.3508 59.096C62.3508 57.2 62.8488 55.706 63.8448 54.614C64.8408 53.522 66.0888 52.976 67.5888 52.976C68.3088 52.976 68.9388 53.126 69.4788 53.426C70.0308 53.714 70.4808 54.05 70.8288 54.434L70.0188 55.406C69.7068 55.07 69.3528 54.8 68.9568 54.596C68.5608 54.392 68.1108 54.29 67.6068 54.29C66.4908 54.29 65.5908 54.722 64.9068 55.586C64.2348 56.438 63.8988 57.596 63.8988 59.06C63.8988 60.548 64.2288 61.73 64.8888 62.606C65.5488 63.47 66.4368 63.902 67.5528 63.902C68.1168 63.902 68.6208 63.788 69.0648 63.56C69.5088 63.32 69.9168 62.99 70.2888 62.57L71.1168 63.506C70.6488 64.046 70.1208 64.466 69.5328 64.766C68.9448 65.066 68.2668 65.216 67.4988 65.216ZM79.0547 65.216C77.5787 65.216 76.3487 64.676 75.3647 63.596C74.3927 62.516 73.9067 61.016 73.9067 59.096C73.9067 57.2 74.4047 55.706 75.4007 54.614C76.3967 53.522 77.6447 52.976 79.1447 52.976C79.8647 52.976 80.4947 53.126 81.0347 53.426C81.5867 53.714 82.0367 54.05 82.3847 54.434L81.5747 55.406C81.2627 55.07 80.9087 54.8 80.5127 54.596C80.1167 54.392 79.6667 54.29 79.1627 54.29C78.0467 54.29 77.1467 54.722 76.4627 55.586C75.7907 56.438 75.4547 57.596 75.4547 59.06C75.4547 60.548 75.7847 61.73 76.4447 62.606C77.1047 63.47 77.9927 63.902 79.1087 63.902C79.6727 63.902 80.1767 63.788 80.6207 63.56C81.0647 63.32 81.4727 62.99 81.8447 62.57L82.6727 63.506C82.2047 64.046 81.6767 64.466 81.0887 64.766C80.5007 65.066 79.8227 65.216 79.0547 65.216ZM90.6106 65.216C89.1346 65.216 87.9046 64.676 86.9206 63.596C85.9486 62.516 85.4626 61.016 85.4626 59.096C85.4626 57.2 85.9606 55.706 86.9566 54.614C87.9526 53.522 89.2006 52.976 90.7006 52.976C91.4206 52.976 92.0506 53.126 92.5906 53.426C93.1426 53.714 93.5926 54.05 93.9406 54.434L93.1306 55.406C92.8186 55.07 92.4646 54.8 92.0686 54.596C91.6726 54.392 91.2226 54.29 90.7186 54.29C89.6026 54.29 88.7026 54.722 88.0186 55.586C87.3466 56.438 87.0106 57.596 87.0106 59.06C87.0106 60.548 87.3406 61.73 88.0006 62.606C88.6606 63.47 89.5486 63.902 90.6646 63.902C91.2286 63.902 91.7326 63.788 92.1766 63.56C92.6206 63.32 93.0286 62.99 93.4006 62.57L94.2286 63.506C93.7606 64.046 93.2326 64.466 92.6446 64.766C92.0566 65.066 91.3786 65.216 90.6106 65.216Z" fill="black"/>
<path d="M19.168 237.302H21.544L21.868 234.638H19.492L19.168 237.302ZM17.62 242L18.07 238.328H16.63V237.302H18.196L18.52 234.638H16.99V233.594H18.646L19.06 230.3H20.014L19.6 233.594H21.994L22.426 230.3H23.38L22.948 233.594H24.406V234.638H22.84L22.516 237.302H24.046V238.328H22.39L21.94 242H20.986L21.418 238.328H19.042L18.592 242H17.62ZM31.2293 242.216C30.0773 242.216 29.1713 241.7 28.5113 240.668C27.8633 239.636 27.5393 238.154 27.5393 236.222C27.5393 234.29 27.8633 232.82 28.5113 231.812C29.1713 230.804 30.0773 230.3 31.2293 230.3C32.3693 230.3 33.2633 230.804 33.9113 231.812C34.5713 232.82 34.9013 234.29 34.9013 236.222C34.9013 238.154 34.5713 239.636 33.9113 240.668C33.2633 241.7 32.3693 242.216 31.2293 242.216ZM31.2293 241.028C31.8893 241.028 32.4233 240.65 32.8313 239.894C33.2513 239.126 33.4613 237.902 33.4613 236.222C33.4613 234.542 33.2513 233.336 32.8313 232.604C32.4233 231.86 31.8893 231.488 31.2293 231.488C30.5573 231.488 30.0113 231.86 29.5913 232.604C29.1833 233.336 28.9793 234.542 28.9793 236.222C28.9793 237.902 29.1833 239.126 29.5913 239.894C30.0113 240.65 30.5573 241.028 31.2293 241.028ZM43.5785 242.216C42.1025 242.216 40.8725 241.676 39.8885 240.596C38.9165 239.516 38.4305 238.016 38.4305 236.096C38.4305 234.2 38.9285 232.706 39.9245 231.614C40.9205 230.522 42.1685 229.976 43.6685 229.976C44.3885 229.976 45.0185 230.126 45.5585 230.426C46.1105 230.714 46.5605 231.05 46.9085 231.434L46.0985 232.406C45.7865 232.07 45.4325 231.8 45.0365 231.596C44.6405 231.392 44.1905 231.29 43.6865 231.29C42.5705 231.29 41.6705 231.722 40.9865 232.586C40.3145 233.438 39.9785 234.596 39.9785 236.06C39.9785 237.548 40.3085 238.73 40.9685 239.606C41.6285 240.47 42.5165 240.902 43.6325 240.902C44.1965 240.902 44.7005 240.788 45.1445 240.56C45.5885 240.32 45.9965 239.99 46.3685 239.57L47.1965 240.506C46.7285 241.046 46.2005 241.466 45.6125 241.766C45.0245 242.066 44.3465 242.216 43.5785 242.216ZM54.0597 242.216C52.9077 242.216 52.0017 241.7 51.3417 240.668C50.6937 239.636 50.3697 238.154 50.3697 236.222C50.3697 234.29 50.6937 232.82 51.3417 231.812C52.0017 230.804 52.9077 230.3 54.0597 230.3C55.1997 230.3 56.0937 230.804 56.7417 231.812C57.4017 232.82 57.7317 234.29 57.7317 236.222C57.7317 238.154 57.4017 239.636 56.7417 240.668C56.0937 241.7 55.1997 242.216 54.0597 242.216ZM54.0597 241.028C54.7197 241.028 55.2537 240.65 55.6617 239.894C56.0817 239.126 56.2917 237.902 56.2917 236.222C56.2917 234.542 56.0817 233.336 55.6617 232.604C55.2537 231.86 54.7197 231.488 54.0597 231.488C53.3877 231.488 52.8417 231.86 52.4217 232.604C52.0137 233.336 51.8097 234.542 51.8097 236.222C51.8097 237.902 52.0137 239.126 52.4217 239.894C52.8417 240.65 53.3877 241.028 54.0597 241.028ZM66.409 242.216C64.933 242.216 63.703 241.676 62.719 240.596C61.747 239.516 61.261 238.016 61.261 236.096C61.261 234.2 61.759 232.706 62.755 231.614C63.751 230.522 64.999 229.976 66.499 229.976C67.219 229.976 67.849 230.126 68.389 230.426C68.941 230.714 69.391 231.05 69.739 231.434L68.929 232.406C68.617 232.07 68.263 231.8 67.867 231.596C67.471 231.392 67.021 231.29 66.517 231.29C65.401 231.29 64.501 231.722 63.817 232.586C63.145 233.438 62.809 234.596 62.809 236.06C62.809 237.548 63.139 238.73 63.799 239.606C64.459 240.47 65.347 240.902 66.463 240.902C67.027 240.902 67.531 240.788 67.975 240.56C68.419 240.32 68.827 239.99 69.199 239.57L70.027 240.506C69.559 241.046 69.031 241.466 68.443 241.766C67.855 242.066 67.177 242.216 66.409 242.216ZM76.8902 242.216C75.7382 242.216 74.8322 241.7 74.1722 240.668C73.5242 239.636 73.2002 238.154 73.2002 236.222C73.2002 234.29 73.5242 232.82 74.1722 231.812C74.8322 230.804 75.7382 230.3 76.8902 230.3C78.0302 230.3 78.9242 230.804 79.5722 231.812C80.2322 232.82 80.5622 234.29 80.5622 236.222C80.5622 238.154 80.2322 239.636 79.5722 240.668C78.9242 241.7 78.0302 242.216 76.8902 242.216ZM76.8902 241.028C77.5502 241.028 78.0842 240.65 78.4922 239.894C78.9122 239.126 79.1222 237.902 79.1222 236.222C79.1222 234.542 78.9122 233.336 78.4922 232.604C78.0842 231.86 77.5502 231.488 76.8902 231.488C76.2182 231.488 75.6722 231.86 75.2522 232.604C74.8442 233.336 74.6402 234.542 74.6402 236.222C74.6402 237.902 74.8442 239.126 75.2522 239.894C75.6722 240.65 76.2182 241.028 76.8902 241.028ZM89.2395 242.216C87.7635 242.216 86.5335 241.676 85.5495 240.596C84.5775 239.516 84.0915 238.016 84.0915 236.096C84.0915 234.2 84.5895 232.706 85.5855 231.614C86.5815 230.522 87.8295 229.976 89.3295 229.976C90.0495 229.976 90.6795 230.126 91.2195 230.426C91.7715 230.714 92.2215 231.05 92.5695 231.434L91.7595 232.406C91.4475 232.07 91.0935 231.8 90.6975 231.596C90.3015 231.392 89.8515 231.29 89.3475 231.29C88.2315 231.29 87.3315 231.722 86.6475 232.586C85.9755 233.438 85.6395 234.596 85.6395 236.06C85.6395 237.548 85.9695 238.73 86.6295 239.606C87.2895 240.47 88.1775 240.902 89.2935 240.902C89.8575 240.902 90.3615 240.788 90.8055 240.56C91.2495 240.32 91.6575 239.99 92.0295 239.57L92.8575 240.506C92.3895 241.046 91.8615 241.466 91.2735 241.766C90.6855 242.066 90.0075 242.216 89.2395 242.216Z" fill="white"/>
<path d="M372.168 60.302H374.544L374.868 57.638H372.492L372.168 60.302ZM370.62 65L371.07 61.328H369.63V60.302H371.196L371.52 57.638H369.99V56.594H371.646L372.06 53.3H373.014L372.6 56.594H374.994L375.426 53.3H376.38L375.948 56.594H377.406V57.638H375.84L375.516 60.302H377.046V61.328H375.39L374.94 65H373.986L374.418 61.328H372.042L371.592 65H370.62ZM381.367 65V53.192H388.171V54.452H382.861V58.16H387.343V59.438H382.861V63.722H388.351V65H381.367ZM399.265 61.526C399.265 62.618 398.929 63.506 398.257 64.19C397.585 64.874 396.787 65.216 395.863 65.216C394.735 65.216 393.793 64.76 393.037 63.848C392.281 62.924 391.903 61.538 391.903 59.69C391.903 58.154 392.107 56.918 392.515 55.982C392.935 55.046 393.475 54.368 394.135 53.948C394.807 53.516 395.521 53.3 396.277 53.3C396.901 53.3 397.435 53.42 397.879 53.66C398.335 53.888 398.725 54.176 399.049 54.524L398.221 55.442C397.717 54.842 397.087 54.542 396.331 54.542C395.527 54.542 394.831 54.902 394.243 55.622C393.655 56.33 393.343 57.596 393.307 59.42C393.667 58.988 394.087 58.64 394.567 58.376C395.047 58.112 395.521 57.98 395.989 57.98C396.985 57.98 397.777 58.28 398.365 58.88C398.965 59.468 399.265 60.35 399.265 61.526ZM395.863 64.046C396.427 64.046 396.901 63.818 397.285 63.362C397.669 62.894 397.861 62.282 397.861 61.526C397.861 60.782 397.681 60.194 397.321 59.762C396.973 59.318 396.445 59.096 395.737 59.096C395.365 59.096 394.963 59.216 394.531 59.456C394.099 59.696 393.703 60.08 393.343 60.608C393.535 62.9 394.375 64.046 395.863 64.046ZM403.407 65V53.192H410.211V54.452H404.901V58.16H409.383V59.438H404.901V63.722H410.391V65H403.407ZM421.305 61.526C421.305 62.618 420.969 63.506 420.297 64.19C419.625 64.874 418.827 65.216 417.903 65.216C416.775 65.216 415.833 64.76 415.077 63.848C414.321 62.924 413.943 61.538 413.943 59.69C413.943 58.154 414.147 56.918 414.555 55.982C414.975 55.046 415.515 54.368 416.175 53.948C416.847 53.516 417.561 53.3 418.317 53.3C418.941 53.3 419.475 53.42 419.919 53.66C420.375 53.888 420.765 54.176 421.089 54.524L420.261 55.442C419.757 54.842 419.127 54.542 418.371 54.542C417.567 54.542 416.871 54.902 416.283 55.622C415.695 56.33 415.383 57.596 415.347 59.42C415.707 58.988 416.127 58.64 416.607 58.376C417.087 58.112 417.561 57.98 418.029 57.98C419.025 57.98 419.817 58.28 420.405 58.88C421.005 59.468 421.305 60.35 421.305 61.526ZM417.903 64.046C418.467 64.046 418.941 63.818 419.325 63.362C419.709 62.894 419.901 62.282 419.901 61.526C419.901 60.782 419.721 60.194 419.361 59.762C419.013 59.318 418.485 59.096 417.777 59.096C417.405 59.096 417.003 59.216 416.571 59.456C416.139 59.696 415.743 60.08 415.383 60.608C415.575 62.9 416.415 64.046 417.903 64.046ZM425.446 65V53.192H432.25V54.452H426.94V58.16H431.422V59.438H426.94V63.722H432.43V65H425.446ZM443.344 61.526C443.344 62.618 443.008 63.506 442.336 64.19C441.664 64.874 440.866 65.216 439.942 65.216C438.814 65.216 437.872 64.76 437.116 63.848C436.36 62.924 435.982 61.538 435.982 59.69C435.982 58.154 436.186 56.918 436.594 55.982C437.014 55.046 437.554 54.368 438.214 53.948C438.886 53.516 439.6 53.3 440.356 53.3C440.98 53.3 441.514 53.42 441.958 53.66C442.414 53.888 442.804 54.176 443.128 54.524L442.3 55.442C441.796 54.842 441.166 54.542 440.41 54.542C439.606 54.542 438.91 54.902 438.322 55.622C437.734 56.33 437.422 57.596 437.386 59.42C437.746 58.988 438.166 58.64 438.646 58.376C439.126 58.112 439.6 57.98 440.068 57.98C441.064 57.98 441.856 58.28 442.444 58.88C443.044 59.468 443.344 60.35 443.344 61.526ZM439.942 64.046C440.506 64.046 440.98 63.818 441.364 63.362C441.748 62.894 441.94 62.282 441.94 61.526C441.94 60.782 441.76 60.194 441.4 59.762C441.052 59.318 440.524 59.096 439.816 59.096C439.444 59.096 439.042 59.216 438.61 59.456C438.178 59.696 437.782 60.08 437.422 60.608C437.614 62.9 438.454 64.046 439.942 64.046Z" fill="black"/>
<path d="M372.168 237.302H374.544L374.868 234.638H372.492L372.168 237.302ZM370.62 242L371.07 238.328H369.63V237.302H371.196L371.52 234.638H369.99V233.594H371.646L372.06 230.3H373.014L372.6 233.594H374.994L375.426 230.3H376.38L375.948 233.594H377.406V234.638H375.84L375.516 237.302H377.046V238.328H375.39L374.94 242H373.986L374.418 238.328H372.042L371.592 242H370.62ZM381.169 242V240.776H383.797V232.316H381.709V231.362C382.225 231.278 382.681 231.164 383.077 231.02C383.473 230.876 383.827 230.708 384.139 230.516H385.273V240.776H387.649V242H381.169ZM394.995 242.216C393.915 242.216 393.015 241.922 392.295 241.334C391.587 240.734 391.233 239.978 391.233 239.066C391.233 238.322 391.455 237.692 391.899 237.176C392.355 236.66 392.853 236.258 393.393 235.97V235.898C392.973 235.598 392.601 235.232 392.277 234.8C391.953 234.368 391.791 233.852 391.791 233.252C391.791 232.364 392.103 231.65 392.727 231.11C393.351 230.57 394.125 230.3 395.049 230.3C396.045 230.3 396.831 230.588 397.407 231.164C397.995 231.74 398.289 232.472 398.289 233.36C398.289 233.96 398.109 234.506 397.749 234.998C397.401 235.49 397.053 235.868 396.705 236.132V236.204C397.221 236.504 397.683 236.882 398.091 237.338C398.499 237.782 398.703 238.388 398.703 239.156C398.703 240.008 398.361 240.734 397.677 241.334C397.005 241.922 396.111 242.216 394.995 242.216ZM395.805 235.736C396.609 235.028 397.011 234.26 397.011 233.432C397.011 232.868 396.837 232.388 396.489 231.992C396.141 231.596 395.649 231.398 395.013 231.398C394.485 231.398 394.041 231.572 393.681 231.92C393.333 232.256 393.159 232.7 393.159 233.252C393.159 233.936 393.423 234.458 393.951 234.818C394.491 235.166 395.109 235.472 395.805 235.736ZM395.031 241.118C395.703 241.118 396.243 240.932 396.651 240.56C397.071 240.176 397.281 239.69 397.281 239.102C397.281 238.37 396.969 237.824 396.345 237.464C395.721 237.104 394.995 236.756 394.167 236.42C393.711 236.732 393.327 237.098 393.015 237.518C392.715 237.938 392.565 238.406 392.565 238.922C392.565 239.558 392.799 240.086 393.267 240.506C393.747 240.914 394.335 241.118 395.031 241.118ZM402.664 242V240.776H405.292V232.316H403.204V231.362C403.72 231.278 404.176 231.164 404.572 231.02C404.968 230.876 405.322 230.708 405.634 230.516H406.768V240.776H409.144V242H402.664ZM416.489 242.216C415.409 242.216 414.509 241.922 413.789 241.334C413.081 240.734 412.727 239.978 412.727 239.066C412.727 238.322 412.949 237.692 413.393 237.176C413.849 236.66 414.347 236.258 414.887 235.97V235.898C414.467 235.598 414.095 235.232 413.771 234.8C413.447 234.368 413.285 233.852 413.285 233.252C413.285 232.364 413.597 231.65 414.221 231.11C414.845 230.57 415.619 230.3 416.543 230.3C417.539 230.3 418.325 230.588 418.901 231.164C419.489 231.74 419.783 232.472 419.783 233.36C419.783 233.96 419.603 234.506 419.243 234.998C418.895 235.49 418.547 235.868 418.199 236.132V236.204C418.715 236.504 419.177 236.882 419.585 237.338C419.993 237.782 420.197 238.388 420.197 239.156C420.197 240.008 419.855 240.734 419.171 241.334C418.499 241.922 417.605 242.216 416.489 242.216ZM417.299 235.736C418.103 235.028 418.505 234.26 418.505 233.432C418.505 232.868 418.331 232.388 417.983 231.992C417.635 231.596 417.143 231.398 416.507 231.398C415.979 231.398 415.535 231.572 415.175 231.92C414.827 232.256 414.653 232.7 414.653 233.252C414.653 233.936 414.917 234.458 415.445 234.818C415.985 235.166 416.603 235.472 417.299 235.736ZM416.525 241.118C417.197 241.118 417.737 240.932 418.145 240.56C418.565 240.176 418.775 239.69 418.775 239.102C418.775 238.37 418.463 237.824 417.839 237.464C417.215 237.104 416.489 236.756 415.661 236.42C415.205 236.732 414.821 237.098 414.509 237.518C414.209 237.938 414.059 238.406 414.059 238.922C414.059 239.558 414.293 240.086 414.761 240.506C415.241 240.914 415.829 241.118 416.525 241.118ZM424.158 242V240.776H426.786V232.316H424.698V231.362C425.214 231.278 425.67 231.164 426.066 231.02C426.462 230.876 426.816 230.708 427.128 230.516H428.262V240.776H430.638V242H424.158ZM437.984 242.216C436.904 242.216 436.004 241.922 435.284 241.334C434.576 240.734 434.222 239.978 434.222 239.066C434.222 238.322 434.444 237.692 434.888 237.176C435.344 236.66 435.842 236.258 436.382 235.97V235.898C435.962 235.598 435.59 235.232 435.266 234.8C434.942 234.368 434.78 233.852 434.78 233.252C434.78 232.364 435.092 231.65 435.716 231.11C436.34 230.57 437.114 230.3 438.038 230.3C439.034 230.3 439.82 230.588 440.396 231.164C440.984 231.74 441.278 232.472 441.278 233.36C441.278 233.96 441.098 234.506 440.738 234.998C440.39 235.49 440.042 235.868 439.694 236.132V236.204C440.21 236.504 440.672 236.882 441.08 237.338C441.488 237.782 441.692 238.388 441.692 239.156C441.692 240.008 441.35 240.734 440.666 241.334C439.994 241.922 439.1 242.216 437.984 242.216ZM438.794 235.736C439.598 235.028 440 234.26 440 233.432C440 232.868 439.826 232.388 439.478 231.992C439.13 231.596 438.638 231.398 438.002 231.398C437.474 231.398 437.03 231.572 436.67 231.92C436.322 232.256 436.148 232.7 436.148 233.252C436.148 233.936 436.412 234.458 436.94 234.818C437.48 235.166 438.098 235.472 438.794 235.736ZM438.02 241.118C438.692 241.118 439.232 240.932 439.64 240.56C440.06 240.176 440.27 239.69 440.27 239.102C440.27 238.37 439.958 237.824 439.334 237.464C438.71 237.104 437.984 236.756 437.156 236.42C436.7 236.732 436.316 237.098 436.004 237.518C435.704 237.938 435.554 238.406 435.554 238.922C435.554 239.558 435.788 240.086 436.256 240.506C436.736 240.914 437.324 241.118 438.02 241.118Z" fill="white"/>
<path d="M549.168 60.302H551.544L551.868 57.638H549.492L549.168 60.302ZM547.62 65L548.07 61.328H546.63V60.302H548.196L548.52 57.638H546.99V56.594H548.646L549.06 53.3H550.014L549.6 56.594H551.994L552.426 53.3H553.38L552.948 56.594H554.406V57.638H552.84L552.516 60.302H554.046V61.328H552.39L551.94 65H550.986L551.418 61.328H549.042L548.592 65H547.62ZM559.933 65C559.993 63.56 560.143 62.27 560.383 61.13C560.623 59.978 560.971 58.898 561.427 57.89C561.895 56.87 562.507 55.838 563.263 54.794H557.539V53.516H564.937V54.434C564.037 55.598 563.347 56.702 562.867 57.746C562.387 58.778 562.051 59.876 561.859 61.04C561.667 62.192 561.535 63.512 561.463 65H559.933ZM568.917 65V63.776H571.545V55.316H569.457V54.362C569.973 54.278 570.429 54.164 570.825 54.02C571.221 53.876 571.575 53.708 571.887 53.516H573.021V63.776H575.397V65H568.917ZM581.428 65C581.488 63.56 581.638 62.27 581.878 61.13C582.118 59.978 582.466 58.898 582.922 57.89C583.39 56.87 584.002 55.838 584.758 54.794H579.034V53.516H586.432V54.434C585.532 55.598 584.842 56.702 584.362 57.746C583.882 58.778 583.546 59.876 583.354 61.04C583.162 62.192 583.03 63.512 582.958 65H581.428ZM595.073 65.216C593.597 65.216 592.367 64.676 591.383 63.596C590.411 62.516 589.925 61.016 589.925 59.096C589.925 57.2 590.423 55.706 591.419 54.614C592.415 53.522 593.663 52.976 595.163 52.976C595.883 52.976 596.513 53.126 597.053 53.426C597.605 53.714 598.055 54.05 598.403 54.434L597.593 55.406C597.281 55.07 596.927 54.8 596.531 54.596C596.135 54.392 595.685 54.29 595.181 54.29C594.065 54.29 593.165 54.722 592.481 55.586C591.809 56.438 591.473 57.596 591.473 59.06C591.473 60.548 591.803 61.73 592.463 62.606C593.123 63.47 594.011 63.902 595.127 63.902C595.691 63.902 596.195 63.788 596.639 63.56C597.083 63.32 597.491 62.99 597.863 62.57L598.691 63.506C598.223 64.046 597.695 64.466 597.107 64.766C596.519 65.066 595.841 65.216 595.073 65.216ZM605.572 65.216C604.492 65.216 603.592 64.922 602.872 64.334C602.164 63.734 601.81 62.978 601.81 62.066C601.81 61.322 602.032 60.692 602.476 60.176C602.932 59.66 603.43 59.258 603.97 58.97V58.898C603.55 58.598 603.178 58.232 602.854 57.8C602.53 57.368 602.368 56.852 602.368 56.252C602.368 55.364 602.68 54.65 603.304 54.11C603.928 53.57 604.702 53.3 605.626 53.3C606.622 53.3 607.408 53.588 607.984 54.164C608.572 54.74 608.866 55.472 608.866 56.36C608.866 56.96 608.686 57.506 608.326 57.998C607.978 58.49 607.63 58.868 607.282 59.132V59.204C607.798 59.504 608.26 59.882 608.668 60.338C609.076 60.782 609.28 61.388 609.28 62.156C609.28 63.008 608.938 63.734 608.254 64.334C607.582 64.922 606.688 65.216 605.572 65.216ZM606.382 58.736C607.186 58.028 607.588 57.26 607.588 56.432C607.588 55.868 607.414 55.388 607.066 54.992C606.718 54.596 606.226 54.398 605.59 54.398C605.062 54.398 604.618 54.572 604.258 54.92C603.91 55.256 603.736 55.7 603.736 56.252C603.736 56.936 604 57.458 604.528 57.818C605.068 58.166 605.686 58.472 606.382 58.736ZM605.608 64.118C606.28 64.118 606.82 63.932 607.228 63.56C607.648 63.176 607.858 62.69 607.858 62.102C607.858 61.37 607.546 60.824 606.922 60.464C606.298 60.104 605.572 59.756 604.744 59.42C604.288 59.732 603.904 60.098 603.592 60.518C603.292 60.938 603.142 61.406 603.142 61.922C603.142 62.558 603.376 63.086 603.844 63.506C604.324 63.914 604.912 64.118 605.608 64.118ZM612.54 65V64.118C614.268 62.402 615.6 60.98 616.536 59.852C617.472 58.712 617.94 57.68 617.94 56.756C617.94 56.096 617.76 55.556 617.4 55.136C617.04 54.716 616.494 54.506 615.762 54.506C615.282 54.506 614.838 54.644 614.43 54.92C614.022 55.184 613.65 55.508 613.314 55.892L612.468 55.046C612.948 54.53 613.458 54.11 613.998 53.786C614.55 53.462 615.198 53.3 615.942 53.3C617.01 53.3 617.85 53.612 618.462 54.236C619.074 54.848 619.38 55.664 619.38 56.684C619.38 57.764 618.936 58.868 618.048 59.996C617.172 61.124 616.056 62.402 614.7 63.83C615.012 63.806 615.336 63.782 615.672 63.758C616.008 63.734 616.326 63.722 616.626 63.722H619.956V65H612.54Z" fill="black"/>
<path d="M549.168 237.302H551.544L551.868 234.638H549.492L549.168 237.302ZM547.62 242L548.07 238.328H546.63V237.302H548.196L548.52 234.638H546.99V233.594H548.646L549.06 230.3H550.014L549.6 233.594H551.994L552.426 230.3H553.38L552.948 233.594H554.406V234.638H552.84L552.516 237.302H554.046V238.328H552.39L551.94 242H550.986L551.418 238.328H549.042L548.592 242H547.62ZM557.467 242V241.118C559.195 239.402 560.527 237.98 561.463 236.852C562.399 235.712 562.867 234.68 562.867 233.756C562.867 233.096 562.687 232.556 562.327 232.136C561.967 231.716 561.421 231.506 560.689 231.506C560.209 231.506 559.765 231.644 559.357 231.92C558.949 232.184 558.577 232.508 558.241 232.892L557.395 232.046C557.875 231.53 558.385 231.11 558.925 230.786C559.477 230.462 560.125 230.3 560.869 230.3C561.937 230.3 562.777 230.612 563.389 231.236C564.001 231.848 564.307 232.664 564.307 233.684C564.307 234.764 563.863 235.868 562.975 236.996C562.099 238.124 560.983 239.402 559.627 240.83C559.939 240.806 560.263 240.782 560.599 240.758C560.935 240.734 561.253 240.722 561.553 240.722H564.883V242H557.467ZM569.367 237.644H572.967V234.314C572.967 234.014 572.979 233.648 573.003 233.216C573.027 232.784 573.045 232.412 573.057 232.1H572.985C572.841 232.376 572.685 232.646 572.517 232.91C572.361 233.174 572.205 233.444 572.049 233.72L569.367 237.644ZM575.937 238.832H574.371V242H572.967V238.832H567.801V237.86L572.715 230.516H574.371V237.644H575.937V238.832ZM578.962 242V241.118C580.69 239.402 582.022 237.98 582.958 236.852C583.894 235.712 584.362 234.68 584.362 233.756C584.362 233.096 584.182 232.556 583.822 232.136C583.462 231.716 582.916 231.506 582.184 231.506C581.704 231.506 581.26 231.644 580.852 231.92C580.444 232.184 580.072 232.508 579.736 232.892L578.89 232.046C579.37 231.53 579.88 231.11 580.42 230.786C580.972 230.462 581.62 230.3 582.364 230.3C583.432 230.3 584.272 230.612 584.884 231.236C585.496 231.848 585.802 232.664 585.802 233.684C585.802 234.764 585.358 235.868 584.47 236.996C583.594 238.124 582.478 239.402 581.122 240.83C581.434 240.806 581.758 240.782 582.094 240.758C582.43 240.734 582.748 240.722 583.048 240.722H586.378V242H578.962ZM590.861 237.644H594.461V234.314C594.461 234.014 594.473 233.648 594.497 233.216C594.521 232.784 594.539 232.412 594.551 232.1H594.479C594.335 232.376 594.179 232.646 594.011 232.91C593.855 233.174 593.699 233.444 593.543 233.72L590.861 237.644ZM597.431 238.832H595.865V242H594.461V238.832H589.295V237.86L594.209 230.516H595.865V237.644H597.431V238.832ZM600.456 242V241.118C602.184 239.402 603.516 237.98 604.452 236.852C605.388 235.712 605.856 234.68 605.856 233.756C605.856 233.096 605.676 232.556 605.316 232.136C604.956 231.716 604.41 231.506 603.678 231.506C603.198 231.506 602.754 231.644 602.346 231.92C601.938 232.184 601.566 232.508 601.23 232.892L600.384 232.046C600.864 231.53 601.374 231.11 601.914 230.786C602.466 230.462 603.114 230.3 603.858 230.3C604.926 230.3 605.766 230.612 606.378 231.236C606.99 231.848 607.296 232.664 607.296 233.684C607.296 234.764 606.852 235.868 605.964 236.996C605.088 238.124 603.972 239.402 602.616 240.83C602.928 240.806 603.252 240.782 603.588 240.758C603.924 240.734 604.242 240.722 604.542 240.722H607.872V242H600.456ZM612.356 237.644H615.956V234.314C615.956 234.014 615.968 233.648 615.992 233.216C616.016 232.784 616.034 232.412 616.046 232.1H615.974C615.83 232.376 615.674 232.646 615.506 232.91C615.35 233.174 615.194 233.444 615.038 233.72L612.356 237.644ZM618.926 238.832H617.36V242H615.956V238.832H610.79V237.86L615.704 230.516H617.36V237.644H618.926V238.832Z" fill="white"/>
<path d="M726.168 60.302H728.544L728.868 57.638H726.492L726.168 60.302ZM724.62 65L725.07 61.328H723.63V60.302H725.196L725.52 57.638H723.99V56.594H725.646L726.06 53.3H727.014L726.6 56.594H728.994L729.426 53.3H730.38L729.948 56.594H731.406V57.638H729.84L729.516 60.302H731.046V61.328H729.39L728.94 65H727.986L728.418 61.328H726.042L725.592 65H724.62ZM735.367 65V53.192H742.171V54.452H736.861V58.448H741.361V59.708H736.861V65H735.367ZM745.162 65V64.118C746.89 62.402 748.222 60.98 749.158 59.852C750.094 58.712 750.562 57.68 750.562 56.756C750.562 56.096 750.382 55.556 750.022 55.136C749.662 54.716 749.116 54.506 748.384 54.506C747.904 54.506 747.46 54.644 747.052 54.92C746.644 55.184 746.272 55.508 745.936 55.892L745.09 55.046C745.57 54.53 746.08 54.11 746.62 53.786C747.172 53.462 747.82 53.3 748.564 53.3C749.632 53.3 750.472 53.612 751.084 54.236C751.696 54.848 752.002 55.664 752.002 56.684C752.002 57.764 751.558 58.868 750.67 59.996C749.794 61.124 748.678 62.402 747.322 63.83C747.634 63.806 747.958 63.782 748.294 63.758C748.63 63.734 748.948 63.722 749.248 63.722H752.578V65H745.162ZM756.809 65V53.192H763.613V54.452H758.303V58.448H762.803V59.708H758.303V65H756.809ZM766.604 65V64.118C768.332 62.402 769.664 60.98 770.6 59.852C771.536 58.712 772.004 57.68 772.004 56.756C772.004 56.096 771.824 55.556 771.464 55.136C771.104 54.716 770.558 54.506 769.826 54.506C769.346 54.506 768.902 54.644 768.494 54.92C768.086 55.184 767.714 55.508 767.378 55.892L766.532 55.046C767.012 54.53 767.522 54.11 768.062 53.786C768.614 53.462 769.262 53.3 770.006 53.3C771.074 53.3 771.914 53.612 772.526 54.236C773.138 54.848 773.444 55.664 773.444 56.684C773.444 57.764 773 58.868 772.112 59.996C771.236 61.124 770.12 62.402 768.764 63.83C769.076 63.806 769.4 63.782 769.736 63.758C770.072 63.734 770.39 63.722 770.69 63.722H774.02V65H766.604ZM778.251 65V53.192H785.055V54.452H779.745V58.448H784.245V59.708H779.745V65H778.251ZM788.045 65V64.118C789.773 62.402 791.105 60.98 792.041 59.852C792.977 58.712 793.445 57.68 793.445 56.756C793.445 56.096 793.265 55.556 792.905 55.136C792.545 54.716 791.999 54.506 791.267 54.506C790.787 54.506 790.343 54.644 789.935 54.92C789.527 55.184 789.155 55.508 788.819 55.892L787.973 55.046C788.453 54.53 788.963 54.11 789.503 53.786C790.055 53.462 790.703 53.3 791.447 53.3C792.515 53.3 793.355 53.612 793.967 54.236C794.579 54.848 794.885 55.664 794.885 56.684C794.885 57.764 794.441 58.868 793.553 59.996C792.677 61.124 791.561 62.402 790.205 63.83C790.517 63.806 790.841 63.782 791.177 63.758C791.513 63.734 791.831 63.722 792.131 63.722H795.461V65H788.045Z" fill="black"/>
<path d="M726.168 237.302H728.544L728.868 234.638H726.492L726.168 237.302ZM724.62 242L725.07 238.328H723.63V237.302H725.196L725.52 234.638H723.99V233.594H725.646L726.06 230.3H727.014L726.6 233.594H728.994L729.426 230.3H730.38L729.948 233.594H731.406V234.638H729.84L729.516 237.302H731.046V238.328H729.39L728.94 242H727.986L728.418 238.328H726.042L725.592 242H724.62ZM737.995 242.216C737.083 242.216 736.321 242.054 735.709 241.73C735.097 241.394 734.599 241.016 734.215 240.596L734.971 239.624C735.307 239.984 735.709 240.302 736.177 240.578C736.657 240.854 737.233 240.992 737.905 240.992C738.601 240.992 739.171 240.8 739.615 240.416C740.059 240.032 740.281 239.522 740.281 238.886C740.281 238.202 740.011 237.65 739.471 237.23C738.931 236.81 737.977 236.6 736.609 236.6V235.466C737.833 235.466 738.679 235.262 739.147 234.854C739.627 234.434 739.867 233.924 739.867 233.324C739.867 232.772 739.687 232.334 739.327 232.01C738.979 231.674 738.499 231.506 737.887 231.506C737.407 231.506 736.963 231.62 736.555 231.848C736.147 232.064 735.775 232.34 735.439 232.676L734.647 231.74C735.091 231.332 735.583 230.99 736.123 230.714C736.663 230.438 737.269 230.3 737.941 230.3C738.937 230.3 739.759 230.558 740.407 231.074C741.055 231.578 741.379 232.292 741.379 233.216C741.379 233.912 741.187 234.482 740.803 234.926C740.419 235.37 739.915 235.712 739.291 235.952V236.024C739.987 236.192 740.575 236.522 741.055 237.014C741.535 237.506 741.775 238.148 741.775 238.94C741.775 239.96 741.409 240.764 740.677 241.352C739.945 241.928 739.051 242.216 737.995 242.216ZM748.977 242.216C747.825 242.216 746.919 241.7 746.259 240.668C745.611 239.636 745.287 238.154 745.287 236.222C745.287 234.29 745.611 232.82 746.259 231.812C746.919 230.804 747.825 230.3 748.977 230.3C750.117 230.3 751.011 230.804 751.659 231.812C752.319 232.82 752.649 234.29 752.649 236.222C752.649 238.154 752.319 239.636 751.659 240.668C751.011 241.7 750.117 242.216 748.977 242.216ZM748.977 241.028C749.637 241.028 750.171 240.65 750.579 239.894C750.999 239.126 751.209 237.902 751.209 236.222C751.209 234.542 750.999 233.336 750.579 232.604C750.171 231.86 749.637 231.488 748.977 231.488C748.305 231.488 747.759 231.86 747.339 232.604C746.931 233.336 746.727 234.542 746.727 236.222C746.727 237.902 746.931 239.126 747.339 239.894C747.759 240.65 748.305 241.028 748.977 241.028ZM759.49 242.216C758.578 242.216 757.816 242.054 757.204 241.73C756.592 241.394 756.094 241.016 755.71 240.596L756.466 239.624C756.802 239.984 757.204 240.302 757.672 240.578C758.152 240.854 758.728 240.992 759.4 240.992C760.096 240.992 760.666 240.8 761.11 240.416C761.554 240.032 761.776 239.522 761.776 238.886C761.776 238.202 761.506 237.65 760.966 237.23C760.426 236.81 759.472 236.6 758.104 236.6V235.466C759.328 235.466 760.174 235.262 760.642 234.854C761.122 234.434 761.362 233.924 761.362 233.324C761.362 232.772 761.182 232.334 760.822 232.01C760.474 231.674 759.994 231.506 759.382 231.506C758.902 231.506 758.458 231.62 758.05 231.848C757.642 232.064 757.27 232.34 756.934 232.676L756.142 231.74C756.586 231.332 757.078 230.99 757.618 230.714C758.158 230.438 758.764 230.3 759.436 230.3C760.432 230.3 761.254 230.558 761.902 231.074C762.55 231.578 762.874 232.292 762.874 233.216C762.874 233.912 762.682 234.482 762.298 234.926C761.914 235.37 761.41 235.712 760.786 235.952V236.024C761.482 236.192 762.07 236.522 762.55 237.014C763.03 237.506 763.27 238.148 763.27 238.94C763.27 239.96 762.904 240.764 762.172 241.352C761.44 241.928 760.546 242.216 759.49 242.216ZM770.471 242.216C769.319 242.216 768.413 241.7 767.753 240.668C767.105 239.636 766.781 238.154 766.781 236.222C766.781 234.29 767.105 232.82 767.753 231.812C768.413 230.804 769.319 230.3 770.471 230.3C771.611 230.3 772.505 230.804 773.153 231.812C773.813 232.82 774.143 234.29 774.143 236.222C774.143 238.154 773.813 239.636 773.153 240.668C772.505 241.7 771.611 242.216 770.471 242.216ZM770.471 241.028C771.131 241.028 771.665 240.65 772.073 239.894C772.493 239.126 772.703 237.902 772.703 236.222C772.703 234.542 772.493 233.336 772.073 232.604C771.665 231.86 771.131 231.488 770.471 231.488C769.799 231.488 769.253 231.86 768.833 232.604C768.425 233.336 768.221 234.542 768.221 236.222C768.221 237.902 768.425 239.126 768.833 239.894C769.253 240.65 769.799 241.028 770.471 241.028ZM780.984 242.216C780.072 242.216 779.31 242.054 778.698 241.73C778.086 241.394 777.588 241.016 777.204 240.596L777.96 239.624C778.296 239.984 778.698 240.302 779.166 240.578C779.646 240.854 780.222 240.992 780.894 240.992C781.59 240.992 782.16 240.8 782.604 240.416C783.048 240.032 783.27 239.522 783.27 238.886C783.27 238.202 783 237.65 782.46 237.23C781.92 236.81 780.966 236.6 779.598 236.6V235.466C780.822 235.466 781.668 235.262 782.136 234.854C782.616 234.434 782.856 233.924 782.856 233.324C782.856 232.772 782.676 232.334 782.316 232.01C781.968 231.674 781.488 231.506 780.876 231.506C780.396 231.506 779.952 231.62 779.544 231.848C779.136 232.064 778.764 232.34 778.428 232.676L777.636 231.74C778.08 231.332 778.572 230.99 779.112 230.714C779.652 230.438 780.258 230.3 780.93 230.3C781.926 230.3 782.748 230.558 783.396 231.074C784.044 231.578 784.368 232.292 784.368 233.216C784.368 233.912 784.176 234.482 783.792 234.926C783.408 235.37 782.904 235.712 782.28 235.952V236.024C782.976 236.192 783.564 236.522 784.044 237.014C784.524 237.506 784.764 238.148 784.764 238.94C784.764 239.96 784.398 240.764 783.666 241.352C782.934 241.928 782.04 242.216 780.984 242.216ZM791.966 242.216C790.814 242.216 789.908 241.7 789.248 240.668C788.6 239.636 788.276 238.154 788.276 236.222C788.276 234.29 788.6 232.82 789.248 231.812C789.908 230.804 790.814 230.3 791.966 230.3C793.106 230.3 794 230.804 794.648 231.812C795.308 232.82 795.638 234.29 795.638 236.222C795.638 238.154 795.308 239.636 794.648 240.668C794 241.7 793.106 242.216 791.966 242.216ZM791.966 241.028C792.626 241.028 793.16 240.65 793.568 239.894C793.988 239.126 794.198 237.902 794.198 236.222C794.198 234.542 793.988 233.336 793.568 232.604C793.16 231.86 792.626 231.488 791.966 231.488C791.294 231.488 790.748 231.86 790.328 232.604C789.92 233.336 789.716 234.542 789.716 236.222C789.716 237.902 789.92 239.126 790.328 239.894C790.748 240.65 791.294 241.028 791.966 241.028Z" fill="white"/>
<path d="M902.168 60.302H904.544L904.868 57.638H902.492L902.168 60.302ZM900.62 65L901.07 61.328H899.63V60.302H901.196L901.52 57.638H899.99V56.594H901.646L902.06 53.3H903.014L902.6 56.594H904.994L905.426 53.3H906.38L905.948 56.594H907.406V57.638H905.84L905.516 60.302H907.046V61.328H905.39L904.94 65H903.986L904.418 61.328H902.042L901.592 65H900.62ZM911.367 65V53.192H918.171V54.452H912.861V58.448H917.361V59.708H912.861V65H911.367ZM922.062 65V53.192H928.866V54.452H923.556V58.448H928.056V59.708H923.556V65H922.062ZM932.756 65V53.192H939.56V54.452H934.25V58.448H938.75V59.708H934.25V65H932.756ZM943.451 65V53.192H950.255V54.452H944.945V58.448H949.445V59.708H944.945V65H943.451ZM954.145 65V53.192H960.949V54.452H955.639V58.448H960.139V59.708H955.639V65H954.145ZM964.84 65V53.192H971.644V54.452H966.334V58.448H970.834V59.708H966.334V65H964.84Z" fill="black"/>
<path d="M902.168 237.302H904.544L904.868 234.638H902.492L902.168 237.302ZM900.62 242L901.07 238.328H899.63V237.302H901.196L901.52 234.638H899.99V233.594H901.646L902.06 230.3H903.014L902.6 233.594H904.994L905.426 230.3H906.38L905.948 233.594H907.406V234.638H905.84L905.516 237.302H907.046V238.328H905.39L904.94 242H903.986L904.418 238.328H902.042L901.592 242H900.62ZM913.995 242.216C913.083 242.216 912.321 242.054 911.709 241.73C911.097 241.394 910.599 241.016 910.215 240.596L910.971 239.624C911.307 239.984 911.709 240.302 912.177 240.578C912.657 240.854 913.233 240.992 913.905 240.992C914.601 240.992 915.171 240.8 915.615 240.416C916.059 240.032 916.281 239.522 916.281 238.886C916.281 238.202 916.011 237.65 915.471 237.23C914.931 236.81 913.977 236.6 912.609 236.6V235.466C913.833 235.466 914.679 235.262 915.147 234.854C915.627 234.434 915.867 233.924 915.867 233.324C915.867 232.772 915.687 232.334 915.327 232.01C914.979 231.674 914.499 231.506 913.887 231.506C913.407 231.506 912.963 231.62 912.555 231.848C912.147 232.064 911.775 232.34 911.439 232.676L910.647 231.74C911.091 231.332 911.583 230.99 912.123 230.714C912.663 230.438 913.269 230.3 913.941 230.3C914.937 230.3 915.759 230.558 916.407 231.074C917.055 231.578 917.379 232.292 917.379 233.216C917.379 233.912 917.187 234.482 916.803 234.926C916.419 235.37 915.915 235.712 915.291 235.952V236.024C915.987 236.192 916.575 236.522 917.055 237.014C917.535 237.506 917.775 238.148 917.775 238.94C917.775 239.96 917.409 240.764 916.677 241.352C915.945 241.928 915.051 242.216 913.995 242.216ZM922.115 242V230.192H925.067C926.891 230.192 928.277 230.702 929.225 231.722C930.173 232.73 930.647 234.17 930.647 236.042C930.647 237.926 930.173 239.39 929.225 240.434C928.277 241.478 926.915 242 925.139 242H922.115ZM923.609 240.776H924.959C926.339 240.776 927.371 240.362 928.055 239.534C928.751 238.706 929.099 237.542 929.099 236.042C929.099 234.554 928.751 233.414 928.055 232.622C927.371 231.818 926.339 231.416 924.959 231.416H923.609V240.776ZM937.617 242.216C936.705 242.216 935.943 242.054 935.331 241.73C934.719 241.394 934.221 241.016 933.837 240.596L934.593 239.624C934.929 239.984 935.331 240.302 935.799 240.578C936.279 240.854 936.855 240.992 937.527 240.992C938.223 240.992 938.793 240.8 939.237 240.416C939.681 240.032 939.903 239.522 939.903 238.886C939.903 238.202 939.633 237.65 939.093 237.23C938.553 236.81 937.599 236.6 936.231 236.6V235.466C937.455 235.466 938.301 235.262 938.769 234.854C939.249 234.434 939.489 233.924 939.489 233.324C939.489 232.772 939.309 232.334 938.949 232.01C938.601 231.674 938.121 231.506 937.509 231.506C937.029 231.506 936.585 231.62 936.177 231.848C935.769 232.064 935.397 232.34 935.061 232.676L934.269 231.74C934.713 231.332 935.205 230.99 935.745 230.714C936.285 230.438 936.891 230.3 937.563 230.3C938.559 230.3 939.381 230.558 940.029 231.074C940.677 231.578 941.001 232.292 941.001 233.216C941.001 233.912 940.809 234.482 940.425 234.926C940.041 235.37 939.537 235.712 938.913 235.952V236.024C939.609 236.192 940.197 236.522 940.677 237.014C941.157 237.506 941.397 238.148 941.397 238.94C941.397 239.96 941.031 240.764 940.299 241.352C939.567 241.928 938.673 242.216 937.617 242.216ZM945.736 242V230.192H948.688C950.512 230.192 951.898 230.702 952.846 231.722C953.794 232.73 954.268 234.17 954.268 236.042C954.268 237.926 953.794 239.39 952.846 240.434C951.898 241.478 950.536 242 948.76 242H945.736ZM947.23 240.776H948.58C949.96 240.776 950.992 240.362 951.676 239.534C952.372 238.706 952.72 237.542 952.72 236.042C952.72 234.554 952.372 233.414 951.676 232.622C950.992 231.818 949.96 231.416 948.58 231.416H947.23V240.776ZM961.238 242.216C960.326 242.216 959.564 242.054 958.952 241.73C958.34 241.394 957.842 241.016 957.458 240.596L958.214 239.624C958.55 239.984 958.952 240.302 959.42 240.578C959.9 240.854 960.476 240.992 961.148 240.992C961.844 240.992 962.414 240.8 962.858 240.416C963.302 240.032 963.524 239.522 963.524 238.886C963.524 238.202 963.254 237.65 962.714 237.23C962.174 236.81 961.22 236.6 959.852 236.6V235.466C961.076 235.466 961.922 235.262 962.39 234.854C962.87 234.434 963.11 233.924 963.11 233.324C963.11 232.772 962.93 232.334 962.57 232.01C962.222 231.674 961.742 231.506 961.13 231.506C960.65 231.506 960.206 231.62 959.798 231.848C959.39 232.064 959.018 232.34 958.682 232.676L957.89 231.74C958.334 231.332 958.826 230.99 959.366 230.714C959.906 230.438 960.512 230.3 961.184 230.3C962.18 230.3 963.002 230.558 963.65 231.074C964.298 231.578 964.622 232.292 964.622 233.216C964.622 233.912 964.43 234.482 964.046 234.926C963.662 235.37 963.158 235.712 962.534 235.952V236.024C963.23 236.192 963.818 236.522 964.298 237.014C964.778 237.506 965.018 238.148 965.018 238.94C965.018 239.96 964.652 240.764 963.92 241.352C963.188 241.928 962.294 242.216 961.238 242.216ZM969.358 242V230.192H972.31C974.134 230.192 975.52 230.702 976.468 231.722C977.416 232.73 977.89 234.17 977.89 236.042C977.89 237.926 977.416 239.39 976.468 240.434C975.52 241.478 974.158 242 972.382 242H969.358ZM970.852 240.776H972.202C973.582 240.776 974.614 240.362 975.298 239.534C975.994 238.706 976.342 237.542 976.342 236.042C976.342 234.554 975.994 233.414 975.298 232.622C974.614 231.818 973.582 231.416 972.202 231.416H970.852V240.776Z" fill="white"/>
</svg>
