<svg width="1060" height="353" fill="none" xmlns="http://www.w3.org/2000/svg"><path d="M0 177h353v176H24c-13.255 0-24-10.745-24-24V177Z" fill="#0C0C0C"/><path d="M0 24C0 10.745 10.745 0 24 0h329v177H0V24Z" fill="#CCC"/><path fill="#D9D9D9" d="M353 0h177v177H353z"/><path fill="#E6E6E6" d="M530 0h177v177H530z"/><path fill="#F2F2F2" d="M707 0h176v177H707z"/><path d="M883 0h153c13.25 0 24 10.745 24 24v153H883V0Z" fill="#fff"/><path fill="#181818" d="M353 177h177v176H353z"/><path fill="#242424" d="M530 177h177v176H530z"/><path fill="#303030" d="M707 177h176v176H707z"/><path d="M883 177h177v152c0 13.255-10.75 24-24 24H883V177Z" fill="#3D3D3D"/><path d="M17.386 210v-11.736h3.312c1.788 0 3.216.468 4.284 1.404 1.068.924 1.602 2.394 1.602 4.41s-.528 3.51-1.584 4.482c-1.056.96-2.442 1.44-4.158 1.44h-3.456Zm2.646-2.142h.504c.996 0 1.8-.276 2.412-.828.612-.564.918-1.548.918-2.952s-.306-2.364-.918-2.88c-.612-.528-1.416-.792-2.412-.792h-.504v7.452Zm13.514.306c.3 0 .558-.066.774-.198a3.11 3.11 0 0 0 .684-.558v-1.566c-.936.132-1.584.324-1.944.576-.36.252-.54.552-.54.9 0 .564.342.846 1.026.846Zm-.9 2.052c-.816 0-1.464-.258-1.944-.774-.48-.528-.72-1.17-.72-1.926 0-.936.396-1.668 1.188-2.196.792-.528 2.07-.882 3.834-1.062-.024-.396-.144-.708-.36-.936-.204-.24-.552-.36-1.044-.36-.372 0-.75.072-1.134.216a8.09 8.09 0 0 0-1.224.594l-.954-1.746a8.813 8.813 0 0 1 1.8-.846 6.226 6.226 0 0 1 2.016-.324c1.14 0 2.016.33 2.628.99.612.66.918 1.674.918 3.042V210h-2.16l-.18-.918h-.072a6 6 0 0 1-1.206.828 3.13 3.13 0 0 1-1.386.306Zm9.042-.216v-8.928h2.16l.18 1.566h.072c.324-.6.714-1.044 1.17-1.332.456-.3.912-.45 1.368-.45.252 0 .456.018.612.054.168.036.318.078.45.126l-.432 2.286a3.101 3.101 0 0 0-.972-.144c-.336 0-.69.126-1.062.378-.36.24-.66.66-.9 1.26V210h-2.646Zm8.972 0v-12.618h2.574v7.236h.072l2.826-3.546h2.88l-3.132 3.672L59.246 210h-2.862l-2.016-3.474-1.134 1.278V210H50.66Zm20.34.216c-.935 0-1.733-.156-2.393-.468a5.924 5.924 0 0 1-1.638-1.134l1.188-1.674a6.29 6.29 0 0 0 1.134.81c.408.216.852.324 1.332.324.588 0 1.056-.15 1.404-.45.348-.3.522-.744.522-1.332 0-.576-.168-1.014-.504-1.314-.336-.3-.768-.45-1.296-.45-.336 0-.618.042-.846.126a5.512 5.512 0 0 0-.846.45l-1.188-.756.324-5.778h6.48v2.232h-4.194l-.198 2.142c.396-.18.822-.27 1.278-.27.984 0 1.836.288 2.556.864.72.576 1.08 1.47 1.08 2.682 0 1.272-.42 2.256-1.26 2.952-.84.696-1.818 1.044-2.934 1.044Zm11.617 0c-1.225 0-2.215-.51-2.97-1.53-.745-1.02-1.117-2.502-1.117-4.446s.373-3.408 1.117-4.392c.755-.996 1.745-1.494 2.97-1.494 1.224 0 2.207.498 2.951 1.494.757.984 1.135 2.448 1.135 4.392 0 1.944-.379 3.426-1.135 4.446-.743 1.02-1.727 1.53-2.951 1.53Zm0-2.052c.456 0 .834-.264 1.133-.792.3-.528.45-1.572.45-3.132s-.15-2.586-.45-3.078c-.3-.504-.677-.756-1.133-.756-.445 0-.823.252-1.135.756-.3.492-.45 1.518-.45 3.078 0 1.56.15 2.604.45 3.132.313.528.69.792 1.135.792Zm11.31 2.052c-1.225 0-2.215-.51-2.97-1.53-.745-1.02-1.117-2.502-1.117-4.446s.372-3.408 1.116-4.392c.756-.996 1.746-1.494 2.97-1.494 1.224 0 2.208.498 2.952 1.494.756.984 1.134 2.448 1.134 4.392 0 1.944-.378 3.426-1.134 4.446-.744 1.02-1.728 1.53-2.952 1.53Zm0-2.052c.455 0 .833-.264 1.133-.792.3-.528.45-1.572.45-3.132s-.15-2.586-.45-3.078c-.3-.504-.678-.756-1.134-.756-.444 0-.822.252-1.134.756-.3.492-.45 1.518-.45 3.078 0 1.56.15 2.604.45 3.132.312.528.69.792 1.134.792Z" fill="#fff"/><path d="m18.43 33-2.178-11.736h2.718l.81 5.49c.072.612.15 1.23.234 1.854.084.612.162 1.23.234 1.854h.072c.12-.624.234-1.242.342-1.854.12-.624.24-1.242.36-1.854l1.26-5.49h2.25l1.26 5.49c.12.588.234 1.194.342 1.818.12.624.24 1.254.36 1.89h.072c.084-.636.162-1.26.234-1.872.084-.624.168-1.236.252-1.836l.81-5.49H30.4L28.312 33h-3.33l-1.152-5.328a55.053 55.053 0 0 1-.27-1.368 93.296 93.296 0 0 1-.198-1.35h-.072c-.072.432-.15.882-.234 1.35a27.33 27.33 0 0 1-.252 1.368L21.706 33H18.43Zm15.183 0V20.382h2.646v3.096l-.126 1.602c.336-.3.726-.576 1.17-.828.456-.264.984-.396 1.584-.396.972 0 1.674.324 2.106.972.444.636.666 1.512.666 2.628V33h-2.646v-5.202c0-.648-.09-1.092-.27-1.332-.168-.24-.444-.36-.828-.36a1.55 1.55 0 0 0-.864.234c-.24.144-.504.354-.792.63V33h-2.646ZM47.01 22.758c-.444 0-.81-.126-1.098-.378a1.307 1.307 0 0 1-.432-1.008c0-.408.144-.738.432-.99.288-.252.654-.378 1.098-.378.456 0 .822.126 1.098.378.288.252.432.582.432.99 0 .408-.144.744-.432 1.008-.276.252-.642.378-1.098.378ZM45.696 33v-8.928h2.646V33h-2.646Zm10.212.216c-1.104 0-1.896-.318-2.376-.954-.468-.636-.702-1.47-.702-2.502v-3.618h-1.224V24.18l1.368-.108.306-2.376h2.196v2.376h2.142v2.07h-2.142v3.582c0 .948.384 1.422 1.152 1.422.144 0 .288-.018.432-.054.156-.036.294-.078.414-.126l.414 1.926c-.24.072-.522.144-.846.216a5.273 5.273 0 0 1-1.134.108Zm8.933 0c-1.284 0-2.358-.408-3.222-1.224-.864-.828-1.296-1.98-1.296-3.456 0-.96.198-1.788.594-2.484.408-.708.93-1.248 1.566-1.62a3.963 3.963 0 0 1 2.052-.576c1.272 0 2.22.414 2.844 1.242.636.816.954 1.83.954 3.042 0 .492-.036.882-.108 1.17h-5.346c.12.648.39 1.128.81 1.44.42.3.924.45 1.512.45.636 0 1.278-.198 1.926-.594l.882 1.602c-.984.672-2.04 1.008-3.168 1.008Zm-1.98-5.652h3.222c0-.492-.12-.894-.36-1.206-.228-.324-.606-.486-1.134-.486-.42 0-.792.144-1.116.432-.324.276-.528.696-.612 1.26Zm17.78 5.652c-.937 0-1.735-.156-2.395-.468a5.924 5.924 0 0 1-1.637-1.134l1.188-1.674a6.29 6.29 0 0 0 1.133.81c.408.216.852.324 1.332.324.588 0 1.056-.15 1.404-.45.349-.3.523-.744.523-1.332 0-.576-.168-1.014-.504-1.314-.337-.3-.769-.45-1.297-.45-.336 0-.618.042-.846.126a5.512 5.512 0 0 0-.846.45l-1.188-.756.325-5.778h6.48v2.232h-4.195l-.197 2.142c.395-.18.822-.27 1.277-.27.985 0 1.837.288 2.556.864.72.576 1.08 1.47 1.08 2.682 0 1.272-.42 2.256-1.26 2.952-.84.696-1.817 1.044-2.933 1.044Zm11.615 0c-1.224 0-2.214-.51-2.97-1.53-.744-1.02-1.116-2.502-1.116-4.446s.372-3.408 1.116-4.392c.756-.996 1.746-1.494 2.97-1.494 1.224 0 2.208.498 2.952 1.494.756.984 1.134 2.448 1.134 4.392 0 1.944-.378 3.426-1.134 4.446-.744 1.02-1.728 1.53-2.952 1.53Zm0-2.052c.456 0 .834-.264 1.134-.792.3-.528.45-1.572.45-3.132s-.15-2.586-.45-3.078c-.3-.504-.678-.756-1.134-.756-.444 0-.822.252-1.134.756-.3.492-.45 1.518-.45 3.078 0 1.56.15 2.604.45 3.132.312.528.69.792 1.134.792Zm11.31 2.052c-1.224 0-2.214-.51-2.97-1.53-.744-1.02-1.116-2.502-1.116-4.446s.372-3.408 1.116-4.392c.756-.996 1.746-1.494 2.97-1.494 1.224 0 2.208.498 2.952 1.494.756.984 1.134 2.448 1.134 4.392 0 1.944-.378 3.426-1.134 4.446-.744 1.02-1.728 1.53-2.952 1.53Zm0-2.052c.456 0 .834-.264 1.134-.792.3-.528.45-1.572.45-3.132s-.15-2.586-.45-3.078c-.3-.504-.678-.756-1.134-.756-.444 0-.822.252-1.134.756-.3.492-.45 1.518-.45 3.078 0 1.56.15 2.604.45 3.132.312.528.69.792 1.134.792Z" fill="#000"/><path d="M370.62 210v-11.808h2.952c1.824 0 3.21.51 4.158 1.53.948 1.008 1.422 2.448 1.422 4.32 0 1.884-.474 3.348-1.422 4.392-.948 1.044-2.31 1.566-4.086 1.566h-3.024Zm1.494-1.224h1.35c1.38 0 2.412-.414 3.096-1.242.696-.828 1.044-1.992 1.044-3.492 0-1.488-.348-2.628-1.044-3.42-.684-.804-1.716-1.206-3.096-1.206h-1.35v9.36Zm13.684.252c.42 0 .816-.102 1.188-.306a6.67 6.67 0 0 0 1.188-.864v-2.43c-1.464.18-2.484.456-3.06.828-.576.36-.864.816-.864 1.368 0 .492.15.852.45 1.08.3.216.666.324 1.098.324Zm-.432 1.188c-.732 0-1.344-.216-1.836-.648-.48-.444-.72-1.056-.72-1.836 0-.96.426-1.692 1.278-2.196.864-.516 2.226-.876 4.086-1.08 0-.552-.12-1.056-.36-1.512-.24-.456-.72-.684-1.44-.684-.504 0-.978.096-1.422.288-.444.192-.84.408-1.188.648l-.576-1.026a9.08 9.08 0 0 1 1.494-.756 4.969 4.969 0 0 1 1.944-.378c1.068 0 1.842.33 2.322.99.48.648.72 1.518.72 2.61V210h-1.224l-.126-1.044h-.054c-.42.336-.87.63-1.35.882a3.28 3.28 0 0 1-1.548.378Zm8.855-.216v-8.748h1.224l.126 1.584h.054c.3-.552.666-.99 1.098-1.314.432-.324.894-.486 1.386-.486.348 0 .66.06.936.18l-.288 1.296a3.329 3.329 0 0 0-.396-.108 2.35 2.35 0 0 0-.45-.036c-.372 0-.762.15-1.17.45-.396.3-.744.822-1.044 1.566V210h-1.476Zm8.04 0v-12.816h1.458v8.676h.054l3.726-4.608h1.638l-2.934 3.51 3.33 5.238h-1.62l-2.556-4.212-1.638 1.908V210h-1.458Zm16.511-4.356h3.6v-3.33c0-.3.012-.666.036-1.098.024-.432.042-.804.054-1.116h-.072c-.144.276-.3.546-.468.81-.156.264-.312.534-.468.81l-2.682 3.924Zm6.57 1.188h-1.566V210h-1.404v-3.168h-5.166v-.972l4.914-7.344h1.656v7.128h1.566v1.188Zm6.788 3.384c-1.152 0-2.058-.516-2.718-1.548-.648-1.032-.972-2.514-.972-4.446s.324-3.402.972-4.41c.66-1.008 1.566-1.512 2.718-1.512 1.14 0 2.034.504 2.682 1.512.66 1.008.99 2.478.99 4.41s-.33 3.414-.99 4.446c-.648 1.032-1.542 1.548-2.682 1.548Zm0-1.188c.66 0 1.194-.378 1.602-1.134.42-.768.63-1.992.63-3.672 0-1.68-.21-2.886-.63-3.618-.408-.744-.942-1.116-1.602-1.116-.672 0-1.218.372-1.638 1.116-.408.732-.612 1.938-.612 3.618s.204 2.904.612 3.672c.42.756.966 1.134 1.638 1.134Zm10.747 1.188c-1.152 0-2.058-.516-2.718-1.548-.648-1.032-.972-2.514-.972-4.446s.324-3.402.972-4.41c.66-1.008 1.566-1.512 2.718-1.512 1.14 0 2.034.504 2.682 1.512.66 1.008.99 2.478.99 4.41s-.33 3.414-.99 4.446c-.648 1.032-1.542 1.548-2.682 1.548Zm0-1.188c.66 0 1.194-.378 1.602-1.134.42-.768.63-1.992.63-3.672 0-1.68-.21-2.886-.63-3.618-.408-.744-.942-1.116-1.602-1.116-.672 0-1.218.372-1.638 1.116-.408.732-.612 1.938-.612 3.618s.204 2.904.612 3.672c.42.756.966 1.134 1.638 1.134Z" fill="#fff"/><path d="m371.43 33-2.178-11.736h2.718l.81 5.49c.072.612.15 1.23.234 1.854.084.612.162 1.23.234 1.854h.072c.12-.624.234-1.242.342-1.854.12-.624.24-1.242.36-1.854l1.26-5.49h2.25l1.26 5.49c.12.588.234 1.194.342 1.818.12.624.24 1.254.36 1.89h.072c.084-.636.162-1.26.234-1.872.084-.624.168-1.236.252-1.836l.81-5.49h2.538L381.312 33h-3.33l-1.152-5.328a55.053 55.053 0 0 1-.27-1.368 93.296 93.296 0 0 1-.198-1.35h-.072c-.072.432-.15.882-.234 1.35a27.33 27.33 0 0 1-.252 1.368L374.706 33h-3.276Zm15.183 0V20.382h2.646v3.096l-.126 1.602c.336-.3.726-.576 1.17-.828.456-.264.984-.396 1.584-.396.972 0 1.674.324 2.106.972.444.636.666 1.512.666 2.628V33h-2.646v-5.202c0-.648-.09-1.092-.27-1.332-.168-.24-.444-.36-.828-.36a1.55 1.55 0 0 0-.864.234c-.24.144-.504.354-.792.63V33h-2.646Zm13.397-10.242c-.444 0-.81-.126-1.098-.378a1.307 1.307 0 0 1-.432-1.008c0-.408.144-.738.432-.99.288-.252.654-.378 1.098-.378.456 0 .822.126 1.098.378.288.252.432.582.432.99 0 .408-.144.744-.432 1.008-.276.252-.642.378-1.098.378ZM398.696 33v-8.928h2.646V33h-2.646Zm10.212.216c-1.104 0-1.896-.318-2.376-.954-.468-.636-.702-1.47-.702-2.502v-3.618h-1.224V24.18l1.368-.108.306-2.376h2.196v2.376h2.142v2.07h-2.142v3.582c0 .948.384 1.422 1.152 1.422.144 0 .288-.018.432-.054.156-.036.294-.078.414-.126l.414 1.926c-.24.072-.522.144-.846.216a5.273 5.273 0 0 1-1.134.108Zm8.933 0c-1.284 0-2.358-.408-3.222-1.224-.864-.828-1.296-1.98-1.296-3.456 0-.96.198-1.788.594-2.484.408-.708.93-1.248 1.566-1.62a3.963 3.963 0 0 1 2.052-.576c1.272 0 2.22.414 2.844 1.242.636.816.954 1.83.954 3.042 0 .492-.036.882-.108 1.17h-5.346c.12.648.39 1.128.81 1.44.42.3.924.45 1.512.45.636 0 1.278-.198 1.926-.594l.882 1.602c-.984.672-2.04 1.008-3.168 1.008Zm-1.98-5.652h3.222c0-.492-.12-.894-.36-1.206-.228-.324-.606-.486-1.134-.486-.42 0-.792.144-1.116.432-.324.276-.528.696-.612 1.26Zm16.214.684h2.412v-1.854c0-.372.012-.798.036-1.278.024-.492.048-.918.072-1.278h-.072c-.144.312-.294.63-.45.954-.156.324-.318.648-.486.972l-1.512 2.484Zm6.192 2.016h-1.314V33h-2.466v-2.736h-4.95v-1.818l4.176-6.876h3.24v6.678h1.314v2.016Zm6.989 2.952c-1.224 0-2.214-.51-2.97-1.53-.744-1.02-1.116-2.502-1.116-4.446s.372-3.408 1.116-4.392c.756-.996 1.746-1.494 2.97-1.494 1.224 0 2.208.498 2.952 1.494.756.984 1.134 2.448 1.134 4.392 0 1.944-.378 3.426-1.134 4.446-.744 1.02-1.728 1.53-2.952 1.53Zm0-2.052c.456 0 .834-.264 1.134-.792.3-.528.45-1.572.45-3.132s-.15-2.586-.45-3.078c-.3-.504-.678-.756-1.134-.756-.444 0-.822.252-1.134.756-.3.492-.45 1.518-.45 3.078 0 1.56.15 2.604.45 3.132.312.528.69.792 1.134.792Zm11.31 2.052c-1.224 0-2.214-.51-2.97-1.53-.744-1.02-1.116-2.502-1.116-4.446s.372-3.408 1.116-4.392c.756-.996 1.746-1.494 2.97-1.494 1.224 0 2.208.498 2.952 1.494.756.984 1.134 2.448 1.134 4.392 0 1.944-.378 3.426-1.134 4.446-.744 1.02-1.728 1.53-2.952 1.53Zm0-2.052c.456 0 .834-.264 1.134-.792.3-.528.45-1.572.45-3.132s-.15-2.586-.45-3.078c-.3-.504-.678-.756-1.134-.756-.444 0-.822.252-1.134.756-.3.492-.45 1.518-.45 3.078 0 1.56.15 2.604.45 3.132.312.528.69.792 1.134.792Z" fill="#000"/><path d="M547.62 210v-11.808h2.952c1.824 0 3.21.51 4.158 1.53.948 1.008 1.422 2.448 1.422 4.32 0 1.884-.474 3.348-1.422 4.392-.948 1.044-2.31 1.566-4.086 1.566h-3.024Zm1.494-1.224h1.35c1.38 0 2.412-.414 3.096-1.242.696-.828 1.044-1.992 1.044-3.492 0-1.488-.348-2.628-1.044-3.42-.684-.804-1.716-1.206-3.096-1.206h-1.35v9.36Zm13.684.252c.42 0 .816-.102 1.188-.306a6.67 6.67 0 0 0 1.188-.864v-2.43c-1.464.18-2.484.456-3.06.828-.576.36-.864.816-.864 1.368 0 .492.15.852.45 1.08.3.216.666.324 1.098.324Zm-.432 1.188c-.732 0-1.344-.216-1.836-.648-.48-.444-.72-1.056-.72-1.836 0-.96.426-1.692 1.278-2.196.864-.516 2.226-.876 4.086-1.08 0-.552-.12-1.056-.36-1.512-.24-.456-.72-.684-1.44-.684-.504 0-.978.096-1.422.288-.444.192-.84.408-1.188.648l-.576-1.026a9.08 9.08 0 0 1 1.494-.756 4.969 4.969 0 0 1 1.944-.378c1.068 0 1.842.33 2.322.99.48.648.72 1.518.72 2.61V210h-1.224l-.126-1.044h-.054c-.42.336-.87.63-1.35.882a3.28 3.28 0 0 1-1.548.378Zm8.855-.216v-8.748h1.224l.126 1.584h.054c.3-.552.666-.99 1.098-1.314.432-.324.894-.486 1.386-.486.348 0 .66.06.936.18l-.288 1.296a3.329 3.329 0 0 0-.396-.108 2.35 2.35 0 0 0-.45-.036c-.372 0-.762.15-1.17.45-.396.3-.744.822-1.044 1.566V210h-1.476Zm8.04 0v-12.816h1.458v8.676h.054l3.726-4.608h1.638l-2.934 3.51 3.33 5.238h-1.62l-2.556-4.212-1.638 1.908V210h-1.458Zm18.887.216c-.912 0-1.674-.162-2.286-.486-.612-.336-1.11-.714-1.494-1.134l.756-.972c.336.36.738.678 1.206.954.48.276 1.056.414 1.728.414.696 0 1.266-.192 1.71-.576.444-.384.666-.894.666-1.53 0-.684-.27-1.236-.81-1.656-.54-.42-1.494-.63-2.862-.63v-1.134c1.224 0 2.07-.204 2.538-.612.48-.42.72-.93.72-1.53 0-.552-.18-.99-.54-1.314-.348-.336-.828-.504-1.44-.504-.48 0-.924.114-1.332.342-.408.216-.78.492-1.116.828l-.792-.936c.444-.408.936-.75 1.476-1.026.54-.276 1.146-.414 1.818-.414.996 0 1.818.258 2.466.774.648.504.972 1.218.972 2.142 0 .696-.192 1.266-.576 1.71-.384.444-.888.786-1.512 1.026v.072a3.585 3.585 0 0 1 1.764.99c.48.492.72 1.134.72 1.926 0 1.02-.366 1.824-1.098 2.412-.732.576-1.626.864-2.682.864Zm10.982 0c-1.152 0-2.058-.516-2.718-1.548-.648-1.032-.972-2.514-.972-4.446s.324-3.402.972-4.41c.66-1.008 1.566-1.512 2.718-1.512 1.14 0 2.034.504 2.682 1.512.66 1.008.99 2.478.99 4.41s-.33 3.414-.99 4.446c-.648 1.032-1.542 1.548-2.682 1.548Zm0-1.188c.66 0 1.194-.378 1.602-1.134.42-.768.63-1.992.63-3.672 0-1.68-.21-2.886-.63-3.618-.408-.744-.942-1.116-1.602-1.116-.672 0-1.218.372-1.638 1.116-.408.732-.612 1.938-.612 3.618s.204 2.904.612 3.672c.42.756.966 1.134 1.638 1.134Zm10.747 1.188c-1.152 0-2.058-.516-2.718-1.548-.648-1.032-.972-2.514-.972-4.446s.324-3.402.972-4.41c.66-1.008 1.566-1.512 2.718-1.512 1.14 0 2.034.504 2.682 1.512.66 1.008.99 2.478.99 4.41s-.33 3.414-.99 4.446c-.648 1.032-1.542 1.548-2.682 1.548Zm0-1.188c.66 0 1.194-.378 1.602-1.134.42-.768.63-1.992.63-3.672 0-1.68-.21-2.886-.63-3.618-.408-.744-.942-1.116-1.602-1.116-.672 0-1.218.372-1.638 1.116-.408.732-.612 1.938-.612 3.618s.204 2.904.612 3.672c.42.756.966 1.134 1.638 1.134Z" fill="#fff"/><path d="m548.43 33-2.178-11.736h2.718l.81 5.49c.072.612.15 1.23.234 1.854.084.612.162 1.23.234 1.854h.072c.12-.624.234-1.242.342-1.854.12-.624.24-1.242.36-1.854l1.26-5.49h2.25l1.26 5.49c.12.588.234 1.194.342 1.818.12.624.24 1.254.36 1.89h.072c.084-.636.162-1.26.234-1.872.084-.624.168-1.236.252-1.836l.81-5.49h2.538L558.312 33h-3.33l-1.152-5.328a55.053 55.053 0 0 1-.27-1.368 93.296 93.296 0 0 1-.198-1.35h-.072c-.072.432-.15.882-.234 1.35a27.33 27.33 0 0 1-.252 1.368L551.706 33h-3.276Zm15.183 0V20.382h2.646v3.096l-.126 1.602c.336-.3.726-.576 1.17-.828.456-.264.984-.396 1.584-.396.972 0 1.674.324 2.106.972.444.636.666 1.512.666 2.628V33h-2.646v-5.202c0-.648-.09-1.092-.27-1.332-.168-.24-.444-.36-.828-.36a1.55 1.55 0 0 0-.864.234c-.24.144-.504.354-.792.63V33h-2.646Zm13.397-10.242c-.444 0-.81-.126-1.098-.378a1.307 1.307 0 0 1-.432-1.008c0-.408.144-.738.432-.99.288-.252.654-.378 1.098-.378.456 0 .822.126 1.098.378.288.252.432.582.432.99 0 .408-.144.744-.432 1.008-.276.252-.642.378-1.098.378ZM575.696 33v-8.928h2.646V33h-2.646Zm10.212.216c-1.104 0-1.896-.318-2.376-.954-.468-.636-.702-1.47-.702-2.502v-3.618h-1.224V24.18l1.368-.108.306-2.376h2.196v2.376h2.142v2.07h-2.142v3.582c0 .948.384 1.422 1.152 1.422.144 0 .288-.018.432-.054.156-.036.294-.078.414-.126l.414 1.926c-.24.072-.522.144-.846.216a5.273 5.273 0 0 1-1.134.108Zm8.933 0c-1.284 0-2.358-.408-3.222-1.224-.864-.828-1.296-1.98-1.296-3.456 0-.96.198-1.788.594-2.484.408-.708.93-1.248 1.566-1.62a3.963 3.963 0 0 1 2.052-.576c1.272 0 2.22.414 2.844 1.242.636.816.954 1.83.954 3.042 0 .492-.036.882-.108 1.17h-5.346c.12.648.39 1.128.81 1.44.42.3.924.45 1.512.45.636 0 1.278-.198 1.926-.594l.882 1.602c-.984.672-2.04 1.008-3.168 1.008Zm-1.98-5.652h3.222c0-.492-.12-.894-.36-1.206-.228-.324-.606-.486-1.134-.486-.42 0-.792.144-1.116.432-.324.276-.528.696-.612 1.26Zm17.708 5.652c-.924 0-1.716-.15-2.376-.45-.66-.3-1.194-.69-1.602-1.17l1.224-1.674c.336.336.714.612 1.134.828.42.216.876.324 1.368.324.564 0 1.014-.114 1.35-.342.336-.24.504-.576.504-1.008 0-.504-.204-.9-.612-1.188-.408-.3-1.23-.45-2.466-.45v-1.872c1.02 0 1.722-.138 2.106-.414.396-.288.594-.66.594-1.116 0-.84-.468-1.26-1.404-1.26-.408 0-.78.09-1.116.27-.324.18-.666.426-1.026.738l-1.332-1.62a6.444 6.444 0 0 1 1.674-1.062 4.648 4.648 0 0 1 1.926-.396c1.176 0 2.124.276 2.844.828.732.54 1.098 1.308 1.098 2.304 0 1.152-.636 1.998-1.908 2.538v.072c.66.192 1.2.522 1.62.99.432.468.648 1.068.648 1.8 0 1.068-.42 1.89-1.26 2.466-.84.576-1.836.864-2.988.864Zm11.687 0c-1.224 0-2.214-.51-2.97-1.53-.744-1.02-1.116-2.502-1.116-4.446s.372-3.408 1.116-4.392c.756-.996 1.746-1.494 2.97-1.494 1.224 0 2.208.498 2.952 1.494.756.984 1.134 2.448 1.134 4.392 0 1.944-.378 3.426-1.134 4.446-.744 1.02-1.728 1.53-2.952 1.53Zm0-2.052c.456 0 .834-.264 1.134-.792.3-.528.45-1.572.45-3.132s-.15-2.586-.45-3.078c-.3-.504-.678-.756-1.134-.756-.444 0-.822.252-1.134.756-.3.492-.45 1.518-.45 3.078 0 1.56.15 2.604.45 3.132.312.528.69.792 1.134.792Zm11.31 2.052c-1.224 0-2.214-.51-2.97-1.53-.744-1.02-1.116-2.502-1.116-4.446s.372-3.408 1.116-4.392c.756-.996 1.746-1.494 2.97-1.494 1.224 0 2.208.498 2.952 1.494.756.984 1.134 2.448 1.134 4.392 0 1.944-.378 3.426-1.134 4.446-.744 1.02-1.728 1.53-2.952 1.53Zm0-2.052c.456 0 .834-.264 1.134-.792.3-.528.45-1.572.45-3.132s-.15-2.586-.45-3.078c-.3-.504-.678-.756-1.134-.756-.444 0-.822.252-1.134.756-.3.492-.45 1.518-.45 3.078 0 1.56.15 2.604.45 3.132.312.528.69.792 1.134.792Z" fill="#000"/><path d="M724.62 210v-11.808h2.952c1.824 0 3.21.51 4.158 1.53.948 1.008 1.422 2.448 1.422 4.32 0 1.884-.474 3.348-1.422 4.392-.948 1.044-2.31 1.566-4.086 1.566h-3.024Zm1.494-1.224h1.35c1.38 0 2.412-.414 3.096-1.242.696-.828 1.044-1.992 1.044-3.492 0-1.488-.348-2.628-1.044-3.42-.684-.804-1.716-1.206-3.096-1.206h-1.35v9.36Zm13.684.252c.42 0 .816-.102 1.188-.306a6.67 6.67 0 0 0 1.188-.864v-2.43c-1.464.18-2.484.456-3.06.828-.576.36-.864.816-.864 1.368 0 .492.15.852.45 1.08.3.216.666.324 1.098.324Zm-.432 1.188c-.732 0-1.344-.216-1.836-.648-.48-.444-.72-1.056-.72-1.836 0-.96.426-1.692 1.278-2.196.864-.516 2.226-.876 4.086-1.08 0-.552-.12-1.056-.36-1.512-.24-.456-.72-.684-1.44-.684-.504 0-.978.096-1.422.288-.444.192-.84.408-1.188.648l-.576-1.026a9.08 9.08 0 0 1 1.494-.756 4.969 4.969 0 0 1 1.944-.378c1.068 0 1.842.33 2.322.99.48.648.72 1.518.72 2.61V210h-1.224l-.126-1.044h-.054c-.42.336-.87.63-1.35.882a3.28 3.28 0 0 1-1.548.378Zm8.855-.216v-8.748h1.224l.126 1.584h.054c.3-.552.666-.99 1.098-1.314.432-.324.894-.486 1.386-.486.348 0 .66.06.936.18l-.288 1.296a3.329 3.329 0 0 0-.396-.108 2.35 2.35 0 0 0-.45-.036c-.372 0-.762.15-1.17.45-.396.3-.744.822-1.044 1.566V210h-1.476Zm8.04 0v-12.816h1.458v8.676h.054l3.726-4.608h1.638l-2.934 3.51 3.33 5.238h-1.62l-2.556-4.212-1.638 1.908V210h-1.458Zm15.359 0v-.882c1.728-1.716 3.06-3.138 3.996-4.266.936-1.14 1.404-2.172 1.404-3.096 0-.66-.18-1.2-.54-1.62-.36-.42-.906-.63-1.638-.63-.48 0-.924.138-1.332.414-.408.264-.78.588-1.116.972l-.846-.846c.48-.516.99-.936 1.53-1.26.552-.324 1.2-.486 1.944-.486 1.068 0 1.908.312 2.52.936.612.612.918 1.428.918 2.448 0 1.08-.444 2.184-1.332 3.312-.876 1.128-1.992 2.406-3.348 3.834l.972-.072c.336-.024.654-.036.954-.036h3.33V210h-7.416Zm14.51.216c-1.152 0-2.058-.516-2.718-1.548-.648-1.032-.972-2.514-.972-4.446s.324-3.402.972-4.41c.66-1.008 1.566-1.512 2.718-1.512 1.14 0 2.034.504 2.682 1.512.66 1.008.99 2.478.99 4.41s-.33 3.414-.99 4.446c-.648 1.032-1.542 1.548-2.682 1.548Zm0-1.188c.66 0 1.194-.378 1.602-1.134.42-.768.63-1.992.63-3.672 0-1.68-.21-2.886-.63-3.618-.408-.744-.942-1.116-1.602-1.116-.672 0-1.218.372-1.638 1.116-.408.732-.612 1.938-.612 3.618s.204 2.904.612 3.672c.42.756.966 1.134 1.638 1.134Zm10.747 1.188c-1.152 0-2.058-.516-2.718-1.548-.648-1.032-.972-2.514-.972-4.446s.324-3.402.972-4.41c.66-1.008 1.566-1.512 2.718-1.512 1.14 0 2.034.504 2.682 1.512.66 1.008.99 2.478.99 4.41s-.33 3.414-.99 4.446c-.648 1.032-1.542 1.548-2.682 1.548Zm0-1.188c.66 0 1.194-.378 1.602-1.134.42-.768.63-1.992.63-3.672 0-1.68-.21-2.886-.63-3.618-.408-.744-.942-1.116-1.602-1.116-.672 0-1.218.372-1.638 1.116-.408.732-.612 1.938-.612 3.618s.204 2.904.612 3.672c.42.756.966 1.134 1.638 1.134Z" fill="#fff"/><path d="m725.43 33-2.178-11.736h2.718l.81 5.49c.072.612.15 1.23.234 1.854.084.612.162 1.23.234 1.854h.072c.12-.624.234-1.242.342-1.854.12-.624.24-1.242.36-1.854l1.26-5.49h2.25l1.26 5.49c.12.588.234 1.194.342 1.818.12.624.24 1.254.36 1.89h.072c.084-.636.162-1.26.234-1.872.084-.624.168-1.236.252-1.836l.81-5.49h2.538L735.312 33h-3.33l-1.152-5.328a55.053 55.053 0 0 1-.27-1.368 93.296 93.296 0 0 1-.198-1.35h-.072c-.072.432-.15.882-.234 1.35a27.33 27.33 0 0 1-.252 1.368L728.706 33h-3.276Zm15.183 0V20.382h2.646v3.096l-.126 1.602c.336-.3.726-.576 1.17-.828.456-.264.984-.396 1.584-.396.972 0 1.674.324 2.106.972.444.636.666 1.512.666 2.628V33h-2.646v-5.202c0-.648-.09-1.092-.27-1.332-.168-.24-.444-.36-.828-.36a1.55 1.55 0 0 0-.864.234c-.24.144-.504.354-.792.63V33h-2.646Zm13.397-10.242c-.444 0-.81-.126-1.098-.378a1.307 1.307 0 0 1-.432-1.008c0-.408.144-.738.432-.99.288-.252.654-.378 1.098-.378.456 0 .822.126 1.098.378.288.252.432.582.432.99 0 .408-.144.744-.432 1.008-.276.252-.642.378-1.098.378ZM752.696 33v-8.928h2.646V33h-2.646Zm10.212.216c-1.104 0-1.896-.318-2.376-.954-.468-.636-.702-1.47-.702-2.502v-3.618h-1.224V24.18l1.368-.108.306-2.376h2.196v2.376h2.142v2.07h-2.142v3.582c0 .948.384 1.422 1.152 1.422.144 0 .288-.018.432-.054.156-.036.294-.078.414-.126l.414 1.926c-.24.072-.522.144-.846.216a5.273 5.273 0 0 1-1.134.108Zm8.933 0c-1.284 0-2.358-.408-3.222-1.224-.864-.828-1.296-1.98-1.296-3.456 0-.96.198-1.788.594-2.484.408-.708.93-1.248 1.566-1.62a3.963 3.963 0 0 1 2.052-.576c1.272 0 2.22.414 2.844 1.242.636.816.954 1.83.954 3.042 0 .492-.036.882-.108 1.17h-5.346c.12.648.39 1.128.81 1.44.42.3.924.45 1.512.45.636 0 1.278-.198 1.926-.594l.882 1.602c-.984.672-2.04 1.008-3.168 1.008Zm-1.98-5.652h3.222c0-.492-.12-.894-.36-1.206-.228-.324-.606-.486-1.134-.486-.42 0-.792.144-1.116.432-.324.276-.528.696-.612 1.26Zm14 5.436v-1.512c1.452-1.38 2.64-2.574 3.564-3.582.936-1.02 1.404-1.938 1.404-2.754 0-.552-.15-.978-.45-1.278-.288-.3-.678-.45-1.17-.45-.42 0-.792.12-1.116.36-.324.24-.63.51-.918.81l-1.44-1.422c.564-.6 1.14-1.05 1.728-1.35.588-.312 1.29-.468 2.106-.468 1.128 0 2.04.336 2.736 1.008.696.66 1.044 1.536 1.044 2.628 0 .96-.378 1.944-1.134 2.952a33.424 33.424 0 0 1-2.52 2.97c.288-.036.612-.066.972-.09.36-.036.672-.054.936-.054h2.304V33h-8.046Zm15.395.216c-1.224 0-2.214-.51-2.97-1.53-.744-1.02-1.116-2.502-1.116-4.446s.372-3.408 1.116-4.392c.756-.996 1.746-1.494 2.97-1.494 1.224 0 2.208.498 2.952 1.494.756.984 1.134 2.448 1.134 4.392 0 1.944-.378 3.426-1.134 4.446-.744 1.02-1.728 1.53-2.952 1.53Zm0-2.052c.456 0 .834-.264 1.134-.792.3-.528.45-1.572.45-3.132s-.15-2.586-.45-3.078c-.3-.504-.678-.756-1.134-.756-.444 0-.822.252-1.134.756-.3.492-.45 1.518-.45 3.078 0 1.56.15 2.604.45 3.132.312.528.69.792 1.134.792Zm11.31 2.052c-1.224 0-2.214-.51-2.97-1.53-.744-1.02-1.116-2.502-1.116-4.446s.372-3.408 1.116-4.392c.756-.996 1.746-1.494 2.97-1.494 1.224 0 2.208.498 2.952 1.494.756.984 1.134 2.448 1.134 4.392 0 1.944-.378 3.426-1.134 4.446-.744 1.02-1.728 1.53-2.952 1.53Zm0-2.052c.456 0 .834-.264 1.134-.792.3-.528.45-1.572.45-3.132s-.15-2.586-.45-3.078c-.3-.504-.678-.756-1.134-.756-.444 0-.822.252-1.134.756-.3.492-.45 1.518-.45 3.078 0 1.56.15 2.604.45 3.132.312.528.69.792 1.134.792Z" fill="#000"/><path d="M900.62 210v-11.808h2.952c1.824 0 3.21.51 4.158 1.53.948 1.008 1.422 2.448 1.422 4.32 0 1.884-.474 3.348-1.422 4.392-.948 1.044-2.31 1.566-4.086 1.566h-3.024Zm1.494-1.224h1.35c1.38 0 2.412-.414 3.096-1.242.696-.828 1.044-1.992 1.044-3.492 0-1.488-.348-2.628-1.044-3.42-.684-.804-1.716-1.206-3.096-1.206h-1.35v9.36Zm13.684.252c.42 0 .816-.102 1.188-.306a6.67 6.67 0 0 0 1.188-.864v-2.43c-1.464.18-2.484.456-3.06.828-.576.36-.864.816-.864 1.368 0 .492.15.852.45 1.08.3.216.666.324 1.098.324Zm-.432 1.188c-.732 0-1.344-.216-1.836-.648-.48-.444-.72-1.056-.72-1.836 0-.96.426-1.692 1.278-2.196.864-.516 2.226-.876 4.086-1.08 0-.552-.12-1.056-.36-1.512-.24-.456-.72-.684-1.44-.684-.504 0-.978.096-1.422.288-.444.192-.84.408-1.188.648l-.576-1.026a9.08 9.08 0 0 1 1.494-.756 4.969 4.969 0 0 1 1.944-.378c1.068 0 1.842.33 2.322.99.48.648.72 1.518.72 2.61V210h-1.224l-.126-1.044h-.054c-.42.336-.87.63-1.35.882a3.28 3.28 0 0 1-1.548.378Zm8.855-.216v-8.748h1.224l.126 1.584h.054c.3-.552.666-.99 1.098-1.314.432-.324.894-.486 1.386-.486.348 0 .66.06.936.18l-.288 1.296a3.329 3.329 0 0 0-.396-.108 2.35 2.35 0 0 0-.45-.036c-.372 0-.762.15-1.17.45-.396.3-.744.822-1.044 1.566V210h-1.476Zm8.04 0v-12.816h1.458v8.676h.054l3.726-4.608h1.638l-2.934 3.51 3.33 5.238h-1.62l-2.556-4.212-1.638 1.908V210h-1.458Zm16.061 0v-1.224h2.628v-8.46h-2.088v-.954a7.585 7.585 0 0 0 1.368-.342 5.81 5.81 0 0 0 1.062-.504h1.134v10.26h2.376V210h-6.48Zm13.808.216c-1.152 0-2.058-.516-2.718-1.548-.648-1.032-.972-2.514-.972-4.446s.324-3.402.972-4.41c.66-1.008 1.566-1.512 2.718-1.512 1.14 0 2.034.504 2.682 1.512.66 1.008.99 2.478.99 4.41s-.33 3.414-.99 4.446c-.648 1.032-1.542 1.548-2.682 1.548Zm0-1.188c.66 0 1.194-.378 1.602-1.134.42-.768.63-1.992.63-3.672 0-1.68-.21-2.886-.63-3.618-.408-.744-.942-1.116-1.602-1.116-.672 0-1.218.372-1.638 1.116-.408.732-.612 1.938-.612 3.618s.204 2.904.612 3.672c.42.756.966 1.134 1.638 1.134Zm10.747 1.188c-1.152 0-2.058-.516-2.718-1.548-.648-1.032-.972-2.514-.972-4.446s.324-3.402.972-4.41c.66-1.008 1.566-1.512 2.718-1.512 1.14 0 2.034.504 2.682 1.512.66 1.008.99 2.478.99 4.41s-.33 3.414-.99 4.446c-.648 1.032-1.542 1.548-2.682 1.548Zm0-1.188c.66 0 1.194-.378 1.602-1.134.42-.768.63-1.992.63-3.672 0-1.68-.21-2.886-.63-3.618-.408-.744-.942-1.116-1.602-1.116-.672 0-1.218.372-1.638 1.116-.408.732-.612 1.938-.612 3.618s.204 2.904.612 3.672c.42.756.966 1.134 1.638 1.134Z" fill="#fff"/><path d="m901.43 33-2.178-11.736h2.718l.81 5.49c.072.612.15 1.23.234 1.854.084.612.162 1.23.234 1.854h.072c.12-.624.234-1.242.342-1.854.12-.624.24-1.242.36-1.854l1.26-5.49h2.25l1.26 5.49c.12.588.234 1.194.342 1.818.12.624.24 1.254.36 1.89h.072c.084-.636.162-1.26.234-1.872.084-.624.168-1.236.252-1.836l.81-5.49h2.538L911.312 33h-3.33l-1.152-5.328a55.053 55.053 0 0 1-.27-1.368 93.296 93.296 0 0 1-.198-1.35h-.072c-.072.432-.15.882-.234 1.35a27.33 27.33 0 0 1-.252 1.368L904.706 33h-3.276Zm15.183 0V20.382h2.646v3.096l-.126 1.602c.336-.3.726-.576 1.17-.828.456-.264.984-.396 1.584-.396.972 0 1.674.324 2.106.972.444.636.666 1.512.666 2.628V33h-2.646v-5.202c0-.648-.09-1.092-.27-1.332-.168-.24-.444-.36-.828-.36a1.55 1.55 0 0 0-.864.234c-.24.144-.504.354-.792.63V33h-2.646Zm13.397-10.242c-.444 0-.81-.126-1.098-.378a1.307 1.307 0 0 1-.432-1.008c0-.408.144-.738.432-.99.288-.252.654-.378 1.098-.378.456 0 .822.126 1.098.378.288.252.432.582.432.99 0 .408-.144.744-.432 1.008-.276.252-.642.378-1.098.378ZM928.696 33v-8.928h2.646V33h-2.646Zm10.212.216c-1.104 0-1.896-.318-2.376-.954-.468-.636-.702-1.47-.702-2.502v-3.618h-1.224V24.18l1.368-.108.306-2.376h2.196v2.376h2.142v2.07h-2.142v3.582c0 .948.384 1.422 1.152 1.422.144 0 .288-.018.432-.054.156-.036.294-.078.414-.126l.414 1.926c-.24.072-.522.144-.846.216a5.273 5.273 0 0 1-1.134.108Zm8.933 0c-1.284 0-2.358-.408-3.222-1.224-.864-.828-1.296-1.98-1.296-3.456 0-.96.198-1.788.594-2.484.408-.708.93-1.248 1.566-1.62a3.963 3.963 0 0 1 2.052-.576c1.272 0 2.22.414 2.844 1.242.636.816.954 1.83.954 3.042 0 .492-.036.882-.108 1.17h-5.346c.12.648.39 1.128.81 1.44.42.3.924.45 1.512.45.636 0 1.278-.198 1.926-.594l.882 1.602c-.984.672-2.04 1.008-3.168 1.008Zm-1.98-5.652h3.222c0-.492-.12-.894-.36-1.206-.228-.324-.606-.486-1.134-.486-.42 0-.792.144-1.116.432-.324.276-.528.696-.612 1.26ZM960.455 33v-2.142h2.484v-6.606h-2.142v-1.638a9.24 9.24 0 0 0 1.584-.432 8.706 8.706 0 0 0 1.26-.612h1.944v9.288h2.142V33h-7.272Zm14.801.216c-1.224 0-2.214-.51-2.97-1.53-.744-1.02-1.116-2.502-1.116-4.446s.372-3.408 1.116-4.392c.756-.996 1.746-1.494 2.97-1.494 1.224 0 2.208.498 2.952 1.494.756.984 1.134 2.448 1.134 4.392 0 1.944-.378 3.426-1.134 4.446-.744 1.02-1.728 1.53-2.952 1.53Zm0-2.052c.456 0 .834-.264 1.134-.792.3-.528.45-1.572.45-3.132s-.15-2.586-.45-3.078c-.3-.504-.678-.756-1.134-.756-.444 0-.822.252-1.134.756-.3.492-.45 1.518-.45 3.078 0 1.56.15 2.604.45 3.132.312.528.69.792 1.134.792Zm11.31 2.052c-1.224 0-2.214-.51-2.97-1.53-.744-1.02-1.116-2.502-1.116-4.446s.372-3.408 1.116-4.392c.756-.996 1.746-1.494 2.97-1.494 1.224 0 2.208.498 2.952 1.494.756.984 1.134 2.448 1.134 4.392 0 1.944-.378 3.426-1.134 4.446-.744 1.02-1.728 1.53-2.952 1.53Zm0-2.052c.456 0 .834-.264 1.134-.792.3-.528.45-1.572.45-3.132s-.15-2.586-.45-3.078c-.3-.504-.678-.756-1.134-.756-.444 0-.822.252-1.134.756-.3.492-.45 1.518-.45 3.078 0 1.56.15 2.604.45 3.132.312.528.69.792 1.134.792ZM19.168 60.302h2.376l.324-2.664h-2.376l-.324 2.664ZM17.62 65l.45-3.672h-1.44v-1.026h1.566l.324-2.664h-1.53v-1.044h1.656l.414-3.294h.954l-.414 3.294h2.394l.432-3.294h.954l-.432 3.294h1.458v1.044H22.84l-.324 2.664h1.53v1.026H22.39L21.94 65h-.954l.432-3.672h-2.376L18.592 65h-.972Zm15.211.216c-1.476 0-2.706-.54-3.69-1.62-.972-1.08-1.458-2.58-1.458-4.5 0-1.896.498-3.39 1.494-4.482s2.244-1.638 3.744-1.638c.72 0 1.35.15 1.89.45.552.288 1.002.624 1.35 1.008l-.81.972a3.843 3.843 0 0 0-1.062-.81 2.905 2.905 0 0 0-1.35-.306c-1.116 0-2.016.432-2.7 1.296-.672.852-1.008 2.01-1.008 3.474 0 1.488.33 2.67.99 3.546.66.864 1.548 1.296 2.664 1.296.564 0 1.068-.114 1.512-.342.444-.24.852-.57 1.224-.99l.828.936c-.468.54-.996.96-1.584 1.26-.588.3-1.266.45-2.034.45Zm11.556 0c-1.476 0-2.706-.54-3.69-1.62-.972-1.08-1.458-2.58-1.458-4.5 0-1.896.498-3.39 1.494-4.482s2.244-1.638 3.744-1.638c.72 0 1.35.15 1.89.45.552.288 1.002.624 1.35 1.008l-.81.972a3.843 3.843 0 0 0-1.062-.81 2.905 2.905 0 0 0-1.35-.306c-1.116 0-2.016.432-2.7 1.296-.672.852-1.008 2.01-1.008 3.474 0 1.488.33 2.67.99 3.546.66.864 1.548 1.296 2.664 1.296.564 0 1.068-.114 1.512-.342.444-.24.852-.57 1.224-.99l.828.936c-.468.54-.996.96-1.584 1.26-.588.3-1.266.45-2.034.45Zm11.556 0c-1.476 0-2.706-.54-3.69-1.62-.972-1.08-1.458-2.58-1.458-4.5 0-1.896.498-3.39 1.494-4.482s2.244-1.638 3.744-1.638c.72 0 1.35.15 1.89.45.552.288 1.002.624 1.35 1.008l-.81.972a3.843 3.843 0 0 0-1.062-.81 2.905 2.905 0 0 0-1.35-.306c-1.116 0-2.016.432-2.7 1.296-.672.852-1.008 2.01-1.008 3.474 0 1.488.33 2.67.99 3.546.66.864 1.548 1.296 2.664 1.296.564 0 1.068-.114 1.512-.342.444-.24.852-.57 1.224-.99l.828.936c-.468.54-.996.96-1.584 1.26-.588.3-1.266.45-2.034.45Zm11.556 0c-1.476 0-2.706-.54-3.69-1.62-.972-1.08-1.458-2.58-1.458-4.5 0-1.896.498-3.39 1.494-4.482s2.244-1.638 3.744-1.638c.72 0 1.35.15 1.89.45.552.288 1.002.624 1.35 1.008l-.81.972a3.843 3.843 0 0 0-1.062-.81 2.905 2.905 0 0 0-1.35-.306c-1.116 0-2.016.432-2.7 1.296-.672.852-1.008 2.01-1.008 3.474 0 1.488.33 2.67.99 3.546.66.864 1.548 1.296 2.664 1.296.564 0 1.068-.114 1.512-.342.444-.24.852-.57 1.224-.99l.828.936c-.468.54-.996.96-1.584 1.26-.588.3-1.266.45-2.034.45Zm11.556 0c-1.476 0-2.706-.54-3.69-1.62-.972-1.08-1.458-2.58-1.458-4.5 0-1.896.498-3.39 1.494-4.482s2.244-1.638 3.744-1.638c.72 0 1.35.15 1.89.45.552.288 1.002.624 1.35 1.008l-.81.972a3.843 3.843 0 0 0-1.062-.81 2.905 2.905 0 0 0-1.35-.306c-1.116 0-2.016.432-2.7 1.296-.672.852-1.008 2.01-1.008 3.474 0 1.488.33 2.67.99 3.546.66.864 1.548 1.296 2.664 1.296.564 0 1.068-.114 1.512-.342.444-.24.852-.57 1.224-.99l.828.936c-.468.54-.996.96-1.584 1.26-.588.3-1.266.45-2.034.45Zm11.556 0c-1.476 0-2.706-.54-3.69-1.62-.972-1.08-1.458-2.58-1.458-4.5 0-1.896.498-3.39 1.494-4.482s2.244-1.638 3.744-1.638c.72 0 1.35.15 1.89.45.552.288 1.002.624 1.35 1.008l-.81.972a3.843 3.843 0 0 0-1.062-.81 2.905 2.905 0 0 0-1.35-.306c-1.116 0-2.016.432-2.7 1.296-.672.852-1.008 2.01-1.008 3.474 0 1.488.33 2.67.99 3.546.66.864 1.548 1.296 2.664 1.296.564 0 1.068-.114 1.512-.342.444-.24.852-.57 1.224-.99l.828.936c-.468.54-.996.96-1.584 1.26-.588.3-1.266.45-2.034.45Z" fill="#000"/><path d="M19.168 237.302h2.376l.324-2.664h-2.376l-.324 2.664ZM17.62 242l.45-3.672h-1.44v-1.026h1.566l.324-2.664h-1.53v-1.044h1.656l.414-3.294h.954l-.414 3.294h2.394l.432-3.294h.954l-.432 3.294h1.458v1.044H22.84l-.324 2.664h1.53v1.026H22.39L21.94 242h-.954l.432-3.672h-2.376l-.45 3.672h-.972Zm13.61.216c-1.153 0-2.059-.516-2.719-1.548-.648-1.032-.972-2.514-.972-4.446s.324-3.402.972-4.41c.66-1.008 1.566-1.512 2.718-1.512 1.14 0 2.034.504 2.682 1.512.66 1.008.99 2.478.99 4.41s-.33 3.414-.99 4.446c-.648 1.032-1.542 1.548-2.682 1.548Zm0-1.188c.66 0 1.193-.378 1.601-1.134.42-.768.63-1.992.63-3.672 0-1.68-.21-2.886-.63-3.618-.408-.744-.942-1.116-1.602-1.116-.672 0-1.218.372-1.638 1.116-.408.732-.612 1.938-.612 3.618s.204 2.904.612 3.672c.42.756.966 1.134 1.638 1.134Zm12.348 1.188c-1.476 0-2.706-.54-3.69-1.62-.971-1.08-1.457-2.58-1.457-4.5 0-1.896.498-3.39 1.494-4.482.995-1.092 2.244-1.638 3.744-1.638.72 0 1.35.15 1.89.45.552.288 1.002.624 1.35 1.008l-.81.972a3.843 3.843 0 0 0-1.063-.81 2.905 2.905 0 0 0-1.35-.306c-1.115 0-2.016.432-2.7 1.296-.671.852-1.008 2.01-1.008 3.474 0 1.488.33 2.67.99 3.546.66.864 1.548 1.296 2.664 1.296.565 0 1.069-.114 1.513-.342.444-.24.851-.57 1.223-.99l.828.936c-.468.54-.995.96-1.584 1.26-.587.3-1.266.45-2.034.45Zm10.482 0c-1.152 0-2.058-.516-2.718-1.548-.648-1.032-.972-2.514-.972-4.446s.324-3.402.972-4.41c.66-1.008 1.566-1.512 2.718-1.512 1.14 0 2.034.504 2.682 1.512.66 1.008.99 2.478.99 4.41s-.33 3.414-.99 4.446c-.648 1.032-1.542 1.548-2.682 1.548Zm0-1.188c.66 0 1.194-.378 1.602-1.134.42-.768.63-1.992.63-3.672 0-1.68-.21-2.886-.63-3.618-.408-.744-.942-1.116-1.602-1.116-.672 0-1.218.372-1.638 1.116-.408.732-.612 1.938-.612 3.618s.204 2.904.612 3.672c.42.756.966 1.134 1.638 1.134Zm12.349 1.188c-1.476 0-2.706-.54-3.69-1.62-.972-1.08-1.458-2.58-1.458-4.5 0-1.896.498-3.39 1.494-4.482s2.244-1.638 3.744-1.638c.72 0 1.35.15 1.89.45.552.288 1.002.624 1.35 1.008l-.81.972a3.843 3.843 0 0 0-1.062-.81 2.905 2.905 0 0 0-1.35-.306c-1.116 0-2.016.432-2.7 1.296-.672.852-1.008 2.01-1.008 3.474 0 1.488.33 2.67.99 3.546.66.864 1.548 1.296 2.664 1.296.564 0 1.068-.114 1.512-.342.444-.24.852-.57 1.224-.99l.828.936c-.468.54-.996.96-1.584 1.26-.588.3-1.266.45-2.034.45Zm10.481 0c-1.152 0-2.058-.516-2.718-1.548-.648-1.032-.972-2.514-.972-4.446s.324-3.402.972-4.41c.66-1.008 1.566-1.512 2.718-1.512 1.14 0 2.034.504 2.682 1.512.66 1.008.99 2.478.99 4.41s-.33 3.414-.99 4.446c-.648 1.032-1.542 1.548-2.682 1.548Zm0-1.188c.66 0 1.194-.378 1.602-1.134.42-.768.63-1.992.63-3.672 0-1.68-.21-2.886-.63-3.618-.408-.744-.942-1.116-1.602-1.116-.672 0-1.218.372-1.638 1.116-.408.732-.612 1.938-.612 3.618s.204 2.904.612 3.672c.42.756.966 1.134 1.638 1.134Zm12.35 1.188c-1.477 0-2.706-.54-3.69-1.62-.972-1.08-1.459-2.58-1.459-4.5 0-1.896.499-3.39 1.495-4.482.996-1.092 2.243-1.638 3.743-1.638.72 0 1.35.15 1.89.45.553.288 1.003.624 1.35 1.008l-.81.972a3.843 3.843 0 0 0-1.061-.81 2.905 2.905 0 0 0-1.35-.306c-1.117 0-2.016.432-2.7 1.296-.672.852-1.008 2.01-1.008 3.474 0 1.488.33 2.67.99 3.546.66.864 1.547 1.296 2.663 1.296.564 0 1.069-.114 1.512-.342.444-.24.852-.57 1.224-.99l.829.936c-.469.54-.996.96-1.585 1.26-.587.3-1.266.45-2.033.45Z" fill="#fff"/><path d="M372.168 60.302h2.376l.324-2.664h-2.376l-.324 2.664ZM370.62 65l.45-3.672h-1.44v-1.026h1.566l.324-2.664h-1.53v-1.044h1.656l.414-3.294h.954l-.414 3.294h2.394l.432-3.294h.954l-.432 3.294h1.458v1.044h-1.566l-.324 2.664h1.53v1.026h-1.656L374.94 65h-.954l.432-3.672h-2.376l-.45 3.672h-.972Zm10.747 0V53.192h6.804v1.26h-5.31v3.708h4.482v1.278h-4.482v4.284h5.49V65h-6.984Zm17.898-3.474c0 1.092-.336 1.98-1.008 2.664-.672.684-1.47 1.026-2.394 1.026-1.128 0-2.07-.456-2.826-1.368-.756-.924-1.134-2.31-1.134-4.158 0-1.536.204-2.772.612-3.708.42-.936.96-1.614 1.62-2.034a3.894 3.894 0 0 1 2.142-.648c.624 0 1.158.12 1.602.36.456.228.846.516 1.17.864l-.828.918c-.504-.6-1.134-.9-1.89-.9-.804 0-1.5.36-2.088 1.08-.588.708-.9 1.974-.936 3.798.36-.432.78-.78 1.26-1.044s.954-.396 1.422-.396c.996 0 1.788.3 2.376.9.6.588.9 1.47.9 2.646Zm-3.402 2.52c.564 0 1.038-.228 1.422-.684.384-.468.576-1.08.576-1.836 0-.744-.18-1.332-.54-1.764-.348-.444-.876-.666-1.584-.666-.372 0-.774.12-1.206.36-.432.24-.828.624-1.188 1.152.192 2.292 1.032 3.438 2.52 3.438Zm7.544.954V53.192h6.804v1.26h-5.31v3.708h4.482v1.278h-4.482v4.284h5.49V65h-6.984Zm17.898-3.474c0 1.092-.336 1.98-1.008 2.664-.672.684-1.47 1.026-2.394 1.026-1.128 0-2.07-.456-2.826-1.368-.756-.924-1.134-2.31-1.134-4.158 0-1.536.204-2.772.612-3.708.42-.936.96-1.614 1.62-2.034a3.894 3.894 0 0 1 2.142-.648c.624 0 1.158.12 1.602.36.456.228.846.516 1.17.864l-.828.918c-.504-.6-1.134-.9-1.89-.9-.804 0-1.5.36-2.088 1.08-.588.708-.9 1.974-.936 3.798.36-.432.78-.78 1.26-1.044s.954-.396 1.422-.396c.996 0 1.788.3 2.376.9.6.588.9 1.47.9 2.646Zm-3.402 2.52c.564 0 1.038-.228 1.422-.684.384-.468.576-1.08.576-1.836 0-.744-.18-1.332-.54-1.764-.348-.444-.876-.666-1.584-.666-.372 0-.774.12-1.206.36-.432.24-.828.624-1.188 1.152.192 2.292 1.032 3.438 2.52 3.438Zm7.543.954V53.192h6.804v1.26h-5.31v3.708h4.482v1.278h-4.482v4.284h5.49V65h-6.984Zm17.898-3.474c0 1.092-.336 1.98-1.008 2.664-.672.684-1.47 1.026-2.394 1.026-1.128 0-2.07-.456-2.826-1.368-.756-.924-1.134-2.31-1.134-4.158 0-1.536.204-2.772.612-3.708.42-.936.96-1.614 1.62-2.034a3.894 3.894 0 0 1 2.142-.648c.624 0 1.158.12 1.602.36.456.228.846.516 1.17.864l-.828.918c-.504-.6-1.134-.9-1.89-.9-.804 0-1.5.36-2.088 1.08-.588.708-.9 1.974-.936 3.798.36-.432.78-.78 1.26-1.044s.954-.396 1.422-.396c.996 0 1.788.3 2.376.9.6.588.9 1.47.9 2.646Zm-3.402 2.52c.564 0 1.038-.228 1.422-.684.384-.468.576-1.08.576-1.836 0-.744-.18-1.332-.54-1.764-.348-.444-.876-.666-1.584-.666-.372 0-.774.12-1.206.36-.432.24-.828.624-1.188 1.152.192 2.292 1.032 3.438 2.52 3.438Z" fill="#000"/><path d="M372.168 237.302h2.376l.324-2.664h-2.376l-.324 2.664ZM370.62 242l.45-3.672h-1.44v-1.026h1.566l.324-2.664h-1.53v-1.044h1.656l.414-3.294h.954l-.414 3.294h2.394l.432-3.294h.954l-.432 3.294h1.458v1.044h-1.566l-.324 2.664h1.53v1.026h-1.656l-.45 3.672h-.954l.432-3.672h-2.376l-.45 3.672h-.972Zm10.549 0v-1.224h2.628v-8.46h-2.088v-.954a7.585 7.585 0 0 0 1.368-.342 5.81 5.81 0 0 0 1.062-.504h1.134v10.26h2.376V242h-6.48Zm13.826.216c-1.08 0-1.98-.294-2.7-.882-.708-.6-1.062-1.356-1.062-2.268 0-.744.222-1.374.666-1.89a5.377 5.377 0 0 1 1.494-1.206v-.072c-.42-.3-.792-.666-1.116-1.098-.324-.432-.486-.948-.486-1.548 0-.888.312-1.602.936-2.142.624-.54 1.398-.81 2.322-.81.996 0 1.782.288 2.358.864.588.576.882 1.308.882 2.196 0 .6-.18 1.146-.54 1.638-.348.492-.696.87-1.044 1.134v.072c.516.3.978.678 1.386 1.134.408.444.612 1.05.612 1.818 0 .852-.342 1.578-1.026 2.178-.672.588-1.566.882-2.682.882Zm.81-6.48c.804-.708 1.206-1.476 1.206-2.304 0-.564-.174-1.044-.522-1.44-.348-.396-.84-.594-1.476-.594-.528 0-.972.174-1.332.522-.348.336-.522.78-.522 1.332 0 .684.264 1.206.792 1.566.54.348 1.158.654 1.854.918Zm-.774 5.382c.672 0 1.212-.186 1.62-.558.42-.384.63-.87.63-1.458 0-.732-.312-1.278-.936-1.638-.624-.36-1.35-.708-2.178-1.044-.456.312-.84.678-1.152 1.098-.3.42-.45.888-.45 1.404 0 .636.234 1.164.702 1.584.48.408 1.068.612 1.764.612Zm7.633.882v-1.224h2.628v-8.46h-2.088v-.954a7.585 7.585 0 0 0 1.368-.342 5.81 5.81 0 0 0 1.062-.504h1.134v10.26h2.376V242h-6.48Zm13.825.216c-1.08 0-1.98-.294-2.7-.882-.708-.6-1.062-1.356-1.062-2.268 0-.744.222-1.374.666-1.89a5.377 5.377 0 0 1 1.494-1.206v-.072c-.42-.3-.792-.666-1.116-1.098-.324-.432-.486-.948-.486-1.548 0-.888.312-1.602.936-2.142.624-.54 1.398-.81 2.322-.81.996 0 1.782.288 2.358.864.588.576.882 1.308.882 2.196 0 .6-.18 1.146-.54 1.638-.348.492-.696.87-1.044 1.134v.072c.516.3.978.678 1.386 1.134.408.444.612 1.05.612 1.818 0 .852-.342 1.578-1.026 2.178-.672.588-1.566.882-2.682.882Zm.81-6.48c.804-.708 1.206-1.476 1.206-2.304 0-.564-.174-1.044-.522-1.44-.348-.396-.84-.594-1.476-.594-.528 0-.972.174-1.332.522-.348.336-.522.78-.522 1.332 0 .684.264 1.206.792 1.566.54.348 1.158.654 1.854.918Zm-.774 5.382c.672 0 1.212-.186 1.62-.558.42-.384.63-.87.63-1.458 0-.732-.312-1.278-.936-1.638-.624-.36-1.35-.708-2.178-1.044-.456.312-.84.678-1.152 1.098-.3.42-.45.888-.45 1.404 0 .636.234 1.164.702 1.584.48.408 1.068.612 1.764.612Zm7.633.882v-1.224h2.628v-8.46h-2.088v-.954a7.585 7.585 0 0 0 1.368-.342 5.81 5.81 0 0 0 1.062-.504h1.134v10.26h2.376V242h-6.48Zm13.826.216c-1.08 0-1.98-.294-2.7-.882-.708-.6-1.062-1.356-1.062-2.268 0-.744.222-1.374.666-1.89a5.377 5.377 0 0 1 1.494-1.206v-.072c-.42-.3-.792-.666-1.116-1.098-.324-.432-.486-.948-.486-1.548 0-.888.312-1.602.936-2.142.624-.54 1.398-.81 2.322-.81.996 0 1.782.288 2.358.864.588.576.882 1.308.882 2.196 0 .6-.18 1.146-.54 1.638-.348.492-.696.87-1.044 1.134v.072c.516.3.978.678 1.386 1.134.408.444.612 1.05.612 1.818 0 .852-.342 1.578-1.026 2.178-.672.588-1.566.882-2.682.882Zm.81-6.48c.804-.708 1.206-1.476 1.206-2.304 0-.564-.174-1.044-.522-1.44-.348-.396-.84-.594-1.476-.594-.528 0-.972.174-1.332.522-.348.336-.522.78-.522 1.332 0 .684.264 1.206.792 1.566.54.348 1.158.654 1.854.918Zm-.774 5.382c.672 0 1.212-.186 1.62-.558.42-.384.63-.87.63-1.458 0-.732-.312-1.278-.936-1.638-.624-.36-1.35-.708-2.178-1.044-.456.312-.84.678-1.152 1.098-.3.42-.45.888-.45 1.404 0 .636.234 1.164.702 1.584.48.408 1.068.612 1.764.612Z" fill="#fff"/><path d="M549.168 60.302h2.376l.324-2.664h-2.376l-.324 2.664ZM547.62 65l.45-3.672h-1.44v-1.026h1.566l.324-2.664h-1.53v-1.044h1.656l.414-3.294h.954l-.414 3.294h2.394l.432-3.294h.954l-.432 3.294h1.458v1.044h-1.566l-.324 2.664h1.53v1.026h-1.656L551.94 65h-.954l.432-3.672h-2.376l-.45 3.672h-.972Zm12.313 0c.06-1.44.21-2.73.45-3.87.24-1.152.588-2.232 1.044-3.24a18.362 18.362 0 0 1 1.836-3.096h-5.724v-1.278h7.398v.918c-.9 1.164-1.59 2.268-2.07 3.312a12.654 12.654 0 0 0-1.008 3.294c-.192 1.152-.324 2.472-.396 3.96h-1.53Zm8.984 0v-1.224h2.628v-8.46h-2.088v-.954a7.585 7.585 0 0 0 1.368-.342 5.81 5.81 0 0 0 1.062-.504h1.134v10.26h2.376V65h-6.48Zm12.511 0c.06-1.44.21-2.73.45-3.87.24-1.152.588-2.232 1.044-3.24a18.362 18.362 0 0 1 1.836-3.096h-5.724v-1.278h7.398v.918c-.9 1.164-1.59 2.268-2.07 3.312a12.654 12.654 0 0 0-1.008 3.294c-.192 1.152-.324 2.472-.396 3.96h-1.53Zm13.645.216c-1.476 0-2.706-.54-3.69-1.62-.972-1.08-1.458-2.58-1.458-4.5 0-1.896.498-3.39 1.494-4.482s2.244-1.638 3.744-1.638c.72 0 1.35.15 1.89.45.552.288 1.002.624 1.35 1.008l-.81.972a3.843 3.843 0 0 0-1.062-.81 2.905 2.905 0 0 0-1.35-.306c-1.116 0-2.016.432-2.7 1.296-.672.852-1.008 2.01-1.008 3.474 0 1.488.33 2.67.99 3.546.66.864 1.548 1.296 2.664 1.296.564 0 1.068-.114 1.512-.342.444-.24.852-.57 1.224-.99l.828.936c-.468.54-.996.96-1.584 1.26-.588.3-1.266.45-2.034.45Zm10.499 0c-1.08 0-1.98-.294-2.7-.882-.708-.6-1.062-1.356-1.062-2.268 0-.744.222-1.374.666-1.89a5.377 5.377 0 0 1 1.494-1.206v-.072c-.42-.3-.792-.666-1.116-1.098-.324-.432-.486-.948-.486-1.548 0-.888.312-1.602.936-2.142.624-.54 1.398-.81 2.322-.81.996 0 1.782.288 2.358.864.588.576.882 1.308.882 2.196 0 .6-.18 1.146-.54 1.638-.348.492-.696.87-1.044 1.134v.072c.516.3.978.678 1.386 1.134.408.444.612 1.05.612 1.818 0 .852-.342 1.578-1.026 2.178-.672.588-1.566.882-2.682.882Zm.81-6.48c.804-.708 1.206-1.476 1.206-2.304 0-.564-.174-1.044-.522-1.44-.348-.396-.84-.594-1.476-.594-.528 0-.972.174-1.332.522-.348.336-.522.78-.522 1.332 0 .684.264 1.206.792 1.566.54.348 1.158.654 1.854.918Zm-.774 5.382c.672 0 1.212-.186 1.62-.558.42-.384.63-.87.63-1.458 0-.732-.312-1.278-.936-1.638-.624-.36-1.35-.708-2.178-1.044-.456.312-.84.678-1.152 1.098-.3.42-.45.888-.45 1.404 0 .636.234 1.164.702 1.584.48.408 1.068.612 1.764.612Zm6.932.882v-.882c1.728-1.716 3.06-3.138 3.996-4.266.936-1.14 1.404-2.172 1.404-3.096 0-.66-.18-1.2-.54-1.62-.36-.42-.906-.63-1.638-.63-.48 0-.924.138-1.332.414-.408.264-.78.588-1.116.972l-.846-.846c.48-.516.99-.936 1.53-1.26.552-.324 1.2-.486 1.944-.486 1.068 0 1.908.312 2.52.936.612.612.918 1.428.918 2.448 0 1.08-.444 2.184-1.332 3.312-.876 1.128-1.992 2.406-3.348 3.834l.972-.072c.336-.024.654-.036.954-.036h3.33V65h-7.416Z" fill="#000"/><path d="M549.168 237.302h2.376l.324-2.664h-2.376l-.324 2.664ZM547.62 242l.45-3.672h-1.44v-1.026h1.566l.324-2.664h-1.53v-1.044h1.656l.414-3.294h.954l-.414 3.294h2.394l.432-3.294h.954l-.432 3.294h1.458v1.044h-1.566l-.324 2.664h1.53v1.026h-1.656l-.45 3.672h-.954l.432-3.672h-2.376l-.45 3.672h-.972Zm9.847 0v-.882c1.728-1.716 3.06-3.138 3.996-4.266.936-1.14 1.404-2.172 1.404-3.096 0-.66-.18-1.2-.54-1.62-.36-.42-.906-.63-1.638-.63-.48 0-.924.138-1.332.414-.408.264-.78.588-1.116.972l-.846-.846c.48-.516.99-.936 1.53-1.26.552-.324 1.2-.486 1.944-.486 1.068 0 1.908.312 2.52.936.612.612.918 1.428.918 2.448 0 1.08-.444 2.184-1.332 3.312-.876 1.128-1.992 2.406-3.348 3.834l.972-.072c.336-.024.654-.036.954-.036h3.33V242h-7.416Zm11.9-4.356h3.6v-3.33c0-.3.012-.666.036-1.098.024-.432.042-.804.054-1.116h-.072c-.144.276-.3.546-.468.81-.156.264-.312.534-.468.81l-2.682 3.924Zm6.57 1.188h-1.566V242h-1.404v-3.168h-5.166v-.972l4.914-7.344h1.656v7.128h1.566v1.188Zm3.025 3.168v-.882c1.728-1.716 3.06-3.138 3.996-4.266.936-1.14 1.404-2.172 1.404-3.096 0-.66-.18-1.2-.54-1.62-.36-.42-.906-.63-1.638-.63-.48 0-.924.138-1.332.414-.408.264-.78.588-1.116.972l-.846-.846c.48-.516.99-.936 1.53-1.26.552-.324 1.2-.486 1.944-.486 1.068 0 1.908.312 2.52.936.612.612.918 1.428.918 2.448 0 1.08-.444 2.184-1.332 3.312-.876 1.128-1.992 2.406-3.348 3.834l.972-.072c.336-.024.654-.036.954-.036h3.33V242h-7.416Zm11.899-4.356h3.6v-3.33c0-.3.012-.666.036-1.098.024-.432.042-.804.054-1.116h-.072c-.144.276-.3.546-.468.81-.156.264-.312.534-.468.81l-2.682 3.924Zm6.57 1.188h-1.566V242h-1.404v-3.168h-5.166v-.972l4.914-7.344h1.656v7.128h1.566v1.188Zm3.025 3.168v-.882c1.728-1.716 3.06-3.138 3.996-4.266.936-1.14 1.404-2.172 1.404-3.096 0-.66-.18-1.2-.54-1.62-.36-.42-.906-.63-1.638-.63-.48 0-.924.138-1.332.414-.408.264-.78.588-1.116.972l-.846-.846c.48-.516.99-.936 1.53-1.26.552-.324 1.2-.486 1.944-.486 1.068 0 1.908.312 2.52.936.612.612.918 1.428.918 2.448 0 1.08-.444 2.184-1.332 3.312-.876 1.128-1.992 2.406-3.348 3.834l.972-.072c.336-.024.654-.036.954-.036h3.33V242h-7.416Zm11.9-4.356h3.6v-3.33c0-.3.012-.666.036-1.098.024-.432.042-.804.054-1.116h-.072c-.144.276-.3.546-.468.81-.156.264-.312.534-.468.81l-2.682 3.924Zm6.57 1.188h-1.566V242h-1.404v-3.168h-5.166v-.972l4.914-7.344h1.656v7.128h1.566v1.188Z" fill="#fff"/><path d="M726.168 60.302h2.376l.324-2.664h-2.376l-.324 2.664ZM724.62 65l.45-3.672h-1.44v-1.026h1.566l.324-2.664h-1.53v-1.044h1.656l.414-3.294h.954l-.414 3.294h2.394l.432-3.294h.954l-.432 3.294h1.458v1.044h-1.566l-.324 2.664h1.53v1.026h-1.656L728.94 65h-.954l.432-3.672h-2.376l-.45 3.672h-.972Zm10.747 0V53.192h6.804v1.26h-5.31v3.996h4.5v1.26h-4.5V65h-1.494Zm9.795 0v-.882c1.728-1.716 3.06-3.138 3.996-4.266.936-1.14 1.404-2.172 1.404-3.096 0-.66-.18-1.2-.54-1.62-.36-.42-.906-.63-1.638-.63-.48 0-.924.138-1.332.414-.408.264-.78.588-1.116.972l-.846-.846c.48-.516.99-.936 1.53-1.26.552-.324 1.2-.486 1.944-.486 1.068 0 1.908.312 2.52.936.612.612.918 1.428.918 2.448 0 1.08-.444 2.184-1.332 3.312-.876 1.128-1.992 2.406-3.348 3.834l.972-.072c.336-.024.654-.036.954-.036h3.33V65h-7.416Zm11.647 0V53.192h6.804v1.26h-5.31v3.996h4.5v1.26h-4.5V65h-1.494Zm9.795 0v-.882c1.728-1.716 3.06-3.138 3.996-4.266.936-1.14 1.404-2.172 1.404-3.096 0-.66-.18-1.2-.54-1.62-.36-.42-.906-.63-1.638-.63-.48 0-.924.138-1.332.414-.408.264-.78.588-1.116.972l-.846-.846c.48-.516.99-.936 1.53-1.26.552-.324 1.2-.486 1.944-.486 1.068 0 1.908.312 2.52.936.612.612.918 1.428.918 2.448 0 1.08-.444 2.184-1.332 3.312-.876 1.128-1.992 2.406-3.348 3.834l.972-.072c.336-.024.654-.036.954-.036h3.33V65h-7.416Zm11.647 0V53.192h6.804v1.26h-5.31v3.996h4.5v1.26h-4.5V65h-1.494Zm9.794 0v-.882c1.728-1.716 3.06-3.138 3.996-4.266.936-1.14 1.404-2.172 1.404-3.096 0-.66-.18-1.2-.54-1.62-.36-.42-.906-.63-1.638-.63-.48 0-.924.138-1.332.414-.408.264-.78.588-1.116.972l-.846-.846c.48-.516.99-.936 1.53-1.26.552-.324 1.2-.486 1.944-.486 1.068 0 1.908.312 2.52.936.612.612.918 1.428.918 2.448 0 1.08-.444 2.184-1.332 3.312-.876 1.128-1.992 2.406-3.348 3.834l.972-.072c.336-.024.654-.036.954-.036h3.33V65h-7.416Z" fill="#000"/><path d="M726.168 237.302h2.376l.324-2.664h-2.376l-.324 2.664ZM724.62 242l.45-3.672h-1.44v-1.026h1.566l.324-2.664h-1.53v-1.044h1.656l.414-3.294h.954l-.414 3.294h2.394l.432-3.294h.954l-.432 3.294h1.458v1.044h-1.566l-.324 2.664h1.53v1.026h-1.656l-.45 3.672h-.954l.432-3.672h-2.376l-.45 3.672h-.972Zm13.375.216c-.912 0-1.674-.162-2.286-.486-.612-.336-1.11-.714-1.494-1.134l.756-.972c.336.36.738.678 1.206.954.48.276 1.056.414 1.728.414.696 0 1.266-.192 1.71-.576.444-.384.666-.894.666-1.53 0-.684-.27-1.236-.81-1.656-.54-.42-1.494-.63-2.862-.63v-1.134c1.224 0 2.07-.204 2.538-.612.48-.42.72-.93.72-1.53 0-.552-.18-.99-.54-1.314-.348-.336-.828-.504-1.44-.504-.48 0-.924.114-1.332.342-.408.216-.78.492-1.116.828l-.792-.936c.444-.408.936-.75 1.476-1.026.54-.276 1.146-.414 1.818-.414.996 0 1.818.258 2.466.774.648.504.972 1.218.972 2.142 0 .696-.192 1.266-.576 1.71-.384.444-.888.786-1.512 1.026v.072a3.585 3.585 0 0 1 1.764.99c.48.492.72 1.134.72 1.926 0 1.02-.366 1.824-1.098 2.412-.732.576-1.626.864-2.682.864Zm10.982 0c-1.152 0-2.058-.516-2.718-1.548-.648-1.032-.972-2.514-.972-4.446s.324-3.402.972-4.41c.66-1.008 1.566-1.512 2.718-1.512 1.14 0 2.034.504 2.682 1.512.66 1.008.99 2.478.99 4.41s-.33 3.414-.99 4.446c-.648 1.032-1.542 1.548-2.682 1.548Zm0-1.188c.66 0 1.194-.378 1.602-1.134.42-.768.63-1.992.63-3.672 0-1.68-.21-2.886-.63-3.618-.408-.744-.942-1.116-1.602-1.116-.672 0-1.218.372-1.638 1.116-.408.732-.612 1.938-.612 3.618s.204 2.904.612 3.672c.42.756.966 1.134 1.638 1.134Zm10.513 1.188c-.912 0-1.674-.162-2.286-.486-.612-.336-1.11-.714-1.494-1.134l.756-.972c.336.36.738.678 1.206.954.48.276 1.056.414 1.728.414.696 0 1.266-.192 1.71-.576.444-.384.666-.894.666-1.53 0-.684-.27-1.236-.81-1.656-.54-.42-1.494-.63-2.862-.63v-1.134c1.224 0 2.07-.204 2.538-.612.48-.42.72-.93.72-1.53 0-.552-.18-.99-.54-1.314-.348-.336-.828-.504-1.44-.504-.48 0-.924.114-1.332.342-.408.216-.78.492-1.116.828l-.792-.936c.444-.408.936-.75 1.476-1.026.54-.276 1.146-.414 1.818-.414.996 0 1.818.258 2.466.774.648.504.972 1.218.972 2.142 0 .696-.192 1.266-.576 1.71-.384.444-.888.786-1.512 1.026v.072a3.585 3.585 0 0 1 1.764.99c.48.492.72 1.134.72 1.926 0 1.02-.366 1.824-1.098 2.412-.732.576-1.626.864-2.682.864Zm10.981 0c-1.152 0-2.058-.516-2.718-1.548-.648-1.032-.972-2.514-.972-4.446s.324-3.402.972-4.41c.66-1.008 1.566-1.512 2.718-1.512 1.14 0 2.034.504 2.682 1.512.66 1.008.99 2.478.99 4.41s-.33 3.414-.99 4.446c-.648 1.032-1.542 1.548-2.682 1.548Zm0-1.188c.66 0 1.194-.378 1.602-1.134.42-.768.63-1.992.63-3.672 0-1.68-.21-2.886-.63-3.618-.408-.744-.942-1.116-1.602-1.116-.672 0-1.218.372-1.638 1.116-.408.732-.612 1.938-.612 3.618s.204 2.904.612 3.672c.42.756.966 1.134 1.638 1.134Zm10.513 1.188c-.912 0-1.674-.162-2.286-.486-.612-.336-1.11-.714-1.494-1.134l.756-.972c.336.36.738.678 1.206.954.48.276 1.056.414 1.728.414.696 0 1.266-.192 1.71-.576.444-.384.666-.894.666-1.53 0-.684-.27-1.236-.81-1.656-.54-.42-1.494-.63-2.862-.63v-1.134c1.224 0 2.07-.204 2.538-.612.48-.42.72-.93.72-1.53 0-.552-.18-.99-.54-1.314-.348-.336-.828-.504-1.44-.504-.48 0-.924.114-1.332.342-.408.216-.78.492-1.116.828l-.792-.936c.444-.408.936-.75 1.476-1.026.54-.276 1.146-.414 1.818-.414.996 0 1.818.258 2.466.774.648.504.972 1.218.972 2.142 0 .696-.192 1.266-.576 1.71-.384.444-.888.786-1.512 1.026v.072a3.585 3.585 0 0 1 1.764.99c.48.492.72 1.134.72 1.926 0 1.02-.366 1.824-1.098 2.412-.732.576-1.626.864-2.682.864Zm10.982 0c-1.152 0-2.058-.516-2.718-1.548-.648-1.032-.972-2.514-.972-4.446s.324-3.402.972-4.41c.66-1.008 1.566-1.512 2.718-1.512 1.14 0 2.034.504 2.682 1.512.66 1.008.99 2.478.99 4.41s-.33 3.414-.99 4.446c-.648 1.032-1.542 1.548-2.682 1.548Zm0-1.188c.66 0 1.194-.378 1.602-1.134.42-.768.63-1.992.63-3.672 0-1.68-.21-2.886-.63-3.618-.408-.744-.942-1.116-1.602-1.116-.672 0-1.218.372-1.638 1.116-.408.732-.612 1.938-.612 3.618s.204 2.904.612 3.672c.42.756.966 1.134 1.638 1.134Z" fill="#fff"/><path d="M902.168 60.302h2.376l.324-2.664h-2.376l-.324 2.664ZM900.62 65l.45-3.672h-1.44v-1.026h1.566l.324-2.664h-1.53v-1.044h1.656l.414-3.294h.954l-.414 3.294h2.394l.432-3.294h.954l-.432 3.294h1.458v1.044h-1.566l-.324 2.664h1.53v1.026h-1.656L904.94 65h-.954l.432-3.672h-2.376l-.45 3.672h-.972Zm10.747 0V53.192h6.804v1.26h-5.31v3.996h4.5v1.26h-4.5V65h-1.494Zm10.695 0V53.192h6.804v1.26h-5.31v3.996h4.5v1.26h-4.5V65h-1.494Zm10.694 0V53.192h6.804v1.26h-5.31v3.996h4.5v1.26h-4.5V65h-1.494Zm10.695 0V53.192h6.804v1.26h-5.31v3.996h4.5v1.26h-4.5V65h-1.494Zm10.694 0V53.192h6.804v1.26h-5.31v3.996h4.5v1.26h-4.5V65h-1.494Zm10.695 0V53.192h6.804v1.26h-5.31v3.996h4.5v1.26h-4.5V65h-1.494Z" fill="#000"/><path d="M902.168 237.302h2.376l.324-2.664h-2.376l-.324 2.664ZM900.62 242l.45-3.672h-1.44v-1.026h1.566l.324-2.664h-1.53v-1.044h1.656l.414-3.294h.954l-.414 3.294h2.394l.432-3.294h.954l-.432 3.294h1.458v1.044h-1.566l-.324 2.664h1.53v1.026h-1.656l-.45 3.672h-.954l.432-3.672h-2.376l-.45 3.672h-.972Zm13.375.216c-.912 0-1.674-.162-2.286-.486-.612-.336-1.11-.714-1.494-1.134l.756-.972c.336.36.738.678 1.206.954.48.276 1.056.414 1.728.414.696 0 1.266-.192 1.71-.576.444-.384.666-.894.666-1.53 0-.684-.27-1.236-.81-1.656-.54-.42-1.494-.63-2.862-.63v-1.134c1.224 0 2.07-.204 2.538-.612.48-.42.72-.93.72-1.53 0-.552-.18-.99-.54-1.314-.348-.336-.828-.504-1.44-.504-.48 0-.924.114-1.332.342-.408.216-.78.492-1.116.828l-.792-.936c.444-.408.936-.75 1.476-1.026.54-.276 1.146-.414 1.818-.414.996 0 1.818.258 2.466.774.648.504.972 1.218.972 2.142 0 .696-.192 1.266-.576 1.71-.384.444-.888.786-1.512 1.026v.072a3.585 3.585 0 0 1 1.764.99c.48.492.72 1.134.72 1.926 0 1.02-.366 1.824-1.098 2.412-.732.576-1.626.864-2.682.864Zm8.12-.216v-11.808h2.952c1.824 0 3.21.51 4.158 1.53.948 1.008 1.422 2.448 1.422 4.32 0 1.884-.474 3.348-1.422 4.392-.948 1.044-2.31 1.566-4.086 1.566h-3.024Zm1.494-1.224h1.35c1.38 0 2.412-.414 3.096-1.242.696-.828 1.044-1.992 1.044-3.492 0-1.488-.348-2.628-1.044-3.42-.684-.804-1.716-1.206-3.096-1.206h-1.35v9.36Zm14.008 1.44c-.912 0-1.674-.162-2.286-.486-.612-.336-1.11-.714-1.494-1.134l.756-.972c.336.36.738.678 1.206.954.48.276 1.056.414 1.728.414.696 0 1.266-.192 1.71-.576.444-.384.666-.894.666-1.53 0-.684-.27-1.236-.81-1.656-.54-.42-1.494-.63-2.862-.63v-1.134c1.224 0 2.07-.204 2.538-.612.48-.42.72-.93.72-1.53 0-.552-.18-.99-.54-1.314-.348-.336-.828-.504-1.44-.504-.48 0-.924.114-1.332.342-.408.216-.78.492-1.116.828l-.792-.936c.444-.408.936-.75 1.476-1.026.54-.276 1.146-.414 1.818-.414.996 0 1.818.258 2.466.774.648.504.972 1.218.972 2.142 0 .696-.192 1.266-.576 1.71-.384.444-.888.786-1.512 1.026v.072a3.585 3.585 0 0 1 1.764.99c.48.492.72 1.134.72 1.926 0 1.02-.366 1.824-1.098 2.412-.732.576-1.626.864-2.682.864Zm8.119-.216v-11.808h2.952c1.824 0 3.21.51 4.158 1.53.948 1.008 1.422 2.448 1.422 4.32 0 1.884-.474 3.348-1.422 4.392-.948 1.044-2.31 1.566-4.086 1.566h-3.024Zm1.494-1.224h1.35c1.38 0 2.412-.414 3.096-1.242.696-.828 1.044-1.992 1.044-3.492 0-1.488-.348-2.628-1.044-3.42-.684-.804-1.716-1.206-3.096-1.206h-1.35v9.36Zm14.008 1.44c-.912 0-1.674-.162-2.286-.486-.612-.336-1.11-.714-1.494-1.134l.756-.972c.336.36.738.678 1.206.954.48.276 1.056.414 1.728.414.696 0 1.266-.192 1.71-.576.444-.384.666-.894.666-1.53 0-.684-.27-1.236-.81-1.656-.54-.42-1.494-.63-2.862-.63v-1.134c1.224 0 2.07-.204 2.538-.612.48-.42.72-.93.72-1.53 0-.552-.18-.99-.54-1.314-.348-.336-.828-.504-1.44-.504-.48 0-.924.114-1.332.342-.408.216-.78.492-1.116.828l-.792-.936c.444-.408.936-.75 1.476-1.026.54-.276 1.146-.414 1.818-.414.996 0 1.818.258 2.466.774.648.504.972 1.218.972 2.142 0 .696-.192 1.266-.576 1.71-.384.444-.888.786-1.512 1.026v.072a3.585 3.585 0 0 1 1.764.99c.48.492.72 1.134.72 1.926 0 1.02-.366 1.824-1.098 2.412-.732.576-1.626.864-2.682.864Zm8.12-.216v-11.808h2.952c1.824 0 3.21.51 4.158 1.53.948 1.008 1.422 2.448 1.422 4.32 0 1.884-.474 3.348-1.422 4.392-.948 1.044-2.31 1.566-4.086 1.566h-3.024Zm1.494-1.224h1.35c1.38 0 2.412-.414 3.096-1.242.696-.828 1.044-1.992 1.044-3.492 0-1.488-.348-2.628-1.044-3.42-.684-.804-1.716-1.206-3.096-1.206h-1.35v9.36Z" fill="#fff"/></svg>