<svg width="1060" height="353" viewBox="0 0 1060 353" fill="none" xmlns="http://www.w3.org/2000/svg">
<path d="M0 24C0 10.7452 10.7452 0 24 0H353V353H24C10.7452 353 0 342.255 0 329V24Z" fill="#213B6C"/>
<rect x="353" width="177" height="177" fill="#374F7B"/>
<rect x="530" width="177" height="177" fill="#4D6289"/>
<rect x="707" width="176" height="177" fill="#647698"/>
<path d="M883 0H1036C1049.25 0 1060 10.7452 1060 24V177H883V0Z" fill="#7A89A7"/>
<rect x="353" y="177" width="177" height="176" fill="#1E3561"/>
<rect x="530" y="177" width="177" height="176" fill="#1A2F56"/>
<rect x="707" y="177" width="176" height="176" fill="#142341"/>
<path d="M883 177H1060V329C1060 342.255 1049.25 353 1036 353H883V177Z" fill="#0D182B"/>
<path d="M17.386 33V21.264H21.418C22.702 21.264 23.8 21.54 24.712 22.092C25.624 22.644 26.08 23.628 26.08 25.044C26.08 26.424 25.624 27.432 24.712 28.068C23.8 28.704 22.726 29.022 21.49 29.022H20.032V33H17.386ZM20.032 26.916H21.328C22.768 26.916 23.488 26.292 23.488 25.044C23.488 24.432 23.296 24 22.912 23.748C22.528 23.496 21.976 23.37 21.256 23.37H20.032V26.916ZM29.6927 33V24.072H31.8527L32.0327 25.638H32.1047C32.4287 25.038 32.8187 24.594 33.2747 24.306C33.7307 24.006 34.1867 23.856 34.6427 23.856C34.8947 23.856 35.0987 23.874 35.2547 23.91C35.4227 23.946 35.5727 23.988 35.7047 24.036L35.2727 26.322C35.1167 26.274 34.9607 26.238 34.8047 26.214C34.6607 26.19 34.4927 26.178 34.3007 26.178C33.9647 26.178 33.6107 26.304 33.2387 26.556C32.8787 26.796 32.5787 27.216 32.3387 27.816V33H29.6927ZM39.9785 22.758C39.5345 22.758 39.1685 22.632 38.8805 22.38C38.5925 22.116 38.4485 21.78 38.4485 21.372C38.4485 20.964 38.5925 20.634 38.8805 20.382C39.1685 20.13 39.5345 20.004 39.9785 20.004C40.4345 20.004 40.8005 20.13 41.0765 20.382C41.3645 20.634 41.5085 20.964 41.5085 21.372C41.5085 21.78 41.3645 22.116 41.0765 22.38C40.8005 22.632 40.4345 22.758 39.9785 22.758ZM38.6645 33V24.072H41.3105V33H38.6645ZM45.4391 33V24.072H47.5991L47.7791 25.224H47.8511C48.2231 24.852 48.6191 24.534 49.0391 24.27C49.4591 23.994 49.9631 23.856 50.5511 23.856C51.1871 23.856 51.6971 23.988 52.0811 24.252C52.4771 24.504 52.7891 24.87 53.0171 25.35C53.4131 24.942 53.8271 24.594 54.2591 24.306C54.7031 24.006 55.2251 23.856 55.8251 23.856C56.7851 23.856 57.4871 24.18 57.9311 24.828C58.3871 25.464 58.6151 26.34 58.6151 27.456V33H55.9691V27.798C55.9691 27.15 55.8791 26.706 55.6991 26.466C55.5191 26.226 55.2431 26.106 54.8711 26.106C54.4271 26.106 53.9171 26.394 53.3411 26.97V33H50.6951V27.798C50.6951 27.15 50.6051 26.706 50.4251 26.466C50.2571 26.226 49.9811 26.106 49.5971 26.106C49.1411 26.106 48.6371 26.394 48.0851 26.97V33H45.4391ZM65.8227 31.164C66.1227 31.164 66.3807 31.098 66.5967 30.966C66.8247 30.834 67.0527 30.648 67.2807 30.408V28.842C66.3447 28.974 65.6967 29.166 65.3367 29.418C64.9767 29.67 64.7967 29.97 64.7967 30.318C64.7967 30.882 65.1387 31.164 65.8227 31.164ZM64.9227 33.216C64.1067 33.216 63.4587 32.958 62.9787 32.442C62.4987 31.914 62.2587 31.272 62.2587 30.516C62.2587 29.58 62.6547 28.848 63.4467 28.32C64.2387 27.792 65.5167 27.438 67.2807 27.258C67.2567 26.862 67.1367 26.55 66.9207 26.322C66.7167 26.082 66.3687 25.962 65.8767 25.962C65.5047 25.962 65.1267 26.034 64.7427 26.178C64.3587 26.322 63.9507 26.52 63.5187 26.772L62.5647 25.026C63.1287 24.678 63.7287 24.396 64.3647 24.18C65.0007 23.964 65.6727 23.856 66.3807 23.856C67.5207 23.856 68.3967 24.186 69.0087 24.846C69.6207 25.506 69.9267 26.52 69.9267 27.888V33H67.7667L67.5867 32.082H67.5147C67.1307 32.418 66.7287 32.694 66.3087 32.91C65.8887 33.114 65.4267 33.216 64.9227 33.216ZM73.9649 33V24.072H76.1249L76.3049 25.638H76.3769C76.7009 25.038 77.0909 24.594 77.5469 24.306C78.0029 24.006 78.4589 23.856 78.9149 23.856C79.1669 23.856 79.3709 23.874 79.5269 23.91C79.6949 23.946 79.8449 23.988 79.9769 24.036L79.5449 26.322C79.3889 26.274 79.2329 26.238 79.0769 26.214C78.9329 26.19 78.7649 26.178 78.5729 26.178C78.2369 26.178 77.8829 26.304 77.5109 26.556C77.1509 26.796 76.8509 27.216 76.6109 27.816V33H73.9649ZM84.0498 36.492C83.7858 36.492 83.5518 36.474 83.3478 36.438C83.1558 36.402 82.9698 36.36 82.7898 36.312L83.2578 34.296C83.3418 34.32 83.4378 34.344 83.5458 34.368C83.6538 34.392 83.7558 34.404 83.8518 34.404C84.2958 34.404 84.6378 34.296 84.8778 34.08C85.1178 33.864 85.2978 33.582 85.4178 33.234L85.5438 32.766L82.1058 24.072H84.7698L86.0478 27.906C86.1798 28.314 86.2998 28.728 86.4078 29.148C86.5158 29.568 86.6298 30 86.7498 30.444H86.8218C86.9178 30.024 87.0138 29.604 87.1098 29.184C87.2178 28.752 87.3258 28.326 87.4338 27.906L88.5138 24.072H91.0518L87.9558 33.09C87.5358 34.218 87.0438 35.064 86.4798 35.628C85.9158 36.204 85.1058 36.492 84.0498 36.492ZM102.926 33.216C101.99 33.216 101.192 33.06 100.532 32.748C99.8841 32.436 99.3381 32.058 98.8941 31.614L100.082 29.94C100.43 30.252 100.808 30.522 101.216 30.75C101.624 30.966 102.068 31.074 102.548 31.074C103.136 31.074 103.604 30.924 103.952 30.624C104.3 30.324 104.474 29.88 104.474 29.292C104.474 28.716 104.306 28.278 103.97 27.978C103.634 27.678 103.202 27.528 102.674 27.528C102.338 27.528 102.056 27.57 101.828 27.654C101.612 27.738 101.33 27.888 100.982 28.104L99.7941 27.348L100.118 21.57H106.598V23.802H102.404L102.206 25.944C102.602 25.764 103.028 25.674 103.484 25.674C104.468 25.674 105.32 25.962 106.04 26.538C106.76 27.114 107.12 28.008 107.12 29.22C107.12 30.492 106.7 31.476 105.86 32.172C105.02 32.868 104.042 33.216 102.926 33.216ZM114.542 33.216C113.318 33.216 112.328 32.706 111.572 31.686C110.828 30.666 110.456 29.184 110.456 27.24C110.456 25.296 110.828 23.832 111.572 22.848C112.328 21.852 113.318 21.354 114.542 21.354C115.766 21.354 116.75 21.852 117.494 22.848C118.25 23.832 118.628 25.296 118.628 27.24C118.628 29.184 118.25 30.666 117.494 31.686C116.75 32.706 115.766 33.216 114.542 33.216ZM114.542 31.164C114.998 31.164 115.376 30.9 115.676 30.372C115.976 29.844 116.126 28.8 116.126 27.24C116.126 25.68 115.976 24.654 115.676 24.162C115.376 23.658 114.998 23.406 114.542 23.406C114.098 23.406 113.72 23.658 113.408 24.162C113.108 24.654 112.958 25.68 112.958 27.24C112.958 28.8 113.108 29.844 113.408 30.372C113.72 30.9 114.098 31.164 114.542 31.164ZM125.852 33.216C124.628 33.216 123.638 32.706 122.882 31.686C122.138 30.666 121.766 29.184 121.766 27.24C121.766 25.296 122.138 23.832 122.882 22.848C123.638 21.852 124.628 21.354 125.852 21.354C127.076 21.354 128.06 21.852 128.804 22.848C129.56 23.832 129.938 25.296 129.938 27.24C129.938 29.184 129.56 30.666 128.804 31.686C128.06 32.706 127.076 33.216 125.852 33.216ZM125.852 31.164C126.308 31.164 126.686 30.9 126.986 30.372C127.286 29.844 127.436 28.8 127.436 27.24C127.436 25.68 127.286 24.654 126.986 24.162C126.686 23.658 126.308 23.406 125.852 23.406C125.408 23.406 125.03 23.658 124.718 24.162C124.418 24.654 124.268 25.68 124.268 27.24C124.268 28.8 124.418 29.844 124.718 30.372C125.03 30.9 125.408 31.164 125.852 31.164Z" fill="white"/>
<path d="M370.386 33V21.264H374.418C375.702 21.264 376.8 21.54 377.712 22.092C378.624 22.644 379.08 23.628 379.08 25.044C379.08 26.424 378.624 27.432 377.712 28.068C376.8 28.704 375.726 29.022 374.49 29.022H373.032V33H370.386ZM373.032 26.916H374.328C375.768 26.916 376.488 26.292 376.488 25.044C376.488 24.432 376.296 24 375.912 23.748C375.528 23.496 374.976 23.37 374.256 23.37H373.032V26.916ZM382.693 33V24.072H384.853L385.033 25.638H385.105C385.429 25.038 385.819 24.594 386.275 24.306C386.731 24.006 387.187 23.856 387.643 23.856C387.895 23.856 388.099 23.874 388.255 23.91C388.423 23.946 388.573 23.988 388.705 24.036L388.273 26.322C388.117 26.274 387.961 26.238 387.805 26.214C387.661 26.19 387.493 26.178 387.301 26.178C386.965 26.178 386.611 26.304 386.239 26.556C385.879 26.796 385.579 27.216 385.339 27.816V33H382.693ZM392.979 22.758C392.535 22.758 392.169 22.632 391.881 22.38C391.593 22.116 391.449 21.78 391.449 21.372C391.449 20.964 391.593 20.634 391.881 20.382C392.169 20.13 392.535 20.004 392.979 20.004C393.435 20.004 393.801 20.13 394.077 20.382C394.365 20.634 394.509 20.964 394.509 21.372C394.509 21.78 394.365 22.116 394.077 22.38C393.801 22.632 393.435 22.758 392.979 22.758ZM391.665 33V24.072H394.311V33H391.665ZM398.439 33V24.072H400.599L400.779 25.224H400.851C401.223 24.852 401.619 24.534 402.039 24.27C402.459 23.994 402.963 23.856 403.551 23.856C404.187 23.856 404.697 23.988 405.081 24.252C405.477 24.504 405.789 24.87 406.017 25.35C406.413 24.942 406.827 24.594 407.259 24.306C407.703 24.006 408.225 23.856 408.825 23.856C409.785 23.856 410.487 24.18 410.931 24.828C411.387 25.464 411.615 26.34 411.615 27.456V33H408.969V27.798C408.969 27.15 408.879 26.706 408.699 26.466C408.519 26.226 408.243 26.106 407.871 26.106C407.427 26.106 406.917 26.394 406.341 26.97V33H403.695V27.798C403.695 27.15 403.605 26.706 403.425 26.466C403.257 26.226 402.981 26.106 402.597 26.106C402.141 26.106 401.637 26.394 401.085 26.97V33H398.439ZM418.823 31.164C419.123 31.164 419.381 31.098 419.597 30.966C419.825 30.834 420.053 30.648 420.281 30.408V28.842C419.345 28.974 418.697 29.166 418.337 29.418C417.977 29.67 417.797 29.97 417.797 30.318C417.797 30.882 418.139 31.164 418.823 31.164ZM417.923 33.216C417.107 33.216 416.459 32.958 415.979 32.442C415.499 31.914 415.259 31.272 415.259 30.516C415.259 29.58 415.655 28.848 416.447 28.32C417.239 27.792 418.517 27.438 420.281 27.258C420.257 26.862 420.137 26.55 419.921 26.322C419.717 26.082 419.369 25.962 418.877 25.962C418.505 25.962 418.127 26.034 417.743 26.178C417.359 26.322 416.951 26.52 416.519 26.772L415.565 25.026C416.129 24.678 416.729 24.396 417.365 24.18C418.001 23.964 418.673 23.856 419.381 23.856C420.521 23.856 421.397 24.186 422.009 24.846C422.621 25.506 422.927 26.52 422.927 27.888V33H420.767L420.587 32.082H420.515C420.131 32.418 419.729 32.694 419.309 32.91C418.889 33.114 418.427 33.216 417.923 33.216ZM426.965 33V24.072H429.125L429.305 25.638H429.377C429.701 25.038 430.091 24.594 430.547 24.306C431.003 24.006 431.459 23.856 431.915 23.856C432.167 23.856 432.371 23.874 432.527 23.91C432.695 23.946 432.845 23.988 432.977 24.036L432.545 26.322C432.389 26.274 432.233 26.238 432.077 26.214C431.933 26.19 431.765 26.178 431.573 26.178C431.237 26.178 430.883 26.304 430.511 26.556C430.151 26.796 429.851 27.216 429.611 27.816V33H426.965ZM437.05 36.492C436.786 36.492 436.552 36.474 436.348 36.438C436.156 36.402 435.97 36.36 435.79 36.312L436.258 34.296C436.342 34.32 436.438 34.344 436.546 34.368C436.654 34.392 436.756 34.404 436.852 34.404C437.296 34.404 437.638 34.296 437.878 34.08C438.118 33.864 438.298 33.582 438.418 33.234L438.544 32.766L435.106 24.072H437.77L439.048 27.906C439.18 28.314 439.3 28.728 439.408 29.148C439.516 29.568 439.63 30 439.75 30.444H439.822C439.918 30.024 440.014 29.604 440.11 29.184C440.218 28.752 440.326 28.326 440.434 27.906L441.514 24.072H444.052L440.956 33.09C440.536 34.218 440.044 35.064 439.48 35.628C438.916 36.204 438.106 36.492 437.05 36.492ZM454.36 28.248H456.772V26.394C456.772 26.022 456.784 25.596 456.808 25.116C456.832 24.624 456.856 24.198 456.88 23.838H456.808C456.664 24.15 456.514 24.468 456.358 24.792C456.202 25.116 456.04 25.44 455.872 25.764L454.36 28.248ZM460.552 30.264H459.238V33H456.772V30.264H451.822V28.446L455.998 21.57H459.238V28.248H460.552V30.264ZM467.542 33.216C466.318 33.216 465.328 32.706 464.572 31.686C463.828 30.666 463.456 29.184 463.456 27.24C463.456 25.296 463.828 23.832 464.572 22.848C465.328 21.852 466.318 21.354 467.542 21.354C468.766 21.354 469.75 21.852 470.494 22.848C471.25 23.832 471.628 25.296 471.628 27.24C471.628 29.184 471.25 30.666 470.494 31.686C469.75 32.706 468.766 33.216 467.542 33.216ZM467.542 31.164C467.998 31.164 468.376 30.9 468.676 30.372C468.976 29.844 469.126 28.8 469.126 27.24C469.126 25.68 468.976 24.654 468.676 24.162C468.376 23.658 467.998 23.406 467.542 23.406C467.098 23.406 466.72 23.658 466.408 24.162C466.108 24.654 465.958 25.68 465.958 27.24C465.958 28.8 466.108 29.844 466.408 30.372C466.72 30.9 467.098 31.164 467.542 31.164ZM478.852 33.216C477.628 33.216 476.638 32.706 475.882 31.686C475.138 30.666 474.766 29.184 474.766 27.24C474.766 25.296 475.138 23.832 475.882 22.848C476.638 21.852 477.628 21.354 478.852 21.354C480.076 21.354 481.06 21.852 481.804 22.848C482.56 23.832 482.938 25.296 482.938 27.24C482.938 29.184 482.56 30.666 481.804 31.686C481.06 32.706 480.076 33.216 478.852 33.216ZM478.852 31.164C479.308 31.164 479.686 30.9 479.986 30.372C480.286 29.844 480.436 28.8 480.436 27.24C480.436 25.68 480.286 24.654 479.986 24.162C479.686 23.658 479.308 23.406 478.852 23.406C478.408 23.406 478.03 23.658 477.718 24.162C477.418 24.654 477.268 25.68 477.268 27.24C477.268 28.8 477.418 29.844 477.718 30.372C478.03 30.9 478.408 31.164 478.852 31.164Z" fill="white"/>
<path d="M370.386 210V198.264H374.418C375.702 198.264 376.8 198.54 377.712 199.092C378.624 199.644 379.08 200.628 379.08 202.044C379.08 203.424 378.624 204.432 377.712 205.068C376.8 205.704 375.726 206.022 374.49 206.022H373.032V210H370.386ZM373.032 203.916H374.328C375.768 203.916 376.488 203.292 376.488 202.044C376.488 201.432 376.296 201 375.912 200.748C375.528 200.496 374.976 200.37 374.256 200.37H373.032V203.916ZM382.693 210V201.072H384.853L385.033 202.638H385.105C385.429 202.038 385.819 201.594 386.275 201.306C386.731 201.006 387.187 200.856 387.643 200.856C387.895 200.856 388.099 200.874 388.255 200.91C388.423 200.946 388.573 200.988 388.705 201.036L388.273 203.322C388.117 203.274 387.961 203.238 387.805 203.214C387.661 203.19 387.493 203.178 387.301 203.178C386.965 203.178 386.611 203.304 386.239 203.556C385.879 203.796 385.579 204.216 385.339 204.816V210H382.693ZM392.979 199.758C392.535 199.758 392.169 199.632 391.881 199.38C391.593 199.116 391.449 198.78 391.449 198.372C391.449 197.964 391.593 197.634 391.881 197.382C392.169 197.13 392.535 197.004 392.979 197.004C393.435 197.004 393.801 197.13 394.077 197.382C394.365 197.634 394.509 197.964 394.509 198.372C394.509 198.78 394.365 199.116 394.077 199.38C393.801 199.632 393.435 199.758 392.979 199.758ZM391.665 210V201.072H394.311V210H391.665ZM398.439 210V201.072H400.599L400.779 202.224H400.851C401.223 201.852 401.619 201.534 402.039 201.27C402.459 200.994 402.963 200.856 403.551 200.856C404.187 200.856 404.697 200.988 405.081 201.252C405.477 201.504 405.789 201.87 406.017 202.35C406.413 201.942 406.827 201.594 407.259 201.306C407.703 201.006 408.225 200.856 408.825 200.856C409.785 200.856 410.487 201.18 410.931 201.828C411.387 202.464 411.615 203.34 411.615 204.456V210H408.969V204.798C408.969 204.15 408.879 203.706 408.699 203.466C408.519 203.226 408.243 203.106 407.871 203.106C407.427 203.106 406.917 203.394 406.341 203.97V210H403.695V204.798C403.695 204.15 403.605 203.706 403.425 203.466C403.257 203.226 402.981 203.106 402.597 203.106C402.141 203.106 401.637 203.394 401.085 203.97V210H398.439ZM418.823 208.164C419.123 208.164 419.381 208.098 419.597 207.966C419.825 207.834 420.053 207.648 420.281 207.408V205.842C419.345 205.974 418.697 206.166 418.337 206.418C417.977 206.67 417.797 206.97 417.797 207.318C417.797 207.882 418.139 208.164 418.823 208.164ZM417.923 210.216C417.107 210.216 416.459 209.958 415.979 209.442C415.499 208.914 415.259 208.272 415.259 207.516C415.259 206.58 415.655 205.848 416.447 205.32C417.239 204.792 418.517 204.438 420.281 204.258C420.257 203.862 420.137 203.55 419.921 203.322C419.717 203.082 419.369 202.962 418.877 202.962C418.505 202.962 418.127 203.034 417.743 203.178C417.359 203.322 416.951 203.52 416.519 203.772L415.565 202.026C416.129 201.678 416.729 201.396 417.365 201.18C418.001 200.964 418.673 200.856 419.381 200.856C420.521 200.856 421.397 201.186 422.009 201.846C422.621 202.506 422.927 203.52 422.927 204.888V210H420.767L420.587 209.082H420.515C420.131 209.418 419.729 209.694 419.309 209.91C418.889 210.114 418.427 210.216 417.923 210.216ZM426.965 210V201.072H429.125L429.305 202.638H429.377C429.701 202.038 430.091 201.594 430.547 201.306C431.003 201.006 431.459 200.856 431.915 200.856C432.167 200.856 432.371 200.874 432.527 200.91C432.695 200.946 432.845 200.988 432.977 201.036L432.545 203.322C432.389 203.274 432.233 203.238 432.077 203.214C431.933 203.19 431.765 203.178 431.573 203.178C431.237 203.178 430.883 203.304 430.511 203.556C430.151 203.796 429.851 204.216 429.611 204.816V210H426.965ZM437.05 213.492C436.786 213.492 436.552 213.474 436.348 213.438C436.156 213.402 435.97 213.36 435.79 213.312L436.258 211.296C436.342 211.32 436.438 211.344 436.546 211.368C436.654 211.392 436.756 211.404 436.852 211.404C437.296 211.404 437.638 211.296 437.878 211.08C438.118 210.864 438.298 210.582 438.418 210.234L438.544 209.766L435.106 201.072H437.77L439.048 204.906C439.18 205.314 439.3 205.728 439.408 206.148C439.516 206.568 439.63 207 439.75 207.444H439.822C439.918 207.024 440.014 206.604 440.11 206.184C440.218 205.752 440.326 205.326 440.434 204.906L441.514 201.072H444.052L440.956 210.09C440.536 211.218 440.044 212.064 439.48 212.628C438.916 213.204 438.106 213.492 437.05 213.492ZM460.336 206.382C460.336 207.57 459.958 208.506 459.202 209.19C458.458 209.874 457.57 210.216 456.538 210.216C455.806 210.216 455.11 210.024 454.45 209.64C453.79 209.244 453.25 208.632 452.83 207.804C452.422 206.964 452.218 205.878 452.218 204.546C452.218 203.118 452.434 201.948 452.866 201.036C453.31 200.124 453.88 199.452 454.576 199.02C455.284 198.576 456.04 198.354 456.844 198.354C457.6 198.354 458.254 198.492 458.806 198.768C459.358 199.032 459.814 199.35 460.174 199.722L458.788 201.306C458.596 201.09 458.332 200.904 457.996 200.748C457.672 200.58 457.342 200.496 457.006 200.496C456.382 200.496 455.842 200.76 455.386 201.288C454.942 201.804 454.696 202.728 454.648 204.06C454.948 203.676 455.314 203.382 455.746 203.178C456.178 202.962 456.574 202.854 456.934 202.854C457.918 202.854 458.728 203.142 459.364 203.718C460.012 204.282 460.336 205.17 460.336 206.382ZM456.484 208.236C456.88 208.236 457.216 208.092 457.492 207.804C457.78 207.504 457.924 207.03 457.924 206.382C457.924 205.782 457.78 205.356 457.492 205.104C457.216 204.852 456.862 204.726 456.43 204.726C456.13 204.726 455.824 204.816 455.512 204.996C455.212 205.164 454.942 205.452 454.702 205.86C454.822 206.76 455.05 207.384 455.386 207.732C455.722 208.068 456.088 208.236 456.484 208.236ZM467.542 210.216C466.318 210.216 465.328 209.706 464.572 208.686C463.828 207.666 463.456 206.184 463.456 204.24C463.456 202.296 463.828 200.832 464.572 199.848C465.328 198.852 466.318 198.354 467.542 198.354C468.766 198.354 469.75 198.852 470.494 199.848C471.25 200.832 471.628 202.296 471.628 204.24C471.628 206.184 471.25 207.666 470.494 208.686C469.75 209.706 468.766 210.216 467.542 210.216ZM467.542 208.164C467.998 208.164 468.376 207.9 468.676 207.372C468.976 206.844 469.126 205.8 469.126 204.24C469.126 202.68 468.976 201.654 468.676 201.162C468.376 200.658 467.998 200.406 467.542 200.406C467.098 200.406 466.72 200.658 466.408 201.162C466.108 201.654 465.958 202.68 465.958 204.24C465.958 205.8 466.108 206.844 466.408 207.372C466.72 207.9 467.098 208.164 467.542 208.164ZM478.852 210.216C477.628 210.216 476.638 209.706 475.882 208.686C475.138 207.666 474.766 206.184 474.766 204.24C474.766 202.296 475.138 200.832 475.882 199.848C476.638 198.852 477.628 198.354 478.852 198.354C480.076 198.354 481.06 198.852 481.804 199.848C482.56 200.832 482.938 202.296 482.938 204.24C482.938 206.184 482.56 207.666 481.804 208.686C481.06 209.706 480.076 210.216 478.852 210.216ZM478.852 208.164C479.308 208.164 479.686 207.9 479.986 207.372C480.286 206.844 480.436 205.8 480.436 204.24C480.436 202.68 480.286 201.654 479.986 201.162C479.686 200.658 479.308 200.406 478.852 200.406C478.408 200.406 478.03 200.658 477.718 201.162C477.418 201.654 477.268 202.68 477.268 204.24C477.268 205.8 477.418 206.844 477.718 207.372C478.03 207.9 478.408 208.164 478.852 208.164Z" fill="white"/>
<path d="M547.386 33V21.264H551.418C552.702 21.264 553.8 21.54 554.712 22.092C555.624 22.644 556.08 23.628 556.08 25.044C556.08 26.424 555.624 27.432 554.712 28.068C553.8 28.704 552.726 29.022 551.49 29.022H550.032V33H547.386ZM550.032 26.916H551.328C552.768 26.916 553.488 26.292 553.488 25.044C553.488 24.432 553.296 24 552.912 23.748C552.528 23.496 551.976 23.37 551.256 23.37H550.032V26.916ZM559.693 33V24.072H561.853L562.033 25.638H562.105C562.429 25.038 562.819 24.594 563.275 24.306C563.731 24.006 564.187 23.856 564.643 23.856C564.895 23.856 565.099 23.874 565.255 23.91C565.423 23.946 565.573 23.988 565.705 24.036L565.273 26.322C565.117 26.274 564.961 26.238 564.805 26.214C564.661 26.19 564.493 26.178 564.301 26.178C563.965 26.178 563.611 26.304 563.239 26.556C562.879 26.796 562.579 27.216 562.339 27.816V33H559.693ZM569.979 22.758C569.535 22.758 569.169 22.632 568.881 22.38C568.593 22.116 568.449 21.78 568.449 21.372C568.449 20.964 568.593 20.634 568.881 20.382C569.169 20.13 569.535 20.004 569.979 20.004C570.435 20.004 570.801 20.13 571.077 20.382C571.365 20.634 571.509 20.964 571.509 21.372C571.509 21.78 571.365 22.116 571.077 22.38C570.801 22.632 570.435 22.758 569.979 22.758ZM568.665 33V24.072H571.311V33H568.665ZM575.439 33V24.072H577.599L577.779 25.224H577.851C578.223 24.852 578.619 24.534 579.039 24.27C579.459 23.994 579.963 23.856 580.551 23.856C581.187 23.856 581.697 23.988 582.081 24.252C582.477 24.504 582.789 24.87 583.017 25.35C583.413 24.942 583.827 24.594 584.259 24.306C584.703 24.006 585.225 23.856 585.825 23.856C586.785 23.856 587.487 24.18 587.931 24.828C588.387 25.464 588.615 26.34 588.615 27.456V33H585.969V27.798C585.969 27.15 585.879 26.706 585.699 26.466C585.519 26.226 585.243 26.106 584.871 26.106C584.427 26.106 583.917 26.394 583.341 26.97V33H580.695V27.798C580.695 27.15 580.605 26.706 580.425 26.466C580.257 26.226 579.981 26.106 579.597 26.106C579.141 26.106 578.637 26.394 578.085 26.97V33H575.439ZM595.823 31.164C596.123 31.164 596.381 31.098 596.597 30.966C596.825 30.834 597.053 30.648 597.281 30.408V28.842C596.345 28.974 595.697 29.166 595.337 29.418C594.977 29.67 594.797 29.97 594.797 30.318C594.797 30.882 595.139 31.164 595.823 31.164ZM594.923 33.216C594.107 33.216 593.459 32.958 592.979 32.442C592.499 31.914 592.259 31.272 592.259 30.516C592.259 29.58 592.655 28.848 593.447 28.32C594.239 27.792 595.517 27.438 597.281 27.258C597.257 26.862 597.137 26.55 596.921 26.322C596.717 26.082 596.369 25.962 595.877 25.962C595.505 25.962 595.127 26.034 594.743 26.178C594.359 26.322 593.951 26.52 593.519 26.772L592.565 25.026C593.129 24.678 593.729 24.396 594.365 24.18C595.001 23.964 595.673 23.856 596.381 23.856C597.521 23.856 598.397 24.186 599.009 24.846C599.621 25.506 599.927 26.52 599.927 27.888V33H597.767L597.587 32.082H597.515C597.131 32.418 596.729 32.694 596.309 32.91C595.889 33.114 595.427 33.216 594.923 33.216ZM603.965 33V24.072H606.125L606.305 25.638H606.377C606.701 25.038 607.091 24.594 607.547 24.306C608.003 24.006 608.459 23.856 608.915 23.856C609.167 23.856 609.371 23.874 609.527 23.91C609.695 23.946 609.845 23.988 609.977 24.036L609.545 26.322C609.389 26.274 609.233 26.238 609.077 26.214C608.933 26.19 608.765 26.178 608.573 26.178C608.237 26.178 607.883 26.304 607.511 26.556C607.151 26.796 606.851 27.216 606.611 27.816V33H603.965ZM614.05 36.492C613.786 36.492 613.552 36.474 613.348 36.438C613.156 36.402 612.97 36.36 612.79 36.312L613.258 34.296C613.342 34.32 613.438 34.344 613.546 34.368C613.654 34.392 613.756 34.404 613.852 34.404C614.296 34.404 614.638 34.296 614.878 34.08C615.118 33.864 615.298 33.582 615.418 33.234L615.544 32.766L612.106 24.072H614.77L616.048 27.906C616.18 28.314 616.3 28.728 616.408 29.148C616.516 29.568 616.63 30 616.75 30.444H616.822C616.918 30.024 617.014 29.604 617.11 29.184C617.218 28.752 617.326 28.326 617.434 27.906L618.514 24.072H621.052L617.956 33.09C617.536 34.218 617.044 35.064 616.48 35.628C615.916 36.204 615.106 36.492 614.05 36.492ZM632.854 33.216C631.93 33.216 631.138 33.066 630.478 32.766C629.818 32.466 629.284 32.076 628.876 31.596L630.1 29.922C630.436 30.258 630.814 30.534 631.234 30.75C631.654 30.966 632.11 31.074 632.602 31.074C633.166 31.074 633.616 30.96 633.952 30.732C634.288 30.492 634.456 30.156 634.456 29.724C634.456 29.22 634.252 28.824 633.844 28.536C633.436 28.236 632.614 28.086 631.378 28.086V26.214C632.398 26.214 633.1 26.076 633.484 25.8C633.88 25.512 634.078 25.14 634.078 24.684C634.078 23.844 633.61 23.424 632.674 23.424C632.266 23.424 631.894 23.514 631.558 23.694C631.234 23.874 630.892 24.12 630.532 24.432L629.2 22.812C629.728 22.356 630.286 22.002 630.874 21.75C631.462 21.486 632.104 21.354 632.8 21.354C633.976 21.354 634.924 21.63 635.644 22.182C636.376 22.722 636.742 23.49 636.742 24.486C636.742 25.638 636.106 26.484 634.834 27.024V27.096C635.494 27.288 636.034 27.618 636.454 28.086C636.886 28.554 637.102 29.154 637.102 29.886C637.102 30.954 636.682 31.776 635.842 32.352C635.002 32.928 634.006 33.216 632.854 33.216ZM644.542 33.216C643.318 33.216 642.328 32.706 641.572 31.686C640.828 30.666 640.456 29.184 640.456 27.24C640.456 25.296 640.828 23.832 641.572 22.848C642.328 21.852 643.318 21.354 644.542 21.354C645.766 21.354 646.75 21.852 647.494 22.848C648.25 23.832 648.628 25.296 648.628 27.24C648.628 29.184 648.25 30.666 647.494 31.686C646.75 32.706 645.766 33.216 644.542 33.216ZM644.542 31.164C644.998 31.164 645.376 30.9 645.676 30.372C645.976 29.844 646.126 28.8 646.126 27.24C646.126 25.68 645.976 24.654 645.676 24.162C645.376 23.658 644.998 23.406 644.542 23.406C644.098 23.406 643.72 23.658 643.408 24.162C643.108 24.654 642.958 25.68 642.958 27.24C642.958 28.8 643.108 29.844 643.408 30.372C643.72 30.9 644.098 31.164 644.542 31.164ZM655.852 33.216C654.628 33.216 653.638 32.706 652.882 31.686C652.138 30.666 651.766 29.184 651.766 27.24C651.766 25.296 652.138 23.832 652.882 22.848C653.638 21.852 654.628 21.354 655.852 21.354C657.076 21.354 658.06 21.852 658.804 22.848C659.56 23.832 659.938 25.296 659.938 27.24C659.938 29.184 659.56 30.666 658.804 31.686C658.06 32.706 657.076 33.216 655.852 33.216ZM655.852 31.164C656.308 31.164 656.686 30.9 656.986 30.372C657.286 29.844 657.436 28.8 657.436 27.24C657.436 25.68 657.286 24.654 656.986 24.162C656.686 23.658 656.308 23.406 655.852 23.406C655.408 23.406 655.03 23.658 654.718 24.162C654.418 24.654 654.268 25.68 654.268 27.24C654.268 28.8 654.418 29.844 654.718 30.372C655.03 30.9 655.408 31.164 655.852 31.164Z" fill="white"/>
<path d="M547.386 210V198.264H551.418C552.702 198.264 553.8 198.54 554.712 199.092C555.624 199.644 556.08 200.628 556.08 202.044C556.08 203.424 555.624 204.432 554.712 205.068C553.8 205.704 552.726 206.022 551.49 206.022H550.032V210H547.386ZM550.032 203.916H551.328C552.768 203.916 553.488 203.292 553.488 202.044C553.488 201.432 553.296 201 552.912 200.748C552.528 200.496 551.976 200.37 551.256 200.37H550.032V203.916ZM559.693 210V201.072H561.853L562.033 202.638H562.105C562.429 202.038 562.819 201.594 563.275 201.306C563.731 201.006 564.187 200.856 564.643 200.856C564.895 200.856 565.099 200.874 565.255 200.91C565.423 200.946 565.573 200.988 565.705 201.036L565.273 203.322C565.117 203.274 564.961 203.238 564.805 203.214C564.661 203.19 564.493 203.178 564.301 203.178C563.965 203.178 563.611 203.304 563.239 203.556C562.879 203.796 562.579 204.216 562.339 204.816V210H559.693ZM569.979 199.758C569.535 199.758 569.169 199.632 568.881 199.38C568.593 199.116 568.449 198.78 568.449 198.372C568.449 197.964 568.593 197.634 568.881 197.382C569.169 197.13 569.535 197.004 569.979 197.004C570.435 197.004 570.801 197.13 571.077 197.382C571.365 197.634 571.509 197.964 571.509 198.372C571.509 198.78 571.365 199.116 571.077 199.38C570.801 199.632 570.435 199.758 569.979 199.758ZM568.665 210V201.072H571.311V210H568.665ZM575.439 210V201.072H577.599L577.779 202.224H577.851C578.223 201.852 578.619 201.534 579.039 201.27C579.459 200.994 579.963 200.856 580.551 200.856C581.187 200.856 581.697 200.988 582.081 201.252C582.477 201.504 582.789 201.87 583.017 202.35C583.413 201.942 583.827 201.594 584.259 201.306C584.703 201.006 585.225 200.856 585.825 200.856C586.785 200.856 587.487 201.18 587.931 201.828C588.387 202.464 588.615 203.34 588.615 204.456V210H585.969V204.798C585.969 204.15 585.879 203.706 585.699 203.466C585.519 203.226 585.243 203.106 584.871 203.106C584.427 203.106 583.917 203.394 583.341 203.97V210H580.695V204.798C580.695 204.15 580.605 203.706 580.425 203.466C580.257 203.226 579.981 203.106 579.597 203.106C579.141 203.106 578.637 203.394 578.085 203.97V210H575.439ZM595.823 208.164C596.123 208.164 596.381 208.098 596.597 207.966C596.825 207.834 597.053 207.648 597.281 207.408V205.842C596.345 205.974 595.697 206.166 595.337 206.418C594.977 206.67 594.797 206.97 594.797 207.318C594.797 207.882 595.139 208.164 595.823 208.164ZM594.923 210.216C594.107 210.216 593.459 209.958 592.979 209.442C592.499 208.914 592.259 208.272 592.259 207.516C592.259 206.58 592.655 205.848 593.447 205.32C594.239 204.792 595.517 204.438 597.281 204.258C597.257 203.862 597.137 203.55 596.921 203.322C596.717 203.082 596.369 202.962 595.877 202.962C595.505 202.962 595.127 203.034 594.743 203.178C594.359 203.322 593.951 203.52 593.519 203.772L592.565 202.026C593.129 201.678 593.729 201.396 594.365 201.18C595.001 200.964 595.673 200.856 596.381 200.856C597.521 200.856 598.397 201.186 599.009 201.846C599.621 202.506 599.927 203.52 599.927 204.888V210H597.767L597.587 209.082H597.515C597.131 209.418 596.729 209.694 596.309 209.91C595.889 210.114 595.427 210.216 594.923 210.216ZM603.965 210V201.072H606.125L606.305 202.638H606.377C606.701 202.038 607.091 201.594 607.547 201.306C608.003 201.006 608.459 200.856 608.915 200.856C609.167 200.856 609.371 200.874 609.527 200.91C609.695 200.946 609.845 200.988 609.977 201.036L609.545 203.322C609.389 203.274 609.233 203.238 609.077 203.214C608.933 203.19 608.765 203.178 608.573 203.178C608.237 203.178 607.883 203.304 607.511 203.556C607.151 203.796 606.851 204.216 606.611 204.816V210H603.965ZM614.05 213.492C613.786 213.492 613.552 213.474 613.348 213.438C613.156 213.402 612.97 213.36 612.79 213.312L613.258 211.296C613.342 211.32 613.438 211.344 613.546 211.368C613.654 211.392 613.756 211.404 613.852 211.404C614.296 211.404 614.638 211.296 614.878 211.08C615.118 210.864 615.298 210.582 615.418 210.234L615.544 209.766L612.106 201.072H614.77L616.048 204.906C616.18 205.314 616.3 205.728 616.408 206.148C616.516 206.568 616.63 207 616.75 207.444H616.822C616.918 207.024 617.014 206.604 617.11 206.184C617.218 205.752 617.326 205.326 617.434 204.906L618.514 201.072H621.052L617.956 210.09C617.536 211.218 617.044 212.064 616.48 212.628C615.916 213.204 615.106 213.492 614.05 213.492ZM631.342 210C631.414 208.728 631.552 207.588 631.756 206.58C631.96 205.572 632.272 204.606 632.692 203.682C633.112 202.758 633.682 201.798 634.402 200.802H629.272V198.57H637.228V200.19C636.34 201.258 635.68 202.254 635.248 203.178C634.816 204.102 634.516 205.098 634.348 206.166C634.18 207.234 634.066 208.512 634.006 210H631.342ZM644.542 210.216C643.318 210.216 642.328 209.706 641.572 208.686C640.828 207.666 640.456 206.184 640.456 204.24C640.456 202.296 640.828 200.832 641.572 199.848C642.328 198.852 643.318 198.354 644.542 198.354C645.766 198.354 646.75 198.852 647.494 199.848C648.25 200.832 648.628 202.296 648.628 204.24C648.628 206.184 648.25 207.666 647.494 208.686C646.75 209.706 645.766 210.216 644.542 210.216ZM644.542 208.164C644.998 208.164 645.376 207.9 645.676 207.372C645.976 206.844 646.126 205.8 646.126 204.24C646.126 202.68 645.976 201.654 645.676 201.162C645.376 200.658 644.998 200.406 644.542 200.406C644.098 200.406 643.72 200.658 643.408 201.162C643.108 201.654 642.958 202.68 642.958 204.24C642.958 205.8 643.108 206.844 643.408 207.372C643.72 207.9 644.098 208.164 644.542 208.164ZM655.852 210.216C654.628 210.216 653.638 209.706 652.882 208.686C652.138 207.666 651.766 206.184 651.766 204.24C651.766 202.296 652.138 200.832 652.882 199.848C653.638 198.852 654.628 198.354 655.852 198.354C657.076 198.354 658.06 198.852 658.804 199.848C659.56 200.832 659.938 202.296 659.938 204.24C659.938 206.184 659.56 207.666 658.804 208.686C658.06 209.706 657.076 210.216 655.852 210.216ZM655.852 208.164C656.308 208.164 656.686 207.9 656.986 207.372C657.286 206.844 657.436 205.8 657.436 204.24C657.436 202.68 657.286 201.654 656.986 201.162C656.686 200.658 656.308 200.406 655.852 200.406C655.408 200.406 655.03 200.658 654.718 201.162C654.418 201.654 654.268 202.68 654.268 204.24C654.268 205.8 654.418 206.844 654.718 207.372C655.03 207.9 655.408 208.164 655.852 208.164Z" fill="white"/>
<path d="M724.386 33V21.264H728.418C729.702 21.264 730.8 21.54 731.712 22.092C732.624 22.644 733.08 23.628 733.08 25.044C733.08 26.424 732.624 27.432 731.712 28.068C730.8 28.704 729.726 29.022 728.49 29.022H727.032V33H724.386ZM727.032 26.916H728.328C729.768 26.916 730.488 26.292 730.488 25.044C730.488 24.432 730.296 24 729.912 23.748C729.528 23.496 728.976 23.37 728.256 23.37H727.032V26.916ZM736.693 33V24.072H738.853L739.033 25.638H739.105C739.429 25.038 739.819 24.594 740.275 24.306C740.731 24.006 741.187 23.856 741.643 23.856C741.895 23.856 742.099 23.874 742.255 23.91C742.423 23.946 742.573 23.988 742.705 24.036L742.273 26.322C742.117 26.274 741.961 26.238 741.805 26.214C741.661 26.19 741.493 26.178 741.301 26.178C740.965 26.178 740.611 26.304 740.239 26.556C739.879 26.796 739.579 27.216 739.339 27.816V33H736.693ZM746.979 22.758C746.535 22.758 746.169 22.632 745.881 22.38C745.593 22.116 745.449 21.78 745.449 21.372C745.449 20.964 745.593 20.634 745.881 20.382C746.169 20.13 746.535 20.004 746.979 20.004C747.435 20.004 747.801 20.13 748.077 20.382C748.365 20.634 748.509 20.964 748.509 21.372C748.509 21.78 748.365 22.116 748.077 22.38C747.801 22.632 747.435 22.758 746.979 22.758ZM745.665 33V24.072H748.311V33H745.665ZM752.439 33V24.072H754.599L754.779 25.224H754.851C755.223 24.852 755.619 24.534 756.039 24.27C756.459 23.994 756.963 23.856 757.551 23.856C758.187 23.856 758.697 23.988 759.081 24.252C759.477 24.504 759.789 24.87 760.017 25.35C760.413 24.942 760.827 24.594 761.259 24.306C761.703 24.006 762.225 23.856 762.825 23.856C763.785 23.856 764.487 24.18 764.931 24.828C765.387 25.464 765.615 26.34 765.615 27.456V33H762.969V27.798C762.969 27.15 762.879 26.706 762.699 26.466C762.519 26.226 762.243 26.106 761.871 26.106C761.427 26.106 760.917 26.394 760.341 26.97V33H757.695V27.798C757.695 27.15 757.605 26.706 757.425 26.466C757.257 26.226 756.981 26.106 756.597 26.106C756.141 26.106 755.637 26.394 755.085 26.97V33H752.439ZM772.823 31.164C773.123 31.164 773.381 31.098 773.597 30.966C773.825 30.834 774.053 30.648 774.281 30.408V28.842C773.345 28.974 772.697 29.166 772.337 29.418C771.977 29.67 771.797 29.97 771.797 30.318C771.797 30.882 772.139 31.164 772.823 31.164ZM771.923 33.216C771.107 33.216 770.459 32.958 769.979 32.442C769.499 31.914 769.259 31.272 769.259 30.516C769.259 29.58 769.655 28.848 770.447 28.32C771.239 27.792 772.517 27.438 774.281 27.258C774.257 26.862 774.137 26.55 773.921 26.322C773.717 26.082 773.369 25.962 772.877 25.962C772.505 25.962 772.127 26.034 771.743 26.178C771.359 26.322 770.951 26.52 770.519 26.772L769.565 25.026C770.129 24.678 770.729 24.396 771.365 24.18C772.001 23.964 772.673 23.856 773.381 23.856C774.521 23.856 775.397 24.186 776.009 24.846C776.621 25.506 776.927 26.52 776.927 27.888V33H774.767L774.587 32.082H774.515C774.131 32.418 773.729 32.694 773.309 32.91C772.889 33.114 772.427 33.216 771.923 33.216ZM780.965 33V24.072H783.125L783.305 25.638H783.377C783.701 25.038 784.091 24.594 784.547 24.306C785.003 24.006 785.459 23.856 785.915 23.856C786.167 23.856 786.371 23.874 786.527 23.91C786.695 23.946 786.845 23.988 786.977 24.036L786.545 26.322C786.389 26.274 786.233 26.238 786.077 26.214C785.933 26.19 785.765 26.178 785.573 26.178C785.237 26.178 784.883 26.304 784.511 26.556C784.151 26.796 783.851 27.216 783.611 27.816V33H780.965ZM791.05 36.492C790.786 36.492 790.552 36.474 790.348 36.438C790.156 36.402 789.97 36.36 789.79 36.312L790.258 34.296C790.342 34.32 790.438 34.344 790.546 34.368C790.654 34.392 790.756 34.404 790.852 34.404C791.296 34.404 791.638 34.296 791.878 34.08C792.118 33.864 792.298 33.582 792.418 33.234L792.544 32.766L789.106 24.072H791.77L793.048 27.906C793.18 28.314 793.3 28.728 793.408 29.148C793.516 29.568 793.63 30 793.75 30.444H793.822C793.918 30.024 794.014 29.604 794.11 29.184C794.218 28.752 794.326 28.326 794.434 27.906L795.514 24.072H798.052L794.956 33.09C794.536 34.218 794.044 35.064 793.48 35.628C792.916 36.204 792.106 36.492 791.05 36.492ZM806.146 33V31.488C807.598 30.108 808.786 28.914 809.71 27.906C810.646 26.886 811.114 25.968 811.114 25.152C811.114 24.6 810.964 24.174 810.664 23.874C810.376 23.574 809.986 23.424 809.494 23.424C809.074 23.424 808.702 23.544 808.378 23.784C808.054 24.024 807.748 24.294 807.46 24.594L806.02 23.172C806.584 22.572 807.16 22.122 807.748 21.822C808.336 21.51 809.038 21.354 809.854 21.354C810.982 21.354 811.894 21.69 812.59 22.362C813.286 23.022 813.634 23.898 813.634 24.99C813.634 25.95 813.256 26.934 812.5 27.942C811.744 28.95 810.904 29.94 809.98 30.912C810.268 30.876 810.592 30.846 810.952 30.822C811.312 30.786 811.624 30.768 811.888 30.768H814.192V33H806.146ZM821.542 33.216C820.318 33.216 819.328 32.706 818.572 31.686C817.828 30.666 817.456 29.184 817.456 27.24C817.456 25.296 817.828 23.832 818.572 22.848C819.328 21.852 820.318 21.354 821.542 21.354C822.766 21.354 823.75 21.852 824.494 22.848C825.25 23.832 825.628 25.296 825.628 27.24C825.628 29.184 825.25 30.666 824.494 31.686C823.75 32.706 822.766 33.216 821.542 33.216ZM821.542 31.164C821.998 31.164 822.376 30.9 822.676 30.372C822.976 29.844 823.126 28.8 823.126 27.24C823.126 25.68 822.976 24.654 822.676 24.162C822.376 23.658 821.998 23.406 821.542 23.406C821.098 23.406 820.72 23.658 820.408 24.162C820.108 24.654 819.958 25.68 819.958 27.24C819.958 28.8 820.108 29.844 820.408 30.372C820.72 30.9 821.098 31.164 821.542 31.164ZM832.852 33.216C831.628 33.216 830.638 32.706 829.882 31.686C829.138 30.666 828.766 29.184 828.766 27.24C828.766 25.296 829.138 23.832 829.882 22.848C830.638 21.852 831.628 21.354 832.852 21.354C834.076 21.354 835.06 21.852 835.804 22.848C836.56 23.832 836.938 25.296 836.938 27.24C836.938 29.184 836.56 30.666 835.804 31.686C835.06 32.706 834.076 33.216 832.852 33.216ZM832.852 31.164C833.308 31.164 833.686 30.9 833.986 30.372C834.286 29.844 834.436 28.8 834.436 27.24C834.436 25.68 834.286 24.654 833.986 24.162C833.686 23.658 833.308 23.406 832.852 23.406C832.408 23.406 832.03 23.658 831.718 24.162C831.418 24.654 831.268 25.68 831.268 27.24C831.268 28.8 831.418 29.844 831.718 30.372C832.03 30.9 832.408 31.164 832.852 31.164Z" fill="black"/>
<path d="M724.386 210V198.264H728.418C729.702 198.264 730.8 198.54 731.712 199.092C732.624 199.644 733.08 200.628 733.08 202.044C733.08 203.424 732.624 204.432 731.712 205.068C730.8 205.704 729.726 206.022 728.49 206.022H727.032V210H724.386ZM727.032 203.916H728.328C729.768 203.916 730.488 203.292 730.488 202.044C730.488 201.432 730.296 201 729.912 200.748C729.528 200.496 728.976 200.37 728.256 200.37H727.032V203.916ZM736.693 210V201.072H738.853L739.033 202.638H739.105C739.429 202.038 739.819 201.594 740.275 201.306C740.731 201.006 741.187 200.856 741.643 200.856C741.895 200.856 742.099 200.874 742.255 200.91C742.423 200.946 742.573 200.988 742.705 201.036L742.273 203.322C742.117 203.274 741.961 203.238 741.805 203.214C741.661 203.19 741.493 203.178 741.301 203.178C740.965 203.178 740.611 203.304 740.239 203.556C739.879 203.796 739.579 204.216 739.339 204.816V210H736.693ZM746.979 199.758C746.535 199.758 746.169 199.632 745.881 199.38C745.593 199.116 745.449 198.78 745.449 198.372C745.449 197.964 745.593 197.634 745.881 197.382C746.169 197.13 746.535 197.004 746.979 197.004C747.435 197.004 747.801 197.13 748.077 197.382C748.365 197.634 748.509 197.964 748.509 198.372C748.509 198.78 748.365 199.116 748.077 199.38C747.801 199.632 747.435 199.758 746.979 199.758ZM745.665 210V201.072H748.311V210H745.665ZM752.439 210V201.072H754.599L754.779 202.224H754.851C755.223 201.852 755.619 201.534 756.039 201.27C756.459 200.994 756.963 200.856 757.551 200.856C758.187 200.856 758.697 200.988 759.081 201.252C759.477 201.504 759.789 201.87 760.017 202.35C760.413 201.942 760.827 201.594 761.259 201.306C761.703 201.006 762.225 200.856 762.825 200.856C763.785 200.856 764.487 201.18 764.931 201.828C765.387 202.464 765.615 203.34 765.615 204.456V210H762.969V204.798C762.969 204.15 762.879 203.706 762.699 203.466C762.519 203.226 762.243 203.106 761.871 203.106C761.427 203.106 760.917 203.394 760.341 203.97V210H757.695V204.798C757.695 204.15 757.605 203.706 757.425 203.466C757.257 203.226 756.981 203.106 756.597 203.106C756.141 203.106 755.637 203.394 755.085 203.97V210H752.439ZM772.823 208.164C773.123 208.164 773.381 208.098 773.597 207.966C773.825 207.834 774.053 207.648 774.281 207.408V205.842C773.345 205.974 772.697 206.166 772.337 206.418C771.977 206.67 771.797 206.97 771.797 207.318C771.797 207.882 772.139 208.164 772.823 208.164ZM771.923 210.216C771.107 210.216 770.459 209.958 769.979 209.442C769.499 208.914 769.259 208.272 769.259 207.516C769.259 206.58 769.655 205.848 770.447 205.32C771.239 204.792 772.517 204.438 774.281 204.258C774.257 203.862 774.137 203.55 773.921 203.322C773.717 203.082 773.369 202.962 772.877 202.962C772.505 202.962 772.127 203.034 771.743 203.178C771.359 203.322 770.951 203.52 770.519 203.772L769.565 202.026C770.129 201.678 770.729 201.396 771.365 201.18C772.001 200.964 772.673 200.856 773.381 200.856C774.521 200.856 775.397 201.186 776.009 201.846C776.621 202.506 776.927 203.52 776.927 204.888V210H774.767L774.587 209.082H774.515C774.131 209.418 773.729 209.694 773.309 209.91C772.889 210.114 772.427 210.216 771.923 210.216ZM780.965 210V201.072H783.125L783.305 202.638H783.377C783.701 202.038 784.091 201.594 784.547 201.306C785.003 201.006 785.459 200.856 785.915 200.856C786.167 200.856 786.371 200.874 786.527 200.91C786.695 200.946 786.845 200.988 786.977 201.036L786.545 203.322C786.389 203.274 786.233 203.238 786.077 203.214C785.933 203.19 785.765 203.178 785.573 203.178C785.237 203.178 784.883 203.304 784.511 203.556C784.151 203.796 783.851 204.216 783.611 204.816V210H780.965ZM791.05 213.492C790.786 213.492 790.552 213.474 790.348 213.438C790.156 213.402 789.97 213.36 789.79 213.312L790.258 211.296C790.342 211.32 790.438 211.344 790.546 211.368C790.654 211.392 790.756 211.404 790.852 211.404C791.296 211.404 791.638 211.296 791.878 211.08C792.118 210.864 792.298 210.582 792.418 210.234L792.544 209.766L789.106 201.072H791.77L793.048 204.906C793.18 205.314 793.3 205.728 793.408 206.148C793.516 206.568 793.63 207 793.75 207.444H793.822C793.918 207.024 794.014 206.604 794.11 206.184C794.218 205.752 794.326 205.326 794.434 204.906L795.514 201.072H798.052L794.956 210.09C794.536 211.218 794.044 212.064 793.48 212.628C792.916 213.204 792.106 213.492 791.05 213.492ZM810.214 210.216C809.074 210.216 808.126 209.928 807.37 209.352C806.614 208.764 806.236 208.008 806.236 207.084C806.236 206.388 806.422 205.818 806.794 205.374C807.178 204.93 807.64 204.564 808.18 204.276V204.204C807.736 203.868 807.37 203.484 807.082 203.052C806.794 202.62 806.65 202.104 806.65 201.504C806.65 200.532 806.992 199.764 807.676 199.2C808.372 198.636 809.248 198.354 810.304 198.354C811.348 198.354 812.188 198.642 812.824 199.218C813.46 199.782 813.778 200.538 813.778 201.486C813.778 202.038 813.628 202.53 813.328 202.962C813.028 203.382 812.68 203.724 812.284 203.988V204.06C812.836 204.36 813.304 204.744 813.688 205.212C814.072 205.68 814.264 206.292 814.264 207.048C814.264 207.948 813.892 208.704 813.148 209.316C812.404 209.916 811.426 210.216 810.214 210.216ZM810.934 203.34C811.402 202.8 811.636 202.242 811.636 201.666C811.636 201.222 811.51 200.868 811.258 200.604C811.018 200.328 810.682 200.19 810.25 200.19C809.902 200.19 809.602 200.298 809.35 200.514C809.098 200.73 808.972 201.06 808.972 201.504C808.972 201.972 809.152 202.338 809.512 202.602C809.872 202.866 810.346 203.112 810.934 203.34ZM810.268 208.38C810.712 208.38 811.078 208.266 811.366 208.038C811.654 207.798 811.798 207.438 811.798 206.958C811.798 206.454 811.576 206.076 811.132 205.824C810.688 205.56 810.106 205.272 809.386 204.96C809.134 205.2 808.924 205.476 808.756 205.788C808.588 206.1 808.504 206.43 808.504 206.778C808.504 207.282 808.678 207.678 809.026 207.966C809.374 208.242 809.788 208.38 810.268 208.38ZM821.542 210.216C820.318 210.216 819.328 209.706 818.572 208.686C817.828 207.666 817.456 206.184 817.456 204.24C817.456 202.296 817.828 200.832 818.572 199.848C819.328 198.852 820.318 198.354 821.542 198.354C822.766 198.354 823.75 198.852 824.494 199.848C825.25 200.832 825.628 202.296 825.628 204.24C825.628 206.184 825.25 207.666 824.494 208.686C823.75 209.706 822.766 210.216 821.542 210.216ZM821.542 208.164C821.998 208.164 822.376 207.9 822.676 207.372C822.976 206.844 823.126 205.8 823.126 204.24C823.126 202.68 822.976 201.654 822.676 201.162C822.376 200.658 821.998 200.406 821.542 200.406C821.098 200.406 820.72 200.658 820.408 201.162C820.108 201.654 819.958 202.68 819.958 204.24C819.958 205.8 820.108 206.844 820.408 207.372C820.72 207.9 821.098 208.164 821.542 208.164ZM832.852 210.216C831.628 210.216 830.638 209.706 829.882 208.686C829.138 207.666 828.766 206.184 828.766 204.24C828.766 202.296 829.138 200.832 829.882 199.848C830.638 198.852 831.628 198.354 832.852 198.354C834.076 198.354 835.06 198.852 835.804 199.848C836.56 200.832 836.938 202.296 836.938 204.24C836.938 206.184 836.56 207.666 835.804 208.686C835.06 209.706 834.076 210.216 832.852 210.216ZM832.852 208.164C833.308 208.164 833.686 207.9 833.986 207.372C834.286 206.844 834.436 205.8 834.436 204.24C834.436 202.68 834.286 201.654 833.986 201.162C833.686 200.658 833.308 200.406 832.852 200.406C832.408 200.406 832.03 200.658 831.718 201.162C831.418 201.654 831.268 202.68 831.268 204.24C831.268 205.8 831.418 206.844 831.718 207.372C832.03 207.9 832.408 208.164 832.852 208.164Z" fill="white"/>
<path d="M900.386 33V21.264H904.418C905.702 21.264 906.8 21.54 907.712 22.092C908.624 22.644 909.08 23.628 909.08 25.044C909.08 26.424 908.624 27.432 907.712 28.068C906.8 28.704 905.726 29.022 904.49 29.022H903.032V33H900.386ZM903.032 26.916H904.328C905.768 26.916 906.488 26.292 906.488 25.044C906.488 24.432 906.296 24 905.912 23.748C905.528 23.496 904.976 23.37 904.256 23.37H903.032V26.916ZM912.693 33V24.072H914.853L915.033 25.638H915.105C915.429 25.038 915.819 24.594 916.275 24.306C916.731 24.006 917.187 23.856 917.643 23.856C917.895 23.856 918.099 23.874 918.255 23.91C918.423 23.946 918.573 23.988 918.705 24.036L918.273 26.322C918.117 26.274 917.961 26.238 917.805 26.214C917.661 26.19 917.493 26.178 917.301 26.178C916.965 26.178 916.611 26.304 916.239 26.556C915.879 26.796 915.579 27.216 915.339 27.816V33H912.693ZM922.979 22.758C922.535 22.758 922.169 22.632 921.881 22.38C921.593 22.116 921.449 21.78 921.449 21.372C921.449 20.964 921.593 20.634 921.881 20.382C922.169 20.13 922.535 20.004 922.979 20.004C923.435 20.004 923.801 20.13 924.077 20.382C924.365 20.634 924.509 20.964 924.509 21.372C924.509 21.78 924.365 22.116 924.077 22.38C923.801 22.632 923.435 22.758 922.979 22.758ZM921.665 33V24.072H924.311V33H921.665ZM928.439 33V24.072H930.599L930.779 25.224H930.851C931.223 24.852 931.619 24.534 932.039 24.27C932.459 23.994 932.963 23.856 933.551 23.856C934.187 23.856 934.697 23.988 935.081 24.252C935.477 24.504 935.789 24.87 936.017 25.35C936.413 24.942 936.827 24.594 937.259 24.306C937.703 24.006 938.225 23.856 938.825 23.856C939.785 23.856 940.487 24.18 940.931 24.828C941.387 25.464 941.615 26.34 941.615 27.456V33H938.969V27.798C938.969 27.15 938.879 26.706 938.699 26.466C938.519 26.226 938.243 26.106 937.871 26.106C937.427 26.106 936.917 26.394 936.341 26.97V33H933.695V27.798C933.695 27.15 933.605 26.706 933.425 26.466C933.257 26.226 932.981 26.106 932.597 26.106C932.141 26.106 931.637 26.394 931.085 26.97V33H928.439ZM948.823 31.164C949.123 31.164 949.381 31.098 949.597 30.966C949.825 30.834 950.053 30.648 950.281 30.408V28.842C949.345 28.974 948.697 29.166 948.337 29.418C947.977 29.67 947.797 29.97 947.797 30.318C947.797 30.882 948.139 31.164 948.823 31.164ZM947.923 33.216C947.107 33.216 946.459 32.958 945.979 32.442C945.499 31.914 945.259 31.272 945.259 30.516C945.259 29.58 945.655 28.848 946.447 28.32C947.239 27.792 948.517 27.438 950.281 27.258C950.257 26.862 950.137 26.55 949.921 26.322C949.717 26.082 949.369 25.962 948.877 25.962C948.505 25.962 948.127 26.034 947.743 26.178C947.359 26.322 946.951 26.52 946.519 26.772L945.565 25.026C946.129 24.678 946.729 24.396 947.365 24.18C948.001 23.964 948.673 23.856 949.381 23.856C950.521 23.856 951.397 24.186 952.009 24.846C952.621 25.506 952.927 26.52 952.927 27.888V33H950.767L950.587 32.082H950.515C950.131 32.418 949.729 32.694 949.309 32.91C948.889 33.114 948.427 33.216 947.923 33.216ZM956.965 33V24.072H959.125L959.305 25.638H959.377C959.701 25.038 960.091 24.594 960.547 24.306C961.003 24.006 961.459 23.856 961.915 23.856C962.167 23.856 962.371 23.874 962.527 23.91C962.695 23.946 962.845 23.988 962.977 24.036L962.545 26.322C962.389 26.274 962.233 26.238 962.077 26.214C961.933 26.19 961.765 26.178 961.573 26.178C961.237 26.178 960.883 26.304 960.511 26.556C960.151 26.796 959.851 27.216 959.611 27.816V33H956.965ZM967.05 36.492C966.786 36.492 966.552 36.474 966.348 36.438C966.156 36.402 965.97 36.36 965.79 36.312L966.258 34.296C966.342 34.32 966.438 34.344 966.546 34.368C966.654 34.392 966.756 34.404 966.852 34.404C967.296 34.404 967.638 34.296 967.878 34.08C968.118 33.864 968.298 33.582 968.418 33.234L968.544 32.766L965.106 24.072H967.77L969.048 27.906C969.18 28.314 969.3 28.728 969.408 29.148C969.516 29.568 969.63 30 969.75 30.444H969.822C969.918 30.024 970.014 29.604 970.11 29.184C970.218 28.752 970.326 28.326 970.434 27.906L971.514 24.072H974.052L970.956 33.09C970.536 34.218 970.044 35.064 969.48 35.628C968.916 36.204 968.106 36.492 967.05 36.492ZM982.74 33V30.858H985.224V24.252H983.082V22.614C983.706 22.494 984.234 22.35 984.666 22.182C985.098 22.014 985.518 21.81 985.926 21.57H987.87V30.858H990.012V33H982.74ZM997.542 33.216C996.318 33.216 995.328 32.706 994.572 31.686C993.828 30.666 993.456 29.184 993.456 27.24C993.456 25.296 993.828 23.832 994.572 22.848C995.328 21.852 996.318 21.354 997.542 21.354C998.766 21.354 999.75 21.852 1000.49 22.848C1001.25 23.832 1001.63 25.296 1001.63 27.24C1001.63 29.184 1001.25 30.666 1000.49 31.686C999.75 32.706 998.766 33.216 997.542 33.216ZM997.542 31.164C997.998 31.164 998.376 30.9 998.676 30.372C998.976 29.844 999.126 28.8 999.126 27.24C999.126 25.68 998.976 24.654 998.676 24.162C998.376 23.658 997.998 23.406 997.542 23.406C997.098 23.406 996.72 23.658 996.408 24.162C996.108 24.654 995.958 25.68 995.958 27.24C995.958 28.8 996.108 29.844 996.408 30.372C996.72 30.9 997.098 31.164 997.542 31.164ZM1008.85 33.216C1007.63 33.216 1006.64 32.706 1005.88 31.686C1005.14 30.666 1004.77 29.184 1004.77 27.24C1004.77 25.296 1005.14 23.832 1005.88 22.848C1006.64 21.852 1007.63 21.354 1008.85 21.354C1010.08 21.354 1011.06 21.852 1011.8 22.848C1012.56 23.832 1012.94 25.296 1012.94 27.24C1012.94 29.184 1012.56 30.666 1011.8 31.686C1011.06 32.706 1010.08 33.216 1008.85 33.216ZM1008.85 31.164C1009.31 31.164 1009.69 30.9 1009.99 30.372C1010.29 29.844 1010.44 28.8 1010.44 27.24C1010.44 25.68 1010.29 24.654 1009.99 24.162C1009.69 23.658 1009.31 23.406 1008.85 23.406C1008.41 23.406 1008.03 23.658 1007.72 24.162C1007.42 24.654 1007.27 25.68 1007.27 27.24C1007.27 28.8 1007.42 29.844 1007.72 30.372C1008.03 30.9 1008.41 31.164 1008.85 31.164Z" fill="black"/>
<path d="M900.386 210V198.264H904.418C905.702 198.264 906.8 198.54 907.712 199.092C908.624 199.644 909.08 200.628 909.08 202.044C909.08 203.424 908.624 204.432 907.712 205.068C906.8 205.704 905.726 206.022 904.49 206.022H903.032V210H900.386ZM903.032 203.916H904.328C905.768 203.916 906.488 203.292 906.488 202.044C906.488 201.432 906.296 201 905.912 200.748C905.528 200.496 904.976 200.37 904.256 200.37H903.032V203.916ZM912.693 210V201.072H914.853L915.033 202.638H915.105C915.429 202.038 915.819 201.594 916.275 201.306C916.731 201.006 917.187 200.856 917.643 200.856C917.895 200.856 918.099 200.874 918.255 200.91C918.423 200.946 918.573 200.988 918.705 201.036L918.273 203.322C918.117 203.274 917.961 203.238 917.805 203.214C917.661 203.19 917.493 203.178 917.301 203.178C916.965 203.178 916.611 203.304 916.239 203.556C915.879 203.796 915.579 204.216 915.339 204.816V210H912.693ZM922.979 199.758C922.535 199.758 922.169 199.632 921.881 199.38C921.593 199.116 921.449 198.78 921.449 198.372C921.449 197.964 921.593 197.634 921.881 197.382C922.169 197.13 922.535 197.004 922.979 197.004C923.435 197.004 923.801 197.13 924.077 197.382C924.365 197.634 924.509 197.964 924.509 198.372C924.509 198.78 924.365 199.116 924.077 199.38C923.801 199.632 923.435 199.758 922.979 199.758ZM921.665 210V201.072H924.311V210H921.665ZM928.439 210V201.072H930.599L930.779 202.224H930.851C931.223 201.852 931.619 201.534 932.039 201.27C932.459 200.994 932.963 200.856 933.551 200.856C934.187 200.856 934.697 200.988 935.081 201.252C935.477 201.504 935.789 201.87 936.017 202.35C936.413 201.942 936.827 201.594 937.259 201.306C937.703 201.006 938.225 200.856 938.825 200.856C939.785 200.856 940.487 201.18 940.931 201.828C941.387 202.464 941.615 203.34 941.615 204.456V210H938.969V204.798C938.969 204.15 938.879 203.706 938.699 203.466C938.519 203.226 938.243 203.106 937.871 203.106C937.427 203.106 936.917 203.394 936.341 203.97V210H933.695V204.798C933.695 204.15 933.605 203.706 933.425 203.466C933.257 203.226 932.981 203.106 932.597 203.106C932.141 203.106 931.637 203.394 931.085 203.97V210H928.439ZM948.823 208.164C949.123 208.164 949.381 208.098 949.597 207.966C949.825 207.834 950.053 207.648 950.281 207.408V205.842C949.345 205.974 948.697 206.166 948.337 206.418C947.977 206.67 947.797 206.97 947.797 207.318C947.797 207.882 948.139 208.164 948.823 208.164ZM947.923 210.216C947.107 210.216 946.459 209.958 945.979 209.442C945.499 208.914 945.259 208.272 945.259 207.516C945.259 206.58 945.655 205.848 946.447 205.32C947.239 204.792 948.517 204.438 950.281 204.258C950.257 203.862 950.137 203.55 949.921 203.322C949.717 203.082 949.369 202.962 948.877 202.962C948.505 202.962 948.127 203.034 947.743 203.178C947.359 203.322 946.951 203.52 946.519 203.772L945.565 202.026C946.129 201.678 946.729 201.396 947.365 201.18C948.001 200.964 948.673 200.856 949.381 200.856C950.521 200.856 951.397 201.186 952.009 201.846C952.621 202.506 952.927 203.52 952.927 204.888V210H950.767L950.587 209.082H950.515C950.131 209.418 949.729 209.694 949.309 209.91C948.889 210.114 948.427 210.216 947.923 210.216ZM956.965 210V201.072H959.125L959.305 202.638H959.377C959.701 202.038 960.091 201.594 960.547 201.306C961.003 201.006 961.459 200.856 961.915 200.856C962.167 200.856 962.371 200.874 962.527 200.91C962.695 200.946 962.845 200.988 962.977 201.036L962.545 203.322C962.389 203.274 962.233 203.238 962.077 203.214C961.933 203.19 961.765 203.178 961.573 203.178C961.237 203.178 960.883 203.304 960.511 203.556C960.151 203.796 959.851 204.216 959.611 204.816V210H956.965ZM967.05 213.492C966.786 213.492 966.552 213.474 966.348 213.438C966.156 213.402 965.97 213.36 965.79 213.312L966.258 211.296C966.342 211.32 966.438 211.344 966.546 211.368C966.654 211.392 966.756 211.404 966.852 211.404C967.296 211.404 967.638 211.296 967.878 211.08C968.118 210.864 968.298 210.582 968.418 210.234L968.544 209.766L965.106 201.072H967.77L969.048 204.906C969.18 205.314 969.3 205.728 969.408 206.148C969.516 206.568 969.63 207 969.75 207.444H969.822C969.918 207.024 970.014 206.604 970.11 206.184C970.218 205.752 970.326 205.326 970.434 204.906L971.514 201.072H974.052L970.956 210.09C970.536 211.218 970.044 212.064 969.48 212.628C968.916 213.204 968.106 213.492 967.05 213.492ZM986.016 203.844C986.316 203.844 986.616 203.76 986.916 203.592C987.228 203.412 987.498 203.118 987.726 202.71C987.606 201.81 987.378 201.192 987.042 200.856C986.706 200.508 986.34 200.334 985.944 200.334C985.56 200.334 985.224 200.484 984.936 200.784C984.648 201.072 984.504 201.54 984.504 202.188C984.504 202.788 984.648 203.214 984.936 203.466C985.224 203.718 985.584 203.844 986.016 203.844ZM985.602 210.216C984.846 210.216 984.186 210.078 983.622 209.802C983.07 209.526 982.614 209.208 982.254 208.848L983.658 207.264C983.85 207.48 984.108 207.672 984.432 207.84C984.756 207.996 985.086 208.074 985.422 208.074C986.058 208.074 986.598 207.816 987.042 207.3C987.486 206.772 987.732 205.842 987.78 204.51C987.48 204.894 987.114 205.194 986.682 205.41C986.25 205.614 985.854 205.716 985.494 205.716C984.522 205.716 983.712 205.428 983.064 204.852C982.416 204.276 982.092 203.388 982.092 202.188C982.092 201 982.464 200.064 983.208 199.38C983.964 198.696 984.858 198.354 985.89 198.354C986.622 198.354 987.318 198.552 987.978 198.948C988.65 199.332 989.19 199.938 989.598 200.766C990.018 201.594 990.228 202.68 990.228 204.024C990.228 205.44 990.006 206.61 989.562 207.534C989.13 208.446 988.56 209.124 987.852 209.568C987.156 210 986.406 210.216 985.602 210.216ZM997.542 210.216C996.318 210.216 995.328 209.706 994.572 208.686C993.828 207.666 993.456 206.184 993.456 204.24C993.456 202.296 993.828 200.832 994.572 199.848C995.328 198.852 996.318 198.354 997.542 198.354C998.766 198.354 999.75 198.852 1000.49 199.848C1001.25 200.832 1001.63 202.296 1001.63 204.24C1001.63 206.184 1001.25 207.666 1000.49 208.686C999.75 209.706 998.766 210.216 997.542 210.216ZM997.542 208.164C997.998 208.164 998.376 207.9 998.676 207.372C998.976 206.844 999.126 205.8 999.126 204.24C999.126 202.68 998.976 201.654 998.676 201.162C998.376 200.658 997.998 200.406 997.542 200.406C997.098 200.406 996.72 200.658 996.408 201.162C996.108 201.654 995.958 202.68 995.958 204.24C995.958 205.8 996.108 206.844 996.408 207.372C996.72 207.9 997.098 208.164 997.542 208.164ZM1008.85 210.216C1007.63 210.216 1006.64 209.706 1005.88 208.686C1005.14 207.666 1004.77 206.184 1004.77 204.24C1004.77 202.296 1005.14 200.832 1005.88 199.848C1006.64 198.852 1007.63 198.354 1008.85 198.354C1010.08 198.354 1011.06 198.852 1011.8 199.848C1012.56 200.832 1012.94 202.296 1012.94 204.24C1012.94 206.184 1012.56 207.666 1011.8 208.686C1011.06 209.706 1010.08 210.216 1008.85 210.216ZM1008.85 208.164C1009.31 208.164 1009.69 207.9 1009.99 207.372C1010.29 206.844 1010.44 205.8 1010.44 204.24C1010.44 202.68 1010.29 201.654 1009.99 201.162C1009.69 200.658 1009.31 200.406 1008.85 200.406C1008.41 200.406 1008.03 200.658 1007.72 201.162C1007.42 201.654 1007.27 202.68 1007.27 204.24C1007.27 205.8 1007.42 206.844 1007.72 207.372C1008.03 207.9 1008.41 208.164 1008.85 208.164Z" fill="white"/>
<path d="M19.168 58.302H21.544L21.868 55.638H19.492L19.168 58.302ZM17.62 63L18.07 59.328H16.63V58.302H18.196L18.52 55.638H16.99V54.594H18.646L19.06 51.3H20.014L19.6 54.594H21.994L22.426 51.3H23.38L22.948 54.594H24.406V55.638H22.84L22.516 58.302H24.046V59.328H22.39L21.94 63H20.986L21.418 59.328H19.042L18.592 63H17.62ZM27.4673 63V62.118C29.1953 60.402 30.5273 58.98 31.4633 57.852C32.3993 56.712 32.8673 55.68 32.8673 54.756C32.8673 54.096 32.6873 53.556 32.3273 53.136C31.9673 52.716 31.4213 52.506 30.6893 52.506C30.2093 52.506 29.7653 52.644 29.3573 52.92C28.9493 53.184 28.5773 53.508 28.2413 53.892L27.3953 53.046C27.8753 52.53 28.3853 52.11 28.9253 51.786C29.4773 51.462 30.1253 51.3 30.8693 51.3C31.9373 51.3 32.7773 51.612 33.3893 52.236C34.0013 52.848 34.3073 53.664 34.3073 54.684C34.3073 55.764 33.8633 56.868 32.9753 57.996C32.0993 59.124 30.9833 60.402 29.6273 61.83C29.9393 61.806 30.2633 61.782 30.5993 61.758C30.9353 61.734 31.2533 61.722 31.5533 61.722H34.8833V63H27.4673ZM38.9165 63V61.776H41.5445V53.316H39.4565V52.362C39.9725 52.278 40.4285 52.164 40.8245 52.02C41.2205 51.876 41.5745 51.708 41.8865 51.516H43.0205V61.776H45.3965V63H38.9165ZM52.4898 63.216C51.5778 63.216 50.8158 63.054 50.2038 62.73C49.5918 62.394 49.0938 62.016 48.7098 61.596L49.4658 60.624C49.8018 60.984 50.2038 61.302 50.6718 61.578C51.1518 61.854 51.7278 61.992 52.3998 61.992C53.0958 61.992 53.6658 61.8 54.1098 61.416C54.5538 61.032 54.7758 60.522 54.7758 59.886C54.7758 59.202 54.5058 58.65 53.9658 58.23C53.4258 57.81 52.4718 57.6 51.1038 57.6V56.466C52.3278 56.466 53.1738 56.262 53.6418 55.854C54.1218 55.434 54.3618 54.924 54.3618 54.324C54.3618 53.772 54.1818 53.334 53.8218 53.01C53.4738 52.674 52.9938 52.506 52.3818 52.506C51.9018 52.506 51.4578 52.62 51.0498 52.848C50.6418 53.064 50.2698 53.34 49.9338 53.676L49.1418 52.74C49.5858 52.332 50.0778 51.99 50.6178 51.714C51.1578 51.438 51.7638 51.3 52.4358 51.3C53.4318 51.3 54.2538 51.558 54.9018 52.074C55.5498 52.578 55.8738 53.292 55.8738 54.216C55.8738 54.912 55.6818 55.482 55.2978 55.926C54.9138 56.37 54.4098 56.712 53.7858 56.952V57.024C54.4818 57.192 55.0698 57.522 55.5498 58.014C56.0298 58.506 56.2698 59.148 56.2698 59.94C56.2698 60.96 55.9038 61.764 55.1718 62.352C54.4398 62.928 53.5458 63.216 52.4898 63.216ZM60.6091 63V51.192H64.1191C65.3191 51.192 66.2911 51.414 67.0351 51.858C67.7911 52.302 68.1691 53.04 68.1691 54.072C68.1691 54.66 68.0191 55.194 67.7191 55.674C67.4191 56.142 66.9931 56.466 66.4411 56.646V56.718C67.1491 56.85 67.7251 57.15 68.1691 57.618C68.6251 58.086 68.8531 58.728 68.8531 59.544C68.8531 60.708 68.4331 61.578 67.5931 62.154C66.7651 62.718 65.6911 63 64.3711 63H60.6091ZM62.1031 56.214H63.8491C64.8571 56.214 65.5831 56.04 66.0271 55.692C66.4711 55.344 66.6931 54.87 66.6931 54.27C66.6931 53.586 66.4591 53.1 65.9911 52.812C65.5231 52.524 64.8331 52.38 63.9211 52.38H62.1031V56.214ZM62.1031 61.812H64.1551C65.1751 61.812 65.9671 61.626 66.5311 61.254C67.0951 60.87 67.3771 60.282 67.3771 59.49C67.3771 58.758 67.0951 58.224 66.5311 57.888C65.9791 57.54 65.1871 57.366 64.1551 57.366H62.1031V61.812ZM79.5971 59.526C79.5971 60.618 79.2611 61.506 78.5891 62.19C77.9171 62.874 77.1191 63.216 76.1951 63.216C75.0671 63.216 74.1251 62.76 73.3691 61.848C72.6131 60.924 72.2351 59.538 72.2351 57.69C72.2351 56.154 72.4391 54.918 72.8471 53.982C73.2671 53.046 73.8071 52.368 74.4671 51.948C75.1391 51.516 75.8531 51.3 76.6091 51.3C77.2331 51.3 77.7671 51.42 78.2111 51.66C78.6671 51.888 79.0571 52.176 79.3811 52.524L78.5531 53.442C78.0491 52.842 77.4191 52.542 76.6631 52.542C75.8591 52.542 75.1631 52.902 74.5751 53.622C73.9871 54.33 73.6751 55.596 73.6391 57.42C73.9991 56.988 74.4191 56.64 74.8991 56.376C75.3791 56.112 75.8531 55.98 76.3211 55.98C77.3171 55.98 78.1091 56.28 78.6971 56.88C79.2971 57.468 79.5971 58.35 79.5971 59.526ZM76.1951 62.046C76.7591 62.046 77.2331 61.818 77.6171 61.362C78.0011 60.894 78.1931 60.282 78.1931 59.526C78.1931 58.782 78.0131 58.194 77.6531 57.762C77.3051 57.318 76.7771 57.096 76.0691 57.096C75.6971 57.096 75.2951 57.216 74.8631 57.456C74.4311 57.696 74.0351 58.08 73.6751 58.608C73.8671 60.9 74.7071 62.046 76.1951 62.046ZM88.2024 63.216C86.7264 63.216 85.4964 62.676 84.5124 61.596C83.5404 60.516 83.0544 59.016 83.0544 57.096C83.0544 55.2 83.5524 53.706 84.5484 52.614C85.5444 51.522 86.7924 50.976 88.2924 50.976C89.0124 50.976 89.6424 51.126 90.1824 51.426C90.7344 51.714 91.1844 52.05 91.5324 52.434L90.7224 53.406C90.4104 53.07 90.0564 52.8 89.6604 52.596C89.2644 52.392 88.8144 52.29 88.3104 52.29C87.1944 52.29 86.2944 52.722 85.6104 53.586C84.9384 54.438 84.6024 55.596 84.6024 57.06C84.6024 58.548 84.9324 59.73 85.5924 60.606C86.2524 61.47 87.1404 61.902 88.2564 61.902C88.8204 61.902 89.3244 61.788 89.7684 61.56C90.2124 61.32 90.6204 60.99 90.9924 60.57L91.8204 61.506C91.3524 62.046 90.8244 62.466 90.2364 62.766C89.6484 63.066 88.9704 63.216 88.2024 63.216Z" fill="white"/>
<path d="M372.168 58.302H374.544L374.868 55.638H372.492L372.168 58.302ZM370.62 63L371.07 59.328H369.63V58.302H371.196L371.52 55.638H369.99V54.594H371.646L372.06 51.3H373.014L372.6 54.594H374.994L375.426 51.3H376.38L375.948 54.594H377.406V55.638H375.84L375.516 58.302H377.046V59.328H375.39L374.94 63H373.986L374.418 59.328H372.042L371.592 63H370.62ZM383.995 63.216C383.083 63.216 382.321 63.054 381.709 62.73C381.097 62.394 380.599 62.016 380.215 61.596L380.971 60.624C381.307 60.984 381.709 61.302 382.177 61.578C382.657 61.854 383.233 61.992 383.905 61.992C384.601 61.992 385.171 61.8 385.615 61.416C386.059 61.032 386.281 60.522 386.281 59.886C386.281 59.202 386.011 58.65 385.471 58.23C384.931 57.81 383.977 57.6 382.609 57.6V56.466C383.833 56.466 384.679 56.262 385.147 55.854C385.627 55.434 385.867 54.924 385.867 54.324C385.867 53.772 385.687 53.334 385.327 53.01C384.979 52.674 384.499 52.506 383.887 52.506C383.407 52.506 382.963 52.62 382.555 52.848C382.147 53.064 381.775 53.34 381.439 53.676L380.647 52.74C381.091 52.332 381.583 51.99 382.123 51.714C382.663 51.438 383.269 51.3 383.941 51.3C384.937 51.3 385.759 51.558 386.407 52.074C387.055 52.578 387.379 53.292 387.379 54.216C387.379 54.912 387.187 55.482 386.803 55.926C386.419 56.37 385.915 56.712 385.291 56.952V57.024C385.987 57.192 386.575 57.522 387.055 58.014C387.535 58.506 387.775 59.148 387.775 59.94C387.775 60.96 387.409 61.764 386.677 62.352C385.945 62.928 385.051 63.216 383.995 63.216ZM393.681 63C393.741 61.56 393.891 60.27 394.131 59.13C394.371 57.978 394.719 56.898 395.175 55.89C395.643 54.87 396.255 53.838 397.011 52.794H391.287V51.516H398.685V52.434C397.785 53.598 397.095 54.702 396.615 55.746C396.135 56.778 395.799 57.876 395.607 59.04C395.415 60.192 395.283 61.512 395.211 63H393.681ZM403.114 58.644H406.714V55.314C406.714 55.014 406.726 54.648 406.75 54.216C406.774 53.784 406.792 53.412 406.804 53.1H406.732C406.588 53.376 406.432 53.646 406.264 53.91C406.108 54.174 405.952 54.444 405.796 54.72L403.114 58.644ZM409.684 59.832H408.118V63H406.714V59.832H401.548V58.86L406.462 51.516H408.118V58.644H409.684V59.832ZM413.609 63V51.192H420.413V52.452H415.103V56.448H419.603V57.708H415.103V63H413.609ZM425.87 63C425.93 61.56 426.08 60.27 426.32 59.13C426.56 57.978 426.908 56.898 427.364 55.89C427.832 54.87 428.444 53.838 429.2 52.794H423.476V51.516H430.874V52.434C429.974 53.598 429.284 54.702 428.804 55.746C428.324 56.778 427.988 57.876 427.796 59.04C427.604 60.192 427.472 61.512 427.4 63H425.87ZM435.051 63V51.192H438.561C439.761 51.192 440.733 51.414 441.477 51.858C442.233 52.302 442.611 53.04 442.611 54.072C442.611 54.66 442.461 55.194 442.161 55.674C441.861 56.142 441.435 56.466 440.883 56.646V56.718C441.591 56.85 442.167 57.15 442.611 57.618C443.067 58.086 443.295 58.728 443.295 59.544C443.295 60.708 442.875 61.578 442.035 62.154C441.207 62.718 440.133 63 438.813 63H435.051ZM436.545 56.214H438.291C439.299 56.214 440.025 56.04 440.469 55.692C440.913 55.344 441.135 54.87 441.135 54.27C441.135 53.586 440.901 53.1 440.433 52.812C439.965 52.524 439.275 52.38 438.363 52.38H436.545V56.214ZM436.545 61.812H438.597C439.617 61.812 440.409 61.626 440.973 61.254C441.537 60.87 441.819 60.282 441.819 59.49C441.819 58.758 441.537 58.224 440.973 57.888C440.421 57.54 439.629 57.366 438.597 57.366H436.545V61.812Z" fill="white"/>
<path d="M372.168 235.302H374.544L374.868 232.638H372.492L372.168 235.302ZM370.62 240L371.07 236.328H369.63V235.302H371.196L371.52 232.638H369.99V231.594H371.646L372.06 228.3H373.014L372.6 231.594H374.994L375.426 228.3H376.38L375.948 231.594H377.406V232.638H375.84L375.516 235.302H377.046V236.328H375.39L374.94 240H373.986L374.418 236.328H372.042L371.592 240H370.62ZM381.169 240V238.776H383.797V230.316H381.709V229.362C382.225 229.278 382.681 229.164 383.077 229.02C383.473 228.876 383.827 228.708 384.139 228.516H385.273V238.776H387.649V240H381.169ZM392.115 240V228.192H398.919V229.452H393.609V233.16H398.091V234.438H393.609V238.722H399.099V240H392.115ZM406.035 240.216C405.123 240.216 404.361 240.054 403.749 239.73C403.137 239.394 402.639 239.016 402.255 238.596L403.011 237.624C403.347 237.984 403.749 238.302 404.217 238.578C404.697 238.854 405.273 238.992 405.945 238.992C406.641 238.992 407.211 238.8 407.655 238.416C408.099 238.032 408.321 237.522 408.321 236.886C408.321 236.202 408.051 235.65 407.511 235.23C406.971 234.81 406.017 234.6 404.649 234.6V233.466C405.873 233.466 406.719 233.262 407.187 232.854C407.667 232.434 407.907 231.924 407.907 231.324C407.907 230.772 407.727 230.334 407.367 230.01C407.019 229.674 406.539 229.506 405.927 229.506C405.447 229.506 405.003 229.62 404.595 229.848C404.187 230.064 403.815 230.34 403.479 230.676L402.687 229.74C403.131 229.332 403.623 228.99 404.163 228.714C404.703 228.438 405.309 228.3 405.981 228.3C406.977 228.3 407.799 228.558 408.447 229.074C409.095 229.578 409.419 230.292 409.419 231.216C409.419 231.912 409.227 232.482 408.843 232.926C408.459 233.37 407.955 233.712 407.331 233.952V234.024C408.027 234.192 408.615 234.522 409.095 235.014C409.575 235.506 409.815 236.148 409.815 236.94C409.815 237.96 409.449 238.764 408.717 239.352C407.985 239.928 407.091 240.216 406.035 240.216ZM416.746 240.216C415.834 240.216 415.078 240.054 414.478 239.73C413.878 239.406 413.38 239.046 412.984 238.65L413.704 237.678C414.052 238.026 414.454 238.332 414.91 238.596C415.366 238.86 415.93 238.992 416.602 238.992C417.298 238.992 417.892 238.758 418.384 238.29C418.876 237.81 419.122 237.168 419.122 236.364C419.122 235.572 418.9 234.954 418.456 234.51C418.012 234.066 417.418 233.844 416.674 233.844C416.278 233.844 415.936 233.904 415.648 234.024C415.372 234.144 415.06 234.318 414.712 234.546L413.92 234.042L414.298 228.516H420.04V229.794H415.594L415.288 233.196C415.564 233.052 415.84 232.938 416.116 232.854C416.392 232.77 416.704 232.728 417.052 232.728C418.036 232.728 418.876 233.016 419.572 233.592C420.268 234.168 420.616 235.08 420.616 236.328C420.616 237.576 420.22 238.536 419.428 239.208C418.636 239.88 417.742 240.216 416.746 240.216ZM431.507 236.526C431.507 237.618 431.171 238.506 430.499 239.19C429.827 239.874 429.029 240.216 428.105 240.216C426.977 240.216 426.035 239.76 425.279 238.848C424.523 237.924 424.145 236.538 424.145 234.69C424.145 233.154 424.349 231.918 424.757 230.982C425.177 230.046 425.717 229.368 426.377 228.948C427.049 228.516 427.763 228.3 428.519 228.3C429.143 228.3 429.677 228.42 430.121 228.66C430.577 228.888 430.967 229.176 431.291 229.524L430.463 230.442C429.959 229.842 429.329 229.542 428.573 229.542C427.769 229.542 427.073 229.902 426.485 230.622C425.897 231.33 425.585 232.596 425.549 234.42C425.909 233.988 426.329 233.64 426.809 233.376C427.289 233.112 427.763 232.98 428.231 232.98C429.227 232.98 430.019 233.28 430.607 233.88C431.207 234.468 431.507 235.35 431.507 236.526ZM428.105 239.046C428.669 239.046 429.143 238.818 429.527 238.362C429.911 237.894 430.103 237.282 430.103 236.526C430.103 235.782 429.923 235.194 429.563 234.762C429.215 234.318 428.687 234.096 427.979 234.096C427.607 234.096 427.205 234.216 426.773 234.456C426.341 234.696 425.945 235.08 425.585 235.608C425.777 237.9 426.617 239.046 428.105 239.046ZM435.451 240V238.776H438.079V230.316H435.991V229.362C436.507 229.278 436.963 229.164 437.359 229.02C437.755 228.876 438.109 228.708 438.421 228.516H439.555V238.776H441.931V240H435.451Z" fill="white"/>
<path d="M549.168 58.302H551.544L551.868 55.638H549.492L549.168 58.302ZM547.62 63L548.07 59.328H546.63V58.302H548.196L548.52 55.638H546.99V54.594H548.646L549.06 51.3H550.014L549.6 54.594H551.994L552.426 51.3H553.38L552.948 54.594H554.406V55.638H552.84L552.516 58.302H554.046V59.328H552.39L551.94 63H550.986L551.418 59.328H549.042L548.592 63H547.62ZM558.619 58.644H562.219V55.314C562.219 55.014 562.231 54.648 562.255 54.216C562.279 53.784 562.297 53.412 562.309 53.1H562.237C562.093 53.376 561.937 53.646 561.769 53.91C561.613 54.174 561.457 54.444 561.301 54.72L558.619 58.644ZM565.189 59.832H563.623V63H562.219V59.832H557.053V58.86L561.967 51.516H563.623V58.644H565.189V59.832ZM569.115 63V51.192H572.067C573.891 51.192 575.277 51.702 576.225 52.722C577.173 53.73 577.647 55.17 577.647 57.042C577.647 58.926 577.173 60.39 576.225 61.434C575.277 62.478 573.915 63 572.139 63H569.115ZM570.609 61.776H571.959C573.339 61.776 574.371 61.362 575.055 60.534C575.751 59.706 576.099 58.542 576.099 57.042C576.099 55.554 575.751 54.414 575.055 53.622C574.371 52.818 573.339 52.416 571.959 52.416H570.609V61.776ZM588.595 59.526C588.595 60.618 588.259 61.506 587.587 62.19C586.915 62.874 586.117 63.216 585.193 63.216C584.065 63.216 583.123 62.76 582.367 61.848C581.611 60.924 581.233 59.538 581.233 57.69C581.233 56.154 581.437 54.918 581.845 53.982C582.265 53.046 582.805 52.368 583.465 51.948C584.137 51.516 584.851 51.3 585.607 51.3C586.231 51.3 586.765 51.42 587.209 51.66C587.665 51.888 588.055 52.176 588.379 52.524L587.551 53.442C587.047 52.842 586.417 52.542 585.661 52.542C584.857 52.542 584.161 52.902 583.573 53.622C582.985 54.33 582.673 55.596 582.637 57.42C582.997 56.988 583.417 56.64 583.897 56.376C584.377 56.112 584.851 55.98 585.319 55.98C586.315 55.98 587.107 56.28 587.695 56.88C588.295 57.468 588.595 58.35 588.595 59.526ZM585.193 62.046C585.757 62.046 586.231 61.818 586.615 61.362C586.999 60.894 587.191 60.282 587.191 59.526C587.191 58.782 587.011 58.194 586.651 57.762C586.303 57.318 585.775 57.096 585.067 57.096C584.695 57.096 584.293 57.216 583.861 57.456C583.429 57.696 583.033 58.08 582.673 58.608C582.865 60.9 583.705 62.046 585.193 62.046ZM591.836 63V62.118C593.564 60.402 594.896 58.98 595.832 57.852C596.768 56.712 597.236 55.68 597.236 54.756C597.236 54.096 597.056 53.556 596.696 53.136C596.336 52.716 595.79 52.506 595.058 52.506C594.578 52.506 594.134 52.644 593.726 52.92C593.318 53.184 592.946 53.508 592.61 53.892L591.764 53.046C592.244 52.53 592.754 52.11 593.294 51.786C593.846 51.462 594.494 51.3 595.238 51.3C596.306 51.3 597.146 51.612 597.758 52.236C598.37 52.848 598.676 53.664 598.676 54.684C598.676 55.764 598.232 56.868 597.344 57.996C596.468 59.124 595.352 60.402 593.996 61.83C594.308 61.806 594.632 61.782 594.968 61.758C595.304 61.734 595.622 61.722 595.922 61.722H599.252V63H591.836ZM606.363 63.216C605.283 63.216 604.383 62.922 603.663 62.334C602.955 61.734 602.601 60.978 602.601 60.066C602.601 59.322 602.823 58.692 603.267 58.176C603.723 57.66 604.221 57.258 604.761 56.97V56.898C604.341 56.598 603.969 56.232 603.645 55.8C603.321 55.368 603.159 54.852 603.159 54.252C603.159 53.364 603.471 52.65 604.095 52.11C604.719 51.57 605.493 51.3 606.417 51.3C607.413 51.3 608.199 51.588 608.775 52.164C609.363 52.74 609.657 53.472 609.657 54.36C609.657 54.96 609.477 55.506 609.117 55.998C608.769 56.49 608.421 56.868 608.073 57.132V57.204C608.589 57.504 609.051 57.882 609.459 58.338C609.867 58.782 610.071 59.388 610.071 60.156C610.071 61.008 609.729 61.734 609.045 62.334C608.373 62.922 607.479 63.216 606.363 63.216ZM607.173 56.736C607.977 56.028 608.379 55.26 608.379 54.432C608.379 53.868 608.205 53.388 607.857 52.992C607.509 52.596 607.017 52.398 606.381 52.398C605.853 52.398 605.409 52.572 605.049 52.92C604.701 53.256 604.527 53.7 604.527 54.252C604.527 54.936 604.791 55.458 605.319 55.818C605.859 56.166 606.477 56.472 607.173 56.736ZM606.399 62.118C607.071 62.118 607.611 61.932 608.019 61.56C608.439 61.176 608.649 60.69 608.649 60.102C608.649 59.37 608.337 58.824 607.713 58.464C607.089 58.104 606.363 57.756 605.535 57.42C605.079 57.732 604.695 58.098 604.383 58.518C604.083 58.938 603.933 59.406 603.933 59.922C603.933 60.558 604.167 61.086 604.635 61.506C605.115 61.914 605.703 62.118 606.399 62.118ZM616.841 57.42C617.213 57.42 617.615 57.3 618.047 57.06C618.479 56.82 618.881 56.43 619.253 55.89C619.061 53.61 618.215 52.47 616.715 52.47C616.163 52.47 615.689 52.704 615.293 53.172C614.909 53.628 614.717 54.234 614.717 54.99C614.717 55.734 614.891 56.328 615.239 56.772C615.599 57.204 616.133 57.42 616.841 57.42ZM616.301 63.216C615.689 63.216 615.149 63.102 614.681 62.874C614.225 62.646 613.841 62.358 613.529 62.01L614.357 61.074C614.873 61.686 615.503 61.992 616.247 61.992C617.051 61.992 617.747 61.632 618.335 60.912C618.935 60.18 619.253 58.896 619.289 57.06C618.521 58.044 617.621 58.536 616.589 58.536C615.593 58.536 614.801 58.242 614.213 57.654C613.625 57.054 613.331 56.166 613.331 54.99C613.331 53.898 613.667 53.01 614.339 52.326C615.011 51.642 615.803 51.3 616.715 51.3C617.843 51.3 618.785 51.762 619.541 52.686C620.297 53.598 620.675 54.978 620.675 56.826C620.675 58.362 620.465 59.598 620.045 60.534C619.637 61.47 619.097 62.154 618.425 62.586C617.765 63.006 617.057 63.216 616.301 63.216Z" fill="white"/>
<path d="M549.168 235.302H551.544L551.868 232.638H549.492L549.168 235.302ZM547.62 240L548.07 236.328H546.63V235.302H548.196L548.52 232.638H546.99V231.594H548.646L549.06 228.3H550.014L549.6 231.594H551.994L552.426 228.3H553.38L552.948 231.594H554.406V232.638H552.84L552.516 235.302H554.046V236.328H552.39L551.94 240H550.986L551.418 236.328H549.042L548.592 240H547.62ZM558.169 240V238.776H560.797V230.316H558.709V229.362C559.225 229.278 559.681 229.164 560.077 229.02C560.473 228.876 560.827 228.708 561.139 228.516H562.273V238.776H564.649V240H558.169ZM571.149 233.394L570.591 235.194H574.137L573.579 233.394C573.363 232.734 573.159 232.08 572.967 231.432C572.775 230.772 572.583 230.1 572.391 229.416H572.319C572.139 230.1 571.953 230.772 571.761 231.432C571.569 232.08 571.365 232.734 571.149 233.394ZM575.631 240L574.515 236.4H570.213L569.079 240H567.549L571.545 228.192H573.237L577.233 240H575.631ZM579.806 240V239.118C581.534 237.402 582.866 235.98 583.802 234.852C584.738 233.712 585.206 232.68 585.206 231.756C585.206 231.096 585.026 230.556 584.666 230.136C584.306 229.716 583.76 229.506 583.028 229.506C582.548 229.506 582.104 229.644 581.696 229.92C581.288 230.184 580.916 230.508 580.58 230.892L579.734 230.046C580.214 229.53 580.724 229.11 581.264 228.786C581.816 228.462 582.464 228.3 583.208 228.3C584.276 228.3 585.116 228.612 585.728 229.236C586.34 229.848 586.646 230.664 586.646 231.684C586.646 232.764 586.202 233.868 585.314 234.996C584.438 236.124 583.322 237.402 581.966 238.83C582.278 238.806 582.602 238.782 582.938 238.758C583.274 238.734 583.592 238.722 583.892 238.722H587.222V240H579.806ZM591.453 240V228.192H598.257V229.452H592.947V233.448H597.447V234.708H592.947V240H591.453ZM604.739 240.216C603.827 240.216 603.071 240.054 602.471 239.73C601.871 239.406 601.373 239.046 600.977 238.65L601.697 237.678C602.045 238.026 602.447 238.332 602.903 238.596C603.359 238.86 603.923 238.992 604.595 238.992C605.291 238.992 605.885 238.758 606.377 238.29C606.869 237.81 607.115 237.168 607.115 236.364C607.115 235.572 606.893 234.954 606.449 234.51C606.005 234.066 605.411 233.844 604.667 233.844C604.271 233.844 603.929 233.904 603.641 234.024C603.365 234.144 603.053 234.318 602.705 234.546L601.913 234.042L602.291 228.516H608.033V229.794H603.587L603.281 233.196C603.557 233.052 603.833 232.938 604.109 232.854C604.385 232.77 604.697 232.728 605.045 232.728C606.029 232.728 606.869 233.016 607.565 233.592C608.261 234.168 608.609 235.08 608.609 236.328C608.609 237.576 608.213 238.536 607.421 239.208C606.629 239.88 605.735 240.216 604.739 240.216ZM619.501 236.526C619.501 237.618 619.165 238.506 618.493 239.19C617.821 239.874 617.023 240.216 616.099 240.216C614.971 240.216 614.029 239.76 613.273 238.848C612.517 237.924 612.139 236.538 612.139 234.69C612.139 233.154 612.343 231.918 612.751 230.982C613.171 230.046 613.711 229.368 614.371 228.948C615.043 228.516 615.757 228.3 616.513 228.3C617.137 228.3 617.671 228.42 618.115 228.66C618.571 228.888 618.961 229.176 619.285 229.524L618.457 230.442C617.953 229.842 617.323 229.542 616.567 229.542C615.763 229.542 615.067 229.902 614.479 230.622C613.891 231.33 613.579 232.596 613.543 234.42C613.903 233.988 614.323 233.64 614.803 233.376C615.283 233.112 615.757 232.98 616.225 232.98C617.221 232.98 618.013 233.28 618.601 233.88C619.201 234.468 619.501 235.35 619.501 236.526ZM616.099 239.046C616.663 239.046 617.137 238.818 617.521 238.362C617.905 237.894 618.097 237.282 618.097 236.526C618.097 235.782 617.917 235.194 617.557 234.762C617.209 234.318 616.681 234.096 615.973 234.096C615.601 234.096 615.199 234.216 614.767 234.456C614.335 234.696 613.939 235.08 613.579 235.608C613.771 237.9 614.611 239.046 616.099 239.046Z" fill="white"/>
<path d="M726.168 58.302H728.544L728.868 55.638H726.492L726.168 58.302ZM724.62 63L725.07 59.328H723.63V58.302H725.196L725.52 55.638H723.99V54.594H725.646L726.06 51.3H727.014L726.6 54.594H728.994L729.426 51.3H730.38L729.948 54.594H731.406V55.638H729.84L729.516 58.302H731.046V59.328H729.39L728.94 63H727.986L728.418 59.328H726.042L725.592 63H724.62ZM741.973 59.526C741.973 60.618 741.637 61.506 740.965 62.19C740.293 62.874 739.495 63.216 738.571 63.216C737.443 63.216 736.501 62.76 735.745 61.848C734.989 60.924 734.611 59.538 734.611 57.69C734.611 56.154 734.815 54.918 735.223 53.982C735.643 53.046 736.183 52.368 736.843 51.948C737.515 51.516 738.229 51.3 738.985 51.3C739.609 51.3 740.143 51.42 740.587 51.66C741.043 51.888 741.433 52.176 741.757 52.524L740.929 53.442C740.425 52.842 739.795 52.542 739.039 52.542C738.235 52.542 737.539 52.902 736.951 53.622C736.363 54.33 736.051 55.596 736.015 57.42C736.375 56.988 736.795 56.64 737.275 56.376C737.755 56.112 738.229 55.98 738.697 55.98C739.693 55.98 740.485 56.28 741.073 56.88C741.673 57.468 741.973 58.35 741.973 59.526ZM738.571 62.046C739.135 62.046 739.609 61.818 739.993 61.362C740.377 60.894 740.569 60.282 740.569 59.526C740.569 58.782 740.389 58.194 740.029 57.762C739.681 57.318 739.153 57.096 738.445 57.096C738.073 57.096 737.671 57.216 737.239 57.456C736.807 57.696 736.411 58.08 736.051 58.608C736.243 60.9 737.083 62.046 738.571 62.046ZM746.367 58.644H749.967V55.314C749.967 55.014 749.979 54.648 750.003 54.216C750.027 53.784 750.045 53.412 750.057 53.1H749.985C749.841 53.376 749.685 53.646 749.517 53.91C749.361 54.174 749.205 54.444 749.049 54.72L746.367 58.644ZM752.937 59.832H751.371V63H749.967V59.832H744.801V58.86L749.715 51.516H751.371V58.644H752.937V59.832ZM758.428 63C758.488 61.56 758.638 60.27 758.878 59.13C759.118 57.978 759.466 56.898 759.922 55.89C760.39 54.87 761.002 53.838 761.758 52.794H756.034V51.516H763.432V52.434C762.532 53.598 761.842 54.702 761.362 55.746C760.882 56.778 760.546 57.876 760.354 59.04C760.162 60.192 760.03 61.512 759.958 63H758.428ZM774.215 59.526C774.215 60.618 773.879 61.506 773.207 62.19C772.535 62.874 771.737 63.216 770.813 63.216C769.685 63.216 768.743 62.76 767.987 61.848C767.231 60.924 766.853 59.538 766.853 57.69C766.853 56.154 767.057 54.918 767.465 53.982C767.885 53.046 768.425 52.368 769.085 51.948C769.757 51.516 770.471 51.3 771.227 51.3C771.851 51.3 772.385 51.42 772.829 51.66C773.285 51.888 773.675 52.176 773.999 52.524L773.171 53.442C772.667 52.842 772.037 52.542 771.281 52.542C770.477 52.542 769.781 52.902 769.193 53.622C768.605 54.33 768.293 55.596 768.257 57.42C768.617 56.988 769.037 56.64 769.517 56.376C769.997 56.112 770.471 55.98 770.939 55.98C771.935 55.98 772.727 56.28 773.315 56.88C773.915 57.468 774.215 58.35 774.215 59.526ZM770.813 62.046C771.377 62.046 771.851 61.818 772.235 61.362C772.619 60.894 772.811 60.282 772.811 59.526C772.811 58.782 772.631 58.194 772.271 57.762C771.923 57.318 771.395 57.096 770.687 57.096C770.315 57.096 769.913 57.216 769.481 57.456C769.049 57.696 768.653 58.08 768.293 58.608C768.485 60.9 769.325 62.046 770.813 62.046ZM780.966 57.42C781.338 57.42 781.74 57.3 782.172 57.06C782.604 56.82 783.006 56.43 783.378 55.89C783.186 53.61 782.34 52.47 780.84 52.47C780.288 52.47 779.814 52.704 779.418 53.172C779.034 53.628 778.842 54.234 778.842 54.99C778.842 55.734 779.016 56.328 779.364 56.772C779.724 57.204 780.258 57.42 780.966 57.42ZM780.426 63.216C779.814 63.216 779.274 63.102 778.806 62.874C778.35 62.646 777.966 62.358 777.654 62.01L778.482 61.074C778.998 61.686 779.628 61.992 780.372 61.992C781.176 61.992 781.872 61.632 782.46 60.912C783.06 60.18 783.378 58.896 783.414 57.06C782.646 58.044 781.746 58.536 780.714 58.536C779.718 58.536 778.926 58.242 778.338 57.654C777.75 57.054 777.456 56.166 777.456 54.99C777.456 53.898 777.792 53.01 778.464 52.326C779.136 51.642 779.928 51.3 780.84 51.3C781.968 51.3 782.91 51.762 783.666 52.686C784.422 53.598 784.8 54.978 784.8 56.826C784.8 58.362 784.59 59.598 784.17 60.534C783.762 61.47 783.222 62.154 782.55 62.586C781.89 63.006 781.182 63.216 780.426 63.216ZM791.984 63.216C790.904 63.216 790.004 62.922 789.284 62.334C788.576 61.734 788.222 60.978 788.222 60.066C788.222 59.322 788.444 58.692 788.888 58.176C789.344 57.66 789.842 57.258 790.382 56.97V56.898C789.962 56.598 789.59 56.232 789.266 55.8C788.942 55.368 788.78 54.852 788.78 54.252C788.78 53.364 789.092 52.65 789.716 52.11C790.34 51.57 791.114 51.3 792.038 51.3C793.034 51.3 793.82 51.588 794.396 52.164C794.984 52.74 795.278 53.472 795.278 54.36C795.278 54.96 795.098 55.506 794.738 55.998C794.39 56.49 794.042 56.868 793.694 57.132V57.204C794.21 57.504 794.672 57.882 795.08 58.338C795.488 58.782 795.692 59.388 795.692 60.156C795.692 61.008 795.35 61.734 794.666 62.334C793.994 62.922 793.1 63.216 791.984 63.216ZM792.794 56.736C793.598 56.028 794 55.26 794 54.432C794 53.868 793.826 53.388 793.478 52.992C793.13 52.596 792.638 52.398 792.002 52.398C791.474 52.398 791.03 52.572 790.67 52.92C790.322 53.256 790.148 53.7 790.148 54.252C790.148 54.936 790.412 55.458 790.94 55.818C791.48 56.166 792.098 56.472 792.794 56.736ZM792.02 62.118C792.692 62.118 793.232 61.932 793.64 61.56C794.06 61.176 794.27 60.69 794.27 60.102C794.27 59.37 793.958 58.824 793.334 58.464C792.71 58.104 791.984 57.756 791.156 57.42C790.7 57.732 790.316 58.098 790.004 58.518C789.704 58.938 789.554 59.406 789.554 59.922C789.554 60.558 789.788 61.086 790.256 61.506C790.736 61.914 791.324 62.118 792.02 62.118Z" fill="black"/>
<path d="M726.168 235.302H728.544L728.868 232.638H726.492L726.168 235.302ZM724.62 240L725.07 236.328H723.63V235.302H725.196L725.52 232.638H723.99V231.594H725.646L726.06 228.3H727.014L726.6 231.594H728.994L729.426 228.3H730.38L729.948 231.594H731.406V232.638H729.84L729.516 235.302H731.046V236.328H729.39L728.94 240H727.986L728.418 236.328H726.042L725.592 240H724.62ZM735.169 240V238.776H737.797V230.316H735.709V229.362C736.225 229.278 736.681 229.164 737.077 229.02C737.473 228.876 737.827 228.708 738.139 228.516H739.273V238.776H741.649V240H735.169ZM746.367 235.644H749.967V232.314C749.967 232.014 749.979 231.648 750.003 231.216C750.027 230.784 750.045 230.412 750.057 230.1H749.985C749.841 230.376 749.685 230.646 749.517 230.91C749.361 231.174 749.205 231.444 749.049 231.72L746.367 235.644ZM752.937 236.832H751.371V240H749.967V236.832H744.801V235.86L749.715 228.516H751.371V235.644H752.937V236.832ZM755.962 240V239.118C757.69 237.402 759.022 235.98 759.958 234.852C760.894 233.712 761.362 232.68 761.362 231.756C761.362 231.096 761.182 230.556 760.822 230.136C760.462 229.716 759.916 229.506 759.184 229.506C758.704 229.506 758.26 229.644 757.852 229.92C757.444 230.184 757.072 230.508 756.736 230.892L755.89 230.046C756.37 229.53 756.88 229.11 757.42 228.786C757.972 228.462 758.62 228.3 759.364 228.3C760.432 228.3 761.272 228.612 761.884 229.236C762.496 229.848 762.802 230.664 762.802 231.684C762.802 232.764 762.358 233.868 761.47 234.996C760.594 236.124 759.478 237.402 758.122 238.83C758.434 238.806 758.758 238.782 759.094 238.758C759.43 238.734 759.748 238.722 760.048 238.722H763.378V240H755.962ZM770.237 240.216C769.325 240.216 768.563 240.054 767.951 239.73C767.339 239.394 766.841 239.016 766.457 238.596L767.213 237.624C767.549 237.984 767.951 238.302 768.419 238.578C768.899 238.854 769.475 238.992 770.147 238.992C770.843 238.992 771.413 238.8 771.857 238.416C772.301 238.032 772.523 237.522 772.523 236.886C772.523 236.202 772.253 235.65 771.713 235.23C771.173 234.81 770.219 234.6 768.851 234.6V233.466C770.075 233.466 770.921 233.262 771.389 232.854C771.869 232.434 772.109 231.924 772.109 231.324C772.109 230.772 771.929 230.334 771.569 230.01C771.221 229.674 770.741 229.506 770.129 229.506C769.649 229.506 769.205 229.62 768.797 229.848C768.389 230.064 768.017 230.34 767.681 230.676L766.889 229.74C767.333 229.332 767.825 228.99 768.365 228.714C768.905 228.438 769.511 228.3 770.183 228.3C771.179 228.3 772.001 228.558 772.649 229.074C773.297 229.578 773.621 230.292 773.621 231.216C773.621 231.912 773.429 232.482 773.045 232.926C772.661 233.37 772.157 233.712 771.533 233.952V234.024C772.229 234.192 772.817 234.522 773.297 235.014C773.777 235.506 774.017 236.148 774.017 236.94C774.017 237.96 773.651 238.764 772.919 239.352C772.187 239.928 771.293 240.216 770.237 240.216ZM778.608 235.644H782.208V232.314C782.208 232.014 782.22 231.648 782.244 231.216C782.268 230.784 782.286 230.412 782.298 230.1H782.226C782.082 230.376 781.926 230.646 781.758 230.91C781.602 231.174 781.446 231.444 781.29 231.72L778.608 235.644ZM785.178 236.832H783.612V240H782.208V236.832H777.042V235.86L781.956 228.516H783.612V235.644H785.178V236.832ZM788.906 240V238.776H791.534V230.316H789.446V229.362C789.962 229.278 790.418 229.164 790.814 229.02C791.21 228.876 791.564 228.708 791.876 228.516H793.01V238.776H795.386V240H788.906Z" fill="white"/>
<path d="M902.168 58.302H904.544L904.868 55.638H902.492L902.168 58.302ZM900.62 63L901.07 59.328H899.63V58.302H901.196L901.52 55.638H899.99V54.594H901.646L902.06 51.3H903.014L902.6 54.594H904.994L905.426 51.3H906.38L905.948 54.594H907.406V55.638H905.84L905.516 58.302H907.046V59.328H905.39L904.94 63H903.986L904.418 59.328H902.042L901.592 63H900.62ZM912.933 63C912.993 61.56 913.143 60.27 913.383 59.13C913.623 57.978 913.971 56.898 914.427 55.89C914.895 54.87 915.507 53.838 916.263 52.794H910.539V51.516H917.937V52.434C917.037 53.598 916.347 54.702 915.867 55.746C915.387 56.778 915.051 57.876 914.859 59.04C914.667 60.192 914.535 61.512 914.463 63H912.933ZM924.149 56.394L923.591 58.194H927.137L926.579 56.394C926.363 55.734 926.159 55.08 925.967 54.432C925.775 53.772 925.583 53.1 925.391 52.416H925.319C925.139 53.1 924.953 53.772 924.761 54.432C924.569 55.08 924.365 55.734 924.149 56.394ZM928.631 63L927.515 59.4H923.213L922.079 63H920.549L924.545 51.192H926.237L930.233 63H928.631ZM936.586 63.216C935.506 63.216 934.606 62.922 933.886 62.334C933.178 61.734 932.824 60.978 932.824 60.066C932.824 59.322 933.046 58.692 933.49 58.176C933.946 57.66 934.444 57.258 934.984 56.97V56.898C934.564 56.598 934.192 56.232 933.868 55.8C933.544 55.368 933.382 54.852 933.382 54.252C933.382 53.364 933.694 52.65 934.318 52.11C934.942 51.57 935.716 51.3 936.64 51.3C937.636 51.3 938.422 51.588 938.998 52.164C939.586 52.74 939.88 53.472 939.88 54.36C939.88 54.96 939.7 55.506 939.34 55.998C938.992 56.49 938.644 56.868 938.296 57.132V57.204C938.812 57.504 939.274 57.882 939.682 58.338C940.09 58.782 940.294 59.388 940.294 60.156C940.294 61.008 939.952 61.734 939.268 62.334C938.596 62.922 937.702 63.216 936.586 63.216ZM937.396 56.736C938.2 56.028 938.602 55.26 938.602 54.432C938.602 53.868 938.428 53.388 938.08 52.992C937.732 52.596 937.24 52.398 936.604 52.398C936.076 52.398 935.632 52.572 935.272 52.92C934.924 53.256 934.75 53.7 934.75 54.252C934.75 54.936 935.014 55.458 935.542 55.818C936.082 56.166 936.7 56.472 937.396 56.736ZM936.622 62.118C937.294 62.118 937.834 61.932 938.242 61.56C938.662 61.176 938.872 60.69 938.872 60.102C938.872 59.37 938.56 58.824 937.936 58.464C937.312 58.104 936.586 57.756 935.758 57.42C935.302 57.732 934.918 58.098 934.606 58.518C934.306 58.938 934.156 59.406 934.156 59.922C934.156 60.558 934.39 61.086 934.858 61.506C935.338 61.914 935.926 62.118 936.622 62.118ZM947.063 57.42C947.435 57.42 947.837 57.3 948.269 57.06C948.701 56.82 949.103 56.43 949.475 55.89C949.283 53.61 948.437 52.47 946.937 52.47C946.385 52.47 945.911 52.704 945.515 53.172C945.131 53.628 944.939 54.234 944.939 54.99C944.939 55.734 945.113 56.328 945.461 56.772C945.821 57.204 946.355 57.42 947.063 57.42ZM946.523 63.216C945.911 63.216 945.371 63.102 944.903 62.874C944.447 62.646 944.063 62.358 943.751 62.01L944.579 61.074C945.095 61.686 945.725 61.992 946.469 61.992C947.273 61.992 947.969 61.632 948.557 60.912C949.157 60.18 949.475 58.896 949.511 57.06C948.743 58.044 947.843 58.536 946.811 58.536C945.815 58.536 945.023 58.242 944.435 57.654C943.847 57.054 943.553 56.166 943.553 54.99C943.553 53.898 943.889 53.01 944.561 52.326C945.233 51.642 946.025 51.3 946.937 51.3C948.065 51.3 949.007 51.762 949.763 52.686C950.519 53.598 950.897 54.978 950.897 56.826C950.897 58.362 950.687 59.598 950.267 60.534C949.859 61.47 949.319 62.154 948.647 62.586C947.987 63.006 947.279 63.216 946.523 63.216ZM957.234 56.394L956.676 58.194H960.222L959.664 56.394C959.448 55.734 959.244 55.08 959.052 54.432C958.86 53.772 958.668 53.1 958.476 52.416H958.404C958.224 53.1 958.038 53.772 957.846 54.432C957.654 55.08 957.45 55.734 957.234 56.394ZM961.716 63L960.6 59.4H956.298L955.164 63H953.634L957.63 51.192H959.322L963.318 63H961.716ZM968.357 63C968.417 61.56 968.567 60.27 968.807 59.13C969.047 57.978 969.395 56.898 969.851 55.89C970.319 54.87 970.931 53.838 971.687 52.794H965.963V51.516H973.361V52.434C972.461 53.598 971.771 54.702 971.291 55.746C970.811 56.778 970.475 57.876 970.283 59.04C970.091 60.192 969.959 61.512 969.887 63H968.357Z" fill="black"/>
<path d="M902.168 235.302H904.544L904.868 232.638H902.492L902.168 235.302ZM900.62 240L901.07 236.328H899.63V235.302H901.196L901.52 232.638H899.99V231.594H901.646L902.06 228.3H903.014L902.6 231.594H904.994L905.426 228.3H906.38L905.948 231.594H907.406V232.638H905.84L905.516 235.302H907.046V236.328H905.39L904.94 240H903.986L904.418 236.328H902.042L901.592 240H900.62ZM914.229 240.216C913.077 240.216 912.171 239.7 911.511 238.668C910.863 237.636 910.539 236.154 910.539 234.222C910.539 232.29 910.863 230.82 911.511 229.812C912.171 228.804 913.077 228.3 914.229 228.3C915.369 228.3 916.263 228.804 916.911 229.812C917.571 230.82 917.901 232.29 917.901 234.222C917.901 236.154 917.571 237.636 916.911 238.668C916.263 239.7 915.369 240.216 914.229 240.216ZM914.229 239.028C914.889 239.028 915.423 238.65 915.831 237.894C916.251 237.126 916.461 235.902 916.461 234.222C916.461 232.542 916.251 231.336 915.831 230.604C915.423 229.86 914.889 229.488 914.229 229.488C913.557 229.488 913.011 229.86 912.591 230.604C912.183 231.336 911.979 232.542 911.979 234.222C911.979 235.902 912.183 237.126 912.591 237.894C913.011 238.65 913.557 239.028 914.229 239.028ZM922.115 240V228.192H925.067C926.891 228.192 928.277 228.702 929.225 229.722C930.173 230.73 930.647 232.17 930.647 234.042C930.647 235.926 930.173 237.39 929.225 238.434C928.277 239.478 926.915 240 925.139 240H922.115ZM923.609 238.776H924.959C926.339 238.776 927.371 238.362 928.055 237.534C928.751 236.706 929.099 235.542 929.099 234.042C929.099 232.554 928.751 231.414 928.055 230.622C927.371 229.818 926.339 229.416 924.959 229.416H923.609V238.776ZM934.791 240V238.776H937.419V230.316H935.331V229.362C935.847 229.278 936.303 229.164 936.699 229.02C937.095 228.876 937.449 228.708 937.761 228.516H938.895V238.776H941.271V240H934.791ZM948.616 240.216C947.536 240.216 946.636 239.922 945.916 239.334C945.208 238.734 944.854 237.978 944.854 237.066C944.854 236.322 945.076 235.692 945.52 235.176C945.976 234.66 946.474 234.258 947.014 233.97V233.898C946.594 233.598 946.222 233.232 945.898 232.8C945.574 232.368 945.412 231.852 945.412 231.252C945.412 230.364 945.724 229.65 946.348 229.11C946.972 228.57 947.746 228.3 948.67 228.3C949.666 228.3 950.452 228.588 951.028 229.164C951.616 229.74 951.91 230.472 951.91 231.36C951.91 231.96 951.73 232.506 951.37 232.998C951.022 233.49 950.674 233.868 950.326 234.132V234.204C950.842 234.504 951.304 234.882 951.712 235.338C952.12 235.782 952.324 236.388 952.324 237.156C952.324 238.008 951.982 238.734 951.298 239.334C950.626 239.922 949.732 240.216 948.616 240.216ZM949.426 233.736C950.23 233.028 950.632 232.26 950.632 231.432C950.632 230.868 950.458 230.388 950.11 229.992C949.762 229.596 949.27 229.398 948.634 229.398C948.106 229.398 947.662 229.572 947.302 229.92C946.954 230.256 946.78 230.7 946.78 231.252C946.78 231.936 947.044 232.458 947.572 232.818C948.112 233.166 948.73 233.472 949.426 233.736ZM948.652 239.118C949.324 239.118 949.864 238.932 950.272 238.56C950.692 238.176 950.902 237.69 950.902 237.102C950.902 236.37 950.59 235.824 949.966 235.464C949.342 235.104 948.616 234.756 947.788 234.42C947.332 234.732 946.948 235.098 946.636 235.518C946.336 235.938 946.186 236.406 946.186 236.922C946.186 237.558 946.42 238.086 946.888 238.506C947.368 238.914 947.956 239.118 948.652 239.118ZM955.583 240V239.118C957.311 237.402 958.643 235.98 959.579 234.852C960.515 233.712 960.983 232.68 960.983 231.756C960.983 231.096 960.803 230.556 960.443 230.136C960.083 229.716 959.537 229.506 958.805 229.506C958.325 229.506 957.881 229.644 957.473 229.92C957.065 230.184 956.693 230.508 956.357 230.892L955.511 230.046C955.991 229.53 956.501 229.11 957.041 228.786C957.593 228.462 958.241 228.3 958.985 228.3C960.053 228.3 960.893 228.612 961.505 229.236C962.117 229.848 962.423 230.664 962.423 231.684C962.423 232.764 961.979 233.868 961.091 234.996C960.215 236.124 959.099 237.402 957.743 238.83C958.055 238.806 958.379 238.782 958.715 238.758C959.051 238.734 959.369 238.722 959.669 238.722H962.999V240H955.583ZM967.231 240V228.192H970.741C971.941 228.192 972.913 228.414 973.657 228.858C974.413 229.302 974.791 230.04 974.791 231.072C974.791 231.66 974.641 232.194 974.341 232.674C974.041 233.142 973.615 233.466 973.063 233.646V233.718C973.771 233.85 974.347 234.15 974.791 234.618C975.247 235.086 975.475 235.728 975.475 236.544C975.475 237.708 975.055 238.578 974.215 239.154C973.387 239.718 972.313 240 970.993 240H967.231ZM968.725 233.214H970.471C971.479 233.214 972.205 233.04 972.649 232.692C973.093 232.344 973.315 231.87 973.315 231.27C973.315 230.586 973.081 230.1 972.613 229.812C972.145 229.524 971.455 229.38 970.543 229.38H968.725V233.214ZM968.725 238.812H970.777C971.797 238.812 972.589 238.626 973.153 238.254C973.717 237.87 973.999 237.282 973.999 236.49C973.999 235.758 973.717 235.224 973.153 234.888C972.601 234.54 971.809 234.366 970.777 234.366H968.725V238.812Z" fill="white"/>
</svg>
