<svg width="1060" height="353" viewBox="0 0 1060 353" fill="none" xmlns="http://www.w3.org/2000/svg">
<path d="M0 24C0 10.7452 10.7452 0 24 0H353V353H24C10.7452 353 0 342.255 0 329V24Z" fill="#4586FF"/>
<rect x="353" width="177" height="177" fill="#6A9EFF"/>
<rect x="530" width="177" height="177" fill="#8FB6FF"/>
<rect x="707" width="176" height="177" fill="#B5CFFF"/>
<path d="M883 0H1036C1049.25 0 1060 10.7452 1060 24V177H883V0Z" fill="#DAE7FF"/>
<rect x="353" y="177" width="177" height="176" fill="#376BCC"/>
<rect x="530" y="177" width="177" height="176" fill="#295099"/>
<rect x="707" y="177" width="176" height="176" fill="#1C3666"/>
<path d="M883 177H1060V329C1060 342.255 1049.25 353 1036 353H883V177Z" fill="#0E1B33"/>
<path d="M17.386 33V21.264H21.418C22.702 21.264 23.8 21.54 24.712 22.092C25.624 22.644 26.08 23.628 26.08 25.044C26.08 26.424 25.624 27.432 24.712 28.068C23.8 28.704 22.726 29.022 21.49 29.022H20.032V33H17.386ZM20.032 26.916H21.328C22.768 26.916 23.488 26.292 23.488 25.044C23.488 24.432 23.296 24 22.912 23.748C22.528 23.496 21.976 23.37 21.256 23.37H20.032V26.916ZM29.6927 33V24.072H31.8527L32.0327 25.638H32.1047C32.4287 25.038 32.8187 24.594 33.2747 24.306C33.7307 24.006 34.1867 23.856 34.6427 23.856C34.8947 23.856 35.0987 23.874 35.2547 23.91C35.4227 23.946 35.5727 23.988 35.7047 24.036L35.2727 26.322C35.1167 26.274 34.9607 26.238 34.8047 26.214C34.6607 26.19 34.4927 26.178 34.3007 26.178C33.9647 26.178 33.6107 26.304 33.2387 26.556C32.8787 26.796 32.5787 27.216 32.3387 27.816V33H29.6927ZM39.9785 22.758C39.5345 22.758 39.1685 22.632 38.8805 22.38C38.5925 22.116 38.4485 21.78 38.4485 21.372C38.4485 20.964 38.5925 20.634 38.8805 20.382C39.1685 20.13 39.5345 20.004 39.9785 20.004C40.4345 20.004 40.8005 20.13 41.0765 20.382C41.3645 20.634 41.5085 20.964 41.5085 21.372C41.5085 21.78 41.3645 22.116 41.0765 22.38C40.8005 22.632 40.4345 22.758 39.9785 22.758ZM38.6645 33V24.072H41.3105V33H38.6645ZM45.4391 33V24.072H47.5991L47.7791 25.224H47.8511C48.2231 24.852 48.6191 24.534 49.0391 24.27C49.4591 23.994 49.9631 23.856 50.5511 23.856C51.1871 23.856 51.6971 23.988 52.0811 24.252C52.4771 24.504 52.7891 24.87 53.0171 25.35C53.4131 24.942 53.8271 24.594 54.2591 24.306C54.7031 24.006 55.2251 23.856 55.8251 23.856C56.7851 23.856 57.4871 24.18 57.9311 24.828C58.3871 25.464 58.6151 26.34 58.6151 27.456V33H55.9691V27.798C55.9691 27.15 55.8791 26.706 55.6991 26.466C55.5191 26.226 55.2431 26.106 54.8711 26.106C54.4271 26.106 53.9171 26.394 53.3411 26.97V33H50.6951V27.798C50.6951 27.15 50.6051 26.706 50.4251 26.466C50.2571 26.226 49.9811 26.106 49.5971 26.106C49.1411 26.106 48.6371 26.394 48.0851 26.97V33H45.4391ZM65.8227 31.164C66.1227 31.164 66.3807 31.098 66.5967 30.966C66.8247 30.834 67.0527 30.648 67.2807 30.408V28.842C66.3447 28.974 65.6967 29.166 65.3367 29.418C64.9767 29.67 64.7967 29.97 64.7967 30.318C64.7967 30.882 65.1387 31.164 65.8227 31.164ZM64.9227 33.216C64.1067 33.216 63.4587 32.958 62.9787 32.442C62.4987 31.914 62.2587 31.272 62.2587 30.516C62.2587 29.58 62.6547 28.848 63.4467 28.32C64.2387 27.792 65.5167 27.438 67.2807 27.258C67.2567 26.862 67.1367 26.55 66.9207 26.322C66.7167 26.082 66.3687 25.962 65.8767 25.962C65.5047 25.962 65.1267 26.034 64.7427 26.178C64.3587 26.322 63.9507 26.52 63.5187 26.772L62.5647 25.026C63.1287 24.678 63.7287 24.396 64.3647 24.18C65.0007 23.964 65.6727 23.856 66.3807 23.856C67.5207 23.856 68.3967 24.186 69.0087 24.846C69.6207 25.506 69.9267 26.52 69.9267 27.888V33H67.7667L67.5867 32.082H67.5147C67.1307 32.418 66.7287 32.694 66.3087 32.91C65.8887 33.114 65.4267 33.216 64.9227 33.216ZM73.9649 33V24.072H76.1249L76.3049 25.638H76.3769C76.7009 25.038 77.0909 24.594 77.5469 24.306C78.0029 24.006 78.4589 23.856 78.9149 23.856C79.1669 23.856 79.3709 23.874 79.5269 23.91C79.6949 23.946 79.8449 23.988 79.9769 24.036L79.5449 26.322C79.3889 26.274 79.2329 26.238 79.0769 26.214C78.9329 26.19 78.7649 26.178 78.5729 26.178C78.2369 26.178 77.8829 26.304 77.5109 26.556C77.1509 26.796 76.8509 27.216 76.6109 27.816V33H73.9649ZM84.0498 36.492C83.7858 36.492 83.5518 36.474 83.3478 36.438C83.1558 36.402 82.9698 36.36 82.7898 36.312L83.2578 34.296C83.3418 34.32 83.4378 34.344 83.5458 34.368C83.6538 34.392 83.7558 34.404 83.8518 34.404C84.2958 34.404 84.6378 34.296 84.8778 34.08C85.1178 33.864 85.2978 33.582 85.4178 33.234L85.5438 32.766L82.1058 24.072H84.7698L86.0478 27.906C86.1798 28.314 86.2998 28.728 86.4078 29.148C86.5158 29.568 86.6298 30 86.7498 30.444H86.8218C86.9178 30.024 87.0138 29.604 87.1098 29.184C87.2178 28.752 87.3258 28.326 87.4338 27.906L88.5138 24.072H91.0518L87.9558 33.09C87.5358 34.218 87.0438 35.064 86.4798 35.628C85.9158 36.204 85.1058 36.492 84.0498 36.492ZM102.926 33.216C101.99 33.216 101.192 33.06 100.532 32.748C99.8841 32.436 99.3381 32.058 98.8941 31.614L100.082 29.94C100.43 30.252 100.808 30.522 101.216 30.75C101.624 30.966 102.068 31.074 102.548 31.074C103.136 31.074 103.604 30.924 103.952 30.624C104.3 30.324 104.474 29.88 104.474 29.292C104.474 28.716 104.306 28.278 103.97 27.978C103.634 27.678 103.202 27.528 102.674 27.528C102.338 27.528 102.056 27.57 101.828 27.654C101.612 27.738 101.33 27.888 100.982 28.104L99.7941 27.348L100.118 21.57H106.598V23.802H102.404L102.206 25.944C102.602 25.764 103.028 25.674 103.484 25.674C104.468 25.674 105.32 25.962 106.04 26.538C106.76 27.114 107.12 28.008 107.12 29.22C107.12 30.492 106.7 31.476 105.86 32.172C105.02 32.868 104.042 33.216 102.926 33.216ZM114.542 33.216C113.318 33.216 112.328 32.706 111.572 31.686C110.828 30.666 110.456 29.184 110.456 27.24C110.456 25.296 110.828 23.832 111.572 22.848C112.328 21.852 113.318 21.354 114.542 21.354C115.766 21.354 116.75 21.852 117.494 22.848C118.25 23.832 118.628 25.296 118.628 27.24C118.628 29.184 118.25 30.666 117.494 31.686C116.75 32.706 115.766 33.216 114.542 33.216ZM114.542 31.164C114.998 31.164 115.376 30.9 115.676 30.372C115.976 29.844 116.126 28.8 116.126 27.24C116.126 25.68 115.976 24.654 115.676 24.162C115.376 23.658 114.998 23.406 114.542 23.406C114.098 23.406 113.72 23.658 113.408 24.162C113.108 24.654 112.958 25.68 112.958 27.24C112.958 28.8 113.108 29.844 113.408 30.372C113.72 30.9 114.098 31.164 114.542 31.164ZM125.852 33.216C124.628 33.216 123.638 32.706 122.882 31.686C122.138 30.666 121.766 29.184 121.766 27.24C121.766 25.296 122.138 23.832 122.882 22.848C123.638 21.852 124.628 21.354 125.852 21.354C127.076 21.354 128.06 21.852 128.804 22.848C129.56 23.832 129.938 25.296 129.938 27.24C129.938 29.184 129.56 30.666 128.804 31.686C128.06 32.706 127.076 33.216 125.852 33.216ZM125.852 31.164C126.308 31.164 126.686 30.9 126.986 30.372C127.286 29.844 127.436 28.8 127.436 27.24C127.436 25.68 127.286 24.654 126.986 24.162C126.686 23.658 126.308 23.406 125.852 23.406C125.408 23.406 125.03 23.658 124.718 24.162C124.418 24.654 124.268 25.68 124.268 27.24C124.268 28.8 124.418 29.844 124.718 30.372C125.03 30.9 125.408 31.164 125.852 31.164Z" fill="black"/>
<path d="M370.386 33V21.264H374.418C375.702 21.264 376.8 21.54 377.712 22.092C378.624 22.644 379.08 23.628 379.08 25.044C379.08 26.424 378.624 27.432 377.712 28.068C376.8 28.704 375.726 29.022 374.49 29.022H373.032V33H370.386ZM373.032 26.916H374.328C375.768 26.916 376.488 26.292 376.488 25.044C376.488 24.432 376.296 24 375.912 23.748C375.528 23.496 374.976 23.37 374.256 23.37H373.032V26.916ZM382.693 33V24.072H384.853L385.033 25.638H385.105C385.429 25.038 385.819 24.594 386.275 24.306C386.731 24.006 387.187 23.856 387.643 23.856C387.895 23.856 388.099 23.874 388.255 23.91C388.423 23.946 388.573 23.988 388.705 24.036L388.273 26.322C388.117 26.274 387.961 26.238 387.805 26.214C387.661 26.19 387.493 26.178 387.301 26.178C386.965 26.178 386.611 26.304 386.239 26.556C385.879 26.796 385.579 27.216 385.339 27.816V33H382.693ZM392.979 22.758C392.535 22.758 392.169 22.632 391.881 22.38C391.593 22.116 391.449 21.78 391.449 21.372C391.449 20.964 391.593 20.634 391.881 20.382C392.169 20.13 392.535 20.004 392.979 20.004C393.435 20.004 393.801 20.13 394.077 20.382C394.365 20.634 394.509 20.964 394.509 21.372C394.509 21.78 394.365 22.116 394.077 22.38C393.801 22.632 393.435 22.758 392.979 22.758ZM391.665 33V24.072H394.311V33H391.665ZM398.439 33V24.072H400.599L400.779 25.224H400.851C401.223 24.852 401.619 24.534 402.039 24.27C402.459 23.994 402.963 23.856 403.551 23.856C404.187 23.856 404.697 23.988 405.081 24.252C405.477 24.504 405.789 24.87 406.017 25.35C406.413 24.942 406.827 24.594 407.259 24.306C407.703 24.006 408.225 23.856 408.825 23.856C409.785 23.856 410.487 24.18 410.931 24.828C411.387 25.464 411.615 26.34 411.615 27.456V33H408.969V27.798C408.969 27.15 408.879 26.706 408.699 26.466C408.519 26.226 408.243 26.106 407.871 26.106C407.427 26.106 406.917 26.394 406.341 26.97V33H403.695V27.798C403.695 27.15 403.605 26.706 403.425 26.466C403.257 26.226 402.981 26.106 402.597 26.106C402.141 26.106 401.637 26.394 401.085 26.97V33H398.439ZM418.823 31.164C419.123 31.164 419.381 31.098 419.597 30.966C419.825 30.834 420.053 30.648 420.281 30.408V28.842C419.345 28.974 418.697 29.166 418.337 29.418C417.977 29.67 417.797 29.97 417.797 30.318C417.797 30.882 418.139 31.164 418.823 31.164ZM417.923 33.216C417.107 33.216 416.459 32.958 415.979 32.442C415.499 31.914 415.259 31.272 415.259 30.516C415.259 29.58 415.655 28.848 416.447 28.32C417.239 27.792 418.517 27.438 420.281 27.258C420.257 26.862 420.137 26.55 419.921 26.322C419.717 26.082 419.369 25.962 418.877 25.962C418.505 25.962 418.127 26.034 417.743 26.178C417.359 26.322 416.951 26.52 416.519 26.772L415.565 25.026C416.129 24.678 416.729 24.396 417.365 24.18C418.001 23.964 418.673 23.856 419.381 23.856C420.521 23.856 421.397 24.186 422.009 24.846C422.621 25.506 422.927 26.52 422.927 27.888V33H420.767L420.587 32.082H420.515C420.131 32.418 419.729 32.694 419.309 32.91C418.889 33.114 418.427 33.216 417.923 33.216ZM426.965 33V24.072H429.125L429.305 25.638H429.377C429.701 25.038 430.091 24.594 430.547 24.306C431.003 24.006 431.459 23.856 431.915 23.856C432.167 23.856 432.371 23.874 432.527 23.91C432.695 23.946 432.845 23.988 432.977 24.036L432.545 26.322C432.389 26.274 432.233 26.238 432.077 26.214C431.933 26.19 431.765 26.178 431.573 26.178C431.237 26.178 430.883 26.304 430.511 26.556C430.151 26.796 429.851 27.216 429.611 27.816V33H426.965ZM437.05 36.492C436.786 36.492 436.552 36.474 436.348 36.438C436.156 36.402 435.97 36.36 435.79 36.312L436.258 34.296C436.342 34.32 436.438 34.344 436.546 34.368C436.654 34.392 436.756 34.404 436.852 34.404C437.296 34.404 437.638 34.296 437.878 34.08C438.118 33.864 438.298 33.582 438.418 33.234L438.544 32.766L435.106 24.072H437.77L439.048 27.906C439.18 28.314 439.3 28.728 439.408 29.148C439.516 29.568 439.63 30 439.75 30.444H439.822C439.918 30.024 440.014 29.604 440.11 29.184C440.218 28.752 440.326 28.326 440.434 27.906L441.514 24.072H444.052L440.956 33.09C440.536 34.218 440.044 35.064 439.48 35.628C438.916 36.204 438.106 36.492 437.05 36.492ZM454.36 28.248H456.772V26.394C456.772 26.022 456.784 25.596 456.808 25.116C456.832 24.624 456.856 24.198 456.88 23.838H456.808C456.664 24.15 456.514 24.468 456.358 24.792C456.202 25.116 456.04 25.44 455.872 25.764L454.36 28.248ZM460.552 30.264H459.238V33H456.772V30.264H451.822V28.446L455.998 21.57H459.238V28.248H460.552V30.264ZM467.542 33.216C466.318 33.216 465.328 32.706 464.572 31.686C463.828 30.666 463.456 29.184 463.456 27.24C463.456 25.296 463.828 23.832 464.572 22.848C465.328 21.852 466.318 21.354 467.542 21.354C468.766 21.354 469.75 21.852 470.494 22.848C471.25 23.832 471.628 25.296 471.628 27.24C471.628 29.184 471.25 30.666 470.494 31.686C469.75 32.706 468.766 33.216 467.542 33.216ZM467.542 31.164C467.998 31.164 468.376 30.9 468.676 30.372C468.976 29.844 469.126 28.8 469.126 27.24C469.126 25.68 468.976 24.654 468.676 24.162C468.376 23.658 467.998 23.406 467.542 23.406C467.098 23.406 466.72 23.658 466.408 24.162C466.108 24.654 465.958 25.68 465.958 27.24C465.958 28.8 466.108 29.844 466.408 30.372C466.72 30.9 467.098 31.164 467.542 31.164ZM478.852 33.216C477.628 33.216 476.638 32.706 475.882 31.686C475.138 30.666 474.766 29.184 474.766 27.24C474.766 25.296 475.138 23.832 475.882 22.848C476.638 21.852 477.628 21.354 478.852 21.354C480.076 21.354 481.06 21.852 481.804 22.848C482.56 23.832 482.938 25.296 482.938 27.24C482.938 29.184 482.56 30.666 481.804 31.686C481.06 32.706 480.076 33.216 478.852 33.216ZM478.852 31.164C479.308 31.164 479.686 30.9 479.986 30.372C480.286 29.844 480.436 28.8 480.436 27.24C480.436 25.68 480.286 24.654 479.986 24.162C479.686 23.658 479.308 23.406 478.852 23.406C478.408 23.406 478.03 23.658 477.718 24.162C477.418 24.654 477.268 25.68 477.268 27.24C477.268 28.8 477.418 29.844 477.718 30.372C478.03 30.9 478.408 31.164 478.852 31.164Z" fill="black"/>
<path d="M370.386 210V198.264H374.418C375.702 198.264 376.8 198.54 377.712 199.092C378.624 199.644 379.08 200.628 379.08 202.044C379.08 203.424 378.624 204.432 377.712 205.068C376.8 205.704 375.726 206.022 374.49 206.022H373.032V210H370.386ZM373.032 203.916H374.328C375.768 203.916 376.488 203.292 376.488 202.044C376.488 201.432 376.296 201 375.912 200.748C375.528 200.496 374.976 200.37 374.256 200.37H373.032V203.916ZM382.693 210V201.072H384.853L385.033 202.638H385.105C385.429 202.038 385.819 201.594 386.275 201.306C386.731 201.006 387.187 200.856 387.643 200.856C387.895 200.856 388.099 200.874 388.255 200.91C388.423 200.946 388.573 200.988 388.705 201.036L388.273 203.322C388.117 203.274 387.961 203.238 387.805 203.214C387.661 203.19 387.493 203.178 387.301 203.178C386.965 203.178 386.611 203.304 386.239 203.556C385.879 203.796 385.579 204.216 385.339 204.816V210H382.693ZM392.979 199.758C392.535 199.758 392.169 199.632 391.881 199.38C391.593 199.116 391.449 198.78 391.449 198.372C391.449 197.964 391.593 197.634 391.881 197.382C392.169 197.13 392.535 197.004 392.979 197.004C393.435 197.004 393.801 197.13 394.077 197.382C394.365 197.634 394.509 197.964 394.509 198.372C394.509 198.78 394.365 199.116 394.077 199.38C393.801 199.632 393.435 199.758 392.979 199.758ZM391.665 210V201.072H394.311V210H391.665ZM398.439 210V201.072H400.599L400.779 202.224H400.851C401.223 201.852 401.619 201.534 402.039 201.27C402.459 200.994 402.963 200.856 403.551 200.856C404.187 200.856 404.697 200.988 405.081 201.252C405.477 201.504 405.789 201.87 406.017 202.35C406.413 201.942 406.827 201.594 407.259 201.306C407.703 201.006 408.225 200.856 408.825 200.856C409.785 200.856 410.487 201.18 410.931 201.828C411.387 202.464 411.615 203.34 411.615 204.456V210H408.969V204.798C408.969 204.15 408.879 203.706 408.699 203.466C408.519 203.226 408.243 203.106 407.871 203.106C407.427 203.106 406.917 203.394 406.341 203.97V210H403.695V204.798C403.695 204.15 403.605 203.706 403.425 203.466C403.257 203.226 402.981 203.106 402.597 203.106C402.141 203.106 401.637 203.394 401.085 203.97V210H398.439ZM418.823 208.164C419.123 208.164 419.381 208.098 419.597 207.966C419.825 207.834 420.053 207.648 420.281 207.408V205.842C419.345 205.974 418.697 206.166 418.337 206.418C417.977 206.67 417.797 206.97 417.797 207.318C417.797 207.882 418.139 208.164 418.823 208.164ZM417.923 210.216C417.107 210.216 416.459 209.958 415.979 209.442C415.499 208.914 415.259 208.272 415.259 207.516C415.259 206.58 415.655 205.848 416.447 205.32C417.239 204.792 418.517 204.438 420.281 204.258C420.257 203.862 420.137 203.55 419.921 203.322C419.717 203.082 419.369 202.962 418.877 202.962C418.505 202.962 418.127 203.034 417.743 203.178C417.359 203.322 416.951 203.52 416.519 203.772L415.565 202.026C416.129 201.678 416.729 201.396 417.365 201.18C418.001 200.964 418.673 200.856 419.381 200.856C420.521 200.856 421.397 201.186 422.009 201.846C422.621 202.506 422.927 203.52 422.927 204.888V210H420.767L420.587 209.082H420.515C420.131 209.418 419.729 209.694 419.309 209.91C418.889 210.114 418.427 210.216 417.923 210.216ZM426.965 210V201.072H429.125L429.305 202.638H429.377C429.701 202.038 430.091 201.594 430.547 201.306C431.003 201.006 431.459 200.856 431.915 200.856C432.167 200.856 432.371 200.874 432.527 200.91C432.695 200.946 432.845 200.988 432.977 201.036L432.545 203.322C432.389 203.274 432.233 203.238 432.077 203.214C431.933 203.19 431.765 203.178 431.573 203.178C431.237 203.178 430.883 203.304 430.511 203.556C430.151 203.796 429.851 204.216 429.611 204.816V210H426.965ZM437.05 213.492C436.786 213.492 436.552 213.474 436.348 213.438C436.156 213.402 435.97 213.36 435.79 213.312L436.258 211.296C436.342 211.32 436.438 211.344 436.546 211.368C436.654 211.392 436.756 211.404 436.852 211.404C437.296 211.404 437.638 211.296 437.878 211.08C438.118 210.864 438.298 210.582 438.418 210.234L438.544 209.766L435.106 201.072H437.77L439.048 204.906C439.18 205.314 439.3 205.728 439.408 206.148C439.516 206.568 439.63 207 439.75 207.444H439.822C439.918 207.024 440.014 206.604 440.11 206.184C440.218 205.752 440.326 205.326 440.434 204.906L441.514 201.072H444.052L440.956 210.09C440.536 211.218 440.044 212.064 439.48 212.628C438.916 213.204 438.106 213.492 437.05 213.492ZM460.336 206.382C460.336 207.57 459.958 208.506 459.202 209.19C458.458 209.874 457.57 210.216 456.538 210.216C455.806 210.216 455.11 210.024 454.45 209.64C453.79 209.244 453.25 208.632 452.83 207.804C452.422 206.964 452.218 205.878 452.218 204.546C452.218 203.118 452.434 201.948 452.866 201.036C453.31 200.124 453.88 199.452 454.576 199.02C455.284 198.576 456.04 198.354 456.844 198.354C457.6 198.354 458.254 198.492 458.806 198.768C459.358 199.032 459.814 199.35 460.174 199.722L458.788 201.306C458.596 201.09 458.332 200.904 457.996 200.748C457.672 200.58 457.342 200.496 457.006 200.496C456.382 200.496 455.842 200.76 455.386 201.288C454.942 201.804 454.696 202.728 454.648 204.06C454.948 203.676 455.314 203.382 455.746 203.178C456.178 202.962 456.574 202.854 456.934 202.854C457.918 202.854 458.728 203.142 459.364 203.718C460.012 204.282 460.336 205.17 460.336 206.382ZM456.484 208.236C456.88 208.236 457.216 208.092 457.492 207.804C457.78 207.504 457.924 207.03 457.924 206.382C457.924 205.782 457.78 205.356 457.492 205.104C457.216 204.852 456.862 204.726 456.43 204.726C456.13 204.726 455.824 204.816 455.512 204.996C455.212 205.164 454.942 205.452 454.702 205.86C454.822 206.76 455.05 207.384 455.386 207.732C455.722 208.068 456.088 208.236 456.484 208.236ZM467.542 210.216C466.318 210.216 465.328 209.706 464.572 208.686C463.828 207.666 463.456 206.184 463.456 204.24C463.456 202.296 463.828 200.832 464.572 199.848C465.328 198.852 466.318 198.354 467.542 198.354C468.766 198.354 469.75 198.852 470.494 199.848C471.25 200.832 471.628 202.296 471.628 204.24C471.628 206.184 471.25 207.666 470.494 208.686C469.75 209.706 468.766 210.216 467.542 210.216ZM467.542 208.164C467.998 208.164 468.376 207.9 468.676 207.372C468.976 206.844 469.126 205.8 469.126 204.24C469.126 202.68 468.976 201.654 468.676 201.162C468.376 200.658 467.998 200.406 467.542 200.406C467.098 200.406 466.72 200.658 466.408 201.162C466.108 201.654 465.958 202.68 465.958 204.24C465.958 205.8 466.108 206.844 466.408 207.372C466.72 207.9 467.098 208.164 467.542 208.164ZM478.852 210.216C477.628 210.216 476.638 209.706 475.882 208.686C475.138 207.666 474.766 206.184 474.766 204.24C474.766 202.296 475.138 200.832 475.882 199.848C476.638 198.852 477.628 198.354 478.852 198.354C480.076 198.354 481.06 198.852 481.804 199.848C482.56 200.832 482.938 202.296 482.938 204.24C482.938 206.184 482.56 207.666 481.804 208.686C481.06 209.706 480.076 210.216 478.852 210.216ZM478.852 208.164C479.308 208.164 479.686 207.9 479.986 207.372C480.286 206.844 480.436 205.8 480.436 204.24C480.436 202.68 480.286 201.654 479.986 201.162C479.686 200.658 479.308 200.406 478.852 200.406C478.408 200.406 478.03 200.658 477.718 201.162C477.418 201.654 477.268 202.68 477.268 204.24C477.268 205.8 477.418 206.844 477.718 207.372C478.03 207.9 478.408 208.164 478.852 208.164Z" fill="white"/>
<path d="M547.386 33V21.264H551.418C552.702 21.264 553.8 21.54 554.712 22.092C555.624 22.644 556.08 23.628 556.08 25.044C556.08 26.424 555.624 27.432 554.712 28.068C553.8 28.704 552.726 29.022 551.49 29.022H550.032V33H547.386ZM550.032 26.916H551.328C552.768 26.916 553.488 26.292 553.488 25.044C553.488 24.432 553.296 24 552.912 23.748C552.528 23.496 551.976 23.37 551.256 23.37H550.032V26.916ZM559.693 33V24.072H561.853L562.033 25.638H562.105C562.429 25.038 562.819 24.594 563.275 24.306C563.731 24.006 564.187 23.856 564.643 23.856C564.895 23.856 565.099 23.874 565.255 23.91C565.423 23.946 565.573 23.988 565.705 24.036L565.273 26.322C565.117 26.274 564.961 26.238 564.805 26.214C564.661 26.19 564.493 26.178 564.301 26.178C563.965 26.178 563.611 26.304 563.239 26.556C562.879 26.796 562.579 27.216 562.339 27.816V33H559.693ZM569.979 22.758C569.535 22.758 569.169 22.632 568.881 22.38C568.593 22.116 568.449 21.78 568.449 21.372C568.449 20.964 568.593 20.634 568.881 20.382C569.169 20.13 569.535 20.004 569.979 20.004C570.435 20.004 570.801 20.13 571.077 20.382C571.365 20.634 571.509 20.964 571.509 21.372C571.509 21.78 571.365 22.116 571.077 22.38C570.801 22.632 570.435 22.758 569.979 22.758ZM568.665 33V24.072H571.311V33H568.665ZM575.439 33V24.072H577.599L577.779 25.224H577.851C578.223 24.852 578.619 24.534 579.039 24.27C579.459 23.994 579.963 23.856 580.551 23.856C581.187 23.856 581.697 23.988 582.081 24.252C582.477 24.504 582.789 24.87 583.017 25.35C583.413 24.942 583.827 24.594 584.259 24.306C584.703 24.006 585.225 23.856 585.825 23.856C586.785 23.856 587.487 24.18 587.931 24.828C588.387 25.464 588.615 26.34 588.615 27.456V33H585.969V27.798C585.969 27.15 585.879 26.706 585.699 26.466C585.519 26.226 585.243 26.106 584.871 26.106C584.427 26.106 583.917 26.394 583.341 26.97V33H580.695V27.798C580.695 27.15 580.605 26.706 580.425 26.466C580.257 26.226 579.981 26.106 579.597 26.106C579.141 26.106 578.637 26.394 578.085 26.97V33H575.439ZM595.823 31.164C596.123 31.164 596.381 31.098 596.597 30.966C596.825 30.834 597.053 30.648 597.281 30.408V28.842C596.345 28.974 595.697 29.166 595.337 29.418C594.977 29.67 594.797 29.97 594.797 30.318C594.797 30.882 595.139 31.164 595.823 31.164ZM594.923 33.216C594.107 33.216 593.459 32.958 592.979 32.442C592.499 31.914 592.259 31.272 592.259 30.516C592.259 29.58 592.655 28.848 593.447 28.32C594.239 27.792 595.517 27.438 597.281 27.258C597.257 26.862 597.137 26.55 596.921 26.322C596.717 26.082 596.369 25.962 595.877 25.962C595.505 25.962 595.127 26.034 594.743 26.178C594.359 26.322 593.951 26.52 593.519 26.772L592.565 25.026C593.129 24.678 593.729 24.396 594.365 24.18C595.001 23.964 595.673 23.856 596.381 23.856C597.521 23.856 598.397 24.186 599.009 24.846C599.621 25.506 599.927 26.52 599.927 27.888V33H597.767L597.587 32.082H597.515C597.131 32.418 596.729 32.694 596.309 32.91C595.889 33.114 595.427 33.216 594.923 33.216ZM603.965 33V24.072H606.125L606.305 25.638H606.377C606.701 25.038 607.091 24.594 607.547 24.306C608.003 24.006 608.459 23.856 608.915 23.856C609.167 23.856 609.371 23.874 609.527 23.91C609.695 23.946 609.845 23.988 609.977 24.036L609.545 26.322C609.389 26.274 609.233 26.238 609.077 26.214C608.933 26.19 608.765 26.178 608.573 26.178C608.237 26.178 607.883 26.304 607.511 26.556C607.151 26.796 606.851 27.216 606.611 27.816V33H603.965ZM614.05 36.492C613.786 36.492 613.552 36.474 613.348 36.438C613.156 36.402 612.97 36.36 612.79 36.312L613.258 34.296C613.342 34.32 613.438 34.344 613.546 34.368C613.654 34.392 613.756 34.404 613.852 34.404C614.296 34.404 614.638 34.296 614.878 34.08C615.118 33.864 615.298 33.582 615.418 33.234L615.544 32.766L612.106 24.072H614.77L616.048 27.906C616.18 28.314 616.3 28.728 616.408 29.148C616.516 29.568 616.63 30 616.75 30.444H616.822C616.918 30.024 617.014 29.604 617.11 29.184C617.218 28.752 617.326 28.326 617.434 27.906L618.514 24.072H621.052L617.956 33.09C617.536 34.218 617.044 35.064 616.48 35.628C615.916 36.204 615.106 36.492 614.05 36.492ZM632.854 33.216C631.93 33.216 631.138 33.066 630.478 32.766C629.818 32.466 629.284 32.076 628.876 31.596L630.1 29.922C630.436 30.258 630.814 30.534 631.234 30.75C631.654 30.966 632.11 31.074 632.602 31.074C633.166 31.074 633.616 30.96 633.952 30.732C634.288 30.492 634.456 30.156 634.456 29.724C634.456 29.22 634.252 28.824 633.844 28.536C633.436 28.236 632.614 28.086 631.378 28.086V26.214C632.398 26.214 633.1 26.076 633.484 25.8C633.88 25.512 634.078 25.14 634.078 24.684C634.078 23.844 633.61 23.424 632.674 23.424C632.266 23.424 631.894 23.514 631.558 23.694C631.234 23.874 630.892 24.12 630.532 24.432L629.2 22.812C629.728 22.356 630.286 22.002 630.874 21.75C631.462 21.486 632.104 21.354 632.8 21.354C633.976 21.354 634.924 21.63 635.644 22.182C636.376 22.722 636.742 23.49 636.742 24.486C636.742 25.638 636.106 26.484 634.834 27.024V27.096C635.494 27.288 636.034 27.618 636.454 28.086C636.886 28.554 637.102 29.154 637.102 29.886C637.102 30.954 636.682 31.776 635.842 32.352C635.002 32.928 634.006 33.216 632.854 33.216ZM644.542 33.216C643.318 33.216 642.328 32.706 641.572 31.686C640.828 30.666 640.456 29.184 640.456 27.24C640.456 25.296 640.828 23.832 641.572 22.848C642.328 21.852 643.318 21.354 644.542 21.354C645.766 21.354 646.75 21.852 647.494 22.848C648.25 23.832 648.628 25.296 648.628 27.24C648.628 29.184 648.25 30.666 647.494 31.686C646.75 32.706 645.766 33.216 644.542 33.216ZM644.542 31.164C644.998 31.164 645.376 30.9 645.676 30.372C645.976 29.844 646.126 28.8 646.126 27.24C646.126 25.68 645.976 24.654 645.676 24.162C645.376 23.658 644.998 23.406 644.542 23.406C644.098 23.406 643.72 23.658 643.408 24.162C643.108 24.654 642.958 25.68 642.958 27.24C642.958 28.8 643.108 29.844 643.408 30.372C643.72 30.9 644.098 31.164 644.542 31.164ZM655.852 33.216C654.628 33.216 653.638 32.706 652.882 31.686C652.138 30.666 651.766 29.184 651.766 27.24C651.766 25.296 652.138 23.832 652.882 22.848C653.638 21.852 654.628 21.354 655.852 21.354C657.076 21.354 658.06 21.852 658.804 22.848C659.56 23.832 659.938 25.296 659.938 27.24C659.938 29.184 659.56 30.666 658.804 31.686C658.06 32.706 657.076 33.216 655.852 33.216ZM655.852 31.164C656.308 31.164 656.686 30.9 656.986 30.372C657.286 29.844 657.436 28.8 657.436 27.24C657.436 25.68 657.286 24.654 656.986 24.162C656.686 23.658 656.308 23.406 655.852 23.406C655.408 23.406 655.03 23.658 654.718 24.162C654.418 24.654 654.268 25.68 654.268 27.24C654.268 28.8 654.418 29.844 654.718 30.372C655.03 30.9 655.408 31.164 655.852 31.164Z" fill="black"/>
<path d="M547.386 210V198.264H551.418C552.702 198.264 553.8 198.54 554.712 199.092C555.624 199.644 556.08 200.628 556.08 202.044C556.08 203.424 555.624 204.432 554.712 205.068C553.8 205.704 552.726 206.022 551.49 206.022H550.032V210H547.386ZM550.032 203.916H551.328C552.768 203.916 553.488 203.292 553.488 202.044C553.488 201.432 553.296 201 552.912 200.748C552.528 200.496 551.976 200.37 551.256 200.37H550.032V203.916ZM559.693 210V201.072H561.853L562.033 202.638H562.105C562.429 202.038 562.819 201.594 563.275 201.306C563.731 201.006 564.187 200.856 564.643 200.856C564.895 200.856 565.099 200.874 565.255 200.91C565.423 200.946 565.573 200.988 565.705 201.036L565.273 203.322C565.117 203.274 564.961 203.238 564.805 203.214C564.661 203.19 564.493 203.178 564.301 203.178C563.965 203.178 563.611 203.304 563.239 203.556C562.879 203.796 562.579 204.216 562.339 204.816V210H559.693ZM569.979 199.758C569.535 199.758 569.169 199.632 568.881 199.38C568.593 199.116 568.449 198.78 568.449 198.372C568.449 197.964 568.593 197.634 568.881 197.382C569.169 197.13 569.535 197.004 569.979 197.004C570.435 197.004 570.801 197.13 571.077 197.382C571.365 197.634 571.509 197.964 571.509 198.372C571.509 198.78 571.365 199.116 571.077 199.38C570.801 199.632 570.435 199.758 569.979 199.758ZM568.665 210V201.072H571.311V210H568.665ZM575.439 210V201.072H577.599L577.779 202.224H577.851C578.223 201.852 578.619 201.534 579.039 201.27C579.459 200.994 579.963 200.856 580.551 200.856C581.187 200.856 581.697 200.988 582.081 201.252C582.477 201.504 582.789 201.87 583.017 202.35C583.413 201.942 583.827 201.594 584.259 201.306C584.703 201.006 585.225 200.856 585.825 200.856C586.785 200.856 587.487 201.18 587.931 201.828C588.387 202.464 588.615 203.34 588.615 204.456V210H585.969V204.798C585.969 204.15 585.879 203.706 585.699 203.466C585.519 203.226 585.243 203.106 584.871 203.106C584.427 203.106 583.917 203.394 583.341 203.97V210H580.695V204.798C580.695 204.15 580.605 203.706 580.425 203.466C580.257 203.226 579.981 203.106 579.597 203.106C579.141 203.106 578.637 203.394 578.085 203.97V210H575.439ZM595.823 208.164C596.123 208.164 596.381 208.098 596.597 207.966C596.825 207.834 597.053 207.648 597.281 207.408V205.842C596.345 205.974 595.697 206.166 595.337 206.418C594.977 206.67 594.797 206.97 594.797 207.318C594.797 207.882 595.139 208.164 595.823 208.164ZM594.923 210.216C594.107 210.216 593.459 209.958 592.979 209.442C592.499 208.914 592.259 208.272 592.259 207.516C592.259 206.58 592.655 205.848 593.447 205.32C594.239 204.792 595.517 204.438 597.281 204.258C597.257 203.862 597.137 203.55 596.921 203.322C596.717 203.082 596.369 202.962 595.877 202.962C595.505 202.962 595.127 203.034 594.743 203.178C594.359 203.322 593.951 203.52 593.519 203.772L592.565 202.026C593.129 201.678 593.729 201.396 594.365 201.18C595.001 200.964 595.673 200.856 596.381 200.856C597.521 200.856 598.397 201.186 599.009 201.846C599.621 202.506 599.927 203.52 599.927 204.888V210H597.767L597.587 209.082H597.515C597.131 209.418 596.729 209.694 596.309 209.91C595.889 210.114 595.427 210.216 594.923 210.216ZM603.965 210V201.072H606.125L606.305 202.638H606.377C606.701 202.038 607.091 201.594 607.547 201.306C608.003 201.006 608.459 200.856 608.915 200.856C609.167 200.856 609.371 200.874 609.527 200.91C609.695 200.946 609.845 200.988 609.977 201.036L609.545 203.322C609.389 203.274 609.233 203.238 609.077 203.214C608.933 203.19 608.765 203.178 608.573 203.178C608.237 203.178 607.883 203.304 607.511 203.556C607.151 203.796 606.851 204.216 606.611 204.816V210H603.965ZM614.05 213.492C613.786 213.492 613.552 213.474 613.348 213.438C613.156 213.402 612.97 213.36 612.79 213.312L613.258 211.296C613.342 211.32 613.438 211.344 613.546 211.368C613.654 211.392 613.756 211.404 613.852 211.404C614.296 211.404 614.638 211.296 614.878 211.08C615.118 210.864 615.298 210.582 615.418 210.234L615.544 209.766L612.106 201.072H614.77L616.048 204.906C616.18 205.314 616.3 205.728 616.408 206.148C616.516 206.568 616.63 207 616.75 207.444H616.822C616.918 207.024 617.014 206.604 617.11 206.184C617.218 205.752 617.326 205.326 617.434 204.906L618.514 201.072H621.052L617.956 210.09C617.536 211.218 617.044 212.064 616.48 212.628C615.916 213.204 615.106 213.492 614.05 213.492ZM631.342 210C631.414 208.728 631.552 207.588 631.756 206.58C631.96 205.572 632.272 204.606 632.692 203.682C633.112 202.758 633.682 201.798 634.402 200.802H629.272V198.57H637.228V200.19C636.34 201.258 635.68 202.254 635.248 203.178C634.816 204.102 634.516 205.098 634.348 206.166C634.18 207.234 634.066 208.512 634.006 210H631.342ZM644.542 210.216C643.318 210.216 642.328 209.706 641.572 208.686C640.828 207.666 640.456 206.184 640.456 204.24C640.456 202.296 640.828 200.832 641.572 199.848C642.328 198.852 643.318 198.354 644.542 198.354C645.766 198.354 646.75 198.852 647.494 199.848C648.25 200.832 648.628 202.296 648.628 204.24C648.628 206.184 648.25 207.666 647.494 208.686C646.75 209.706 645.766 210.216 644.542 210.216ZM644.542 208.164C644.998 208.164 645.376 207.9 645.676 207.372C645.976 206.844 646.126 205.8 646.126 204.24C646.126 202.68 645.976 201.654 645.676 201.162C645.376 200.658 644.998 200.406 644.542 200.406C644.098 200.406 643.72 200.658 643.408 201.162C643.108 201.654 642.958 202.68 642.958 204.24C642.958 205.8 643.108 206.844 643.408 207.372C643.72 207.9 644.098 208.164 644.542 208.164ZM655.852 210.216C654.628 210.216 653.638 209.706 652.882 208.686C652.138 207.666 651.766 206.184 651.766 204.24C651.766 202.296 652.138 200.832 652.882 199.848C653.638 198.852 654.628 198.354 655.852 198.354C657.076 198.354 658.06 198.852 658.804 199.848C659.56 200.832 659.938 202.296 659.938 204.24C659.938 206.184 659.56 207.666 658.804 208.686C658.06 209.706 657.076 210.216 655.852 210.216ZM655.852 208.164C656.308 208.164 656.686 207.9 656.986 207.372C657.286 206.844 657.436 205.8 657.436 204.24C657.436 202.68 657.286 201.654 656.986 201.162C656.686 200.658 656.308 200.406 655.852 200.406C655.408 200.406 655.03 200.658 654.718 201.162C654.418 201.654 654.268 202.68 654.268 204.24C654.268 205.8 654.418 206.844 654.718 207.372C655.03 207.9 655.408 208.164 655.852 208.164Z" fill="white"/>
<path d="M724.386 33V21.264H728.418C729.702 21.264 730.8 21.54 731.712 22.092C732.624 22.644 733.08 23.628 733.08 25.044C733.08 26.424 732.624 27.432 731.712 28.068C730.8 28.704 729.726 29.022 728.49 29.022H727.032V33H724.386ZM727.032 26.916H728.328C729.768 26.916 730.488 26.292 730.488 25.044C730.488 24.432 730.296 24 729.912 23.748C729.528 23.496 728.976 23.37 728.256 23.37H727.032V26.916ZM736.693 33V24.072H738.853L739.033 25.638H739.105C739.429 25.038 739.819 24.594 740.275 24.306C740.731 24.006 741.187 23.856 741.643 23.856C741.895 23.856 742.099 23.874 742.255 23.91C742.423 23.946 742.573 23.988 742.705 24.036L742.273 26.322C742.117 26.274 741.961 26.238 741.805 26.214C741.661 26.19 741.493 26.178 741.301 26.178C740.965 26.178 740.611 26.304 740.239 26.556C739.879 26.796 739.579 27.216 739.339 27.816V33H736.693ZM746.979 22.758C746.535 22.758 746.169 22.632 745.881 22.38C745.593 22.116 745.449 21.78 745.449 21.372C745.449 20.964 745.593 20.634 745.881 20.382C746.169 20.13 746.535 20.004 746.979 20.004C747.435 20.004 747.801 20.13 748.077 20.382C748.365 20.634 748.509 20.964 748.509 21.372C748.509 21.78 748.365 22.116 748.077 22.38C747.801 22.632 747.435 22.758 746.979 22.758ZM745.665 33V24.072H748.311V33H745.665ZM752.439 33V24.072H754.599L754.779 25.224H754.851C755.223 24.852 755.619 24.534 756.039 24.27C756.459 23.994 756.963 23.856 757.551 23.856C758.187 23.856 758.697 23.988 759.081 24.252C759.477 24.504 759.789 24.87 760.017 25.35C760.413 24.942 760.827 24.594 761.259 24.306C761.703 24.006 762.225 23.856 762.825 23.856C763.785 23.856 764.487 24.18 764.931 24.828C765.387 25.464 765.615 26.34 765.615 27.456V33H762.969V27.798C762.969 27.15 762.879 26.706 762.699 26.466C762.519 26.226 762.243 26.106 761.871 26.106C761.427 26.106 760.917 26.394 760.341 26.97V33H757.695V27.798C757.695 27.15 757.605 26.706 757.425 26.466C757.257 26.226 756.981 26.106 756.597 26.106C756.141 26.106 755.637 26.394 755.085 26.97V33H752.439ZM772.823 31.164C773.123 31.164 773.381 31.098 773.597 30.966C773.825 30.834 774.053 30.648 774.281 30.408V28.842C773.345 28.974 772.697 29.166 772.337 29.418C771.977 29.67 771.797 29.97 771.797 30.318C771.797 30.882 772.139 31.164 772.823 31.164ZM771.923 33.216C771.107 33.216 770.459 32.958 769.979 32.442C769.499 31.914 769.259 31.272 769.259 30.516C769.259 29.58 769.655 28.848 770.447 28.32C771.239 27.792 772.517 27.438 774.281 27.258C774.257 26.862 774.137 26.55 773.921 26.322C773.717 26.082 773.369 25.962 772.877 25.962C772.505 25.962 772.127 26.034 771.743 26.178C771.359 26.322 770.951 26.52 770.519 26.772L769.565 25.026C770.129 24.678 770.729 24.396 771.365 24.18C772.001 23.964 772.673 23.856 773.381 23.856C774.521 23.856 775.397 24.186 776.009 24.846C776.621 25.506 776.927 26.52 776.927 27.888V33H774.767L774.587 32.082H774.515C774.131 32.418 773.729 32.694 773.309 32.91C772.889 33.114 772.427 33.216 771.923 33.216ZM780.965 33V24.072H783.125L783.305 25.638H783.377C783.701 25.038 784.091 24.594 784.547 24.306C785.003 24.006 785.459 23.856 785.915 23.856C786.167 23.856 786.371 23.874 786.527 23.91C786.695 23.946 786.845 23.988 786.977 24.036L786.545 26.322C786.389 26.274 786.233 26.238 786.077 26.214C785.933 26.19 785.765 26.178 785.573 26.178C785.237 26.178 784.883 26.304 784.511 26.556C784.151 26.796 783.851 27.216 783.611 27.816V33H780.965ZM791.05 36.492C790.786 36.492 790.552 36.474 790.348 36.438C790.156 36.402 789.97 36.36 789.79 36.312L790.258 34.296C790.342 34.32 790.438 34.344 790.546 34.368C790.654 34.392 790.756 34.404 790.852 34.404C791.296 34.404 791.638 34.296 791.878 34.08C792.118 33.864 792.298 33.582 792.418 33.234L792.544 32.766L789.106 24.072H791.77L793.048 27.906C793.18 28.314 793.3 28.728 793.408 29.148C793.516 29.568 793.63 30 793.75 30.444H793.822C793.918 30.024 794.014 29.604 794.11 29.184C794.218 28.752 794.326 28.326 794.434 27.906L795.514 24.072H798.052L794.956 33.09C794.536 34.218 794.044 35.064 793.48 35.628C792.916 36.204 792.106 36.492 791.05 36.492ZM806.146 33V31.488C807.598 30.108 808.786 28.914 809.71 27.906C810.646 26.886 811.114 25.968 811.114 25.152C811.114 24.6 810.964 24.174 810.664 23.874C810.376 23.574 809.986 23.424 809.494 23.424C809.074 23.424 808.702 23.544 808.378 23.784C808.054 24.024 807.748 24.294 807.46 24.594L806.02 23.172C806.584 22.572 807.16 22.122 807.748 21.822C808.336 21.51 809.038 21.354 809.854 21.354C810.982 21.354 811.894 21.69 812.59 22.362C813.286 23.022 813.634 23.898 813.634 24.99C813.634 25.95 813.256 26.934 812.5 27.942C811.744 28.95 810.904 29.94 809.98 30.912C810.268 30.876 810.592 30.846 810.952 30.822C811.312 30.786 811.624 30.768 811.888 30.768H814.192V33H806.146ZM821.542 33.216C820.318 33.216 819.328 32.706 818.572 31.686C817.828 30.666 817.456 29.184 817.456 27.24C817.456 25.296 817.828 23.832 818.572 22.848C819.328 21.852 820.318 21.354 821.542 21.354C822.766 21.354 823.75 21.852 824.494 22.848C825.25 23.832 825.628 25.296 825.628 27.24C825.628 29.184 825.25 30.666 824.494 31.686C823.75 32.706 822.766 33.216 821.542 33.216ZM821.542 31.164C821.998 31.164 822.376 30.9 822.676 30.372C822.976 29.844 823.126 28.8 823.126 27.24C823.126 25.68 822.976 24.654 822.676 24.162C822.376 23.658 821.998 23.406 821.542 23.406C821.098 23.406 820.72 23.658 820.408 24.162C820.108 24.654 819.958 25.68 819.958 27.24C819.958 28.8 820.108 29.844 820.408 30.372C820.72 30.9 821.098 31.164 821.542 31.164ZM832.852 33.216C831.628 33.216 830.638 32.706 829.882 31.686C829.138 30.666 828.766 29.184 828.766 27.24C828.766 25.296 829.138 23.832 829.882 22.848C830.638 21.852 831.628 21.354 832.852 21.354C834.076 21.354 835.06 21.852 835.804 22.848C836.56 23.832 836.938 25.296 836.938 27.24C836.938 29.184 836.56 30.666 835.804 31.686C835.06 32.706 834.076 33.216 832.852 33.216ZM832.852 31.164C833.308 31.164 833.686 30.9 833.986 30.372C834.286 29.844 834.436 28.8 834.436 27.24C834.436 25.68 834.286 24.654 833.986 24.162C833.686 23.658 833.308 23.406 832.852 23.406C832.408 23.406 832.03 23.658 831.718 24.162C831.418 24.654 831.268 25.68 831.268 27.24C831.268 28.8 831.418 29.844 831.718 30.372C832.03 30.9 832.408 31.164 832.852 31.164Z" fill="black"/>
<path d="M724.386 210V198.264H728.418C729.702 198.264 730.8 198.54 731.712 199.092C732.624 199.644 733.08 200.628 733.08 202.044C733.08 203.424 732.624 204.432 731.712 205.068C730.8 205.704 729.726 206.022 728.49 206.022H727.032V210H724.386ZM727.032 203.916H728.328C729.768 203.916 730.488 203.292 730.488 202.044C730.488 201.432 730.296 201 729.912 200.748C729.528 200.496 728.976 200.37 728.256 200.37H727.032V203.916ZM736.693 210V201.072H738.853L739.033 202.638H739.105C739.429 202.038 739.819 201.594 740.275 201.306C740.731 201.006 741.187 200.856 741.643 200.856C741.895 200.856 742.099 200.874 742.255 200.91C742.423 200.946 742.573 200.988 742.705 201.036L742.273 203.322C742.117 203.274 741.961 203.238 741.805 203.214C741.661 203.19 741.493 203.178 741.301 203.178C740.965 203.178 740.611 203.304 740.239 203.556C739.879 203.796 739.579 204.216 739.339 204.816V210H736.693ZM746.979 199.758C746.535 199.758 746.169 199.632 745.881 199.38C745.593 199.116 745.449 198.78 745.449 198.372C745.449 197.964 745.593 197.634 745.881 197.382C746.169 197.13 746.535 197.004 746.979 197.004C747.435 197.004 747.801 197.13 748.077 197.382C748.365 197.634 748.509 197.964 748.509 198.372C748.509 198.78 748.365 199.116 748.077 199.38C747.801 199.632 747.435 199.758 746.979 199.758ZM745.665 210V201.072H748.311V210H745.665ZM752.439 210V201.072H754.599L754.779 202.224H754.851C755.223 201.852 755.619 201.534 756.039 201.27C756.459 200.994 756.963 200.856 757.551 200.856C758.187 200.856 758.697 200.988 759.081 201.252C759.477 201.504 759.789 201.87 760.017 202.35C760.413 201.942 760.827 201.594 761.259 201.306C761.703 201.006 762.225 200.856 762.825 200.856C763.785 200.856 764.487 201.18 764.931 201.828C765.387 202.464 765.615 203.34 765.615 204.456V210H762.969V204.798C762.969 204.15 762.879 203.706 762.699 203.466C762.519 203.226 762.243 203.106 761.871 203.106C761.427 203.106 760.917 203.394 760.341 203.97V210H757.695V204.798C757.695 204.15 757.605 203.706 757.425 203.466C757.257 203.226 756.981 203.106 756.597 203.106C756.141 203.106 755.637 203.394 755.085 203.97V210H752.439ZM772.823 208.164C773.123 208.164 773.381 208.098 773.597 207.966C773.825 207.834 774.053 207.648 774.281 207.408V205.842C773.345 205.974 772.697 206.166 772.337 206.418C771.977 206.67 771.797 206.97 771.797 207.318C771.797 207.882 772.139 208.164 772.823 208.164ZM771.923 210.216C771.107 210.216 770.459 209.958 769.979 209.442C769.499 208.914 769.259 208.272 769.259 207.516C769.259 206.58 769.655 205.848 770.447 205.32C771.239 204.792 772.517 204.438 774.281 204.258C774.257 203.862 774.137 203.55 773.921 203.322C773.717 203.082 773.369 202.962 772.877 202.962C772.505 202.962 772.127 203.034 771.743 203.178C771.359 203.322 770.951 203.52 770.519 203.772L769.565 202.026C770.129 201.678 770.729 201.396 771.365 201.18C772.001 200.964 772.673 200.856 773.381 200.856C774.521 200.856 775.397 201.186 776.009 201.846C776.621 202.506 776.927 203.52 776.927 204.888V210H774.767L774.587 209.082H774.515C774.131 209.418 773.729 209.694 773.309 209.91C772.889 210.114 772.427 210.216 771.923 210.216ZM780.965 210V201.072H783.125L783.305 202.638H783.377C783.701 202.038 784.091 201.594 784.547 201.306C785.003 201.006 785.459 200.856 785.915 200.856C786.167 200.856 786.371 200.874 786.527 200.91C786.695 200.946 786.845 200.988 786.977 201.036L786.545 203.322C786.389 203.274 786.233 203.238 786.077 203.214C785.933 203.19 785.765 203.178 785.573 203.178C785.237 203.178 784.883 203.304 784.511 203.556C784.151 203.796 783.851 204.216 783.611 204.816V210H780.965ZM791.05 213.492C790.786 213.492 790.552 213.474 790.348 213.438C790.156 213.402 789.97 213.36 789.79 213.312L790.258 211.296C790.342 211.32 790.438 211.344 790.546 211.368C790.654 211.392 790.756 211.404 790.852 211.404C791.296 211.404 791.638 211.296 791.878 211.08C792.118 210.864 792.298 210.582 792.418 210.234L792.544 209.766L789.106 201.072H791.77L793.048 204.906C793.18 205.314 793.3 205.728 793.408 206.148C793.516 206.568 793.63 207 793.75 207.444H793.822C793.918 207.024 794.014 206.604 794.11 206.184C794.218 205.752 794.326 205.326 794.434 204.906L795.514 201.072H798.052L794.956 210.09C794.536 211.218 794.044 212.064 793.48 212.628C792.916 213.204 792.106 213.492 791.05 213.492ZM810.214 210.216C809.074 210.216 808.126 209.928 807.37 209.352C806.614 208.764 806.236 208.008 806.236 207.084C806.236 206.388 806.422 205.818 806.794 205.374C807.178 204.93 807.64 204.564 808.18 204.276V204.204C807.736 203.868 807.37 203.484 807.082 203.052C806.794 202.62 806.65 202.104 806.65 201.504C806.65 200.532 806.992 199.764 807.676 199.2C808.372 198.636 809.248 198.354 810.304 198.354C811.348 198.354 812.188 198.642 812.824 199.218C813.46 199.782 813.778 200.538 813.778 201.486C813.778 202.038 813.628 202.53 813.328 202.962C813.028 203.382 812.68 203.724 812.284 203.988V204.06C812.836 204.36 813.304 204.744 813.688 205.212C814.072 205.68 814.264 206.292 814.264 207.048C814.264 207.948 813.892 208.704 813.148 209.316C812.404 209.916 811.426 210.216 810.214 210.216ZM810.934 203.34C811.402 202.8 811.636 202.242 811.636 201.666C811.636 201.222 811.51 200.868 811.258 200.604C811.018 200.328 810.682 200.19 810.25 200.19C809.902 200.19 809.602 200.298 809.35 200.514C809.098 200.73 808.972 201.06 808.972 201.504C808.972 201.972 809.152 202.338 809.512 202.602C809.872 202.866 810.346 203.112 810.934 203.34ZM810.268 208.38C810.712 208.38 811.078 208.266 811.366 208.038C811.654 207.798 811.798 207.438 811.798 206.958C811.798 206.454 811.576 206.076 811.132 205.824C810.688 205.56 810.106 205.272 809.386 204.96C809.134 205.2 808.924 205.476 808.756 205.788C808.588 206.1 808.504 206.43 808.504 206.778C808.504 207.282 808.678 207.678 809.026 207.966C809.374 208.242 809.788 208.38 810.268 208.38ZM821.542 210.216C820.318 210.216 819.328 209.706 818.572 208.686C817.828 207.666 817.456 206.184 817.456 204.24C817.456 202.296 817.828 200.832 818.572 199.848C819.328 198.852 820.318 198.354 821.542 198.354C822.766 198.354 823.75 198.852 824.494 199.848C825.25 200.832 825.628 202.296 825.628 204.24C825.628 206.184 825.25 207.666 824.494 208.686C823.75 209.706 822.766 210.216 821.542 210.216ZM821.542 208.164C821.998 208.164 822.376 207.9 822.676 207.372C822.976 206.844 823.126 205.8 823.126 204.24C823.126 202.68 822.976 201.654 822.676 201.162C822.376 200.658 821.998 200.406 821.542 200.406C821.098 200.406 820.72 200.658 820.408 201.162C820.108 201.654 819.958 202.68 819.958 204.24C819.958 205.8 820.108 206.844 820.408 207.372C820.72 207.9 821.098 208.164 821.542 208.164ZM832.852 210.216C831.628 210.216 830.638 209.706 829.882 208.686C829.138 207.666 828.766 206.184 828.766 204.24C828.766 202.296 829.138 200.832 829.882 199.848C830.638 198.852 831.628 198.354 832.852 198.354C834.076 198.354 835.06 198.852 835.804 199.848C836.56 200.832 836.938 202.296 836.938 204.24C836.938 206.184 836.56 207.666 835.804 208.686C835.06 209.706 834.076 210.216 832.852 210.216ZM832.852 208.164C833.308 208.164 833.686 207.9 833.986 207.372C834.286 206.844 834.436 205.8 834.436 204.24C834.436 202.68 834.286 201.654 833.986 201.162C833.686 200.658 833.308 200.406 832.852 200.406C832.408 200.406 832.03 200.658 831.718 201.162C831.418 201.654 831.268 202.68 831.268 204.24C831.268 205.8 831.418 206.844 831.718 207.372C832.03 207.9 832.408 208.164 832.852 208.164Z" fill="white"/>
<path d="M900.386 33V21.264H904.418C905.702 21.264 906.8 21.54 907.712 22.092C908.624 22.644 909.08 23.628 909.08 25.044C909.08 26.424 908.624 27.432 907.712 28.068C906.8 28.704 905.726 29.022 904.49 29.022H903.032V33H900.386ZM903.032 26.916H904.328C905.768 26.916 906.488 26.292 906.488 25.044C906.488 24.432 906.296 24 905.912 23.748C905.528 23.496 904.976 23.37 904.256 23.37H903.032V26.916ZM912.693 33V24.072H914.853L915.033 25.638H915.105C915.429 25.038 915.819 24.594 916.275 24.306C916.731 24.006 917.187 23.856 917.643 23.856C917.895 23.856 918.099 23.874 918.255 23.91C918.423 23.946 918.573 23.988 918.705 24.036L918.273 26.322C918.117 26.274 917.961 26.238 917.805 26.214C917.661 26.19 917.493 26.178 917.301 26.178C916.965 26.178 916.611 26.304 916.239 26.556C915.879 26.796 915.579 27.216 915.339 27.816V33H912.693ZM922.979 22.758C922.535 22.758 922.169 22.632 921.881 22.38C921.593 22.116 921.449 21.78 921.449 21.372C921.449 20.964 921.593 20.634 921.881 20.382C922.169 20.13 922.535 20.004 922.979 20.004C923.435 20.004 923.801 20.13 924.077 20.382C924.365 20.634 924.509 20.964 924.509 21.372C924.509 21.78 924.365 22.116 924.077 22.38C923.801 22.632 923.435 22.758 922.979 22.758ZM921.665 33V24.072H924.311V33H921.665ZM928.439 33V24.072H930.599L930.779 25.224H930.851C931.223 24.852 931.619 24.534 932.039 24.27C932.459 23.994 932.963 23.856 933.551 23.856C934.187 23.856 934.697 23.988 935.081 24.252C935.477 24.504 935.789 24.87 936.017 25.35C936.413 24.942 936.827 24.594 937.259 24.306C937.703 24.006 938.225 23.856 938.825 23.856C939.785 23.856 940.487 24.18 940.931 24.828C941.387 25.464 941.615 26.34 941.615 27.456V33H938.969V27.798C938.969 27.15 938.879 26.706 938.699 26.466C938.519 26.226 938.243 26.106 937.871 26.106C937.427 26.106 936.917 26.394 936.341 26.97V33H933.695V27.798C933.695 27.15 933.605 26.706 933.425 26.466C933.257 26.226 932.981 26.106 932.597 26.106C932.141 26.106 931.637 26.394 931.085 26.97V33H928.439ZM948.823 31.164C949.123 31.164 949.381 31.098 949.597 30.966C949.825 30.834 950.053 30.648 950.281 30.408V28.842C949.345 28.974 948.697 29.166 948.337 29.418C947.977 29.67 947.797 29.97 947.797 30.318C947.797 30.882 948.139 31.164 948.823 31.164ZM947.923 33.216C947.107 33.216 946.459 32.958 945.979 32.442C945.499 31.914 945.259 31.272 945.259 30.516C945.259 29.58 945.655 28.848 946.447 28.32C947.239 27.792 948.517 27.438 950.281 27.258C950.257 26.862 950.137 26.55 949.921 26.322C949.717 26.082 949.369 25.962 948.877 25.962C948.505 25.962 948.127 26.034 947.743 26.178C947.359 26.322 946.951 26.52 946.519 26.772L945.565 25.026C946.129 24.678 946.729 24.396 947.365 24.18C948.001 23.964 948.673 23.856 949.381 23.856C950.521 23.856 951.397 24.186 952.009 24.846C952.621 25.506 952.927 26.52 952.927 27.888V33H950.767L950.587 32.082H950.515C950.131 32.418 949.729 32.694 949.309 32.91C948.889 33.114 948.427 33.216 947.923 33.216ZM956.965 33V24.072H959.125L959.305 25.638H959.377C959.701 25.038 960.091 24.594 960.547 24.306C961.003 24.006 961.459 23.856 961.915 23.856C962.167 23.856 962.371 23.874 962.527 23.91C962.695 23.946 962.845 23.988 962.977 24.036L962.545 26.322C962.389 26.274 962.233 26.238 962.077 26.214C961.933 26.19 961.765 26.178 961.573 26.178C961.237 26.178 960.883 26.304 960.511 26.556C960.151 26.796 959.851 27.216 959.611 27.816V33H956.965ZM967.05 36.492C966.786 36.492 966.552 36.474 966.348 36.438C966.156 36.402 965.97 36.36 965.79 36.312L966.258 34.296C966.342 34.32 966.438 34.344 966.546 34.368C966.654 34.392 966.756 34.404 966.852 34.404C967.296 34.404 967.638 34.296 967.878 34.08C968.118 33.864 968.298 33.582 968.418 33.234L968.544 32.766L965.106 24.072H967.77L969.048 27.906C969.18 28.314 969.3 28.728 969.408 29.148C969.516 29.568 969.63 30 969.75 30.444H969.822C969.918 30.024 970.014 29.604 970.11 29.184C970.218 28.752 970.326 28.326 970.434 27.906L971.514 24.072H974.052L970.956 33.09C970.536 34.218 970.044 35.064 969.48 35.628C968.916 36.204 968.106 36.492 967.05 36.492ZM982.74 33V30.858H985.224V24.252H983.082V22.614C983.706 22.494 984.234 22.35 984.666 22.182C985.098 22.014 985.518 21.81 985.926 21.57H987.87V30.858H990.012V33H982.74ZM997.542 33.216C996.318 33.216 995.328 32.706 994.572 31.686C993.828 30.666 993.456 29.184 993.456 27.24C993.456 25.296 993.828 23.832 994.572 22.848C995.328 21.852 996.318 21.354 997.542 21.354C998.766 21.354 999.75 21.852 1000.49 22.848C1001.25 23.832 1001.63 25.296 1001.63 27.24C1001.63 29.184 1001.25 30.666 1000.49 31.686C999.75 32.706 998.766 33.216 997.542 33.216ZM997.542 31.164C997.998 31.164 998.376 30.9 998.676 30.372C998.976 29.844 999.126 28.8 999.126 27.24C999.126 25.68 998.976 24.654 998.676 24.162C998.376 23.658 997.998 23.406 997.542 23.406C997.098 23.406 996.72 23.658 996.408 24.162C996.108 24.654 995.958 25.68 995.958 27.24C995.958 28.8 996.108 29.844 996.408 30.372C996.72 30.9 997.098 31.164 997.542 31.164ZM1008.85 33.216C1007.63 33.216 1006.64 32.706 1005.88 31.686C1005.14 30.666 1004.77 29.184 1004.77 27.24C1004.77 25.296 1005.14 23.832 1005.88 22.848C1006.64 21.852 1007.63 21.354 1008.85 21.354C1010.08 21.354 1011.06 21.852 1011.8 22.848C1012.56 23.832 1012.94 25.296 1012.94 27.24C1012.94 29.184 1012.56 30.666 1011.8 31.686C1011.06 32.706 1010.08 33.216 1008.85 33.216ZM1008.85 31.164C1009.31 31.164 1009.69 30.9 1009.99 30.372C1010.29 29.844 1010.44 28.8 1010.44 27.24C1010.44 25.68 1010.29 24.654 1009.99 24.162C1009.69 23.658 1009.31 23.406 1008.85 23.406C1008.41 23.406 1008.03 23.658 1007.72 24.162C1007.42 24.654 1007.27 25.68 1007.27 27.24C1007.27 28.8 1007.42 29.844 1007.72 30.372C1008.03 30.9 1008.41 31.164 1008.85 31.164Z" fill="black"/>
<path d="M900.386 210V198.264H904.418C905.702 198.264 906.8 198.54 907.712 199.092C908.624 199.644 909.08 200.628 909.08 202.044C909.08 203.424 908.624 204.432 907.712 205.068C906.8 205.704 905.726 206.022 904.49 206.022H903.032V210H900.386ZM903.032 203.916H904.328C905.768 203.916 906.488 203.292 906.488 202.044C906.488 201.432 906.296 201 905.912 200.748C905.528 200.496 904.976 200.37 904.256 200.37H903.032V203.916ZM912.693 210V201.072H914.853L915.033 202.638H915.105C915.429 202.038 915.819 201.594 916.275 201.306C916.731 201.006 917.187 200.856 917.643 200.856C917.895 200.856 918.099 200.874 918.255 200.91C918.423 200.946 918.573 200.988 918.705 201.036L918.273 203.322C918.117 203.274 917.961 203.238 917.805 203.214C917.661 203.19 917.493 203.178 917.301 203.178C916.965 203.178 916.611 203.304 916.239 203.556C915.879 203.796 915.579 204.216 915.339 204.816V210H912.693ZM922.979 199.758C922.535 199.758 922.169 199.632 921.881 199.38C921.593 199.116 921.449 198.78 921.449 198.372C921.449 197.964 921.593 197.634 921.881 197.382C922.169 197.13 922.535 197.004 922.979 197.004C923.435 197.004 923.801 197.13 924.077 197.382C924.365 197.634 924.509 197.964 924.509 198.372C924.509 198.78 924.365 199.116 924.077 199.38C923.801 199.632 923.435 199.758 922.979 199.758ZM921.665 210V201.072H924.311V210H921.665ZM928.439 210V201.072H930.599L930.779 202.224H930.851C931.223 201.852 931.619 201.534 932.039 201.27C932.459 200.994 932.963 200.856 933.551 200.856C934.187 200.856 934.697 200.988 935.081 201.252C935.477 201.504 935.789 201.87 936.017 202.35C936.413 201.942 936.827 201.594 937.259 201.306C937.703 201.006 938.225 200.856 938.825 200.856C939.785 200.856 940.487 201.18 940.931 201.828C941.387 202.464 941.615 203.34 941.615 204.456V210H938.969V204.798C938.969 204.15 938.879 203.706 938.699 203.466C938.519 203.226 938.243 203.106 937.871 203.106C937.427 203.106 936.917 203.394 936.341 203.97V210H933.695V204.798C933.695 204.15 933.605 203.706 933.425 203.466C933.257 203.226 932.981 203.106 932.597 203.106C932.141 203.106 931.637 203.394 931.085 203.97V210H928.439ZM948.823 208.164C949.123 208.164 949.381 208.098 949.597 207.966C949.825 207.834 950.053 207.648 950.281 207.408V205.842C949.345 205.974 948.697 206.166 948.337 206.418C947.977 206.67 947.797 206.97 947.797 207.318C947.797 207.882 948.139 208.164 948.823 208.164ZM947.923 210.216C947.107 210.216 946.459 209.958 945.979 209.442C945.499 208.914 945.259 208.272 945.259 207.516C945.259 206.58 945.655 205.848 946.447 205.32C947.239 204.792 948.517 204.438 950.281 204.258C950.257 203.862 950.137 203.55 949.921 203.322C949.717 203.082 949.369 202.962 948.877 202.962C948.505 202.962 948.127 203.034 947.743 203.178C947.359 203.322 946.951 203.52 946.519 203.772L945.565 202.026C946.129 201.678 946.729 201.396 947.365 201.18C948.001 200.964 948.673 200.856 949.381 200.856C950.521 200.856 951.397 201.186 952.009 201.846C952.621 202.506 952.927 203.52 952.927 204.888V210H950.767L950.587 209.082H950.515C950.131 209.418 949.729 209.694 949.309 209.91C948.889 210.114 948.427 210.216 947.923 210.216ZM956.965 210V201.072H959.125L959.305 202.638H959.377C959.701 202.038 960.091 201.594 960.547 201.306C961.003 201.006 961.459 200.856 961.915 200.856C962.167 200.856 962.371 200.874 962.527 200.91C962.695 200.946 962.845 200.988 962.977 201.036L962.545 203.322C962.389 203.274 962.233 203.238 962.077 203.214C961.933 203.19 961.765 203.178 961.573 203.178C961.237 203.178 960.883 203.304 960.511 203.556C960.151 203.796 959.851 204.216 959.611 204.816V210H956.965ZM967.05 213.492C966.786 213.492 966.552 213.474 966.348 213.438C966.156 213.402 965.97 213.36 965.79 213.312L966.258 211.296C966.342 211.32 966.438 211.344 966.546 211.368C966.654 211.392 966.756 211.404 966.852 211.404C967.296 211.404 967.638 211.296 967.878 211.08C968.118 210.864 968.298 210.582 968.418 210.234L968.544 209.766L965.106 201.072H967.77L969.048 204.906C969.18 205.314 969.3 205.728 969.408 206.148C969.516 206.568 969.63 207 969.75 207.444H969.822C969.918 207.024 970.014 206.604 970.11 206.184C970.218 205.752 970.326 205.326 970.434 204.906L971.514 201.072H974.052L970.956 210.09C970.536 211.218 970.044 212.064 969.48 212.628C968.916 213.204 968.106 213.492 967.05 213.492ZM986.016 203.844C986.316 203.844 986.616 203.76 986.916 203.592C987.228 203.412 987.498 203.118 987.726 202.71C987.606 201.81 987.378 201.192 987.042 200.856C986.706 200.508 986.34 200.334 985.944 200.334C985.56 200.334 985.224 200.484 984.936 200.784C984.648 201.072 984.504 201.54 984.504 202.188C984.504 202.788 984.648 203.214 984.936 203.466C985.224 203.718 985.584 203.844 986.016 203.844ZM985.602 210.216C984.846 210.216 984.186 210.078 983.622 209.802C983.07 209.526 982.614 209.208 982.254 208.848L983.658 207.264C983.85 207.48 984.108 207.672 984.432 207.84C984.756 207.996 985.086 208.074 985.422 208.074C986.058 208.074 986.598 207.816 987.042 207.3C987.486 206.772 987.732 205.842 987.78 204.51C987.48 204.894 987.114 205.194 986.682 205.41C986.25 205.614 985.854 205.716 985.494 205.716C984.522 205.716 983.712 205.428 983.064 204.852C982.416 204.276 982.092 203.388 982.092 202.188C982.092 201 982.464 200.064 983.208 199.38C983.964 198.696 984.858 198.354 985.89 198.354C986.622 198.354 987.318 198.552 987.978 198.948C988.65 199.332 989.19 199.938 989.598 200.766C990.018 201.594 990.228 202.68 990.228 204.024C990.228 205.44 990.006 206.61 989.562 207.534C989.13 208.446 988.56 209.124 987.852 209.568C987.156 210 986.406 210.216 985.602 210.216ZM997.542 210.216C996.318 210.216 995.328 209.706 994.572 208.686C993.828 207.666 993.456 206.184 993.456 204.24C993.456 202.296 993.828 200.832 994.572 199.848C995.328 198.852 996.318 198.354 997.542 198.354C998.766 198.354 999.75 198.852 1000.49 199.848C1001.25 200.832 1001.63 202.296 1001.63 204.24C1001.63 206.184 1001.25 207.666 1000.49 208.686C999.75 209.706 998.766 210.216 997.542 210.216ZM997.542 208.164C997.998 208.164 998.376 207.9 998.676 207.372C998.976 206.844 999.126 205.8 999.126 204.24C999.126 202.68 998.976 201.654 998.676 201.162C998.376 200.658 997.998 200.406 997.542 200.406C997.098 200.406 996.72 200.658 996.408 201.162C996.108 201.654 995.958 202.68 995.958 204.24C995.958 205.8 996.108 206.844 996.408 207.372C996.72 207.9 997.098 208.164 997.542 208.164ZM1008.85 210.216C1007.63 210.216 1006.64 209.706 1005.88 208.686C1005.14 207.666 1004.77 206.184 1004.77 204.24C1004.77 202.296 1005.14 200.832 1005.88 199.848C1006.64 198.852 1007.63 198.354 1008.85 198.354C1010.08 198.354 1011.06 198.852 1011.8 199.848C1012.56 200.832 1012.94 202.296 1012.94 204.24C1012.94 206.184 1012.56 207.666 1011.8 208.686C1011.06 209.706 1010.08 210.216 1008.85 210.216ZM1008.85 208.164C1009.31 208.164 1009.69 207.9 1009.99 207.372C1010.29 206.844 1010.44 205.8 1010.44 204.24C1010.44 202.68 1010.29 201.654 1009.99 201.162C1009.69 200.658 1009.31 200.406 1008.85 200.406C1008.41 200.406 1008.03 200.658 1007.72 201.162C1007.42 201.654 1007.27 202.68 1007.27 204.24C1007.27 205.8 1007.42 206.844 1007.72 207.372C1008.03 207.9 1008.41 208.164 1008.85 208.164Z" fill="white"/>
<path d="M19.168 58.302H21.544L21.868 55.638H19.492L19.168 58.302ZM17.62 63L18.07 59.328H16.63V58.302H18.196L18.52 55.638H16.99V54.594H18.646L19.06 51.3H20.014L19.6 54.594H21.994L22.426 51.3H23.38L22.948 54.594H24.406V55.638H22.84L22.516 58.302H24.046V59.328H22.39L21.94 63H20.986L21.418 59.328H19.042L18.592 63H17.62ZM28.6193 58.644H32.2193V55.314C32.2193 55.014 32.2313 54.648 32.2553 54.216C32.2793 53.784 32.2973 53.412 32.3093 53.1H32.2373C32.0933 53.376 31.9373 53.646 31.7693 53.91C31.6133 54.174 31.4573 54.444 31.3013 54.72L28.6193 58.644ZM35.1893 59.832H33.6233V63H32.2193V59.832H27.0533V58.86L31.9673 51.516H33.6233V58.644H35.1893V59.832ZM41.7065 63.216C40.7945 63.216 40.0385 63.054 39.4385 62.73C38.8385 62.406 38.3405 62.046 37.9445 61.65L38.6645 60.678C39.0125 61.026 39.4145 61.332 39.8705 61.596C40.3265 61.86 40.8905 61.992 41.5625 61.992C42.2585 61.992 42.8525 61.758 43.3445 61.29C43.8365 60.81 44.0825 60.168 44.0825 59.364C44.0825 58.572 43.8605 57.954 43.4165 57.51C42.9725 57.066 42.3785 56.844 41.6345 56.844C41.2385 56.844 40.8965 56.904 40.6085 57.024C40.3325 57.144 40.0205 57.318 39.6725 57.546L38.8805 57.042L39.2585 51.516H45.0005V52.794H40.5545L40.2485 56.196C40.5245 56.052 40.8005 55.938 41.0765 55.854C41.3525 55.77 41.6645 55.728 42.0125 55.728C42.9965 55.728 43.8365 56.016 44.5325 56.592C45.2285 57.168 45.5765 58.08 45.5765 59.328C45.5765 60.576 45.1805 61.536 44.3885 62.208C43.5965 62.88 42.7025 63.216 41.7065 63.216ZM52.7418 63.216C51.6618 63.216 50.7618 62.922 50.0418 62.334C49.3338 61.734 48.9798 60.978 48.9798 60.066C48.9798 59.322 49.2018 58.692 49.6458 58.176C50.1018 57.66 50.5998 57.258 51.1398 56.97V56.898C50.7198 56.598 50.3478 56.232 50.0238 55.8C49.6998 55.368 49.5378 54.852 49.5378 54.252C49.5378 53.364 49.8498 52.65 50.4738 52.11C51.0978 51.57 51.8718 51.3 52.7958 51.3C53.7918 51.3 54.5778 51.588 55.1538 52.164C55.7418 52.74 56.0358 53.472 56.0358 54.36C56.0358 54.96 55.8558 55.506 55.4958 55.998C55.1478 56.49 54.7998 56.868 54.4518 57.132V57.204C54.9678 57.504 55.4298 57.882 55.8378 58.338C56.2458 58.782 56.4498 59.388 56.4498 60.156C56.4498 61.008 56.1078 61.734 55.4238 62.334C54.7518 62.922 53.8578 63.216 52.7418 63.216ZM53.5518 56.736C54.3558 56.028 54.7578 55.26 54.7578 54.432C54.7578 53.868 54.5838 53.388 54.2358 52.992C53.8878 52.596 53.3958 52.398 52.7598 52.398C52.2318 52.398 51.7878 52.572 51.4278 52.92C51.0798 53.256 50.9058 53.7 50.9058 54.252C50.9058 54.936 51.1698 55.458 51.6978 55.818C52.2378 56.166 52.8558 56.472 53.5518 56.736ZM52.7778 62.118C53.4498 62.118 53.9898 61.932 54.3978 61.56C54.8178 61.176 55.0278 60.69 55.0278 60.102C55.0278 59.37 54.7158 58.824 54.0918 58.464C53.4678 58.104 52.7418 57.756 51.9138 57.42C51.4578 57.732 51.0738 58.098 50.7618 58.518C50.4618 58.938 50.3118 59.406 50.3118 59.922C50.3118 60.558 50.5458 61.086 51.0138 61.506C51.4938 61.914 52.0818 62.118 52.7778 62.118ZM67.2151 59.526C67.2151 60.618 66.8791 61.506 66.2071 62.19C65.5351 62.874 64.7371 63.216 63.8131 63.216C62.6851 63.216 61.7431 62.76 60.9871 61.848C60.2311 60.924 59.8531 59.538 59.8531 57.69C59.8531 56.154 60.0571 54.918 60.4651 53.982C60.8851 53.046 61.4251 52.368 62.0851 51.948C62.7571 51.516 63.4711 51.3 64.2271 51.3C64.8511 51.3 65.3851 51.42 65.8291 51.66C66.2851 51.888 66.6751 52.176 66.9991 52.524L66.1711 53.442C65.6671 52.842 65.0371 52.542 64.2811 52.542C63.4771 52.542 62.7811 52.902 62.1931 53.622C61.6051 54.33 61.2931 55.596 61.2571 57.42C61.6171 56.988 62.0371 56.64 62.5171 56.376C62.9971 56.112 63.4711 55.98 63.9391 55.98C64.9351 55.98 65.7271 56.28 66.3151 56.88C66.9151 57.468 67.2151 58.35 67.2151 59.526ZM63.8131 62.046C64.3771 62.046 64.8511 61.818 65.2351 61.362C65.6191 60.894 65.8111 60.282 65.8111 59.526C65.8111 58.782 65.6311 58.194 65.2711 57.762C64.9231 57.318 64.3951 57.096 63.6871 57.096C63.3151 57.096 62.9131 57.216 62.4811 57.456C62.0491 57.696 61.6531 58.08 61.2931 58.608C61.4851 60.9 62.3251 62.046 63.8131 62.046ZM71.3563 63V51.192H78.1603V52.452H72.8503V56.448H77.3503V57.708H72.8503V63H71.3563ZM82.0509 63V51.192H88.8549V52.452H83.5449V56.448H88.0449V57.708H83.5449V63H82.0509Z" fill="black"/>
<path d="M372.168 58.302H374.544L374.868 55.638H372.492L372.168 58.302ZM370.62 63L371.07 59.328H369.63V58.302H371.196L371.52 55.638H369.99V54.594H371.646L372.06 51.3H373.014L372.6 54.594H374.994L375.426 51.3H376.38L375.948 54.594H377.406V55.638H375.84L375.516 58.302H377.046V59.328H375.39L374.94 63H373.986L374.418 59.328H372.042L371.592 63H370.62ZM387.973 59.526C387.973 60.618 387.637 61.506 386.965 62.19C386.293 62.874 385.495 63.216 384.571 63.216C383.443 63.216 382.501 62.76 381.745 61.848C380.989 60.924 380.611 59.538 380.611 57.69C380.611 56.154 380.815 54.918 381.223 53.982C381.643 53.046 382.183 52.368 382.843 51.948C383.515 51.516 384.229 51.3 384.985 51.3C385.609 51.3 386.143 51.42 386.587 51.66C387.043 51.888 387.433 52.176 387.757 52.524L386.929 53.442C386.425 52.842 385.795 52.542 385.039 52.542C384.235 52.542 383.539 52.902 382.951 53.622C382.363 54.33 382.051 55.596 382.015 57.42C382.375 56.988 382.795 56.64 383.275 56.376C383.755 56.112 384.229 55.98 384.697 55.98C385.693 55.98 386.485 56.28 387.073 56.88C387.673 57.468 387.973 58.35 387.973 59.526ZM384.571 62.046C385.135 62.046 385.609 61.818 385.993 61.362C386.377 60.894 386.569 60.282 386.569 59.526C386.569 58.782 386.389 58.194 386.029 57.762C385.681 57.318 385.153 57.096 384.445 57.096C384.073 57.096 383.671 57.216 383.239 57.456C382.807 57.696 382.411 58.08 382.051 58.608C382.243 60.9 383.083 62.046 384.571 62.046ZM394.149 56.394L393.591 58.194H397.137L396.579 56.394C396.363 55.734 396.159 55.08 395.967 54.432C395.775 53.772 395.583 53.1 395.391 52.416H395.319C395.139 53.1 394.953 53.772 394.761 54.432C394.569 55.08 394.365 55.734 394.149 56.394ZM398.631 63L397.515 59.4H393.213L392.079 63H390.549L394.545 51.192H396.237L400.233 63H398.631ZM406.316 57.42C406.688 57.42 407.09 57.3 407.522 57.06C407.954 56.82 408.356 56.43 408.728 55.89C408.536 53.61 407.69 52.47 406.19 52.47C405.638 52.47 405.164 52.704 404.768 53.172C404.384 53.628 404.192 54.234 404.192 54.99C404.192 55.734 404.366 56.328 404.714 56.772C405.074 57.204 405.608 57.42 406.316 57.42ZM405.776 63.216C405.164 63.216 404.624 63.102 404.156 62.874C403.7 62.646 403.316 62.358 403.004 62.01L403.832 61.074C404.348 61.686 404.978 61.992 405.722 61.992C406.526 61.992 407.222 61.632 407.81 60.912C408.41 60.18 408.728 58.896 408.764 57.06C407.996 58.044 407.096 58.536 406.064 58.536C405.068 58.536 404.276 58.242 403.688 57.654C403.1 57.054 402.806 56.166 402.806 54.99C402.806 53.898 403.142 53.01 403.814 52.326C404.486 51.642 405.278 51.3 406.19 51.3C407.318 51.3 408.26 51.762 409.016 52.686C409.772 53.598 410.15 54.978 410.15 56.826C410.15 58.362 409.94 59.598 409.52 60.534C409.112 61.47 408.572 62.154 407.9 62.586C407.24 63.006 406.532 63.216 405.776 63.216ZM414.453 63V51.192H421.257V52.452H415.947V56.16H420.429V57.438H415.947V61.722H421.437V63H414.453ZM425.745 63V51.192H432.549V52.452H427.239V56.448H431.739V57.708H427.239V63H425.745ZM436.44 63V51.192H443.244V52.452H437.934V56.448H442.434V57.708H437.934V63H436.44Z" fill="black"/>
<path d="M372.168 235.302H374.544L374.868 232.638H372.492L372.168 235.302ZM370.62 240L371.07 236.328H369.63V235.302H371.196L371.52 232.638H369.99V231.594H371.646L372.06 228.3H373.014L372.6 231.594H374.994L375.426 228.3H376.38L375.948 231.594H377.406V232.638H375.84L375.516 235.302H377.046V236.328H375.39L374.94 240H373.986L374.418 236.328H372.042L371.592 240H370.62ZM383.995 240.216C383.083 240.216 382.321 240.054 381.709 239.73C381.097 239.394 380.599 239.016 380.215 238.596L380.971 237.624C381.307 237.984 381.709 238.302 382.177 238.578C382.657 238.854 383.233 238.992 383.905 238.992C384.601 238.992 385.171 238.8 385.615 238.416C386.059 238.032 386.281 237.522 386.281 236.886C386.281 236.202 386.011 235.65 385.471 235.23C384.931 234.81 383.977 234.6 382.609 234.6V233.466C383.833 233.466 384.679 233.262 385.147 232.854C385.627 232.434 385.867 231.924 385.867 231.324C385.867 230.772 385.687 230.334 385.327 230.01C384.979 229.674 384.499 229.506 383.887 229.506C383.407 229.506 382.963 229.62 382.555 229.848C382.147 230.064 381.775 230.34 381.439 230.676L380.647 229.74C381.091 229.332 381.583 228.99 382.123 228.714C382.663 228.438 383.269 228.3 383.941 228.3C384.937 228.3 385.759 228.558 386.407 229.074C387.055 229.578 387.379 230.292 387.379 231.216C387.379 231.912 387.187 232.482 386.803 232.926C386.419 233.37 385.915 233.712 385.291 233.952V234.024C385.987 234.192 386.575 234.522 387.055 235.014C387.535 235.506 387.775 236.148 387.775 236.94C387.775 237.96 387.409 238.764 386.677 239.352C385.945 239.928 385.051 240.216 383.995 240.216ZM393.681 240C393.741 238.56 393.891 237.27 394.131 236.13C394.371 234.978 394.719 233.898 395.175 232.89C395.643 231.87 396.255 230.838 397.011 229.794H391.287V228.516H398.685V229.434C397.785 230.598 397.095 231.702 396.615 232.746C396.135 233.778 395.799 234.876 395.607 236.04C395.415 237.192 395.283 238.512 395.211 240H393.681ZM409.468 236.526C409.468 237.618 409.132 238.506 408.46 239.19C407.788 239.874 406.99 240.216 406.066 240.216C404.938 240.216 403.996 239.76 403.24 238.848C402.484 237.924 402.106 236.538 402.106 234.69C402.106 233.154 402.31 231.918 402.718 230.982C403.138 230.046 403.678 229.368 404.338 228.948C405.01 228.516 405.724 228.3 406.48 228.3C407.104 228.3 407.638 228.42 408.082 228.66C408.538 228.888 408.928 229.176 409.252 229.524L408.424 230.442C407.92 229.842 407.29 229.542 406.534 229.542C405.73 229.542 405.034 229.902 404.446 230.622C403.858 231.33 403.546 232.596 403.51 234.42C403.87 233.988 404.29 233.64 404.77 233.376C405.25 233.112 405.724 232.98 406.192 232.98C407.188 232.98 407.98 233.28 408.568 233.88C409.168 234.468 409.468 235.35 409.468 236.526ZM406.066 239.046C406.63 239.046 407.104 238.818 407.488 238.362C407.872 237.894 408.064 237.282 408.064 236.526C408.064 235.782 407.884 235.194 407.524 234.762C407.176 234.318 406.648 234.096 405.94 234.096C405.568 234.096 405.166 234.216 404.734 234.456C404.302 234.696 403.906 235.08 403.546 235.608C403.738 237.9 404.578 239.046 406.066 239.046ZM413.609 240V228.192H417.119C418.319 228.192 419.291 228.414 420.035 228.858C420.791 229.302 421.169 230.04 421.169 231.072C421.169 231.66 421.019 232.194 420.719 232.674C420.419 233.142 419.993 233.466 419.441 233.646V233.718C420.149 233.85 420.725 234.15 421.169 234.618C421.625 235.086 421.853 235.728 421.853 236.544C421.853 237.708 421.433 238.578 420.593 239.154C419.765 239.718 418.691 240 417.371 240H413.609ZM415.103 233.214H416.849C417.857 233.214 418.583 233.04 419.027 232.692C419.471 232.344 419.693 231.87 419.693 231.27C419.693 230.586 419.459 230.1 418.991 229.812C418.523 229.524 417.833 229.38 416.921 229.38H415.103V233.214ZM415.103 238.812H417.155C418.175 238.812 418.967 238.626 419.531 238.254C420.095 237.87 420.377 237.282 420.377 236.49C420.377 235.758 420.095 235.224 419.531 234.888C418.979 234.54 418.187 234.366 417.155 234.366H415.103V238.812ZM430.455 240.216C428.979 240.216 427.749 239.676 426.765 238.596C425.793 237.516 425.307 236.016 425.307 234.096C425.307 232.2 425.805 230.706 426.801 229.614C427.797 228.522 429.045 227.976 430.545 227.976C431.265 227.976 431.895 228.126 432.435 228.426C432.987 228.714 433.437 229.05 433.785 229.434L432.975 230.406C432.663 230.07 432.309 229.8 431.913 229.596C431.517 229.392 431.067 229.29 430.563 229.29C429.447 229.29 428.547 229.722 427.863 230.586C427.191 231.438 426.855 232.596 426.855 234.06C426.855 235.548 427.185 236.73 427.845 237.606C428.505 238.47 429.393 238.902 430.509 238.902C431.073 238.902 431.577 238.788 432.021 238.56C432.465 238.32 432.873 237.99 433.245 237.57L434.073 238.506C433.605 239.046 433.077 239.466 432.489 239.766C431.901 240.066 431.223 240.216 430.455 240.216ZM442.011 240.216C440.535 240.216 439.305 239.676 438.321 238.596C437.349 237.516 436.863 236.016 436.863 234.096C436.863 232.2 437.361 230.706 438.357 229.614C439.353 228.522 440.601 227.976 442.101 227.976C442.821 227.976 443.451 228.126 443.991 228.426C444.543 228.714 444.993 229.05 445.341 229.434L444.531 230.406C444.219 230.07 443.865 229.8 443.469 229.596C443.073 229.392 442.623 229.29 442.119 229.29C441.003 229.29 440.103 229.722 439.419 230.586C438.747 231.438 438.411 232.596 438.411 234.06C438.411 235.548 438.741 236.73 439.401 237.606C440.061 238.47 440.949 238.902 442.065 238.902C442.629 238.902 443.133 238.788 443.577 238.56C444.021 238.32 444.429 237.99 444.801 237.57L445.629 238.506C445.161 239.046 444.633 239.466 444.045 239.766C443.457 240.066 442.779 240.216 442.011 240.216Z" fill="white"/>
<path d="M549.168 58.302H551.544L551.868 55.638H549.492L549.168 58.302ZM547.62 63L548.07 59.328H546.63V58.302H548.196L548.52 55.638H546.99V54.594H548.646L549.06 51.3H550.014L549.6 54.594H551.994L552.426 51.3H553.38L552.948 54.594H554.406V55.638H552.84L552.516 58.302H554.046V59.328H552.39L551.94 63H550.986L551.418 59.328H549.042L548.592 63H547.62ZM561.247 63.216C560.167 63.216 559.267 62.922 558.547 62.334C557.839 61.734 557.485 60.978 557.485 60.066C557.485 59.322 557.707 58.692 558.151 58.176C558.607 57.66 559.105 57.258 559.645 56.97V56.898C559.225 56.598 558.853 56.232 558.529 55.8C558.205 55.368 558.043 54.852 558.043 54.252C558.043 53.364 558.355 52.65 558.979 52.11C559.603 51.57 560.377 51.3 561.301 51.3C562.297 51.3 563.083 51.588 563.659 52.164C564.247 52.74 564.541 53.472 564.541 54.36C564.541 54.96 564.361 55.506 564.001 55.998C563.653 56.49 563.305 56.868 562.957 57.132V57.204C563.473 57.504 563.935 57.882 564.343 58.338C564.751 58.782 564.955 59.388 564.955 60.156C564.955 61.008 564.613 61.734 563.929 62.334C563.257 62.922 562.363 63.216 561.247 63.216ZM562.057 56.736C562.861 56.028 563.263 55.26 563.263 54.432C563.263 53.868 563.089 53.388 562.741 52.992C562.393 52.596 561.901 52.398 561.265 52.398C560.737 52.398 560.293 52.572 559.933 52.92C559.585 53.256 559.411 53.7 559.411 54.252C559.411 54.936 559.675 55.458 560.203 55.818C560.743 56.166 561.361 56.472 562.057 56.736ZM561.283 62.118C561.955 62.118 562.495 61.932 562.903 61.56C563.323 61.176 563.533 60.69 563.533 60.102C563.533 59.37 563.221 58.824 562.597 58.464C561.973 58.104 561.247 57.756 560.419 57.42C559.963 57.732 559.579 58.098 559.267 58.518C558.967 58.938 558.817 59.406 558.817 59.922C558.817 60.558 559.051 61.086 559.519 61.506C559.999 61.914 560.587 62.118 561.283 62.118ZM569.115 63V51.192H575.919V52.452H570.609V56.448H575.109V57.708H570.609V63H569.115ZM579.809 63V51.192H583.319C584.519 51.192 585.491 51.414 586.235 51.858C586.991 52.302 587.369 53.04 587.369 54.072C587.369 54.66 587.219 55.194 586.919 55.674C586.619 56.142 586.193 56.466 585.641 56.646V56.718C586.349 56.85 586.925 57.15 587.369 57.618C587.825 58.086 588.053 58.728 588.053 59.544C588.053 60.708 587.633 61.578 586.793 62.154C585.965 62.718 584.891 63 583.571 63H579.809ZM581.303 56.214H583.049C584.057 56.214 584.783 56.04 585.227 55.692C585.671 55.344 585.893 54.87 585.893 54.27C585.893 53.586 585.659 53.1 585.191 52.812C584.723 52.524 584.033 52.38 583.121 52.38H581.303V56.214ZM581.303 61.812H583.355C584.375 61.812 585.167 61.626 585.731 61.254C586.295 60.87 586.577 60.282 586.577 59.49C586.577 58.758 586.295 58.224 585.731 57.888C585.179 57.54 584.387 57.366 583.355 57.366H581.303V61.812ZM598.797 59.526C598.797 60.618 598.461 61.506 597.789 62.19C597.117 62.874 596.319 63.216 595.395 63.216C594.267 63.216 593.325 62.76 592.569 61.848C591.813 60.924 591.435 59.538 591.435 57.69C591.435 56.154 591.639 54.918 592.047 53.982C592.467 53.046 593.007 52.368 593.667 51.948C594.339 51.516 595.053 51.3 595.809 51.3C596.433 51.3 596.967 51.42 597.411 51.66C597.867 51.888 598.257 52.176 598.581 52.524L597.753 53.442C597.249 52.842 596.619 52.542 595.863 52.542C595.059 52.542 594.363 52.902 593.775 53.622C593.187 54.33 592.875 55.596 592.839 57.42C593.199 56.988 593.619 56.64 594.099 56.376C594.579 56.112 595.053 55.98 595.521 55.98C596.517 55.98 597.309 56.28 597.897 56.88C598.497 57.468 598.797 58.35 598.797 59.526ZM595.395 62.046C595.959 62.046 596.433 61.818 596.817 61.362C597.201 60.894 597.393 60.282 597.393 59.526C597.393 58.782 597.213 58.194 596.853 57.762C596.505 57.318 595.977 57.096 595.269 57.096C594.897 57.096 594.495 57.216 594.063 57.456C593.631 57.696 593.235 58.08 592.875 58.608C593.067 60.9 593.907 62.046 595.395 62.046ZM602.938 63V51.192H609.742V52.452H604.432V56.448H608.932V57.708H604.432V63H602.938ZM613.633 63V51.192H620.437V52.452H615.127V56.448H619.627V57.708H615.127V63H613.633Z" fill="black"/>
<path d="M549.168 235.302H551.544L551.868 232.638H549.492L549.168 235.302ZM547.62 240L548.07 236.328H546.63V235.302H548.196L548.52 232.638H546.99V231.594H548.646L549.06 228.3H550.014L549.6 231.594H551.994L552.426 228.3H553.38L552.948 231.594H554.406V232.638H552.84L552.516 235.302H554.046V236.328H552.39L551.94 240H550.986L551.418 236.328H549.042L548.592 240H547.62ZM557.467 240V239.118C559.195 237.402 560.527 235.98 561.463 234.852C562.399 233.712 562.867 232.68 562.867 231.756C562.867 231.096 562.687 230.556 562.327 230.136C561.967 229.716 561.421 229.506 560.689 229.506C560.209 229.506 559.765 229.644 559.357 229.92C558.949 230.184 558.577 230.508 558.241 230.892L557.395 230.046C557.875 229.53 558.385 229.11 558.925 228.786C559.477 228.462 560.125 228.3 560.869 228.3C561.937 228.3 562.777 228.612 563.389 229.236C564.001 229.848 564.307 230.664 564.307 231.684C564.307 232.764 563.863 233.868 562.975 234.996C562.099 236.124 560.983 237.402 559.627 238.83C559.939 238.806 560.263 238.782 560.599 238.758C560.935 238.734 561.253 238.722 561.553 238.722H564.883V240H557.467ZM571.725 234.42C572.097 234.42 572.499 234.3 572.931 234.06C573.363 233.82 573.765 233.43 574.137 232.89C573.945 230.61 573.099 229.47 571.599 229.47C571.047 229.47 570.573 229.704 570.177 230.172C569.793 230.628 569.601 231.234 569.601 231.99C569.601 232.734 569.775 233.328 570.123 233.772C570.483 234.204 571.017 234.42 571.725 234.42ZM571.185 240.216C570.573 240.216 570.033 240.102 569.565 239.874C569.109 239.646 568.725 239.358 568.413 239.01L569.241 238.074C569.757 238.686 570.387 238.992 571.131 238.992C571.935 238.992 572.631 238.632 573.219 237.912C573.819 237.18 574.137 235.896 574.173 234.06C573.405 235.044 572.505 235.536 571.473 235.536C570.477 235.536 569.685 235.242 569.097 234.654C568.509 234.054 568.215 233.166 568.215 231.99C568.215 230.898 568.551 230.01 569.223 229.326C569.895 228.642 570.687 228.3 571.599 228.3C572.727 228.3 573.669 228.762 574.425 229.686C575.181 230.598 575.559 231.978 575.559 233.826C575.559 235.362 575.349 236.598 574.929 237.534C574.521 238.47 573.981 239.154 573.309 239.586C572.649 240.006 571.941 240.216 571.185 240.216ZM582.454 240.216C581.542 240.216 580.786 240.054 580.186 239.73C579.586 239.406 579.088 239.046 578.692 238.65L579.412 237.678C579.76 238.026 580.162 238.332 580.618 238.596C581.074 238.86 581.638 238.992 582.31 238.992C583.006 238.992 583.6 238.758 584.092 238.29C584.584 237.81 584.83 237.168 584.83 236.364C584.83 235.572 584.608 234.954 584.164 234.51C583.72 234.066 583.126 233.844 582.382 233.844C581.986 233.844 581.644 233.904 581.356 234.024C581.08 234.144 580.768 234.318 580.42 234.546L579.628 234.042L580.006 228.516H585.748V229.794H581.302L580.996 233.196C581.272 233.052 581.548 232.938 581.824 232.854C582.1 232.77 582.412 232.728 582.76 232.728C583.744 232.728 584.584 233.016 585.28 233.592C585.976 234.168 586.324 235.08 586.324 236.328C586.324 237.576 585.928 238.536 585.136 239.208C584.344 239.88 583.45 240.216 582.454 240.216ZM593.471 240.216C592.319 240.216 591.413 239.7 590.753 238.668C590.105 237.636 589.781 236.154 589.781 234.222C589.781 232.29 590.105 230.82 590.753 229.812C591.413 228.804 592.319 228.3 593.471 228.3C594.611 228.3 595.505 228.804 596.153 229.812C596.813 230.82 597.143 232.29 597.143 234.222C597.143 236.154 596.813 237.636 596.153 238.668C595.505 239.7 594.611 240.216 593.471 240.216ZM593.471 239.028C594.131 239.028 594.665 238.65 595.073 237.894C595.493 237.126 595.703 235.902 595.703 234.222C595.703 232.542 595.493 231.336 595.073 230.604C594.665 229.86 594.131 229.488 593.471 229.488C592.799 229.488 592.253 229.86 591.833 230.604C591.425 231.336 591.221 232.542 591.221 234.222C591.221 235.902 591.425 237.126 591.833 237.894C592.253 238.65 592.799 239.028 593.471 239.028ZM603.966 234.42C604.338 234.42 604.74 234.3 605.172 234.06C605.604 233.82 606.006 233.43 606.378 232.89C606.186 230.61 605.34 229.47 603.84 229.47C603.288 229.47 602.814 229.704 602.418 230.172C602.034 230.628 601.842 231.234 601.842 231.99C601.842 232.734 602.016 233.328 602.364 233.772C602.724 234.204 603.258 234.42 603.966 234.42ZM603.426 240.216C602.814 240.216 602.274 240.102 601.806 239.874C601.35 239.646 600.966 239.358 600.654 239.01L601.482 238.074C601.998 238.686 602.628 238.992 603.372 238.992C604.176 238.992 604.872 238.632 605.46 237.912C606.06 237.18 606.378 235.896 606.414 234.06C605.646 235.044 604.746 235.536 603.714 235.536C602.718 235.536 601.926 235.242 601.338 234.654C600.75 234.054 600.456 233.166 600.456 231.99C600.456 230.898 600.792 230.01 601.464 229.326C602.136 228.642 602.928 228.3 603.84 228.3C604.968 228.3 605.91 228.762 606.666 229.686C607.422 230.598 607.8 231.978 607.8 233.826C607.8 235.362 607.59 236.598 607.17 237.534C606.762 238.47 606.222 239.154 605.55 239.586C604.89 240.006 604.182 240.216 603.426 240.216ZM614.714 234.42C615.086 234.42 615.488 234.3 615.92 234.06C616.352 233.82 616.754 233.43 617.126 232.89C616.934 230.61 616.088 229.47 614.588 229.47C614.036 229.47 613.562 229.704 613.166 230.172C612.782 230.628 612.59 231.234 612.59 231.99C612.59 232.734 612.764 233.328 613.112 233.772C613.472 234.204 614.006 234.42 614.714 234.42ZM614.174 240.216C613.562 240.216 613.022 240.102 612.554 239.874C612.098 239.646 611.714 239.358 611.402 239.01L612.23 238.074C612.746 238.686 613.376 238.992 614.12 238.992C614.924 238.992 615.62 238.632 616.208 237.912C616.808 237.18 617.126 235.896 617.162 234.06C616.394 235.044 615.494 235.536 614.462 235.536C613.466 235.536 612.674 235.242 612.086 234.654C611.498 234.054 611.204 233.166 611.204 231.99C611.204 230.898 611.54 230.01 612.212 229.326C612.884 228.642 613.676 228.3 614.588 228.3C615.716 228.3 616.658 228.762 617.414 229.686C618.17 230.598 618.548 231.978 618.548 233.826C618.548 235.362 618.338 236.598 617.918 237.534C617.51 238.47 616.97 239.154 616.298 239.586C615.638 240.006 614.93 240.216 614.174 240.216Z" fill="white"/>
<path d="M726.168 58.302H728.544L728.868 55.638H726.492L726.168 58.302ZM724.62 63L725.07 59.328H723.63V58.302H725.196L725.52 55.638H723.99V54.594H725.646L726.06 51.3H727.014L726.6 54.594H728.994L729.426 51.3H730.38L729.948 54.594H731.406V55.638H729.84L729.516 58.302H731.046V59.328H729.39L728.94 63H727.986L728.418 59.328H726.042L725.592 63H724.62ZM735.367 63V51.192H738.877C740.077 51.192 741.049 51.414 741.793 51.858C742.549 52.302 742.927 53.04 742.927 54.072C742.927 54.66 742.777 55.194 742.477 55.674C742.177 56.142 741.751 56.466 741.199 56.646V56.718C741.907 56.85 742.483 57.15 742.927 57.618C743.383 58.086 743.611 58.728 743.611 59.544C743.611 60.708 743.191 61.578 742.351 62.154C741.523 62.718 740.449 63 739.129 63H735.367ZM736.861 56.214H738.607C739.615 56.214 740.341 56.04 740.785 55.692C741.229 55.344 741.451 54.87 741.451 54.27C741.451 53.586 741.217 53.1 740.749 52.812C740.281 52.524 739.591 52.38 738.679 52.38H736.861V56.214ZM736.861 61.812H738.913C739.933 61.812 740.725 61.626 741.289 61.254C741.853 60.87 742.135 60.282 742.135 59.49C742.135 58.758 741.853 58.224 741.289 57.888C740.737 57.54 739.945 57.366 738.913 57.366H736.861V61.812ZM750.341 63.216C749.429 63.216 748.673 63.054 748.073 62.73C747.473 62.406 746.975 62.046 746.579 61.65L747.299 60.678C747.647 61.026 748.049 61.332 748.505 61.596C748.961 61.86 749.525 61.992 750.197 61.992C750.893 61.992 751.487 61.758 751.979 61.29C752.471 60.81 752.717 60.168 752.717 59.364C752.717 58.572 752.495 57.954 752.051 57.51C751.607 57.066 751.013 56.844 750.269 56.844C749.873 56.844 749.531 56.904 749.243 57.024C748.967 57.144 748.655 57.318 748.307 57.546L747.515 57.042L747.893 51.516H753.635V52.794H749.189L748.883 56.196C749.159 56.052 749.435 55.938 749.711 55.854C749.987 55.77 750.299 55.728 750.647 55.728C751.631 55.728 752.471 56.016 753.167 56.592C753.863 57.168 754.211 58.08 754.211 59.328C754.211 60.576 753.815 61.536 753.023 62.208C752.231 62.88 751.337 63.216 750.341 63.216ZM762.961 63.216C761.485 63.216 760.255 62.676 759.271 61.596C758.299 60.516 757.813 59.016 757.813 57.096C757.813 55.2 758.311 53.706 759.307 52.614C760.303 51.522 761.551 50.976 763.051 50.976C763.771 50.976 764.401 51.126 764.941 51.426C765.493 51.714 765.943 52.05 766.291 52.434L765.481 53.406C765.169 53.07 764.815 52.8 764.419 52.596C764.023 52.392 763.573 52.29 763.069 52.29C761.953 52.29 761.053 52.722 760.369 53.586C759.697 54.438 759.361 55.596 759.361 57.06C759.361 58.548 759.691 59.73 760.351 60.606C761.011 61.47 761.899 61.902 763.015 61.902C763.579 61.902 764.083 61.788 764.527 61.56C764.971 61.32 765.379 60.99 765.751 60.57L766.579 61.506C766.111 62.046 765.583 62.466 764.995 62.766C764.407 63.066 763.729 63.216 762.961 63.216ZM770.58 63V51.192H777.384V52.452H772.074V56.448H776.574V57.708H772.074V63H770.58ZM781.274 63V51.192H788.078V52.452H782.768V56.448H787.268V57.708H782.768V63H781.274ZM791.969 63V51.192H798.773V52.452H793.463V56.448H797.963V57.708H793.463V63H791.969Z" fill="black"/>
<path d="M726.168 235.302H728.544L728.868 232.638H726.492L726.168 235.302ZM724.62 240L725.07 236.328H723.63V235.302H725.196L725.52 232.638H723.99V231.594H725.646L726.06 228.3H727.014L726.6 231.594H728.994L729.426 228.3H730.38L729.948 231.594H731.406V232.638H729.84L729.516 235.302H731.046V236.328H729.39L728.94 240H727.986L728.418 236.328H726.042L725.592 240H724.62ZM735.169 240V238.776H737.797V230.316H735.709V229.362C736.225 229.278 736.681 229.164 737.077 229.02C737.473 228.876 737.827 228.708 738.139 228.516H739.273V238.776H741.649V240H735.169ZM750.579 240.216C749.103 240.216 747.873 239.676 746.889 238.596C745.917 237.516 745.431 236.016 745.431 234.096C745.431 232.2 745.929 230.706 746.925 229.614C747.921 228.522 749.169 227.976 750.669 227.976C751.389 227.976 752.019 228.126 752.559 228.426C753.111 228.714 753.561 229.05 753.909 229.434L753.099 230.406C752.787 230.07 752.433 229.8 752.037 229.596C751.641 229.392 751.191 229.29 750.687 229.29C749.571 229.29 748.671 229.722 747.987 230.586C747.315 231.438 746.979 232.596 746.979 234.06C746.979 235.548 747.309 236.73 747.969 237.606C748.629 238.47 749.517 238.902 750.633 238.902C751.197 238.902 751.701 238.788 752.145 238.56C752.589 238.32 752.997 237.99 753.369 237.57L754.197 238.506C753.729 239.046 753.201 239.466 752.613 239.766C752.025 240.066 751.347 240.216 750.579 240.216ZM760.826 240.216C759.914 240.216 759.152 240.054 758.54 239.73C757.928 239.394 757.43 239.016 757.046 238.596L757.802 237.624C758.138 237.984 758.54 238.302 759.008 238.578C759.488 238.854 760.064 238.992 760.736 238.992C761.432 238.992 762.002 238.8 762.446 238.416C762.89 238.032 763.112 237.522 763.112 236.886C763.112 236.202 762.842 235.65 762.302 235.23C761.762 234.81 760.808 234.6 759.44 234.6V233.466C760.664 233.466 761.51 233.262 761.978 232.854C762.458 232.434 762.698 231.924 762.698 231.324C762.698 230.772 762.518 230.334 762.158 230.01C761.81 229.674 761.33 229.506 760.718 229.506C760.238 229.506 759.794 229.62 759.386 229.848C758.978 230.064 758.606 230.34 758.27 230.676L757.478 229.74C757.922 229.332 758.414 228.99 758.954 228.714C759.494 228.438 760.1 228.3 760.772 228.3C761.768 228.3 762.59 228.558 763.238 229.074C763.886 229.578 764.21 230.292 764.21 231.216C764.21 231.912 764.018 232.482 763.634 232.926C763.25 233.37 762.746 233.712 762.122 233.952V234.024C762.818 234.192 763.406 234.522 763.886 235.014C764.366 235.506 764.606 236.148 764.606 236.94C764.606 237.96 764.24 238.764 763.508 239.352C762.776 239.928 761.882 240.216 760.826 240.216ZM775.551 236.526C775.551 237.618 775.215 238.506 774.543 239.19C773.871 239.874 773.073 240.216 772.149 240.216C771.021 240.216 770.079 239.76 769.323 238.848C768.567 237.924 768.189 236.538 768.189 234.69C768.189 233.154 768.393 231.918 768.801 230.982C769.221 230.046 769.761 229.368 770.421 228.948C771.093 228.516 771.807 228.3 772.563 228.3C773.187 228.3 773.721 228.42 774.165 228.66C774.621 228.888 775.011 229.176 775.335 229.524L774.507 230.442C774.003 229.842 773.373 229.542 772.617 229.542C771.813 229.542 771.117 229.902 770.529 230.622C769.941 231.33 769.629 232.596 769.593 234.42C769.953 233.988 770.373 233.64 770.853 233.376C771.333 233.112 771.807 232.98 772.275 232.98C773.271 232.98 774.063 233.28 774.651 233.88C775.251 234.468 775.551 235.35 775.551 236.526ZM772.149 239.046C772.713 239.046 773.187 238.818 773.571 238.362C773.955 237.894 774.147 237.282 774.147 236.526C774.147 235.782 773.967 235.194 773.607 234.762C773.259 234.318 772.731 234.096 772.023 234.096C771.651 234.096 771.249 234.216 770.817 234.456C770.385 234.696 769.989 235.08 769.629 235.608C769.821 237.9 770.661 239.046 772.149 239.046ZM786.298 236.526C786.298 237.618 785.962 238.506 785.29 239.19C784.618 239.874 783.82 240.216 782.896 240.216C781.768 240.216 780.826 239.76 780.07 238.848C779.314 237.924 778.936 236.538 778.936 234.69C778.936 233.154 779.14 231.918 779.548 230.982C779.968 230.046 780.508 229.368 781.168 228.948C781.84 228.516 782.554 228.3 783.31 228.3C783.934 228.3 784.468 228.42 784.912 228.66C785.368 228.888 785.758 229.176 786.082 229.524L785.254 230.442C784.75 229.842 784.12 229.542 783.364 229.542C782.56 229.542 781.864 229.902 781.276 230.622C780.688 231.33 780.376 232.596 780.34 234.42C780.7 233.988 781.12 233.64 781.6 233.376C782.08 233.112 782.554 232.98 783.022 232.98C784.018 232.98 784.81 233.28 785.398 233.88C785.998 234.468 786.298 235.35 786.298 236.526ZM782.896 239.046C783.46 239.046 783.934 238.818 784.318 238.362C784.702 237.894 784.894 237.282 784.894 236.526C784.894 235.782 784.714 235.194 784.354 234.762C784.006 234.318 783.478 234.096 782.77 234.096C782.398 234.096 781.996 234.216 781.564 234.456C781.132 234.696 780.736 235.08 780.376 235.608C780.568 237.9 781.408 239.046 782.896 239.046ZM797.046 236.526C797.046 237.618 796.71 238.506 796.038 239.19C795.366 239.874 794.568 240.216 793.644 240.216C792.516 240.216 791.574 239.76 790.818 238.848C790.062 237.924 789.684 236.538 789.684 234.69C789.684 233.154 789.888 231.918 790.296 230.982C790.716 230.046 791.256 229.368 791.916 228.948C792.588 228.516 793.302 228.3 794.058 228.3C794.682 228.3 795.216 228.42 795.66 228.66C796.116 228.888 796.506 229.176 796.83 229.524L796.002 230.442C795.498 229.842 794.868 229.542 794.112 229.542C793.308 229.542 792.612 229.902 792.024 230.622C791.436 231.33 791.124 232.596 791.088 234.42C791.448 233.988 791.868 233.64 792.348 233.376C792.828 233.112 793.302 232.98 793.77 232.98C794.766 232.98 795.558 233.28 796.146 233.88C796.746 234.468 797.046 235.35 797.046 236.526ZM793.644 239.046C794.208 239.046 794.682 238.818 795.066 238.362C795.45 237.894 795.642 237.282 795.642 236.526C795.642 235.782 795.462 235.194 795.102 234.762C794.754 234.318 794.226 234.096 793.518 234.096C793.146 234.096 792.744 234.216 792.312 234.456C791.88 234.696 791.484 235.08 791.124 235.608C791.316 237.9 792.156 239.046 793.644 239.046Z" fill="white"/>
<path d="M902.168 58.302H904.544L904.868 55.638H902.492L902.168 58.302ZM900.62 63L901.07 59.328H899.63V58.302H901.196L901.52 55.638H899.99V54.594H901.646L902.06 51.3H903.014L902.6 54.594H904.994L905.426 51.3H906.38L905.948 54.594H907.406V55.638H905.84L905.516 58.302H907.046V59.328H905.39L904.94 63H903.986L904.418 59.328H902.042L901.592 63H900.62ZM911.367 63V51.192H914.319C916.143 51.192 917.529 51.702 918.477 52.722C919.425 53.73 919.899 55.17 919.899 57.042C919.899 58.926 919.425 60.39 918.477 61.434C917.529 62.478 916.167 63 914.391 63H911.367ZM912.861 61.776H914.211C915.591 61.776 916.623 61.362 917.307 60.534C918.003 59.706 918.351 58.542 918.351 57.042C918.351 55.554 918.003 54.414 917.307 53.622C916.623 52.818 915.591 52.416 914.211 52.416H912.861V61.776ZM926.1 56.394L925.542 58.194H929.088L928.53 56.394C928.314 55.734 928.11 55.08 927.918 54.432C927.726 53.772 927.534 53.1 927.342 52.416H927.27C927.09 53.1 926.904 53.772 926.712 54.432C926.52 55.08 926.316 55.734 926.1 56.394ZM930.582 63L929.466 59.4H925.164L924.03 63H922.5L926.496 51.192H928.188L932.184 63H930.582ZM935.657 63V51.192H942.461V52.452H937.151V56.16H941.633V57.438H937.151V61.722H942.641V63H935.657ZM948.515 63C948.575 61.56 948.725 60.27 948.965 59.13C949.205 57.978 949.553 56.898 950.009 55.89C950.477 54.87 951.089 53.838 951.845 52.794H946.121V51.516H953.519V52.434C952.619 53.598 951.929 54.702 951.449 55.746C950.969 56.778 950.633 57.876 950.441 59.04C950.249 60.192 950.117 61.512 950.045 63H948.515ZM957.696 63V51.192H964.5V52.452H959.19V56.448H963.69V57.708H959.19V63H957.696ZM968.391 63V51.192H975.195V52.452H969.885V56.448H974.385V57.708H969.885V63H968.391Z" fill="black"/>
<path d="M902.168 235.302H904.544L904.868 232.638H902.492L902.168 235.302ZM900.62 240L901.07 236.328H899.63V235.302H901.196L901.52 232.638H899.99V231.594H901.646L902.06 228.3H903.014L902.6 231.594H904.994L905.426 228.3H906.38L905.948 231.594H907.406V232.638H905.84L905.516 235.302H907.046V236.328H905.39L904.94 240H903.986L904.418 236.328H902.042L901.592 240H900.62ZM914.229 240.216C913.077 240.216 912.171 239.7 911.511 238.668C910.863 237.636 910.539 236.154 910.539 234.222C910.539 232.29 910.863 230.82 911.511 229.812C912.171 228.804 913.077 228.3 914.229 228.3C915.369 228.3 916.263 228.804 916.911 229.812C917.571 230.82 917.901 232.29 917.901 234.222C917.901 236.154 917.571 237.636 916.911 238.668C916.263 239.7 915.369 240.216 914.229 240.216ZM914.229 239.028C914.889 239.028 915.423 238.65 915.831 237.894C916.251 237.126 916.461 235.902 916.461 234.222C916.461 232.542 916.251 231.336 915.831 230.604C915.423 229.86 914.889 229.488 914.229 229.488C913.557 229.488 913.011 229.86 912.591 230.604C912.183 231.336 911.979 232.542 911.979 234.222C911.979 235.902 912.183 237.126 912.591 237.894C913.011 238.65 913.557 239.028 914.229 239.028ZM922.115 240V228.192H928.919V229.452H923.609V233.16H928.091V234.438H923.609V238.722H929.099V240H922.115ZM933.209 240V238.776H935.837V230.316H933.749V229.362C934.265 229.278 934.721 229.164 935.117 229.02C935.513 228.876 935.867 228.708 936.179 228.516H937.313V238.776H939.689V240H933.209ZM944.154 240V228.192H947.664C948.864 228.192 949.836 228.414 950.58 228.858C951.336 229.302 951.714 230.04 951.714 231.072C951.714 231.66 951.564 232.194 951.264 232.674C950.964 233.142 950.538 233.466 949.986 233.646V233.718C950.694 233.85 951.27 234.15 951.714 234.618C952.17 235.086 952.398 235.728 952.398 236.544C952.398 237.708 951.978 238.578 951.138 239.154C950.31 239.718 949.236 240 947.916 240H944.154ZM945.648 233.214H947.394C948.402 233.214 949.128 233.04 949.572 232.692C950.016 232.344 950.238 231.87 950.238 231.27C950.238 230.586 950.004 230.1 949.536 229.812C949.068 229.524 948.378 229.38 947.466 229.38H945.648V233.214ZM945.648 238.812H947.7C948.72 238.812 949.512 238.626 950.076 238.254C950.64 237.87 950.922 237.282 950.922 236.49C950.922 235.758 950.64 235.224 950.076 234.888C949.524 234.54 948.732 234.366 947.7 234.366H945.648V238.812ZM959.164 240.216C958.252 240.216 957.49 240.054 956.878 239.73C956.266 239.394 955.768 239.016 955.384 238.596L956.14 237.624C956.476 237.984 956.878 238.302 957.346 238.578C957.826 238.854 958.402 238.992 959.074 238.992C959.77 238.992 960.34 238.8 960.784 238.416C961.228 238.032 961.45 237.522 961.45 236.886C961.45 236.202 961.18 235.65 960.64 235.23C960.1 234.81 959.146 234.6 957.778 234.6V233.466C959.002 233.466 959.848 233.262 960.316 232.854C960.796 232.434 961.036 231.924 961.036 231.324C961.036 230.772 960.856 230.334 960.496 230.01C960.148 229.674 959.668 229.506 959.056 229.506C958.576 229.506 958.132 229.62 957.724 229.848C957.316 230.064 956.944 230.34 956.608 230.676L955.816 229.74C956.26 229.332 956.752 228.99 957.292 228.714C957.832 228.438 958.438 228.3 959.11 228.3C960.106 228.3 960.928 228.558 961.576 229.074C962.224 229.578 962.548 230.292 962.548 231.216C962.548 231.912 962.356 232.482 961.972 232.926C961.588 233.37 961.084 233.712 960.46 233.952V234.024C961.156 234.192 961.744 234.522 962.224 235.014C962.704 235.506 962.944 236.148 962.944 236.94C962.944 237.96 962.578 238.764 961.846 239.352C961.114 239.928 960.22 240.216 959.164 240.216ZM969.911 240.216C968.999 240.216 968.237 240.054 967.625 239.73C967.013 239.394 966.515 239.016 966.131 238.596L966.887 237.624C967.223 237.984 967.625 238.302 968.093 238.578C968.573 238.854 969.149 238.992 969.821 238.992C970.517 238.992 971.087 238.8 971.531 238.416C971.975 238.032 972.197 237.522 972.197 236.886C972.197 236.202 971.927 235.65 971.387 235.23C970.847 234.81 969.893 234.6 968.525 234.6V233.466C969.749 233.466 970.595 233.262 971.063 232.854C971.543 232.434 971.783 231.924 971.783 231.324C971.783 230.772 971.603 230.334 971.243 230.01C970.895 229.674 970.415 229.506 969.803 229.506C969.323 229.506 968.879 229.62 968.471 229.848C968.063 230.064 967.691 230.34 967.355 230.676L966.563 229.74C967.007 229.332 967.499 228.99 968.039 228.714C968.579 228.438 969.185 228.3 969.857 228.3C970.853 228.3 971.675 228.558 972.323 229.074C972.971 229.578 973.295 230.292 973.295 231.216C973.295 231.912 973.103 232.482 972.719 232.926C972.335 233.37 971.831 233.712 971.207 233.952V234.024C971.903 234.192 972.491 234.522 972.971 235.014C973.451 235.506 973.691 236.148 973.691 236.94C973.691 237.96 973.325 238.764 972.593 239.352C971.861 239.928 970.967 240.216 969.911 240.216Z" fill="white"/>
</svg>
